<?xml version="1.0" encoding="UTF-8" standalone="no"?><!DOCTYPE svg PUBLIC "-//W3C//DTD SVG 1.1//EN" "http://www.w3.org/Graphics/SVG/1.1/DTD/svg11.dtd"><svg width="100%" height="100%" viewBox="0 0 26 21" version="1.1" xmlns="http://www.w3.org/2000/svg" xmlns:xlink="http://www.w3.org/1999/xlink" xml:space="preserve" xmlns:serif="http://www.serif.com/" style="fill-rule:evenodd;clip-rule:evenodd;"><path id="godot-left-stub" d="M6.13,9.668c0,-1.119 -1.358,-1.881 -2.476,-1.881c-0.52,0.462 -0.752,0.683 -1.123,1.15c-0.276,0.346 -0.519,0.698 -0.83,1.146c-0,1.119 1.256,2.149 2.374,2.149c1.119,0 2.055,-1.445 2.055,-2.564Z" style="fill:#418cbf;stroke:#000;stroke-width:0.83px;"/><path id="godot-lefttop-stub" d="M11.348,7.737c0.622,-0.93 -0.082,-2.319 -1.012,-2.941c-0.689,0.095 -1.004,0.15 -1.573,0.331c-0.421,0.135 -0.819,0.291 -1.327,0.491c-0.622,0.929 -0.152,2.485 0.778,3.107c0.929,0.622 2.512,-0.059 3.134,-0.988Z" style="fill:#418cbf;stroke:#000;stroke-width:0.83px;"/><path id="godot-right-stub" d="M18.938,9.668c0,-1.119 1.358,-1.881 2.477,-1.881c0.519,0.462 0.751,0.683 1.123,1.15c0.275,0.346 0.518,0.698 0.83,1.146c-0,1.119 -1.257,2.149 -2.375,2.149c-1.119,0 -2.055,-1.445 -2.055,-2.564Z" style="fill:#418cbf;stroke:#000;stroke-width:0.83px;"/><path id="godot-lefttop-stub1" serif:id="godot-lefttop-stub" d="M14.209,7.737c-0.622,-0.93 0.083,-2.319 1.012,-2.941c0.689,0.095 1.005,0.15 1.573,0.331c0.421,0.135 0.819,0.291 1.327,0.491c0.622,0.929 0.152,2.485 -0.778,3.107c-0.929,0.622 -2.511,-0.059 -3.134,-0.988Z" style="fill:#418cbf;stroke:#000;stroke-width:0.83px;"/><path id="antenna" d="M18.218,2.971l-4.053,-0.954l-1.49,4.708" style="fill:none;fill-rule:nonzero;stroke:#000;stroke-width:0.83px;stroke-linecap:round;stroke-linejoin:round;"/><path id="antenna-bulb" d="M21.469,3.298c-0,-0.881 -0.716,-1.597 -1.598,-1.597c-0.881,-0 -1.597,0.716 -1.597,1.597c-0,0.882 0.716,1.598 1.597,1.598c0.882,-0 1.598,-0.716 1.598,-1.598Z" style="fill:#414042;stroke:#000;stroke-width:0.83px;"/><path id="snoo-head" d="M21.734,12.871c-0,-3.307 -4.113,-5.991 -9.179,-5.991c-5.066,0 -9.179,2.684 -9.179,5.991c0,3.306 4.113,5.99 9.179,5.99c5.066,-0 9.179,-2.684 9.179,-5.99Z" style="fill:#418cbf;stroke:#000;stroke-width:0.83px;"/><g id="left-eye"><path d="M10.441,11.701c0,-0.592 -0.48,-1.073 -1.072,-1.073c-0.593,0 -1.073,0.481 -1.073,1.073c-0,0.592 0.48,1.073 1.073,1.073c0.592,-0 1.072,-0.481 1.072,-1.073Z" style="fill:#fefffe;stroke:#fefffe;stroke-width:0.83px;"/><path d="M10.748,11.701c-0,0.593 -0.481,1.073 -1.073,1.073c-0.593,-0 -1.073,-0.48 -1.073,-1.073c-0,-0.593 0.48,-1.073 1.073,-1.073c0.592,0 1.073,0.48 1.073,1.073" style="fill:#414042;fill-rule:nonzero;"/></g><g id="right-eye"><path d="M16.909,11.701c-0,-0.592 -0.481,-1.073 -1.073,-1.073c-0.592,0 -1.073,0.481 -1.073,1.073c0,0.592 0.481,1.073 1.073,1.073c0.592,-0 1.073,-0.481 1.073,-1.073Z" style="fill:#fefffe;stroke:#fefffe;stroke-width:0.83px;"/><path d="M16.621,11.701c0,0.593 -0.481,1.073 -1.073,1.073c-0.592,-0 -1.073,-0.48 -1.073,-1.073c0,-0.593 0.481,-1.073 1.073,-1.073c0.592,0 1.073,0.48 1.073,1.073" style="fill:#414042;fill-rule:nonzero;"/></g><path id="godot-mouth" d="M6.738,14.286l0,-0Zm2.114,0.282c0.163,0.014 0.291,0.137 0.303,0.29l0.096,1.284l1.932,0.181l0.187,-1.185c0.024,-0.154 0.166,-0.268 0.333,-0.268l1.497,0c0.167,0 0.309,0.114 0.333,0.268l0.187,1.185l2.048,-0.181l0.096,-1.284c0.012,-0.153 0.14,-0.276 0.303,-0.29l2.205,-0.282c-0,-0 0.005,0.679 0.005,0.628l-1.862,0.252l-0.097,1.291c-0.011,0.156 -0.144,0.28 -0.311,0.291l-2.65,0.221c-0.008,0.001 -0.016,0.001 -0.024,0.001c-0.165,-0 -0.308,-0.113 -0.332,-0.268l-0.191,-1.205l-0.917,-0l-0.191,1.205c-0.025,0.162 -0.181,0.279 -0.356,0.267l-2.534,-0.221c-0.167,-0.011 -0.3,-0.135 -0.311,-0.291l-0.097,-1.291l-1.771,-0.252c0,0.066 0.005,-0.628 0.005,-0.628l2.114,0.282Z" style="fill:#010001;fill-rule:nonzero;"/></svg>
