<svg width="16" height="16" enable-background="new" version="1.1" viewBox="0 0 16 16" xmlns="http://www.w3.org/2000/svg">
<path d="m13.371 12.199c0.35955-0.0075 0.71909-0.015 1.0786-0.0225-4e-3 -0.73858-8e-3 -1.4772-0.01198-2.2157l-4.2891 0.035955c4e-3 0.75967 8e-3 1.5193 0.01198 2.279 0.40349-0.01135 0.80698-0.02271 1.2105-0.03406v3.755h2m-7.27-3.7493c0.33272 0.21587 0.66544 0.43174 0.99817 0.64761-0.33286 0.21865-0.66573 0.4373-0.99859 0.65594l-3e-7 2.4541c0.56627-0.53375 1.1325-1.0675 1.6988-1.6012 0.6353 0.5324 1.2706 1.0648 1.9059 1.5972-9.5e-4 -0.75741-0.0019-1.5148-0.00285-2.2722-0.29872-0.2785-0.59744-0.557-0.89616-0.8355 0.29838-0.20578 0.59675-0.41155 0.89513-0.61732 0.00283-0.73844 0.00565-1.4769 0.00848-2.2153-0.63732 0.47445-1.2746 0.94889-1.912 1.4233-0.56564-0.5043-1.1313-1.0086-1.6969-1.5129m-1.4606 2.2314c0.35955-0.0075 0.71909-0.015 1.0786-0.0225-0.00399-0.73858-0.00799-1.4772-0.011985-2.2157-1.4297 0.011985-2.8594 0.02397-4.2891 0.035955 0.00399 0.75967 0.00799 1.5193 0.011985 2.279 0.40349-0.01135 0.80698-0.02271 1.2105-0.03406v3.755h2m2.3601-15-0.56445 2.2578c-0.38339 0.13792-0.74119 0.40416-1.0766 0.046955-0.53373-0.32035-1.0675-0.6407-1.6012-0.96105l-1.4141 1.4141c0.39843 0.6647 0.79687 1.3294 1.1953 1.9941-0.17069 0.36973-0.23313 0.81069-0.72321 0.79487-0.60528 0.15106-1.2106 0.30212-1.8159 0.45318v2h5.2715c-0.68693-1.08-0.013344-2.6626 1.2287-2.937 1.2082-0.3582 2.5455 0.67778 2.4998 1.937 0.10441 0.46574-0.60523 1.1778 0.18195 1h4.818v-2l-2.2578-0.56445c-0.13867-0.38268-0.40361-0.73965-0.047118-1.0747 0.32041-0.53433 0.64081-1.0687 0.96122-1.603-0.47137-0.47137-0.94273-0.94273-1.4141-1.4141-0.6647 0.39843-1.3294 0.79687-1.9941 1.1953-0.36973-0.17069-0.81069-0.23313-0.79487-0.72321-0.15106-0.60528-0.30212-1.2106-0.45318-1.8159-0.66663 4.002e-5 -1.3335-8.002e-5 -2 6e-5z" fill="#e0e0e0"/>
</svg>
