<svg width="16" height="12" version="1.1" viewBox="0 0 16 12" xmlns="http://www.w3.org/2000/svg">
<path d="m 8,2 v 2 h 2 C 10,4.55228 9.55228,5 9,5 v 2 c 0.55228,0 1,0.44772 1,1 0,0.55228 -0.44772,1 -1,1 H 8 v 2 h 1 c 1.0717,-1.34e-4 2.0619,-0.57191 2.5977,-1.5 0.5359,-0.9282 0.5359,-2.0718 0,-3 C 11.49364,6.3205 11.37124,6.15229 11.23247,5.99805 11.37102,5.84504 11.49341,5.67814 11.5977,5.5 11.85979,5.04361 11.9972,4.52629 11.99614,4 h 0.0039 V 2 Z M 2,4 v 6 H 4 C 5.6569,10 7,8.6569 7,7 V 4 H 5 V 7 C 5,7.55228 4.55228,8 4,8 V 4 Z M 7,7 C 3,10.3333 5,8.6667 7,7 Z" id="path36" inkscape:connector-curvature="0" style="fill:#ad86f0" />
<path d="m 8,2 v 2 h 2 A 1,1 0 0 1 9,5 V 7 A 1,1 0 0 1 10,8 1,1 0 0 1 9,9 H 8 v 2 h 1 a 3,3 0 0 0 2.5977,-1.5 3,3 0 0 0 0,-3 A 3,3 0 0 0 11.23247,5.99805 3,3 0 0 0 11.5977,5.5 3,3 0 0 0 11.99614,4 h 0.0039 V 2 Z" id="path38" inkscape:connector-curvature="0" style="fill:#ffffff;fill-opacity:0.39216003" />
<path d="m12 2v2h2v-2zm0 4v4h2v-4z" fill="#ad86f0" id="path40" />
<path style="fill:#e0e0e0;fill-opacity:1;stroke:none;stroke-width:2;stroke-linecap:round;stroke-linejoin:round;stroke-miterlimit:4;stroke-dasharray:none;stroke-opacity:1" d="M 0,0 V 12 H 4 V 10 H 2 V 2 H 4 V 0 Z m 12,0 v 2 h 2 v 8 h -2 v 2 h 4 V 0 Z" id="rect4158" inkscape:connector-curvature="0" sodipodi:nodetypes="cccccccccccccccccc" />
</svg>
