<svg width="16" height="16" version="1.1" viewBox="0 0 16 16" xmlns="http://www.w3.org/2000/svg">
<g transform="translate(0 -1036.4)" fill="#e0e0e0" fill-opacity=".99608">
<path d="m8 1038.4c-3.3137 0-6 2.6863-6 6 9.5e-6 3.3137 2.6863 6 6 6v-2c-2.2091 0-4-1.7909-4-4s1.7909-4 4-4c1.0604 0 2.0769 0.4234 2.8262 1.1738l1.4141-1.414c-1.1242-1.1255-2.6494-1.7585-4.2402-1.7598z"/>
<path transform="matrix(-.84328 -.84328 -1.0954 1.0954 1161.2 -101.93)" d="m4.118 1048.3-3.3541-1.9364 1.6771-0.9683 1.6771-0.9682-1e-7 1.9365z"/>
</g>
</svg>
