<?xml version="1.0" encoding="UTF-8" standalone="no"?>
<!-- Created with Inkscape (http://www.inkscape.org/) -->

<svg
   xmlns:dc="http://purl.org/dc/elements/1.1/"
   xmlns:cc="http://creativecommons.org/ns#"
   xmlns:rdf="http://www.w3.org/1999/02/22-rdf-syntax-ns#"
   xmlns:svg="http://www.w3.org/2000/svg"
   xmlns="http://www.w3.org/2000/svg"
   xmlns:sodipodi="http://sodipodi.sourceforge.net/DTD/sodipodi-0.dtd"
   xmlns:inkscape="http://www.inkscape.org/namespaces/inkscape"
   width="16"
   height="16"
   viewBox="0 0 16 16"
   id="svg2"
   version="1.1"
   inkscape:version="0.92.2 (5c3e80d, 2017-08-06)"
   inkscape:export-filename="/home/djrm/Projects/godot/tools/editor/icons/icon_color_picker_button.png"
   inkscape:export-xdpi="90"
   inkscape:export-ydpi="90"
   sodipodi:docname="icon_color_picker_button.svg">
  <defs
     id="defs4" />
  <sodipodi:namedview
     id="base"
     pagecolor="#ffffff"
     bordercolor="#666666"
     borderopacity="1.0"
     inkscape:pageopacity="0.0"
     inkscape:pageshadow="2"
     inkscape:zoom="22.627417"
     inkscape:cx="2.9223853"
     inkscape:cy="6.5935808"
     inkscape:document-units="px"
     inkscape:current-layer="layer1"
     showgrid="true"
     units="px"
     inkscape:snap-bbox="true"
     inkscape:bbox-paths="true"
     inkscape:bbox-nodes="true"
     inkscape:snap-bbox-edge-midpoints="true"
     inkscape:snap-bbox-midpoints="true"
     inkscape:snap-object-midpoints="true"
     inkscape:snap-center="true"
     inkscape:window-width="1920"
     inkscape:window-height="1016"
     inkscape:window-x="0"
     inkscape:window-y="27"
     inkscape:window-maximized="1">
    <inkscape:grid
       type="xygrid"
       id="grid3336" />
  </sodipodi:namedview>
  <metadata
     id="metadata7">
    <rdf:RDF>
      <cc:Work
         rdf:about="">
        <dc:format>image/svg+xml</dc:format>
        <dc:type
           rdf:resource="http://purl.org/dc/dcmitype/StillImage" />
        <dc:title />
      </cc:Work>
    </rdf:RDF>
  </metadata>
  <g
     inkscape:label="Layer 1"
     inkscape:groupmode="layer"
     id="layer1">
    <path
       style="fill:#a5efac;fill-opacity:1;stroke:none;stroke-width:2;stroke-linecap:round;stroke-linejoin:round;stroke-miterlimit:4;stroke-dasharray:none;stroke-opacity:1"
       d="M 13 1 C 11.892 1 11 1.892 11 3 L 11 5 L 10 5 L 10 7 L 11 7 L 11 12 A 2 2 0 0 0 12 13.728516 L 12 15 L 14 15 L 14 13.730469 A 2 2 0 0 0 15 12 L 15 7 L 16 7 L 16 5 L 15 5 L 15 3 C 15 1.892 14.108 1 13 1 z M 4 2 L 4 5.1328125 L 2.5546875 4.1679688 L 1.4453125 5.8320312 L 4.4453125 7.8320312 C 4.7812145 8.0559313 5.2187855 8.0559313 5.5546875 7.8320312 L 8.5546875 5.8320312 L 7.4453125 4.1679688 L 6 5.1328125 L 6 2 L 4 2 z M 12 7 L 14 7 L 14 12 A 1.0000174 1.0000174 0 0 1 13 13 A 1.0000174 1.0000174 0 0 1 12 12 L 12 7 z M 3.5 10 C 2.669 10 2 10.669 2 11.5 L 2 12 L 2 13 L 1 13 L 1 15 L 9 15 L 9 13 L 8 13 L 8 12 L 8 11.5 C 8 10.669 7.331 10 6.5 10 L 3.5 10 z "
       id="rect814" />
  </g>
</svg>
