<?xml version="1.0" encoding="UTF-8" standalone="no"?>
<!-- Created with Inkscape (http://www.inkscape.org/) -->

<svg
   xmlns:dc="http://purl.org/dc/elements/1.1/"
   xmlns:cc="http://creativecommons.org/ns#"
   xmlns:rdf="http://www.w3.org/1999/02/22-rdf-syntax-ns#"
   xmlns:svg="http://www.w3.org/2000/svg"
   xmlns="http://www.w3.org/2000/svg"
   xmlns:sodipodi="http://sodipodi.sourceforge.net/DTD/sodipodi-0.dtd"
   xmlns:inkscape="http://www.inkscape.org/namespaces/inkscape"
   width="16"
   height="16"
   viewBox="0 0 16 16"
   id="svg2"
   version="1.1"
   inkscape:version="0.92.3 (2405546, 2018-03-11)"
   inkscape:export-filename="/home/djrm/Projects/godot/tools/editor/icons/icon_canvas_item_shader_graph.png"
   inkscape:export-xdpi="90"
   inkscape:export-ydpi="90"
   sodipodi:docname="icon_c_#.svg">
  <defs
     id="defs4" />
  <sodipodi:namedview
     id="base"
     pagecolor="#ffffff"
     bordercolor="#666666"
     borderopacity="1.0"
     inkscape:pageopacity="0.0"
     inkscape:pageshadow="2"
     inkscape:zoom="45.254832"
     inkscape:cx="4.6743213"
     inkscape:cy="7.5072631"
     inkscape:document-units="px"
     inkscape:current-layer="layer1"
     showgrid="true"
     units="px"
     inkscape:snap-bbox="true"
     inkscape:bbox-paths="true"
     inkscape:bbox-nodes="true"
     inkscape:snap-bbox-edge-midpoints="true"
     inkscape:snap-bbox-midpoints="true"
     inkscape:snap-object-midpoints="true"
     inkscape:snap-center="true"
     inkscape:window-width="1920"
     inkscape:window-height="1052"
     inkscape:window-x="0"
     inkscape:window-y="28"
     inkscape:window-maximized="1"
     inkscape:snap-smooth-nodes="true"
     inkscape:object-nodes="true">
    <inkscape:grid
       type="xygrid"
       id="grid3336" />
  </sodipodi:namedview>
  <metadata
     id="metadata7">
    <rdf:RDF>
      <cc:Work
         rdf:about="">
        <dc:format>image/svg+xml</dc:format>
        <dc:type
           rdf:resource="http://purl.org/dc/dcmitype/StillImage" />
        <dc:title />
      </cc:Work>
    </rdf:RDF>
  </metadata>
  <g
     inkscape:label="Layer 1"
     inkscape:groupmode="layer"
     id="layer1"
     transform="translate(0,-1036.3622)">
    <path
       id="path817"
       style="fill:#e0e0e0"
       d="m 6,1046.3622 c -1.6569,0 -3,1.3431 -3,3 0,1.6569 1.3431,3 3,3 h 1 v -2 H 6 c -0.55228,0 -1,-0.4478 -1,-1 0,-0.5523 0.44772,-1 1,-1 h 1 v -2 z m 1,-9 -0.5644531,2.2578 c -0.2364339,0.076 -0.4668892,0.1692 -0.6894531,0.2793 l -1.9882813,-1.1933 -1.4140625,1.414 1.1953125,1.9942 c -0.1119111,0.2211 -0.207226,0.4502 -0.2851563,0.6855 L 1,1043.3622 v 2 h 5.2714844 c -0.1767718,-0.3037 -0.2704093,-0.6486 -0.2714844,-1 9.6e-6,-1.1046 0.8954345,-2 2,-2 1.1045655,0 1.9999904,0.8954 2,2 -4.817e-4,0.3512 -0.093442,0.6961 -0.2695312,1 H 15 v -2 l -2.257812,-0.5645 c -0.07594,-0.2357 -0.169297,-0.4655 -0.279297,-0.6875 l 1.193359,-1.9902 -1.414062,-1.414 -1.994141,1.1953 c -0.221133,-0.1119 -0.4502799,-0.2073 -0.685547,-0.2852 L 9,1037.3622 Z m 4,9 c -0.714664,-10e-5 -1.37509,0.3811 -1.7324219,1 -0.3572656,0.6188 -0.3572656,1.3812 0,2 0.3573319,0.6189 1.0177579,1.0001 1.7324219,1 H 9 v 2 h 2 c 0.714664,10e-5 1.37509,-0.3811 1.732422,-1 0.357266,-0.6188 0.357266,-1.3812 0,-2 -0.357332,-0.6189 -1.017758,-1.0001 -1.732422,-1 h 2 v -2 z" />
  </g>
</svg>
