<?xml version="1.0" encoding="UTF-8" standalone="no"?>
<!-- Created with Inkscape (http://www.inkscape.org/) -->

<svg
   xmlns:dc="http://purl.org/dc/elements/1.1/"
   xmlns:cc="http://creativecommons.org/ns#"
   xmlns:rdf="http://www.w3.org/1999/02/22-rdf-syntax-ns#"
   xmlns:svg="http://www.w3.org/2000/svg"
   xmlns="http://www.w3.org/2000/svg"
   xmlns:sodipodi="http://sodipodi.sourceforge.net/DTD/sodipodi-0.dtd"
   xmlns:inkscape="http://www.inkscape.org/namespaces/inkscape"
   width="16"
   height="12"
   viewBox="0 0 16 12"
   id="svg2"
   version="1.1"
   inkscape:version="0.92.2 (5c3e80d, 2017-08-06)"
   inkscape:export-filename="/home/djrm/Projects/godot/tools/editor/icons/icon_add_track.png"
   inkscape:export-xdpi="45"
   inkscape:export-ydpi="45"
   sodipodi:docname="icon_enum.svg">
  <defs
     id="defs4" />
  <sodipodi:namedview
     id="base"
     pagecolor="#ffffff"
     bordercolor="#666666"
     borderopacity="1.0"
     inkscape:pageopacity="0.0"
     inkscape:pageshadow="2"
     inkscape:zoom="32"
     inkscape:cx="8.9530549"
     inkscape:cy="0.21481219"
     inkscape:document-units="px"
     inkscape:current-layer="layer1"
     showgrid="true"
     units="px"
     inkscape:snap-bbox="true"
     inkscape:bbox-paths="true"
     inkscape:bbox-nodes="true"
     inkscape:snap-bbox-edge-midpoints="true"
     inkscape:snap-bbox-midpoints="false"
     inkscape:snap-object-midpoints="true"
     inkscape:snap-center="true"
     inkscape:window-width="1920"
     inkscape:window-height="1016"
     inkscape:window-x="0"
     inkscape:window-y="27"
     inkscape:window-maximized="1"
     inkscape:object-nodes="true"
     inkscape:snap-smooth-nodes="true"
     inkscape:document-rotation="0"
     showguides="true">
    <inkscape:grid
       type="xygrid"
       id="grid3336" />
  </sodipodi:namedview>
  <metadata
     id="metadata7">
    <rdf:RDF>
      <cc:Work
         rdf:about="">
        <dc:format>image/svg+xml</dc:format>
        <dc:type
           rdf:resource="http://purl.org/dc/dcmitype/StillImage" />
        <dc:title></dc:title>
      </cc:Work>
    </rdf:RDF>
  </metadata>
  <g
     inkscape:label="Layer 1"
     inkscape:groupmode="layer"
     id="layer1">
    <path
       style="opacity:1;fill:#e0e0e0;fill-opacity:1;fill-rule:nonzero;stroke:none;stroke-width:7.88787413;stroke-linecap:round;stroke-linejoin:round;stroke-miterlimit:4;stroke-dasharray:none;stroke-dashoffset:0;stroke-opacity:1"
       d="M 3,2 C 2.4695977,2.0000801 1.9609485,2.2108464 1.5859375,2.5859375 1.2108464,2.9609485 1.0000801,3.4695977 1,4 V 5 C 0.73479884,5.0000401 0.48047425,5.1054232 0.29296875,5.2929688 0.10542319,5.4804743 4.0076062e-5,5.7347989 0,6 4.0076062e-5,6.2652011 0.10542319,6.5195257 0.29296875,6.7070312 0.48047425,6.8945768 0.73479884,6.9999599 1,7 V 8 C 1.0000801,8.5304023 1.2108464,9.0390515 1.5859375,9.4140625 1.9609485,9.7891536 2.4695977,9.9999199 3,10 H 4 V 8 H 3 V 4 H 4 V 2 Z m 3,0 v 8 h 4 V 8 H 8 V 7 h 2 V 5 H 8 V 4 h 2 V 2 Z m 6,0 v 2 h 1 v 4 h -1 v 2 h 1 C 13.530402,9.9999197 14.039051,9.7891535 14.414062,9.4140625 14.789153,9.0390516 14.99992,8.5304024 15,8 V 7 C 15.265201,6.9999599 15.519526,6.8945767 15.707031,6.7070312 15.894577,6.5195257 15.99996,6.2652012 16,6 15.99996,5.7347988 15.894577,5.4804743 15.707031,5.2929688 15.519526,5.1054233 15.265201,5.0000401 15,5 V 4 C 14.99992,3.4695976 14.789153,2.9609484 14.414062,2.5859375 14.039051,2.2108465 13.530402,2.0000803 13,2 Z"
       id="rect883"
       inkscape:connector-curvature="0"
       sodipodi:nodetypes="ccccccccccccccccccccccccccccccccccccccccccccccccc" />
  </g>
</svg>
