<?xml version="1.0" encoding="UTF-8" standalone="no"?>
<svg
   xmlns:dc="http://purl.org/dc/elements/1.1/"
   xmlns:cc="http://creativecommons.org/ns#"
   xmlns:rdf="http://www.w3.org/1999/02/22-rdf-syntax-ns#"
   xmlns:svg="http://www.w3.org/2000/svg"
   xmlns="http://www.w3.org/2000/svg"
   xmlns:sodipodi="http://sodipodi.sourceforge.net/DTD/sodipodi-0.dtd"
   xmlns:inkscape="http://www.inkscape.org/namespaces/inkscape"
   width="16"
   height="16"
   version="1.1"
   viewBox="0 0 16 16"
   id="svg18"
   sodipodi:docname="icon_style_box_line.svg"
   inkscape:version="0.92.4 5da689c313, 2019-01-14">
  <metadata
     id="metadata24">
    <rdf:RDF>
      <cc:Work
         rdf:about="">
        <dc:format>image/svg+xml</dc:format>
        <dc:type
           rdf:resource="http://purl.org/dc/dcmitype/StillImage" />
        <dc:title />
      </cc:Work>
    </rdf:RDF>
  </metadata>
  <defs
     id="defs22" />
  <sodipodi:namedview
     pagecolor="#ffffff"
     bordercolor="#666666"
     borderopacity="1"
     objecttolerance="10"
     gridtolerance="10"
     guidetolerance="10"
     inkscape:pageopacity="0"
     inkscape:pageshadow="2"
     inkscape:window-width="1366"
     inkscape:window-height="711"
     id="namedview20"
     showgrid="true"
     inkscape:zoom="16"
     inkscape:cx="7.6236472"
     inkscape:cy="1.9812779"
     inkscape:window-x="0"
     inkscape:window-y="27"
     inkscape:window-maximized="1"
     inkscape:current-layer="svg18">
    <inkscape:grid
       type="xygrid"
       id="grid933" />
  </sodipodi:namedview>
  <g
     id="g837">
    <g
       id="g16"
       transform="translate(0 -1036.4)">
      <path
         id="path2"
         fill="#ff7070"
         d="m13.303 1c-0.4344 0-0.86973 0.16881-1.2012 0.50586l-1.4688 1.4941h4.3418c0.082839-0.52789-0.072596-1.0872-0.47266-1.4941-0.33144-0.33705-0.76482-0.50586-1.1992-0.50586z"
         transform="translate(0 1036.4)" />
      <path
         id="path4"
         fill="#ffeb70"
         d="m10.633 3l-1.9668 2h4.8008l1.0352-1.0527c0.2628-0.2673 0.41824-0.60049 0.47266-0.94727h-4.3418z"
         transform="translate(0 1036.4)" />
      <path
         style="fill:#9dff70;fill-opacity:1"
         id="path6"
         transform="translate(0,1036.4)"
         d="M 8.6660156 5 L 6.7011719 7 L 9.5820312 7 C 9.8388912 6.66153 10.076678 6.33066 10.267578 6 C 10.606428 5.4141 11.218561 5.0389063 11.894531 5.0039062 C 12.338521 4.9802647 12.75838 5.1189045 13.113281 5.359375 L 13.466797 5 L 8.6660156 5 z " />
    </g>
    <path
       style="fill:#ff70ac;fill-opacity:1"
       d="M 1.2617188 13 C 1.1788787 13.52789 1.3343148 14.087241 1.734375 14.494141 C 2.065815 14.831191 2.4992138 15 2.9335938 15 C 3.3679938 15 3.8032956 14.831191 4.1347656 14.494141 L 5.6035156 13 L 1.2617188 13 z M 9.1835938 13 C 9.5967134 14.1628 10.6955 15 12 15 C 13.3045 15 14.403306 14.16282 14.816406 13 L 9.1835938 13 z "
       id="path2-3" />
    <path
       style="fill:#9f70ff;fill-opacity:1"
       d="M 2.7695312 11 L 1.734375 12.052734 C 1.4715748 12.320034 1.3161388 12.65322 1.2617188 13 L 5.6035156 13 L 7.0273438 11.552734 C 7.0476313 11.362749 7.0765743 11.177312 7.1171875 11 L 2.7695312 11 z M 9.2304688 11 C 9.0939088 11.32585 9 11.65576 9 12 C 9 12.35235 9.0720138 12.68593 9.1835938 13 L 14.816406 13 C 14.927986 12.68593 15 12.35235 15 12 C 15 11.65576 14.906091 11.32585 14.769531 11 L 9.2304688 11 z "
       id="path4-6" />
    <path
       style="fill:#70deff;fill-opacity:1"
       d="M 4.7363281 9 L 2.7695312 11 L 7.1171875 11 C 7.2967375 10.21605 7.6629565 9.5646 8.0546875 9 L 4.7363281 9 z M 10.564453 9 C 10.011973 9.69003 9.5061684 10.3421 9.2304688 11 L 14.769531 11 C 14.493831 10.34214 13.988037 9.69 13.435547 9 L 10.564453 9 z "
       id="path6-7" />
    <path
       style="fill:#70ffb9"
       d="M 6.7011719 7 L 4.7363281 9 L 8.0546875 9 C 8.1958465 8.79655 8.3397656 8.5976656 8.4785156 8.4160156 C 8.8645256 7.9107156 9.2420112 7.4480602 9.5820312 7 L 6.7011719 7 z M 12 7 C 11.56953 7.7456 11.055443 8.3867 10.564453 9 L 13.435547 9 C 12.944507 8.3867 12.4304 7.7456 12 7 z "
       id="path8-5" />
  </g>
</svg>
