<?xml version="1.0" encoding="UTF-8" standalone="no"?>
<!-- Created with Inkscape (http://www.inkscape.org/) -->

<svg
   xmlns:dc="http://purl.org/dc/elements/1.1/"
   xmlns:cc="http://creativecommons.org/ns#"
   xmlns:rdf="http://www.w3.org/1999/02/22-rdf-syntax-ns#"
   xmlns:svg="http://www.w3.org/2000/svg"
   xmlns="http://www.w3.org/2000/svg"
   xmlns:sodipodi="http://sodipodi.sourceforge.net/DTD/sodipodi-0.dtd"
   xmlns:inkscape="http://www.inkscape.org/namespaces/inkscape"
   width="16"
   height="8"
   viewBox="0 0 16 8"
   id="svg2"
   version="1.1"
   inkscape:version="0.92+devel unknown"
   inkscape:export-filename="/home/djrm/Projects/godot/tools/editor/icons/icon_bone.png"
   inkscape:export-xdpi="90"
   inkscape:export-ydpi="90"
   sodipodi:docname="icon_interp_wrap_clamp.svg">
  <defs
     id="defs4" />
  <sodipodi:namedview
     id="base"
     pagecolor="#ffffff"
     bordercolor="#666666"
     borderopacity="1.0"
     inkscape:pageopacity="0.0"
     inkscape:pageshadow="2"
     inkscape:zoom="45.254834"
     inkscape:cx="8.8989222"
     inkscape:cy="4.5067976"
     inkscape:document-units="px"
     inkscape:current-layer="layer1"
     showgrid="true"
     units="px"
     inkscape:snap-bbox="true"
     inkscape:bbox-paths="true"
     inkscape:bbox-nodes="true"
     inkscape:snap-bbox-edge-midpoints="true"
     inkscape:snap-bbox-midpoints="true"
     inkscape:snap-object-midpoints="true"
     inkscape:snap-center="true"
     inkscape:window-width="1920"
     inkscape:window-height="1016"
     inkscape:window-x="0"
     inkscape:window-y="27"
     inkscape:window-maximized="1"
     showguides="true"
     inkscape:snap-smooth-nodes="true"
     inkscape:object-nodes="true"
     inkscape:object-paths="true"
     inkscape:snap-intersection-paths="true"
     inkscape:document-rotation="0">
    <inkscape:grid
       type="xygrid"
       id="grid3336" />
  </sodipodi:namedview>
  <metadata
     id="metadata7">
    <rdf:RDF>
      <cc:Work
         rdf:about="">
        <dc:format>image/svg+xml</dc:format>
        <dc:type
           rdf:resource="http://purl.org/dc/dcmitype/StillImage" />
        <dc:title />
      </cc:Work>
    </rdf:RDF>
  </metadata>
  <g
     inkscape:label="Layer 1"
     inkscape:groupmode="layer"
     id="layer1"
     transform="translate(0,-1044.3622)">
    <path
       style="opacity:1;fill:#e0e0e0;fill-opacity:1;stroke:none;stroke-width:2;stroke-linecap:butt;stroke-linejoin:round;stroke-miterlimit:4;stroke-dasharray:none;stroke-opacity:1"
       d="M 1 1 L 1 7 L 3 7 L 3 4.0136719 L 3 1 L 1 1 z M 3 4.0136719 A 1.0001 1.0001 0 0 0 3.2929688 4.7070312 L 5.2929688 6.7070312 A 1 1 0 0 0 6.7070312 6.7070312 A 1 1 0 0 0 6.7070312 5.2929688 L 6.4140625 5 L 9.5859375 5 L 9.2929688 5.2929688 A 1 1 0 0 0 9.2929688 6.7070312 A 1 1 0 0 0 10.707031 6.7070312 L 12.707031 4.7070312 A 1.0001 1.0001 0 0 0 13 3.984375 A 1.0001 1.0001 0 0 0 12.707031 3.2929688 L 10.707031 1.2929688 A 1 1 0 0 0 9.9863281 1.0019531 A 1 1 0 0 0 9.2929688 1.2929688 A 1 1 0 0 0 9.2929688 2.7070312 L 9.5859375 3 L 6.4140625 3 L 6.7070312 2.7070312 A 1 1 0 0 0 6.7070312 1.2929688 A 1 1 0 0 0 5.9863281 1.0019531 A 1 1 0 0 0 5.2929688 1.2929688 L 3.2929688 3.2929688 A 1.0001 1.0001 0 0 0 3 4.0136719 z M 13 3.984375 L 13 7 L 15 7 L 15 1 L 13 1 L 13 3.984375 z "
       transform="translate(0,1044.3622)"
       id="rect4154" />
  </g>
</svg>
