<?xml version="1.0" encoding="UTF-8" standalone="no"?>
<!-- Created with Inkscape (http://www.inkscape.org/) -->

<svg
   xmlns:dc="http://purl.org/dc/elements/1.1/"
   xmlns:cc="http://creativecommons.org/ns#"
   xmlns:rdf="http://www.w3.org/1999/02/22-rdf-syntax-ns#"
   xmlns:svg="http://www.w3.org/2000/svg"
   xmlns="http://www.w3.org/2000/svg"
   xmlns:sodipodi="http://sodipodi.sourceforge.net/DTD/sodipodi-0.dtd"
   xmlns:inkscape="http://www.inkscape.org/namespaces/inkscape"
   width="16"
   height="16"
   viewBox="0 0 16 16"
   id="svg2"
   version="1.1"
   inkscape:version="0.92+devel unknown"
   inkscape:export-filename="/home/djrm/Projects/godot/tools/editor/icons/icon_node_2d.png"
   inkscape:export-xdpi="90"
   inkscape:export-ydpi="90"
   sodipodi:docname="icon_sphere_mesh.svg">
  <defs
     id="defs4" />
  <sodipodi:namedview
     id="base"
     pagecolor="#ffffff"
     bordercolor="#666666"
     borderopacity="1.0"
     inkscape:pageopacity="0.0"
     inkscape:pageshadow="2"
     inkscape:zoom="22.627416"
     inkscape:cx="10.188774"
     inkscape:cy="7.9201751"
     inkscape:document-units="px"
     inkscape:current-layer="layer1"
     showgrid="true"
     units="px"
     inkscape:snap-bbox="true"
     inkscape:bbox-paths="true"
     inkscape:bbox-nodes="true"
     inkscape:snap-bbox-edge-midpoints="true"
     inkscape:snap-bbox-midpoints="true"
     inkscape:snap-object-midpoints="true"
     inkscape:snap-center="true"
     inkscape:window-width="1920"
     inkscape:window-height="1016"
     inkscape:window-x="0"
     inkscape:window-y="27"
     inkscape:window-maximized="1"
     inkscape:document-rotation="0">
    <inkscape:grid
       type="xygrid"
       id="grid3336"
       empspacing="4" />
  </sodipodi:namedview>
  <metadata
     id="metadata7">
    <rdf:RDF>
      <cc:Work
         rdf:about="">
        <dc:format>image/svg+xml</dc:format>
        <dc:type
           rdf:resource="http://purl.org/dc/dcmitype/StillImage" />
        <dc:title></dc:title>
      </cc:Work>
    </rdf:RDF>
  </metadata>
  <g
     inkscape:label="Layer 1"
     inkscape:groupmode="layer"
     id="layer1">
    <path
       style="fill:#ffd684;fill-opacity:1;"
       d="M 8 1 C 4.1458514 1 1 4.1459 1 8 C 1 11.8542 4.1458514 15 8 15 C 11.854149 15 15 11.8542 15 8 C 15 4.1459 11.854149 1 8 1 z M 7 3.0976562 L 7 7.96875 C 5.7068959 7.8974081 4.3938983 7.6705607 3.0566406 7.2773438 C 3.3574503 5.1795086 4.9418857 3.5108322 7 3.0976562 z M 9 3.0976562 C 11.05489 3.5101849 12.637036 5.1743816 12.941406 7.2675781 C 11.636828 7.6343492 10.325593 7.8701693 9 7.9550781 L 9 3.0976562 z M 12.785156 9.3789062 C 12.276517 11.157679 10.835259 12.531968 9 12.900391 L 9 9.9492188 C 10.27916 9.876918 11.541917 9.6821761 12.785156 9.3789062 z M 3.2207031 9.3964844 C 4.4939533 9.7154019 5.7543858 9.8986297 7 9.9589844 L 7 12.900391 C 5.170884 12.533201 3.7340013 11.166534 3.2207031 9.3964844 z "
       id="path4309" />
  </g>
</svg>
