<?xml version="1.0" encoding="UTF-8" standalone="no"?>
<!-- Created with Inkscape (http://www.inkscape.org/) -->

<svg
   xmlns:dc="http://purl.org/dc/elements/1.1/"
   xmlns:cc="http://creativecommons.org/ns#"
   xmlns:rdf="http://www.w3.org/1999/02/22-rdf-syntax-ns#"
   xmlns:svg="http://www.w3.org/2000/svg"
   xmlns="http://www.w3.org/2000/svg"
   xmlns:sodipodi="http://sodipodi.sourceforge.net/DTD/sodipodi-0.dtd"
   xmlns:inkscape="http://www.inkscape.org/namespaces/inkscape"
   width="64"
   height="64"
   viewBox="0 0 64 64"
   id="svg2"
   version="1.1"
   inkscape:version="0.92+devel unknown"
   inkscape:export-filename="/home/djrm/Projects/godot/tools/editor/icons/icon_new.png"
   inkscape:export-xdpi="90"
   inkscape:export-ydpi="90"
   sodipodi:docname="icon_file_broken_big_thumb.svg">
  <defs
     id="defs4" />
  <sodipodi:namedview
     id="base"
     pagecolor="#ffffff"
     bordercolor="#666666"
     borderopacity="1.0"
     inkscape:pageopacity="0.0"
     inkscape:pageshadow="2"
     inkscape:zoom="11.313708"
     inkscape:cx="16.048004"
     inkscape:cy="25.795444"
     inkscape:document-units="px"
     inkscape:current-layer="layer1-8"
     showgrid="false"
     units="px"
     inkscape:snap-bbox="true"
     inkscape:bbox-paths="true"
     inkscape:bbox-nodes="true"
     inkscape:snap-bbox-edge-midpoints="true"
     inkscape:snap-bbox-midpoints="false"
     inkscape:snap-object-midpoints="true"
     inkscape:snap-center="true"
     inkscape:window-width="1920"
     inkscape:window-height="1016"
     inkscape:window-x="0"
     inkscape:window-y="27"
     inkscape:window-maximized="1"
     inkscape:object-paths="true"
     inkscape:snap-intersection-paths="true"
     inkscape:object-nodes="true"
     inkscape:snap-midpoints="true"
     inkscape:snap-smooth-nodes="true"
     inkscape:document-rotation="0">
    <inkscape:grid
       type="xygrid"
       id="grid3336" />
  </sodipodi:namedview>
  <metadata
     id="metadata7">
    <rdf:RDF>
      <cc:Work
         rdf:about="">
        <dc:format>image/svg+xml</dc:format>
        <dc:type
           rdf:resource="http://purl.org/dc/dcmitype/StillImage" />
        <dc:title />
      </cc:Work>
    </rdf:RDF>
  </metadata>
  <g
     inkscape:label="Layer 1"
     inkscape:groupmode="layer"
     id="layer1"
     transform="translate(0,-988.3622)">
    <g
       id="layer1-8"
       inkscape:label="Layer 1"
       transform="translate(0,-1.6949463e-5)">
      <path
         style="color:#000000;font-style:normal;font-variant:normal;font-weight:normal;font-stretch:normal;font-size:medium;line-height:normal;font-family:sans-serif;font-variant-ligatures:normal;font-variant-position:normal;font-variant-caps:normal;font-variant-numeric:normal;font-variant-alternates:normal;font-variant-east-asian:normal;font-feature-settings:normal;text-indent:0;text-align:start;text-decoration:none;text-decoration-line:none;text-decoration-style:solid;text-decoration-color:#000000;letter-spacing:normal;word-spacing:normal;text-transform:none;writing-mode:lr-tb;direction:ltr;text-orientation:mixed;dominant-baseline:auto;baseline-shift:baseline;text-anchor:start;white-space:normal;shape-padding:0;clip-rule:nonzero;display:inline;overflow:visible;visibility:visible;isolation:auto;mix-blend-mode:normal;color-interpolation:sRGB;color-interpolation-filters:linearRGB;solid-color:#000000;solid-opacity:1;vector-effect:none;fill:#ff5d5d;fill-opacity:1;fill-rule:nonzero;stroke:none;stroke-width:2;stroke-linecap:round;stroke-linejoin:round;stroke-miterlimit:4;stroke-dasharray:none;stroke-dashoffset:0;stroke-opacity:1;filter-blend-mode:normal;filter-gaussianBlur-deviation:0;color-rendering:auto;image-rendering:auto;shape-rendering:auto;text-rendering:auto;enable-background:accumulate;opacity:1"
         d="M 14 5 C 11.801301 5 10 6.8013012 10 9 L 10 35.171875 A 1.0001 1.0001 0 0 0 11.707031 35.878906 L 15 32.585938 L 24.292969 41.878906 A 1.0001 1.0001 0 0 0 25.707031 41.878906 L 35 32.585938 L 44.292969 41.878906 A 1.0001 1.0001 0 0 0 45.707031 41.878906 L 53.707031 33.878906 A 1.0001 1.0001 0 0 0 54 33.171875 L 54 22 A 1.0001 1.0001 0 0 0 53.707031 21.292969 L 37.707031 5.2929688 A 1.0001 1.0001 0 0 0 37 5 L 14 5 z M 14 7 L 36 7 L 36 19 C 36 21.1987 37.801349 23 40 23 L 52 23 L 52 32.757812 L 45 39.757812 L 35.707031 30.464844 A 1.0001 1.0001 0 0 0 34.292969 30.464844 L 25 39.757812 L 15.707031 30.464844 A 1.0001 1.0001 0 0 0 14.292969 30.464844 L 12 32.757812 L 12 9 C 12 7.8747284 12.874729 7 14 7 z M 14.984375 35.830078 A 1.0001 1.0001 0 0 0 14.292969 36.123047 L 10.292969 40.123047 A 1.0001 1.0001 0 0 0 10 40.830078 L 10 55 C 10 57.198699 11.801301 59 14 59 L 50 59 C 52.198699 59 54 57.198699 54 55 L 54 38.830078 A 1.0001 1.0001 0 0 0 52.292969 38.123047 L 45 45.416016 L 35.707031 36.123047 A 1.0001 1.0001 0 0 0 34.292969 36.123047 L 25 45.416016 L 15.707031 36.123047 A 1.0001 1.0001 0 0 0 14.984375 35.830078 z M 15 38.244141 L 24.292969 47.537109 A 1.0001 1.0001 0 0 0 25.707031 47.537109 L 35 38.244141 L 44.292969 47.537109 A 1.0001 1.0001 0 0 0 45.707031 47.537109 L 52 41.244141 L 52 55 C 52 56.125271 51.125271 57 50 57 L 14 57 C 12.874729 57 12 56.125271 12 55 L 12 41.244141 L 15 38.244141 z "
         transform="translate(0,988.36222)"
         id="path4312" />
    </g>
  </g>
</svg>
