<?xml version="1.0" encoding="UTF-8" standalone="no"?>
<!-- Created with Inkscape (http://www.inkscape.org/) -->

<svg
   xmlns:dc="http://purl.org/dc/elements/1.1/"
   xmlns:cc="http://creativecommons.org/ns#"
   xmlns:rdf="http://www.w3.org/1999/02/22-rdf-syntax-ns#"
   xmlns:svg="http://www.w3.org/2000/svg"
   xmlns="http://www.w3.org/2000/svg"
   xmlns:sodipodi="http://sodipodi.sourceforge.net/DTD/sodipodi-0.dtd"
   xmlns:inkscape="http://www.inkscape.org/namespaces/inkscape"
   width="187"
   height="69"
   viewBox="0 0 187 69"
   id="svg2"
   version="1.1"
   inkscape:version="0.92+devel unknown"
   inkscape:export-filename="/home/djrm/Projects/godot/tools/editor/icons/icon_control.png"
   inkscape:export-xdpi="90"
   inkscape:export-ydpi="90"
   sodipodi:docname="icon_logo.svg">
  <defs
     id="defs4">
    <clipPath
       id="clipPath16"
       clipPathUnits="userSpaceOnUse">
      <path
         inkscape:connector-curvature="0"
         id="path18"
         d="M 0,595.276 H 841.89 V 0 H 0 Z" />
    </clipPath>
  </defs>
  <sodipodi:namedview
     id="base"
     pagecolor="#ffffff"
     bordercolor="#666666"
     borderopacity="1.0"
     inkscape:pageopacity="0.0"
     inkscape:pageshadow="2"
     inkscape:zoom="7.9999995"
     inkscape:cx="67.727776"
     inkscape:cy="30.846999"
     inkscape:document-units="px"
     inkscape:current-layer="svg2"
     showgrid="true"
     units="px"
     inkscape:snap-bbox="true"
     inkscape:bbox-paths="true"
     inkscape:bbox-nodes="true"
     inkscape:snap-bbox-edge-midpoints="true"
     inkscape:snap-bbox-midpoints="true"
     inkscape:snap-object-midpoints="true"
     inkscape:snap-center="true"
     inkscape:window-width="1920"
     inkscape:window-height="1016"
     inkscape:window-x="0"
     inkscape:window-y="27"
     inkscape:window-maximized="1"
     showguides="true"
     inkscape:guide-bbox="true"
     inkscape:document-rotation="0">
    <inkscape:grid
       type="xygrid"
       id="grid3336"
       empspacing="4" />
  </sodipodi:namedview>
  <metadata
     id="metadata7">
    <rdf:RDF>
      <cc:Work
         rdf:about="">
        <dc:format>image/svg+xml</dc:format>
        <dc:type
           rdf:resource="http://purl.org/dc/dcmitype/StillImage" />
        <dc:title />
      </cc:Work>
    </rdf:RDF>
  </metadata>
  <g
     inkscape:label="icon"
     inkscape:groupmode="layer"
     id="layer1"
     transform="translate(0,53)" />
  <path
     style="fill:#ffffff;fill-opacity:1;fill-rule:nonzero;stroke:none;stroke-width:0.26867816"
     d="M 91.912109 19.509766 C 88.388816 19.509766 85.634095 20.619499 83.644531 22.837891 C 81.653448 25.057195 80.660156 27.93829 80.660156 31.484375 C 80.660156 35.647963 81.676702 38.80506 83.710938 40.955078 C 85.748819 43.104791 88.423282 44.177734 91.740234 44.177734 C 93.524065 44.177734 95.108884 44.023899 96.492188 43.714844 C 97.877011 43.407004 98.795945 43.091176 99.253906 42.771484 L 99.392578 32.035156 C 99.392578 31.411271 97.745477 31.127307 95.898438 31.095703 C 94.051397 31.067133 91.9375 31.453125 91.9375 31.453125 L 91.9375 35.058594 L 94.0625 35.058594 L 94.039062 36.664062 C 94.039062 37.259382 93.448447 37.558594 92.271484 37.558594 C 91.093001 37.558594 90.053247 37.059691 89.150391 36.064453 C 88.245409 35.068 87.794922 33.612724 87.794922 31.693359 C 87.794922 29.770043 88.234563 28.350558 89.115234 27.435547 C 89.994082 26.521448 91.147417 26.064453 92.564453 26.064453 C 93.159772 26.064453 93.775113 26.159461 94.416016 26.355469 C 95.057222 26.549654 95.484628 26.731862 95.703125 26.902344 C 95.919798 27.077688 96.127473 27.160156 96.322266 27.160156 C 96.516147 27.160156 96.829414 26.933178 97.263672 26.474609 C 97.698538 26.017256 98.087942 25.324519 98.431641 24.400391 C 98.77382 23.471401 98.945312 22.758971 98.945312 22.253906 C 98.945312 21.752793 98.934289 21.408897 98.912109 21.226562 C 98.43166 20.700834 97.545307 20.282623 96.251953 19.972656 C 94.961031 19.663601 93.513302 19.509766 91.912109 19.509766 z M 112.96094 19.509766 C 109.72421 19.509766 107.08215 20.55104 105.03516 22.630859 C 102.98876 24.713413 101.96484 27.77125 101.96484 31.810547 C 101.96484 35.847414 102.97762 38.919004 105 41.023438 C 107.02512 43.126048 109.64439 44.177734 112.85742 44.177734 C 116.07196 44.177734 118.69576 43.166611 120.73242 41.144531 C 122.76909 39.118197 123.78516 36.030339 123.78516 31.878906 C 123.78516 27.730512 122.79083 24.628118 120.79883 22.582031 C 118.81048 20.531993 116.19706 19.509766 112.96094 19.509766 z M 158.46484 19.509766 C 155.2269 19.509766 152.58562 20.55104 150.53711 22.630859 C 148.49102 24.713413 147.46875 27.77125 147.46875 31.810547 C 147.46875 35.847414 148.4791 38.919004 150.50391 41.023438 C 152.52721 43.126048 155.1471 44.177734 158.36133 44.177734 C 161.57436 44.177734 164.19862 43.166611 166.23438 41.144531 C 168.27073 39.118197 169.28906 36.030339 169.28906 31.878906 C 169.28906 27.730512 168.29516 24.628118 166.30469 22.582031 C 164.31391 20.531993 161.70157 19.509766 158.46484 19.509766 z M 128.35938 19.818359 C 127.9005 19.818359 127.5295 19.984733 127.24414 20.314453 C 126.95697 20.649339 126.81445 21.101605 126.81445 21.673828 L 126.81445 42.257812 C 126.81445 43.31079 127.40069 43.835938 128.56641 43.835938 L 134.43164 43.835938 C 141.61406 43.835937 145.20508 39.62672 145.20508 31.208984 C 145.20508 27.274224 144.26173 24.393867 142.37305 22.564453 C 140.48772 20.734431 137.72588 19.818359 134.08984 19.818359 L 128.35938 19.818359 z M 171.16602 19.818359 C 170.77674 19.818359 170.50134 20.346373 170.3418 21.398438 C 170.2731 21.901374 170.24023 22.4175 170.24023 22.941406 C 170.24023 23.46835 170.2731 23.98235 170.3418 24.484375 C 170.50134 25.539175 170.77674 26.064453 171.16602 26.064453 L 175.28125 26.064453 L 175.28125 43.289062 C 175.28125 43.743682 176.41632 43.974609 178.67969 43.974609 C 180.94519 43.974609 182.07617 43.743682 182.07617 43.289062 L 182.07617 26.064453 L 186.08984 26.064453 C 186.47852 26.064453 186.75209 25.539175 186.91406 24.484375 C 186.98126 23.98235 187.01562 23.46835 187.01562 22.941406 C 187.01563 22.4175 186.98126 21.901374 186.91406 21.398438 C 186.75209 20.346372 186.47852 19.818359 186.08984 19.818359 L 171.16602 19.818359 z M 112.875 26.097656 C 113.97386 26.097656 114.89432 26.590095 115.63672 27.572266 C 116.38003 28.555652 116.75195 29.963555 116.75195 31.792969 C 116.75195 33.623903 116.3924 35.029245 115.67188 36.011719 C 114.95135 36.99784 114.0122 37.490234 112.85742 37.490234 C 111.70203 37.490234 110.77148 37.005823 110.0625 36.03125 C 109.35231 35.059715 108.99805 33.664959 108.99805 31.84375 C 108.99805 30.026491 109.36953 28.613599 110.11133 27.607422 C 110.85707 26.602155 111.77766 26.097656 112.875 26.097656 z M 158.37891 26.097656 C 159.47777 26.097656 160.39701 26.590095 161.14062 27.572266 C 161.88393 28.555652 162.25586 29.963555 162.25586 31.792969 C 162.25586 33.623903 161.89466 35.029245 161.17383 36.011719 C 160.45422 36.99784 159.51642 37.490234 158.36133 37.490234 C 157.20595 37.490234 156.27251 37.005823 155.56445 36.03125 C 154.85639 35.059715 154.50195 33.664959 154.50195 31.84375 C 154.50195 30.026491 154.87374 28.613599 155.61523 27.607422 C 156.35976 26.602155 157.28126 26.097656 158.37891 26.097656 z M 133.40234 26.335938 L 133.74609 26.335938 C 135.20993 26.335938 136.27953 26.670593 136.95508 27.333984 C 137.62728 27.995551 137.96484 29.419896 137.96484 31.605469 C 137.96484 33.79013 137.64195 35.350218 136.98828 36.287109 C 136.33614 37.224911 135.38237 37.695312 134.12305 37.695312 C 133.78087 37.695312 133.57396 37.631973 133.50586 37.505859 C 133.43713 37.379137 133.40234 37.076889 133.40234 36.597656 L 133.40234 26.335938 z "
     id="path22" />
  <path
     style="fill:#e0e0e0;fill-opacity:1;fill-rule:nonzero;stroke:none;stroke-width:0.26867816"
     d="M 137.9082 48.550781 L 137.9082 49.761719 L 138.76758 49.761719 L 138.76758 48.550781 L 137.9082 48.550781 z M 85.511719 49.140625 C 84.514354 49.140625 83.715372 49.46487 83.119141 50.105469 C 82.521694 50.751234 82.224609 51.676676 82.224609 52.882812 L 82.224609 55.957031 C 82.224609 57.18991 82.541001 58.133573 83.171875 58.789062 C 83.80518 59.449718 84.63891 59.777344 85.675781 59.777344 C 86.461638 59.777344 87.107868 59.615874 87.617188 59.291016 C 88.127114 58.968286 88.476389 58.611634 88.666016 58.222656 L 88.666016 54.535156 L 85.660156 54.535156 L 85.660156 55.283203 L 87.806641 55.283203 L 87.806641 57.976562 C 87.668979 58.277716 87.425212 58.530421 87.074219 58.738281 C 86.724443 58.94918 86.257121 59.052734 85.675781 59.052734 C 84.87959 59.052734 84.24924 58.78953 83.78125 58.265625 C 83.313261 57.737769 83.078125 56.972063 83.078125 55.966797 L 83.078125 52.875 C 83.078125 51.905593 83.295907 51.167218 83.730469 50.658203 C 84.166246 50.147973 84.760201 49.894531 85.511719 49.894531 C 86.254425 49.894531 86.817274 50.084722 87.195312 50.460938 C 87.575479 50.840191 87.778075 51.376357 87.806641 52.072266 L 88.601562 52.072266 L 88.615234 52.03125 C 88.590923 51.123229 88.31067 50.413312 87.777344 49.904297 C 87.242499 49.397106 86.486596 49.140625 85.511719 49.140625 z M 93.125 51.804688 C 92.405997 51.804688 91.813908 52.02993 91.353516 52.482422 C 90.8913 52.936129 90.672822 53.448131 90.695312 54.027344 L 90.708984 54.068359 L 91.505859 54.076172 C 91.505859 53.649207 91.653535 53.2913 91.949219 52.998047 C 92.245816 52.702971 92.623766 52.556641 93.082031 52.556641 C 93.574636 52.556641 93.95662 52.71052 94.234375 53.015625 C 94.506356 53.324681 94.644531 53.752175 94.644531 54.294922 L 94.644531 55.240234 L 93.302734 55.240234 C 92.44607 55.240234 91.764786 55.451074 91.263672 55.875 C 90.762255 56.298925 90.511719 56.870018 90.511719 57.582031 C 90.511719 58.255754 90.685294 58.789579 91.029297 59.185547 C 91.375427 59.579995 91.864263 59.777344 92.5 59.777344 C 92.954618 59.777344 93.367232 59.65379 93.738281 59.404297 C 94.109938 59.156627 94.411448 58.840061 94.644531 58.458984 C 94.644531 58.633113 94.655421 58.804257 94.675781 58.976562 C 94.696751 59.145828 94.728944 59.362699 94.771484 59.628906 L 95.660156 59.628906 C 95.597854 59.381236 95.557813 59.132698 95.533203 58.875 C 95.509193 58.620644 95.496094 58.35449 95.496094 58.080078 L 95.496094 54.3125 C 95.496094 53.506282 95.278008 52.886038 94.84375 52.451172 C 94.407061 52.020561 93.835493 51.804688 93.125 51.804688 z M 100.24023 51.804688 C 99.785615 51.804688 99.389139 51.919739 99.052734 52.150391 C 98.717544 52.384082 98.447877 52.713964 98.246094 53.140625 L 98.171875 51.947266 L 97.419922 51.947266 L 97.419922 59.628906 L 98.273438 59.628906 L 98.273438 54.099609 C 98.391346 53.626149 98.585875 53.253058 98.859375 52.980469 C 99.131052 52.7094 99.493169 52.572266 99.941406 52.572266 C 100.41031 52.572266 100.77455 52.766923 101.03711 53.160156 C 101.30089 53.553389 101.42969 54.210986 101.42969 55.130859 L 101.42969 59.628906 L 102.2832 59.628906 L 102.2832 55.007812 L 102.2832 54.808594 C 102.3455 54.164045 102.51716 53.63009 102.79492 53.203125 C 103.07419 52.776161 103.46347 52.566406 103.96094 52.566406 C 104.43379 52.566406 104.79973 52.758636 105.05469 53.140625 C 105.30814 53.522006 105.4375 54.184896 105.4375 55.126953 L 105.4375 59.628906 L 106.29492 59.628906 L 106.29492 55.142578 C 106.29492 54.009375 106.11024 53.169744 105.73828 52.623047 C 105.36784 52.077566 104.8456 51.804688 104.17188 51.804688 C 103.68291 51.804688 103.26006 51.951192 102.91211 52.244141 C 102.56415 52.536483 102.29674 52.94003 102.10742 53.451172 C 101.95942 52.897485 101.72591 52.485176 101.41016 52.212891 C 101.09473 51.939695 100.70427 51.804688 100.24023 51.804688 z M 110.55664 51.804688 C 109.81241 51.804687 109.1769 52.125938 108.64844 52.765625 C 108.12119 53.408351 107.85938 54.21614 107.85938 55.185547 L 107.85938 56.460938 C 107.85938 57.428522 108.12197 58.222904 108.64648 58.84375 C 109.17252 59.465811 109.84964 59.777344 110.67773 59.777344 C 111.19343 59.777344 111.63606 59.687063 112.00195 59.511719 C 112.36874 59.335463 112.66853 59.098852 112.90039 58.804688 L 112.55078 58.199219 C 112.3335 58.473631 112.07238 58.682821 111.76758 58.832031 C 111.46278 58.977896 111.09771 59.052734 110.67773 59.052734 C 110.0733 59.052734 109.59128 58.80784 109.23633 58.3125 C 108.882 57.818376 108.70312 57.198695 108.70312 56.455078 L 108.70312 55.816406 L 113.09961 55.816406 L 113.09961 54.972656 C 113.09961 54.005984 112.8758 53.235549 112.42969 52.662109 C 111.9845 52.089582 111.36134 51.804688 110.55664 51.804688 z M 120.0293 51.804688 C 119.28507 51.804687 118.65108 52.125938 118.12109 52.765625 C 117.59506 53.408351 117.33008 54.21614 117.33008 55.185547 L 117.33008 56.460938 C 117.33008 57.428522 117.59249 58.222904 118.11914 58.84375 C 118.64426 59.465811 119.32199 59.777344 120.15039 59.777344 C 120.6664 59.777344 121.10678 59.687063 121.47266 59.511719 C 121.84007 59.335463 122.14088 59.098852 122.37305 58.804688 L 122.02539 58.199219 C 121.80567 58.473631 121.54429 58.682821 121.23828 58.832031 C 120.93439 58.977896 120.57189 59.052734 120.15039 59.052734 C 119.54383 59.052734 119.0621 58.80784 118.70898 58.3125 C 118.35252 57.818376 118.17578 57.198695 118.17578 56.455078 L 118.17578 55.816406 L 122.57031 55.816406 L 122.57031 54.972656 C 122.57031 54.005984 122.34693 53.235549 121.90234 52.662109 C 121.45836 52.089582 120.83248 51.804688 120.0293 51.804688 z M 126.89648 51.804688 C 126.44034 51.804688 126.04374 51.929197 125.70703 52.173828 C 125.36728 52.417243 125.09741 52.766129 124.89258 53.216797 L 124.82227 51.947266 L 124.06055 51.947266 L 124.06055 59.628906 L 124.91406 59.628906 L 124.91406 54.146484 C 125.06023 53.66725 125.27975 53.287306 125.57422 53.001953 C 125.86747 52.713866 126.23189 52.572266 126.66797 52.572266 C 127.15419 52.572266 127.52719 52.749918 127.78125 53.105469 C 128.03682 53.46102 128.16602 54.073539 128.16602 54.951172 L 128.16602 59.628906 L 129.02539 59.628906 L 129.02539 54.943359 C 129.02539 53.869718 128.84158 53.077374 128.47266 52.568359 C 128.10769 52.058433 127.58266 51.804688 126.89648 51.804688 z M 133.15039 51.804688 C 132.37365 51.804688 131.76438 52.133573 131.32617 52.789062 C 130.88431 53.447896 130.66406 54.321624 130.66406 55.410156 L 130.66602 56.460938 C 130.66602 57.464077 130.88436 58.268177 131.32227 58.871094 C 131.75926 59.475226 132.36514 59.777344 133.13672 59.777344 C 133.55274 59.777344 133.92059 59.68611 134.23633 59.501953 C 134.55328 59.318708 134.82117 59.052858 135.03906 58.707031 L 135.03906 59.636719 C 135.03906 60.395531 134.89121 60.967009 134.59766 61.363281 C 134.30531 61.754387 133.85465 61.951172 133.24414 61.951172 C 132.94055 61.951172 132.64651 61.910352 132.36328 61.826172 C 132.07763 61.744729 131.82049 61.629983 131.58984 61.480469 L 131.35352 62.228516 C 131.62399 62.380156 131.93268 62.50167 132.28125 62.59375 C 132.6292 62.685825 132.95513 62.732422 133.25781 62.732422 C 134.09989 62.732422 134.75176 62.459455 135.21094 61.921875 C 135.66951 61.382167 135.89648 60.621017 135.89648 59.636719 L 135.89648 51.947266 L 135.17383 51.947266 L 135.08984 53.015625 C 134.87499 52.630293 134.60715 52.328042 134.2832 52.121094 C 133.95986 51.910194 133.58161 51.804688 133.15039 51.804688 z M 143.61719 51.804688 C 143.16318 51.804688 142.76657 51.929197 142.42773 52.173828 C 142.08859 52.417243 141.81871 52.766129 141.61328 53.216797 L 141.54297 51.947266 L 140.7832 51.947266 L 140.7832 59.628906 L 141.63672 59.628906 L 141.63672 54.146484 C 141.78228 53.66725 142.00302 53.287306 142.29688 53.001953 C 142.58983 52.713866 142.95485 52.572266 143.39062 52.572266 C 143.87837 52.572266 144.24773 52.749918 144.50391 53.105469 C 144.75887 53.46102 144.88867 54.073539 144.88867 54.951172 L 144.88867 59.628906 L 145.74609 59.628906 L 145.74609 54.943359 C 145.74609 53.869718 145.56528 53.077374 145.19727 52.568359 C 144.83139 52.058433 144.30337 51.804688 143.61719 51.804688 z M 150.02148 51.804688 C 149.27877 51.804687 148.6437 52.125938 148.11523 52.765625 C 147.58799 53.408351 147.32422 54.21614 147.32422 55.185547 L 147.32422 56.460938 C 147.32422 57.428522 147.58756 58.222904 148.11328 58.84375 C 148.63689 59.465811 149.314 59.777344 150.14453 59.777344 C 150.65993 59.777344 151.10123 59.687063 151.4668 59.511719 C 151.8336 59.335463 152.1335 59.098852 152.36719 58.804688 L 152.01758 58.199219 C 151.79818 58.473631 151.538 58.682821 151.23047 58.832031 C 150.92688 58.977896 150.5645 59.052734 150.14453 59.052734 C 149.53736 59.052734 149.05551 58.80784 148.70117 58.3125 C 148.34653 57.818376 148.16797 57.198695 148.16797 56.455078 L 148.16797 55.816406 L 152.56445 55.816406 L 152.56445 54.972656 C 152.56445 54.005984 152.34076 53.235549 151.89648 52.662109 C 151.45097 52.089582 150.82557 51.804688 150.02148 51.804688 z M 137.9082 51.947266 L 137.9082 59.628906 L 138.76758 59.628906 L 138.76758 51.947266 L 137.9082 51.947266 z M 110.55664 52.556641 C 111.08693 52.556641 111.50114 52.76453 111.80078 53.183594 C 112.09859 53.602353 112.24609 54.129759 112.24609 54.763672 L 112.24609 55.09375 L 108.70312 55.09375 C 108.71741 54.376875 108.89593 53.775156 109.24023 53.287109 C 109.58424 52.800886 110.0224 52.556641 110.55664 52.556641 z M 120.0293 52.556641 C 120.55928 52.556641 120.97336 52.76453 121.27148 53.183594 C 121.57111 53.602353 121.71875 54.129759 121.71875 54.763672 L 121.71875 55.09375 L 118.17578 55.09375 C 118.19128 54.376875 118.36876 53.775156 118.71094 53.287109 C 119.05464 52.800886 119.49354 52.556641 120.0293 52.556641 z M 150.02148 52.556641 C 150.55237 52.556641 150.9675 52.76453 151.26562 53.183594 C 151.56464 53.602353 151.71094 54.129759 151.71094 54.763672 L 151.71094 55.09375 L 148.16797 55.09375 C 148.18316 54.376875 148.36199 53.775156 148.70508 53.287109 C 149.04726 52.800886 149.48572 52.556641 150.02148 52.556641 z M 133.33594 52.572266 C 133.75713 52.572266 134.10627 52.696861 134.38281 52.947266 C 134.65965 53.201925 134.87951 53.534324 135.03906 53.943359 L 135.03906 57.748047 C 134.87313 58.14523 134.64906 58.456763 134.36523 58.681641 C 134.08048 58.90652 133.73434 59.017578 133.32227 59.017578 C 132.72087 59.017578 132.26864 58.787824 131.97266 58.322266 C 131.67302 57.860962 131.52539 57.240414 131.52539 56.460938 L 131.52539 55.410156 C 131.52539 54.568382 131.67688 53.883151 131.98047 53.357422 C 132.28193 52.832605 132.73575 52.572266 133.33594 52.572266 z M 93.279297 55.900391 L 94.644531 55.900391 L 94.644531 57.5625 C 94.491675 57.983387 94.234893 58.330015 93.867188 58.603516 C 93.500088 58.875801 93.079362 59.009766 92.607422 59.009766 C 92.214797 59.009766 91.909599 58.881527 91.691406 58.621094 C 91.47291 58.361573 91.365234 58.02518 91.365234 57.615234 C 91.365234 57.129922 91.537854 56.721212 91.886719 56.394531 C 92.234673 56.065722 92.698868 55.900391 93.279297 55.900391 z "
     id="path42" />
  <path
     style="fill:#478cbf;fill-opacity:1;fill-rule:nonzero;stroke:none;stroke-width:0.26867816"
     d="M 27 3 C 23.90519 3.6880055 20.842891 4.6451536 17.972656 6.0898438 C 18.038296 8.6242811 18.203005 11.052861 18.535156 13.519531 C 17.42049 14.233671 16.248156 14.847594 15.207031 15.683594 C 14.149192 16.49741 13.069188 17.27478 12.111328 18.226562 C 10.197737 16.960863 8.172442 15.772594 6.0859375 14.722656 C 3.8368522 17.143135 1.7335116 19.754319 0.015625 22.677734 C 1.3080665 24.768493 2.6583887 26.730041 4.1152344 28.589844 L 4.15625 28.589844 L 4.15625 43.027344 L 4.15625 44.861328 L 4.15625 46.53125 C 4.18907 46.531554 4.2213902 46.532056 4.2539062 46.535156 L 15.253906 47.595703 C 15.83008 47.651313 16.282153 48.115969 16.322266 48.693359 L 16.660156 53.548828 L 26.255859 54.232422 L 26.916016 49.751953 C 27.001716 49.170916 27.500169 48.740234 28.087891 48.740234 L 39.693359 48.740234 C 40.280778 48.740234 40.779537 49.170916 40.865234 49.751953 L 41.525391 54.232422 L 51.121094 53.548828 L 51.458984 48.693359 C 51.499404 48.115969 51.95117 47.651619 52.527344 47.595703 L 63.523438 46.535156 C 63.555957 46.532156 63.588274 46.53155 63.621094 46.53125 L 63.621094 45.099609 L 63.625 45.097656 L 63.625 28.589844 L 63.666016 28.589844 C 65.123165 26.730041 66.472576 24.768493 67.765625 22.677734 C 66.048346 19.754319 63.942444 17.143135 61.693359 14.722656 C 59.607462 15.772594 57.581561 16.960864 55.667969 18.226562 C 54.710414 17.27478 53.631624 16.49741 52.572266 15.683594 C 51.531445 14.847594 50.358633 14.233671 49.246094 13.519531 C 49.577333 11.052861 49.742651 8.6242811 49.808594 6.0898438 C 46.938017 4.6451536 43.875626 3.6880055 40.779297 3 C 39.543075 5.0776916 38.412335 7.3277924 37.427734 9.5273438 C 36.260191 9.3322468 35.088596 9.2600727 33.914062 9.2460938 L 33.914062 9.2441406 C 33.905862 9.2441406 33.897615 9.2460937 33.890625 9.2460938 C 33.883325 9.2460938 33.876431 9.2441406 33.869141 9.2441406 L 33.869141 9.2460938 C 32.692476 9.2600726 31.519409 9.3322468 30.351562 9.5273438 C 29.367569 7.3277924 28.238045 5.0776916 27 3 z M 4.1367188 48.904297 C 4.1412787 49.967302 4.15625 51.131413 4.15625 51.363281 C 4.15625 61.809174 17.407582 66.830933 33.871094 66.888672 L 33.890625 66.888672 L 33.910156 66.888672 C 50.373667 66.830932 63.621094 61.809174 63.621094 51.363281 C 63.621094 51.127159 63.635755 49.96791 63.640625 48.904297 L 53.753906 49.857422 L 53.412109 54.738281 C 53.371089 55.326611 52.902783 55.79565 52.314453 55.837891 L 40.597656 56.673828 C 40.569086 56.675928 40.541932 56.677734 40.513672 56.677734 C 39.93142 56.677734 39.427797 56.250699 39.341797 55.666016 L 38.669922 51.109375 L 29.111328 51.109375 L 28.439453 55.666016 C 28.349203 56.279265 27.801097 56.719107 27.183594 56.673828 L 15.466797 55.837891 C 14.878467 55.795651 14.410166 55.326611 14.369141 54.738281 L 14.027344 49.857422 L 4.1367188 48.904297 z "
     id="path84" />
  <path
     style="fill:#f6f6f6;fill-opacity:1;fill-rule:nonzero;stroke:none;stroke-width:0.26867816"
     d="M 18.298828 29.246094 C 14.639392 29.246094 11.669922 32.213003 11.669922 35.873047 C 11.669922 39.535522 14.639392 42.501953 18.298828 42.501953 C 21.960087 42.501953 24.925781 39.535522 24.925781 35.873047 C 24.925781 32.213003 21.960087 29.246094 18.298828 29.246094 z M 49.484375 29.246094 C 45.822508 29.246094 42.855469 32.213003 42.855469 35.873047 C 42.855469 39.535522 45.822508 42.501953 49.484375 42.501953 C 53.143507 42.501953 56.111328 39.535522 56.111328 35.873047 C 56.111328 32.213003 53.143507 29.246094 49.484375 29.246094 z M 33.890625 33.125 C 32.712142 33.125 31.755859 33.99281 31.755859 35.0625 L 31.755859 41.166016 C 31.755859 42.236618 32.712142 43.105469 33.890625 43.105469 C 35.069108 43.105469 36.025391 42.236618 36.025391 41.166016 L 36.025391 35.0625 C 36.025391 33.99281 35.069108 33.125 33.890625 33.125 z "
     id="path92" />
  <path
     style="fill:#414042;fill-opacity:1;fill-rule:nonzero;stroke:none;stroke-width:0.26867816"
     d="M 18.931641 31.865234 C 16.501741 31.865234 14.53125 33.836333 14.53125 36.265625 C 14.53125 38.694917 16.501741 40.664062 18.931641 40.664062 C 21.362756 40.664062 23.332031 38.694917 23.332031 36.265625 C 23.332031 33.836333 21.362756 31.865234 18.931641 31.865234 z M 48.847656 31.865234 C 46.418365 31.865234 44.449219 33.836333 44.449219 36.265625 C 44.449219 38.694917 46.418365 40.664062 48.847656 40.664062 C 51.279379 40.664062 53.248047 38.694917 53.248047 36.265625 C 53.248047 33.836333 51.279379 31.865234 48.847656 31.865234 z "
     id="path96" />
</svg>
