<?xml version="1.0" encoding="UTF-8" standalone="no"?>
<!-- Created with Inkscape (http://www.inkscape.org/) -->

<svg
   xmlns:dc="http://purl.org/dc/elements/1.1/"
   xmlns:cc="http://creativecommons.org/ns#"
   xmlns:rdf="http://www.w3.org/1999/02/22-rdf-syntax-ns#"
   xmlns:svg="http://www.w3.org/2000/svg"
   xmlns="http://www.w3.org/2000/svg"
   xmlns:sodipodi="http://sodipodi.sourceforge.net/DTD/sodipodi-0.dtd"
   xmlns:inkscape="http://www.inkscape.org/namespaces/inkscape"
   width="16"
   height="16"
   viewBox="0 0 16 16"
   id="svg2"
   version="1.1"
   inkscape:version="0.92.2 (5c3e80d, 2017-08-06)"
   inkscape:export-filename="/home/djrm/Projects/godot/tools/editor/icons/icon_add_track.png"
   inkscape:export-xdpi="45"
   inkscape:export-ydpi="45"
   sodipodi:docname="icon_action_cut.svg">
  <defs
     id="defs4" />
  <sodipodi:namedview
     id="base"
     pagecolor="#ffffff"
     bordercolor="#666666"
     borderopacity="1.0"
     inkscape:pageopacity="0.0"
     inkscape:pageshadow="2"
     inkscape:zoom="32"
     inkscape:cx="12.987426"
     inkscape:cy="5.6563016"
     inkscape:document-units="px"
     inkscape:current-layer="layer1"
     showgrid="true"
     units="px"
     inkscape:snap-bbox="true"
     inkscape:bbox-paths="true"
     inkscape:bbox-nodes="true"
     inkscape:snap-bbox-edge-midpoints="true"
     inkscape:snap-bbox-midpoints="false"
     inkscape:snap-object-midpoints="true"
     inkscape:snap-center="true"
     inkscape:window-width="1920"
     inkscape:window-height="1016"
     inkscape:window-x="0"
     inkscape:window-y="27"
     inkscape:window-maximized="1"
     inkscape:snap-midpoints="true"
     inkscape:snap-smooth-nodes="true"
     inkscape:object-nodes="true"
     inkscape:document-rotation="0">
    <inkscape:grid
       type="xygrid"
       id="grid3336" />
  </sodipodi:namedview>
  <metadata
     id="metadata7">
    <rdf:RDF>
      <cc:Work
         rdf:about="">
        <dc:format>image/svg+xml</dc:format>
        <dc:type
           rdf:resource="http://purl.org/dc/dcmitype/StillImage" />
        <dc:title></dc:title>
      </cc:Work>
    </rdf:RDF>
  </metadata>
  <g
     inkscape:label="Layer 1"
     inkscape:groupmode="layer"
     id="layer1">
    <path
       style="opacity:1;fill:#e0e0e0;fill-opacity:1;fill-rule:nonzero;stroke:none;stroke-width:7.88787413;stroke-linecap:round;stroke-linejoin:round;stroke-miterlimit:4;stroke-dasharray:none;stroke-dashoffset:0;stroke-opacity:1"
       d="M 3.6347656 0.50976562 C 0.67066401 3.3757911 4.1702929 9.438662 6.4023438 9.3046875 L 6.84375 10.070312 L 6.2792969 11.048828 A 3 3 0 0 0 4 10 A 3 3 0 0 0 1 13 A 3 3 0 0 0 4 16 A 3 3 0 0 0 6.59375 14.498047 L 6.5976562 14.5 L 8 12.072266 L 9.4023438 14.5 L 9.4042969 14.498047 A 3 3 0 0 0 12 16 A 3 3 0 0 0 15 13 A 3 3 0 0 0 12 10 A 3 3 0 0 0 9.7226562 11.052734 L 9.15625 10.070312 L 9.5976562 9.3046875 C 11.829707 9.4386622 15.329336 3.3757911 12.365234 0.50976562 L 8 8.0703125 L 3.6347656 0.50976562 z M 4 12 A 1 1 0 0 1 5 13 A 1 1 0 0 1 4.8769531 13.478516 L 4.8652344 13.5 A 1 1 0 0 1 4 14 A 1 1 0 0 1 3 13 A 1 1 0 0 1 4 12 z M 12 12 A 1 1 0 0 1 13 13 A 1 1 0 0 1 12 14 A 1 1 0 0 1 11 13 A 1 1 0 0 1 12 12 z "
       id="path833" />
  </g>
</svg>
