<?xml version="1.0" encoding="UTF-8" standalone="no"?>
<!-- Created with Inkscape (http://www.inkscape.org/) -->

<svg
   xmlns:dc="http://purl.org/dc/elements/1.1/"
   xmlns:cc="http://creativecommons.org/ns#"
   xmlns:rdf="http://www.w3.org/1999/02/22-rdf-syntax-ns#"
   xmlns:svg="http://www.w3.org/2000/svg"
   xmlns="http://www.w3.org/2000/svg"
   xmlns:sodipodi="http://sodipodi.sourceforge.net/DTD/sodipodi-0.dtd"
   xmlns:inkscape="http://www.inkscape.org/namespaces/inkscape"
   width="16"
   height="16"
   viewBox="0 0 16 16"
   id="svg2"
   version="1.1"
   inkscape:version="0.92.2 (5c3e80d, 2017-08-06)"
   inkscape:export-filename="/home/djrm/Projects/godot/tools/editor/icons/icon_add_track.png"
   inkscape:export-xdpi="45"
   inkscape:export-ydpi="45"
   sodipodi:docname="icon_action_paste.svg">
  <defs
     id="defs4" />
  <sodipodi:namedview
     id="base"
     pagecolor="#ffffff"
     bordercolor="#666666"
     borderopacity="1.0"
     inkscape:pageopacity="0.0"
     inkscape:pageshadow="2"
     inkscape:zoom="32"
     inkscape:cx="11.94971"
     inkscape:cy="7.0593504"
     inkscape:document-units="px"
     inkscape:current-layer="layer1"
     showgrid="true"
     units="px"
     inkscape:snap-bbox="true"
     inkscape:bbox-paths="true"
     inkscape:bbox-nodes="true"
     inkscape:snap-bbox-edge-midpoints="true"
     inkscape:snap-bbox-midpoints="false"
     inkscape:snap-object-midpoints="true"
     inkscape:snap-center="true"
     inkscape:window-width="1920"
     inkscape:window-height="1016"
     inkscape:window-x="0"
     inkscape:window-y="27"
     inkscape:window-maximized="1"
     inkscape:snap-midpoints="true"
     inkscape:snap-smooth-nodes="true"
     inkscape:object-nodes="true"
     inkscape:document-rotation="0">
    <inkscape:grid
       type="xygrid"
       id="grid3336" />
  </sodipodi:namedview>
  <metadata
     id="metadata7">
    <rdf:RDF>
      <cc:Work
         rdf:about="">
        <dc:format>image/svg+xml</dc:format>
        <dc:type
           rdf:resource="http://purl.org/dc/dcmitype/StillImage" />
        <dc:title></dc:title>
      </cc:Work>
    </rdf:RDF>
  </metadata>
  <g
     inkscape:label="Layer 1"
     inkscape:groupmode="layer"
     id="layer1">
    <path
       style="opacity:1;fill:#e0e0e0;fill-opacity:1;fill-rule:nonzero;stroke:none;stroke-width:7.88787413;stroke-linecap:round;stroke-linejoin:round;stroke-miterlimit:4;stroke-dasharray:none;stroke-dashoffset:0;stroke-opacity:1"
       d="M 8 1 C 6.6954894 1 5.5967176 1.8371952 5.1835938 3 L 2 3 C 1.446 3 1 3.446 1 4 L 1 14 C 1 14.554 1.446 15 2 15 L 14 15 C 14.554 15 15 14.554 15 14 L 15 4 C 15 3.446 14.554 3 14 3 L 10.816406 3 C 10.403282 1.8371952 9.3045106 1 8 1 z M 8 3 A 1 1 0 0 1 9 4 A 1 1 0 0 1 8 5 A 1 1 0 0 1 7 4 A 1 1 0 0 1 8 3 z M 3 5 L 5 5 L 5 7 L 11 7 L 11 5 L 13 5 L 13 13 L 3 13 L 3 5 z "
       id="rect880" />
  </g>
</svg>
