<?xml version="1.0" encoding="UTF-8" standalone="no"?>
<!-- Created with Inkscape (http://www.inkscape.org/) -->

<svg
   xmlns:dc="http://purl.org/dc/elements/1.1/"
   xmlns:cc="http://creativecommons.org/ns#"
   xmlns:rdf="http://www.w3.org/1999/02/22-rdf-syntax-ns#"
   xmlns:svg="http://www.w3.org/2000/svg"
   xmlns="http://www.w3.org/2000/svg"
   xmlns:sodipodi="http://sodipodi.sourceforge.net/DTD/sodipodi-0.dtd"
   xmlns:inkscape="http://www.inkscape.org/namespaces/inkscape"
   width="16"
   height="12"
   viewBox="0 0 16 12"
   id="svg2"
   version="1.1"
   inkscape:version="0.92.3 (2405546, 2018-03-11)"
   inkscape:export-filename="/home/djrm/Projects/godot/tools/editor/icons/icon_add_track.png"
   inkscape:export-xdpi="45"
   inkscape:export-ydpi="45"
   sodipodi:docname="icon_vector2i.svg">
  <defs
     id="defs4" />
  <sodipodi:namedview
     id="base"
     pagecolor="#ffffff"
     bordercolor="#666666"
     borderopacity="1.0"
     inkscape:pageopacity="0.0"
     inkscape:pageshadow="2"
     inkscape:zoom="32.000001"
     inkscape:cx="8.9444027"
     inkscape:cy="4.4203947"
     inkscape:document-units="px"
     inkscape:current-layer="layer1"
     showgrid="true"
     units="px"
     inkscape:snap-bbox="true"
     inkscape:bbox-paths="true"
     inkscape:bbox-nodes="true"
     inkscape:snap-bbox-edge-midpoints="true"
     inkscape:snap-bbox-midpoints="false"
     inkscape:snap-object-midpoints="true"
     inkscape:snap-center="true"
     inkscape:window-width="1366"
     inkscape:window-height="693"
     inkscape:window-x="0"
     inkscape:window-y="0"
     inkscape:window-maximized="1"
     inkscape:object-nodes="true"
     inkscape:snap-smooth-nodes="true"
     inkscape:document-rotation="0">
    <inkscape:grid
       type="xygrid"
       id="grid3336" />
  </sodipodi:namedview>
  <metadata
     id="metadata7">
    <rdf:RDF>
      <cc:Work
         rdf:about="">
        <dc:format>image/svg+xml</dc:format>
        <dc:type
           rdf:resource="http://purl.org/dc/dcmitype/StillImage" />
        <dc:title></dc:title>
      </cc:Work>
    </rdf:RDF>
  </metadata>
  <g
     inkscape:label="Layer 1"
     inkscape:groupmode="layer"
     id="layer1">
    <path
       d="m7.5 2v2h1.5c0.55228 0 1 0.44772 1 1s-0.44772 1-1 1c-0.71466-1.248e-4 -1.3751 0.38109-1.7324 1-0.17472 0.30426-0.26633 0.64914-0.26562 1h-2e-3v2h5v-2h-3c1.0717-1.344e-4 2.0619-0.57191 2.5977-1.5 0.5359-0.9282 0.5359-2.0718 0-3-0.53578-0.92809-1.526-1.4999-2.5977-1.5zm-6.5 2v6h2c1.6569 0 3-1.3431 3-3v-3h-2v3c0 0.55228-0.44772 1-1 1v-4zm5 3c-4 3.3333-2 1.6667 0 0z"
       fill="#9194f1"
       id="path6" />
    <path
       d="m7.5 2v2h1.5c0.55228 0 1 0.44772 1 1s-0.44772 1-1 1c-0.71466-1.248e-4 -1.3751 0.38109-1.7324 1-0.17472 0.30426-0.26633 0.64914-0.26562 1h-0.00195v2h5v-2h-3c1.0717-1.344e-4 2.0619-0.57191 2.5977-1.5 0.5359-0.9282 0.5359-2.0718 0-3-0.53583-0.92809-1.526-1.4999-2.5977-1.5z"
       fill="#fff"
       fill-opacity=".39216"
       id="path8" />
    <path
       d="m13 2v2h2v-2zm0 4v4h2v-4z"
       fill="#9194f1"
       id="path10" />
  </g>
</svg>
