<?xml version="1.0" encoding="UTF-8" standalone="no"?>
<!-- Created with Inkscape (http://www.inkscape.org/) -->

<svg
   xmlns:dc="http://purl.org/dc/elements/1.1/"
   xmlns:cc="http://creativecommons.org/ns#"
   xmlns:rdf="http://www.w3.org/1999/02/22-rdf-syntax-ns#"
   xmlns:svg="http://www.w3.org/2000/svg"
   xmlns="http://www.w3.org/2000/svg"
   xmlns:sodipodi="http://sodipodi.sourceforge.net/DTD/sodipodi-0.dtd"
   xmlns:inkscape="http://www.inkscape.org/namespaces/inkscape"
   width="16"
   height="12"
   viewBox="0 0 16 12"
   id="svg2"
   version="1.1"
   inkscape:version="0.92.2 (5c3e80d, 2017-08-06)"
   inkscape:export-filename="/home/djrm/Projects/godot/tools/editor/icons/icon_add_track.png"
   inkscape:export-xdpi="45"
   inkscape:export-ydpi="45"
   sodipodi:docname="icon_transform_2_D.svg">
  <defs
     id="defs4" />
  <sodipodi:namedview
     id="base"
     pagecolor="#ffffff"
     bordercolor="#666666"
     borderopacity="1.0"
     inkscape:pageopacity="0.0"
     inkscape:pageshadow="2"
     inkscape:zoom="32.000001"
     inkscape:cx="6.5473309"
     inkscape:cy="5.2392778"
     inkscape:document-units="px"
     inkscape:current-layer="layer1"
     showgrid="true"
     units="px"
     inkscape:snap-bbox="true"
     inkscape:bbox-paths="true"
     inkscape:bbox-nodes="true"
     inkscape:snap-bbox-edge-midpoints="true"
     inkscape:snap-bbox-midpoints="false"
     inkscape:snap-object-midpoints="true"
     inkscape:snap-center="true"
     inkscape:window-width="1920"
     inkscape:window-height="1016"
     inkscape:window-x="0"
     inkscape:window-y="27"
     inkscape:window-maximized="1"
     inkscape:object-nodes="true"
     inkscape:snap-smooth-nodes="true"
     inkscape:document-rotation="0">
    <inkscape:grid
       type="xygrid"
       id="grid3336" />
  </sodipodi:namedview>
  <metadata
     id="metadata7">
    <rdf:RDF>
      <cc:Work
         rdf:about="">
        <dc:format>image/svg+xml</dc:format>
        <dc:type
           rdf:resource="http://purl.org/dc/dcmitype/StillImage" />
        <dc:title />
      </cc:Work>
    </rdf:RDF>
  </metadata>
  <g
     inkscape:label="Layer 1"
     inkscape:groupmode="layer"
     id="layer1">
    <path
       style="fill:#c4ec69;fill-opacity:1;stroke:none;stroke-width:1.85164022;stroke-miterlimit:4;stroke-dasharray:none;stroke-opacity:1"
       d="m 0,2 v 2 h 2 v 6 H 4 V 4 H 6 V 2 Z M 7,2 V 4 A 1,1 0 0 1 8,5 1,1 0 0 1 7,6 2,2 0 0 0 5.2675781,7 2,2 0 0 0 5.0019531,8 H 5 V 8.046875 10 h 2 3 2 a 4,4 0 0 0 3.464844,-2 4,4 0 0 0 0,-4 A 4,4 0 0 0 12,2 H 10 V 8 H 7 a 3,3 0 0 0 2.5976562,-1.5 3,3 0 0 0 0,-3 A 3,3 0 0 0 7,2 Z m 5,2 a 2.0000174,2.0000174 0 0 1 1.732422,1 2.0000174,2.0000174 0 0 1 0,2 A 2.0000174,2.0000174 0 0 1 12,8 Z"
       id="rect823"
       inkscape:connector-curvature="0" />
    <path
       style="fill:#ffffff;fill-opacity:0.39215686;stroke:none;stroke-width:2;stroke-linecap:round;stroke-linejoin:round;stroke-miterlimit:4;stroke-dasharray:none;stroke-opacity:1"
       d="M 7,2 V 4 C 7.5522847,4 8,4.4477153 8,5 8,5.5522847 7.5522847,6 7,6 6.2853362,5.9998674 5.62491,6.381083 5.2675781,7 5.0928535,7.3042633 5.0012462,7.6491377 5.0019531,8 H 5 V 8.046875 10 h 5 V 8 H 7 c 1.0716467,-1.5e-4 2.0618328,-0.5719267 2.5976562,-1.5 0.5358988,-0.9282032 0.5358988,-2.0717968 0,-3 C 9.0618328,2.5719267 8.0716467,2.00015 7,2 Z"
       id="rect4763"
       inkscape:connector-curvature="0"
       sodipodi:nodetypes="ccscccccccccssc" />
  </g>
</svg>
