<?xml version="1.0" encoding="UTF-8" standalone="no"?>
<svg
   xmlns:dc="http://purl.org/dc/elements/1.1/"
   xmlns:cc="http://creativecommons.org/ns#"
   xmlns:rdf="http://www.w3.org/1999/02/22-rdf-syntax-ns#"
   xmlns:svg="http://www.w3.org/2000/svg"
   xmlns="http://www.w3.org/2000/svg"
   xmlns:sodipodi="http://sodipodi.sourceforge.net/DTD/sodipodi-0.dtd"
   xmlns:inkscape="http://www.inkscape.org/namespaces/inkscape"
   width="16"
   height="16"
   version="1.1"
   viewBox="0 0 16 16"
   id="svg6"
   sodipodi:docname="icon_camera_texture.svg"
   inkscape:version="0.92.4 5da689c313, 2019-01-14">
  <metadata
     id="metadata12">
    <rdf:RDF>
      <cc:Work
         rdf:about="">
        <dc:format>image/svg+xml</dc:format>
        <dc:type
           rdf:resource="http://purl.org/dc/dcmitype/StillImage" />
        <dc:title />
      </cc:Work>
    </rdf:RDF>
  </metadata>
  <defs
     id="defs10" />
  <sodipodi:namedview
     pagecolor="#ffffff"
     bordercolor="#666666"
     borderopacity="1"
     objecttolerance="10"
     gridtolerance="10"
     guidetolerance="10"
     inkscape:pageopacity="0"
     inkscape:pageshadow="2"
     inkscape:window-width="1366"
     inkscape:window-height="711"
     id="namedview8"
     showgrid="true"
     inkscape:zoom="22.627417"
     inkscape:cx="-1.4543168"
     inkscape:cy="9.0185185"
     inkscape:window-x="0"
     inkscape:window-y="27"
     inkscape:window-maximized="1"
     inkscape:current-layer="svg6">
    <inkscape:grid
       type="xygrid"
       id="grid4568" />
  </sodipodi:namedview>
  <g
     transform="translate(0 -1036.4)"
     id="g4">
    <path
       style="fill:#e0e0e0;fill-opacity:0.99607999"
       d="M 2 1 C 1.4477153 1 1 1.4477153 1 2 L 1 14 C 1 14.552285 1.4477153 15 2 15 L 14 15 C 14.552285 15 15 14.552285 15 14 L 15 2 C 15 1.4477153 14.552285 1 14 1 L 2 1 z M 3 3 L 13 3 L 13 11 L 3 11 L 3 3 z M 8.8183594 4.0039062 C 7.9630211 4.004882 7.2529472 4.6645993 7.1894531 5.5175781 C 6.8890885 5.2452906 6.4991624 5.0941815 6.09375 5.09375 C 5.1906002 5.09375 4.4570313 5.8253657 4.4570312 6.7285156 C 4.4580044 7.420681 4.8962473 8.03881 5.5488281 8.2695312 L 5.5488281 9.4550781 C 5.5488281 9.7570629 5.7917597 10 6.09375 10 L 9.3632812 10 C 9.6652711 10 9.9082031 9.7570629 9.9082031 9.4550781 L 9.9082031 8.9101562 L 11.544922 10 L 11.544922 6.7285156 L 9.9082031 7.8203125 L 9.9082031 6.8554688 C 10.254262 6.5459449 10.452263 6.102958 10.453125 5.6386719 C 10.453125 4.735522 9.7215092 4.0039063 8.8183594 4.0039062 z "
       transform="translate(0,1036.4)"
       id="path2" />
  </g>
</svg>
