<?xml version="1.0" encoding="UTF-8" standalone="no"?>
<!-- Created with Inkscape (http://www.inkscape.org/) -->

<svg
   xmlns:dc="http://purl.org/dc/elements/1.1/"
   xmlns:cc="http://creativecommons.org/ns#"
   xmlns:rdf="http://www.w3.org/1999/02/22-rdf-syntax-ns#"
   xmlns:svg="http://www.w3.org/2000/svg"
   xmlns="http://www.w3.org/2000/svg"
   xmlns:sodipodi="http://sodipodi.sourceforge.net/DTD/sodipodi-0.dtd"
   xmlns:inkscape="http://www.inkscape.org/namespaces/inkscape"
   width="16"
   height="16"
   viewBox="0 0 16 16"
   id="svg2"
   version="1.1"
   inkscape:version="0.92+devel unknown"
   inkscape:export-filename="/home/djrm/Projects/godot/tools/editor/icons/icon_wait_preview_8.png"
   inkscape:export-xdpi="45"
   inkscape:export-ydpi="45"
   sodipodi:docname="icon_progress_8.svg">
  <defs
     id="defs4" />
  <sodipodi:namedview
     id="base"
     pagecolor="#ffffff"
     bordercolor="#666666"
     borderopacity="1.0"
     inkscape:pageopacity="0.0"
     inkscape:pageshadow="2"
     inkscape:zoom="22.627417"
     inkscape:cx="8.2105087"
     inkscape:cy="9.593577"
     inkscape:document-units="px"
     inkscape:current-layer="layer1"
     showgrid="true"
     units="px"
     inkscape:snap-bbox="true"
     inkscape:bbox-paths="true"
     inkscape:bbox-nodes="true"
     inkscape:snap-bbox-edge-midpoints="true"
     inkscape:snap-bbox-midpoints="false"
     inkscape:snap-object-midpoints="true"
     inkscape:snap-center="true"
     inkscape:window-width="1920"
     inkscape:window-height="1016"
     inkscape:window-x="0"
     inkscape:window-y="27"
     inkscape:window-maximized="1"
     inkscape:document-rotation="0">
    <inkscape:grid
       type="xygrid"
       id="grid3336" />
  </sodipodi:namedview>
  <metadata
     id="metadata7">
    <rdf:RDF>
      <cc:Work
         rdf:about="">
        <dc:format>image/svg+xml</dc:format>
        <dc:type
           rdf:resource="http://purl.org/dc/dcmitype/StillImage" />
        <dc:title />
      </cc:Work>
    </rdf:RDF>
  </metadata>
  <g
     inkscape:label="Layer 1"
     inkscape:groupmode="layer"
     id="layer1"
     transform="translate(0,-1036.3622)">
    <path
       style="opacity:1;fill:#e0e0e0;fill-opacity:0.19607843;stroke:none;stroke-width:3;stroke-linecap:round;stroke-linejoin:round;stroke-miterlimit:4;stroke-dasharray:none;stroke-dashoffset:0;stroke-opacity:1"
       d="M 9 1.078125 L 9 4.1328125 A 4 4 0 0 1 10.027344 4.5585938 L 12.185547 2.4003906 A 7 7 0 0 0 9 1.078125 z M 2.4003906 3.8144531 A 7 7 0 0 0 1.078125 7 L 4.1328125 7 A 4 4 0 0 1 4.5585938 5.9726562 L 2.4003906 3.8144531 z M 13.599609 3.8144531 L 11.441406 5.9726562 A 4 4 0 0 1 11.869141 7 L 14.919922 7 A 7 7 0 0 0 13.599609 3.8144531 z M 1.0800781 9 A 7 7 0 0 0 2.4003906 12.185547 L 4.5585938 10.027344 A 4 4 0 0 1 4.1308594 9 L 1.0800781 9 z M 11.867188 9 A 4 4 0 0 1 11.441406 10.027344 L 13.599609 12.185547 A 7 7 0 0 0 14.921875 9 L 11.867188 9 z M 5.9726562 11.441406 L 3.8144531 13.599609 A 7 7 0 0 0 7 14.921875 L 7 11.867188 A 4 4 0 0 1 5.9726562 11.441406 z M 10.027344 11.441406 A 4 4 0 0 1 9 11.869141 L 9 14.919922 A 7 7 0 0 0 12.185547 13.599609 L 10.027344 11.441406 z "
       transform="translate(0,1036.3622)"
       id="path4179" />
    <path
       style="opacity:1;fill:#e0e0e0;fill-opacity:0.99607843;stroke:none;stroke-width:3;stroke-linecap:round;stroke-linejoin:round;stroke-miterlimit:4;stroke-dasharray:none;stroke-dashoffset:0;stroke-opacity:1"
       d="m 7,1037.4423 a 7,7 0 0 0 -3.1855469,1.3203 l 2.1582031,2.1582 A 4,4 0 0 1 7,1040.4931 l 0,-3.0508 z"
       id="path4177" />
  </g>
</svg>
