<?xml version="1.0" encoding="UTF-8" standalone="no"?>
<!-- Created with Inkscape (http://www.inkscape.org/) -->

<svg
   xmlns:dc="http://purl.org/dc/elements/1.1/"
   xmlns:cc="http://creativecommons.org/ns#"
   xmlns:rdf="http://www.w3.org/1999/02/22-rdf-syntax-ns#"
   xmlns:svg="http://www.w3.org/2000/svg"
   xmlns="http://www.w3.org/2000/svg"
   xmlns:sodipodi="http://sodipodi.sourceforge.net/DTD/sodipodi-0.dtd"
   xmlns:inkscape="http://www.inkscape.org/namespaces/inkscape"
   width="16"
   height="16"
   viewBox="0 0 16 16"
   id="svg2"
   version="1.1"
   inkscape:version="0.92+devel unknown"
   inkscape:export-filename="/home/djrm/Projects/godot/tools/editor/icons/icon_node_2d.png"
   inkscape:export-xdpi="90"
   inkscape:export-ydpi="90"
   sodipodi:docname="icon_remote_transform_2d.svg">
  <defs
     id="defs4" />
  <sodipodi:namedview
     id="base"
     pagecolor="#ffffff"
     bordercolor="#666666"
     borderopacity="1.0"
     inkscape:pageopacity="0.0"
     inkscape:pageshadow="2"
     inkscape:zoom="32"
     inkscape:cx="4.3978759"
     inkscape:cy="9.0429354"
     inkscape:document-units="px"
     inkscape:current-layer="layer1"
     showgrid="true"
     units="px"
     inkscape:snap-bbox="true"
     inkscape:bbox-paths="true"
     inkscape:bbox-nodes="true"
     inkscape:snap-bbox-edge-midpoints="true"
     inkscape:snap-bbox-midpoints="true"
     inkscape:snap-object-midpoints="true"
     inkscape:snap-center="true"
     inkscape:window-width="1920"
     inkscape:window-height="1016"
     inkscape:window-x="0"
     inkscape:window-y="27"
     inkscape:window-maximized="1"
     inkscape:object-paths="true"
     inkscape:snap-intersection-paths="true"
     inkscape:object-nodes="true"
     inkscape:snap-smooth-nodes="true"
     inkscape:document-rotation="0">
    <inkscape:grid
       type="xygrid"
       id="grid3336"
       empspacing="4" />
  </sodipodi:namedview>
  <metadata
     id="metadata7">
    <rdf:RDF>
      <cc:Work
         rdf:about="">
        <dc:format>image/svg+xml</dc:format>
        <dc:type
           rdf:resource="http://purl.org/dc/dcmitype/StillImage" />
        <dc:title />
      </cc:Work>
    </rdf:RDF>
  </metadata>
  <g
     inkscape:label="Layer 1"
     inkscape:groupmode="layer"
     id="layer1"
     transform="translate(0,-1036.3622)">
    <path
       style="fill:#a5b7f3;fill-opacity:0.98823529;stroke:none;stroke-width:2.66666675;stroke-linecap:round;stroke-linejoin:round;stroke-miterlimit:4;stroke-dasharray:none;stroke-opacity:1"
       d="M 8 1 C 5.1434723 1 2.5005294 2.5262 1.0722656 5 A 1 1 0 0 0 1.4375 6.3671875 A 1 1 0 0 0 2.8046875 6 C 3.8772889 4.1422 5.8547972 3 8 3 C 10.145203 3 12.122712 4.1422 13.195312 6 A 1 1 0 0 0 14.5625 6.3671875 A 1 1 0 0 0 14.927734 5 C 13.49947 2.5262 10.856528 1 8 1 z M 8 5 C 6.194417 5 4.6040379 6.2207438 4.1367188 7.9648438 A 1 1 0 0 0 4.84375 9.1894531 A 1 1 0 0 0 6.0683594 8.4824219 C 6.3038938 7.6033219 7.0899646 7 8 7 C 8.9100354 7 9.6961061 7.6033219 9.9316406 8.4824219 A 1 1 0 0 0 11.15625 9.1894531 A 1 1 0 0 0 11.863281 7.9648438 C 11.395962 6.2207438 9.805583 5 8 5 z M 8 9 C 7.446 9 7 9.446 7 10 L 7 11 L 4 11 A 4 4 0 0 0 6 14.464844 A 4 4 0 0 0 10 14.464844 A 4 4 0 0 0 12 11 L 9 11 L 9 10 C 9 9.446 8.554 9 8 9 z "
       transform="translate(0,1036.3622)"
       id="path834" />
  </g>
</svg>
