<?xml version="1.0" encoding="UTF-8" standalone="no"?>
<!-- Created with Inkscape (http://www.inkscape.org/) -->

<svg
   xmlns:dc="http://purl.org/dc/elements/1.1/"
   xmlns:cc="http://creativecommons.org/ns#"
   xmlns:rdf="http://www.w3.org/1999/02/22-rdf-syntax-ns#"
   xmlns:svg="http://www.w3.org/2000/svg"
   xmlns="http://www.w3.org/2000/svg"
   xmlns:sodipodi="http://sodipodi.sourceforge.net/DTD/sodipodi-0.dtd"
   xmlns:inkscape="http://www.inkscape.org/namespaces/inkscape"
   width="32"
   height="32"
   viewBox="0 0 32 32"
   id="svg2"
   version="1.1"
   inkscape:version="0.92+devel unknown"
   inkscape:export-filename="/home/djrm/Projects/godot/tools/editor/icons/icon_new.png"
   inkscape:export-xdpi="90"
   inkscape:export-ydpi="90"
   sodipodi:docname="icon_file_dead_medium_thumb.svg">
  <defs
     id="defs4" />
  <sodipodi:namedview
     id="base"
     pagecolor="#3c3c3c"
     bordercolor="#666666"
     borderopacity="1.0"
     inkscape:pageopacity="0"
     inkscape:pageshadow="2"
     inkscape:zoom="16"
     inkscape:cx="22.549767"
     inkscape:cy="8.432887"
     inkscape:document-units="px"
     inkscape:current-layer="layer1-8"
     showgrid="true"
     units="px"
     inkscape:snap-bbox="true"
     inkscape:bbox-paths="true"
     inkscape:bbox-nodes="true"
     inkscape:snap-bbox-edge-midpoints="true"
     inkscape:snap-bbox-midpoints="false"
     inkscape:snap-object-midpoints="true"
     inkscape:snap-center="true"
     inkscape:window-width="1920"
     inkscape:window-height="1016"
     inkscape:window-x="0"
     inkscape:window-y="27"
     inkscape:window-maximized="1"
     inkscape:object-paths="true"
     inkscape:snap-intersection-paths="true"
     inkscape:object-nodes="true"
     inkscape:snap-midpoints="true"
     inkscape:snap-smooth-nodes="true"
     inkscape:document-rotation="0"
     inkscape:pagecheckerboard="false">
    <inkscape:grid
       type="xygrid"
       id="grid3336" />
  </sodipodi:namedview>
  <metadata
     id="metadata7">
    <rdf:RDF>
      <cc:Work
         rdf:about="">
        <dc:format>image/svg+xml</dc:format>
        <dc:type
           rdf:resource="http://purl.org/dc/dcmitype/StillImage" />
        <dc:title />
      </cc:Work>
    </rdf:RDF>
  </metadata>
  <g
     inkscape:label="Layer 1"
     inkscape:groupmode="layer"
     id="layer1"
     transform="translate(0,-1020.3622)">
    <g
       id="layer1-8"
       inkscape:label="Layer 1"
       transform="translate(0,-1.6949463e-5)">
      <path
         style="color:#000000;font-style:normal;font-variant:normal;font-weight:normal;font-stretch:normal;font-size:medium;line-height:normal;font-family:sans-serif;font-variant-ligatures:normal;font-variant-position:normal;font-variant-caps:normal;font-variant-numeric:normal;font-variant-alternates:normal;font-variant-east-asian:normal;font-feature-settings:normal;text-indent:0;text-align:start;text-decoration:none;text-decoration-line:none;text-decoration-style:solid;text-decoration-color:#000000;letter-spacing:normal;word-spacing:normal;text-transform:none;writing-mode:lr-tb;direction:ltr;text-orientation:mixed;dominant-baseline:auto;baseline-shift:baseline;text-anchor:start;white-space:normal;shape-padding:0;clip-rule:nonzero;display:inline;overflow:visible;visibility:visible;opacity:1;isolation:auto;mix-blend-mode:normal;color-interpolation:sRGB;color-interpolation-filters:linearRGB;solid-color:#000000;solid-opacity:1;vector-effect:none;fill:#ff5d5d;fill-opacity:1;fill-rule:nonzero;stroke:none;stroke-width:2;stroke-linecap:round;stroke-linejoin:round;stroke-miterlimit:4;stroke-dasharray:none;stroke-dashoffset:0;stroke-opacity:1;color-rendering:auto;image-rendering:auto;shape-rendering:auto;text-rendering:auto;enable-background:accumulate"
         d="M 5 1 C 3.3552874 1 2 2.3553 2 4 L 2 28 C 2 29.6447 3.3552874 31 5 31 L 27 31 C 28.644713 31 30 29.6447 30 28 L 30 11.191406 C 29.999949 10.926207 29.894567 10.671887 29.707031 10.484375 L 20.525391 1.2949219 C 20.338199 1.106669 20.083839 1.0005685 19.818359 1 L 5 1 z M 5 3 L 19 3 L 19 9 C 19 10.6447 20.355279 12 22 12 L 28 12 L 28 28 C 28 28.5713 27.571325 29 27 29 L 5 29 C 4.4286746 29 4 28.5713 4 28 L 4 4 C 4 3.4287 4.4286746 3 5 3 z M 6.9863281 14.001953 A 1 1 0 0 0 6.2929688 14.292969 A 1 1 0 0 0 6.2929688 15.707031 L 7.5859375 17 L 6.2929688 18.292969 A 1 1 0 0 0 6.2929688 19.707031 A 1 1 0 0 0 7.7070312 19.707031 L 9 18.414062 L 10.292969 19.707031 A 1 1 0 0 0 11.707031 19.707031 A 1 1 0 0 0 11.707031 18.292969 L 10.414062 17 L 11.707031 15.707031 A 1 1 0 0 0 11.707031 14.292969 A 1 1 0 0 0 10.986328 14.001953 A 1 1 0 0 0 10.292969 14.292969 L 9 15.585938 L 7.7070312 14.292969 A 1 1 0 0 0 6.9863281 14.001953 z M 20.986328 14.001953 A 1 1 0 0 0 20.292969 14.292969 A 1 1 0 0 0 20.292969 15.707031 L 21.585938 17 L 20.292969 18.292969 A 1 1 0 0 0 20.292969 19.707031 A 1 1 0 0 0 21.707031 19.707031 L 23 18.414062 L 24.292969 19.707031 A 1 1 0 0 0 25.707031 19.707031 A 1 1 0 0 0 25.707031 18.292969 L 24.414062 17 L 25.707031 15.707031 A 1 1 0 0 0 25.707031 14.292969 A 1 1 0 0 0 24.986328 14.001953 A 1 1 0 0 0 24.292969 14.292969 L 23 15.585938 L 21.707031 14.292969 A 1 1 0 0 0 20.986328 14.001953 z M 7 22 A 1 1 0 0 0 6 23 A 1 1 0 0 0 7 24 L 8 24 A 4 4 0 0 0 10 27.464844 A 4 4 0 0 0 14 27.464844 A 4 4 0 0 0 16 24 L 25 24 A 1 1 0 0 0 26 23 A 1 1 0 0 0 25 22 L 7 22 z M 10 24 L 14 24 A 2 2 0 0 1 12 26 A 2 2 0 0 1 10 24 z "
         transform="translate(0,1020.3622)"
         id="path4308" />
    </g>
  </g>
</svg>
