<?xml version="1.0" encoding="UTF-8" standalone="no"?>
<!-- Created with Inkscape (http://www.inkscape.org/) -->

<svg
   xmlns:dc="http://purl.org/dc/elements/1.1/"
   xmlns:cc="http://creativecommons.org/ns#"
   xmlns:rdf="http://www.w3.org/1999/02/22-rdf-syntax-ns#"
   xmlns:svg="http://www.w3.org/2000/svg"
   xmlns="http://www.w3.org/2000/svg"
   xmlns:sodipodi="http://sodipodi.sourceforge.net/DTD/sodipodi-0.dtd"
   xmlns:inkscape="http://www.inkscape.org/namespaces/inkscape"
   width="16"
   height="12"
   viewBox="0 0 16 12"
   id="svg2"
   version="1.1"
   inkscape:version="0.92.2 (5c3e80d, 2017-08-06)"
   inkscape:export-filename="/home/djrm/Projects/godot/tools/editor/icons/icon_add_track.png"
   inkscape:export-xdpi="45"
   inkscape:export-ydpi="45"
   sodipodi:docname="icon_pool_vector3_array.svg">
  <defs
     id="defs4" />
  <sodipodi:namedview
     id="base"
     pagecolor="#ffffff"
     bordercolor="#666666"
     borderopacity="1.0"
     inkscape:pageopacity="0.0"
     inkscape:pageshadow="2"
     inkscape:zoom="32.000001"
     inkscape:cx="8.4242705"
     inkscape:cy="5.2730468"
     inkscape:document-units="px"
     inkscape:current-layer="layer1"
     showgrid="true"
     units="px"
     inkscape:snap-bbox="true"
     inkscape:bbox-paths="true"
     inkscape:bbox-nodes="true"
     inkscape:snap-bbox-edge-midpoints="true"
     inkscape:snap-bbox-midpoints="false"
     inkscape:snap-object-midpoints="true"
     inkscape:snap-center="true"
     inkscape:window-width="1920"
     inkscape:window-height="1016"
     inkscape:window-x="0"
     inkscape:window-y="27"
     inkscape:window-maximized="1"
     inkscape:object-nodes="true"
     inkscape:snap-smooth-nodes="true"
     inkscape:document-rotation="0">
    <inkscape:grid
       type="xygrid"
       id="grid3336" />
  </sodipodi:namedview>
  <metadata
     id="metadata7">
    <rdf:RDF>
      <cc:Work
         rdf:about="">
        <dc:format>image/svg+xml</dc:format>
        <dc:type
           rdf:resource="http://purl.org/dc/dcmitype/StillImage" />
        <dc:title />
      </cc:Work>
    </rdf:RDF>
  </metadata>
  <g
     inkscape:label="Layer 1"
     inkscape:groupmode="layer"
     id="layer1">
    <path
       style="fill:#e0e0e0;fill-opacity:1;stroke:none;stroke-width:2;stroke-linecap:round;stroke-linejoin:round;stroke-miterlimit:4;stroke-dasharray:none;stroke-opacity:1"
       d="M 0,0 V 12 H 4 V 10 H 2 V 2 H 4 V 0 Z m 12,0 v 2 h 2 v 8 h -2 v 2 h 4 V 0 Z"
       id="rect4158"
       inkscape:connector-curvature="0"
       sodipodi:nodetypes="cccccccccccccccccc" />
    <path
       style="fill:#e286f0;fill-opacity:1;stroke:none;stroke-width:2;stroke-linecap:butt;stroke-linejoin:round;stroke-miterlimit:4;stroke-dasharray:none;stroke-opacity:1"
       d="m 8,1 v 2 h 1 1 C 10,3.5522847 9.5522847,4 9,4 v 2 c 0.5522847,0 1,0.4477153 1,1 0,0.5522847 -0.4477153,1 -1,1 H 8 v 2 h 1 c 1.071647,-1.501e-4 2.061833,-0.5719268 2.597656,-1.5 0.535898,-0.9282032 0.535898,-2.0717968 0,-3 C 11.493596,5.3205027 11.371197,5.1522847 11.232422,4.9980469 11.370977,4.8450386 11.49337,4.6781388 11.597656,4.5 11.859743,4.0436051 11.997154,3.5262935 11.996094,3 H 12 V 1 Z M 8,3 H 6 V 6 C 5.9999904,6.5522808 5.5522808,6.9999904 5,7 V 3 H 3 V 9 H 5 C 6.6568542,9 8,7.6568542 8,6 Z"
       id="path4705"
       inkscape:connector-curvature="0"
       sodipodi:nodetypes="ccccccsscccsccccccccccccccssc" />
    <path
       style="fill:#ffffff;fill-opacity:0.39215686;stroke:none;stroke-width:2;stroke-linecap:butt;stroke-linejoin:round;stroke-miterlimit:4;stroke-dasharray:none;stroke-opacity:1"
       d="m 8,1 v 2 h 1 1 C 10,3.5522847 9.5522847,4 9,4 v 2 c 0.5522847,0 1,0.4477153 1,1 0,0.5522847 -0.4477153,1 -1,1 H 8 v 2 h 1 c 1.071647,-1.501e-4 2.061833,-0.5719268 2.597656,-1.5 0.535898,-0.9282032 0.535898,-2.0717968 0,-3 C 11.493596,5.3205027 11.371197,5.1522847 11.232422,4.9980469 11.370977,4.8450386 11.49337,4.6781388 11.597656,4.5 11.859743,4.0436051 11.997154,3.5262935 11.996094,3 H 12 V 1 Z"
       id="path4723"
       inkscape:connector-curvature="0"
       sodipodi:nodetypes="ccccccsscccsccccccc" />
  </g>
</svg>
