<?xml version="1.0" encoding="UTF-8" standalone="no"?>
<svg
   xmlns:dc="http://purl.org/dc/elements/1.1/"
   xmlns:cc="http://creativecommons.org/ns#"
   xmlns:rdf="http://www.w3.org/1999/02/22-rdf-syntax-ns#"
   xmlns:svg="http://www.w3.org/2000/svg"
   xmlns="http://www.w3.org/2000/svg"
   xmlns:sodipodi="http://sodipodi.sourceforge.net/DTD/sodipodi-0.dtd"
   xmlns:inkscape="http://www.inkscape.org/namespaces/inkscape"
   width="16"
   height="16"
   version="1.1"
   viewBox="0 0 16 16"
   id="svg4"
   sodipodi:docname="icon_mesh_texture.svg"
   inkscape:version="0.92.4 5da689c313, 2019-01-14">
  <metadata
     id="metadata10">
    <rdf:RDF>
      <cc:Work
         rdf:about="">
        <dc:format>image/svg+xml</dc:format>
        <dc:type
           rdf:resource="http://purl.org/dc/dcmitype/StillImage" />
        <dc:title />
      </cc:Work>
    </rdf:RDF>
  </metadata>
  <defs
     id="defs8" />
  <sodipodi:namedview
     pagecolor="#ffffff"
     bordercolor="#666666"
     borderopacity="1"
     objecttolerance="10"
     gridtolerance="10"
     guidetolerance="10"
     inkscape:pageopacity="0"
     inkscape:pageshadow="2"
     inkscape:window-width="1366"
     inkscape:window-height="711"
     id="namedview6"
     showgrid="true"
     inkscape:zoom="22.627417"
     inkscape:cx="3.4431106"
     inkscape:cy="4.7497378"
     inkscape:window-x="0"
     inkscape:window-y="27"
     inkscape:window-maximized="1"
     inkscape:current-layer="svg4">
    <inkscape:grid
       type="xygrid"
       id="grid817"
       spacingx="0.5"
       spacingy="0.5" />
  </sodipodi:namedview>
  <path
     style="fill:#e0e0e0;fill-opacity:0.99607843"
     d="M 3 1 C 1.8954305 1 1 1.8954305 1 3 C 1.0005649 3.7139659 1.3816871 4.3734859 2 4.7304688 L 2 11.271484 C 1.3822902 11.628117 1.0012613 12.286732 1 13 C 1 14.104569 1.8954305 15 3 15 C 3.7139659 14.999435 4.3734859 14.618313 4.7304688 14 L 11.271484 14 C 11.628117 14.61771 12.286732 14.998739 13 15 C 14.104569 15 15 14.104569 15 13 C 15.000101 12.272527 14.605187 11.60237 13.96875 11.25 L 14 11.25 L 14 4.7285156 C 14.61771 4.3718822 14.998739 3.7132679 15 3 C 15 1.8954305 14.104569 1 13 1 C 12.286034 1.0005648 11.626514 1.381687 11.269531 2 L 4.7285156 2 C 4.3718822 1.3822903 3.7132679 1.0012614 3 1 z M 4.7265625 4 L 5.4140625 4 L 10.582031 4 L 11.271484 4 C 11.446264 4.3030092 11.69746 4.5548783 12 4.7304688 L 12 5.4140625 L 12 10.585938 L 12 11.271484 C 11.696991 11.446264 11.445122 11.69746 11.269531 12 L 10.585938 12 L 5.4140625 12 L 4.7285156 12 C 4.5537358 11.696991 4.3025401 11.445122 4 11.269531 L 4 10.582031 L 3.9960938 10.585938 L 3.9960938 4.7285156 C 4.2991105 4.5537356 4.5509721 4.30254 4.7265625 4 z M 8.8125 6.25 L 8.8125 6.9511719 L 8 6.9511719 L 8 7.6503906 L 6.375 7.6503906 L 6.375 8.3496094 L 5.5625 8.3496094 L 5.5625 9.0488281 L 4.75 9.0488281 L 4.75 9.75 L 6.375 9.75 L 8 9.75 L 9.625 9.75 L 11.25 9.75 L 11.25 8.3496094 L 10.4375 8.3496094 L 10.4375 6.9511719 L 9.625 6.9511719 L 9.625 6.25 L 8.8125 6.25 z "
     id="path2" />
  <g
     transform="translate(-17.545942,-1037.4)"
     id="g4" />
</svg>
