<?xml version="1.0" encoding="UTF-8" standalone="no"?>
<svg
   xmlns:dc="http://purl.org/dc/elements/1.1/"
   xmlns:cc="http://creativecommons.org/ns#"
   xmlns:rdf="http://www.w3.org/1999/02/22-rdf-syntax-ns#"
   xmlns:svg="http://www.w3.org/2000/svg"
   xmlns="http://www.w3.org/2000/svg"
   xmlns:sodipodi="http://sodipodi.sourceforge.net/DTD/sodipodi-0.dtd"
   xmlns:inkscape="http://www.inkscape.org/namespaces/inkscape"
   width="16"
   height="16"
   version="1.1"
   viewBox="0 0 16 16"
   id="svg6"
   sodipodi:docname="icon_clipped_camera.svg"
   inkscape:version="0.92.4 5da689c313, 2019-01-14">
  <metadata
     id="metadata12">
    <rdf:RDF>
      <cc:Work
         rdf:about="">
        <dc:format>image/svg+xml</dc:format>
        <dc:type
           rdf:resource="http://purl.org/dc/dcmitype/StillImage" />
        <dc:title></dc:title>
      </cc:Work>
    </rdf:RDF>
  </metadata>
  <defs
     id="defs10" />
  <sodipodi:namedview
     pagecolor="#ffffff"
     bordercolor="#666666"
     borderopacity="1"
     objecttolerance="10"
     gridtolerance="10"
     guidetolerance="10"
     inkscape:pageopacity="0"
     inkscape:pageshadow="2"
     inkscape:window-width="1366"
     inkscape:window-height="711"
     id="namedview8"
     showgrid="true"
     inkscape:zoom="20.85965"
     inkscape:cx="4.7588748"
     inkscape:cy="4.0837684"
     inkscape:window-x="0"
     inkscape:window-y="27"
     inkscape:window-maximized="1"
     inkscape:current-layer="svg6">
    <inkscape:grid
       type="xygrid"
       id="grid837"
       spacingx="0.5"
       spacingy="0.5" />
  </sodipodi:namedview>
  <g
     transform="translate(0 -1036.4)"
     id="g4" />
  <path
     id="path841"
     style="fill:#fc9c9c;fill-opacity:1;stroke:none;stroke-width:1px;stroke-linecap:butt;stroke-linejoin:miter;stroke-opacity:1"
     d="m 6.5,12 v 4 h 3 v -1 h -2 v -3 z m -1,0 h -2 c -0.5,0 -1,0.5 -1,1 v 2 c -0.01829,0.536528 0.5,1 1,1 h 2 v -1 h -2 v -2 h 2 z M 9.5,4e-5 C 7.9308577,0.00183031 6.6281817,1.2125261 6.5117,2.77734 5.9606727,2.2778208 5.2437405,2.0007914 4.5,2 c -1.6568542,0 -3,1.3431458 -3,3 0.00179,1.2697973 0.802822,2.4009351 2,2.8242 V 10 c 0,0.554 0.44599,1 1,1 h 6 c 0.55401,0 1,-0.446 1,-1 V 9 l 3,2 V 5 l -3,2 V 5.2305 C 12.134856,4.6626698 12.498418,3.8517461 12.5,3 12.5,1.3431458 11.156854,0 9.5,0 Z M 10.5,12 v 4 h 1 v -1 h 1 c 0.552285,0 1,-0.447715 1,-1 v -1 c 0,-0.552285 -0.447751,-0.993736 -1,-1 h -1 z m 1,1 h 1 v 1 h -1 z" />
</svg>
