<?xml version="1.0" encoding="UTF-8" standalone="no"?>
<!-- Created with Inkscape (http://www.inkscape.org/) -->

<svg
   xmlns:dc="http://purl.org/dc/elements/1.1/"
   xmlns:cc="http://creativecommons.org/ns#"
   xmlns:rdf="http://www.w3.org/1999/02/22-rdf-syntax-ns#"
   xmlns:svg="http://www.w3.org/2000/svg"
   xmlns="http://www.w3.org/2000/svg"
   xmlns:sodipodi="http://sodipodi.sourceforge.net/DTD/sodipodi-0.dtd"
   xmlns:inkscape="http://www.inkscape.org/namespaces/inkscape"
   width="16"
   height="16"
   viewBox="0 0 16 16"
   id="svg2"
   version="1.1"
   inkscape:version="0.92.2 (5c3e80d, 2017-08-06)"
   inkscape:export-filename="/home/djrm/Projects/godot/tools/editor/icons/icon_node_2d.png"
   inkscape:export-xdpi="90"
   inkscape:export-ydpi="90"
   sodipodi:docname="icon_skeleton_2d.svg">
  <defs
     id="defs4" />
  <sodipodi:namedview
     id="base"
     pagecolor="#ffffff"
     bordercolor="#666666"
     borderopacity="1.0"
     inkscape:pageopacity="0.0"
     inkscape:pageshadow="2"
     inkscape:zoom="22.627416"
     inkscape:cx="13.224659"
     inkscape:cy="9.2049718"
     inkscape:document-units="px"
     inkscape:current-layer="layer1"
     showgrid="true"
     units="px"
     inkscape:snap-bbox="true"
     inkscape:bbox-paths="true"
     inkscape:bbox-nodes="true"
     inkscape:snap-bbox-edge-midpoints="true"
     inkscape:snap-bbox-midpoints="true"
     inkscape:snap-object-midpoints="true"
     inkscape:snap-center="true"
     inkscape:window-width="1920"
     inkscape:window-height="1016"
     inkscape:window-x="0"
     inkscape:window-y="27"
     inkscape:window-maximized="1"
     inkscape:document-rotation="0">
    <inkscape:grid
       type="xygrid"
       id="grid3336"
       empspacing="4" />
  </sodipodi:namedview>
  <metadata
     id="metadata7">
    <rdf:RDF>
      <cc:Work
         rdf:about="">
        <dc:format>image/svg+xml</dc:format>
        <dc:type
           rdf:resource="http://purl.org/dc/dcmitype/StillImage" />
        <dc:title></dc:title>
      </cc:Work>
    </rdf:RDF>
  </metadata>
  <g
     inkscape:label="Layer 1"
     inkscape:groupmode="layer"
     id="layer1">
    <path
       style="opacity:1;fill:#a5b7f3;fill-opacity:1;stroke:none;stroke-width:2;stroke-linecap:butt;stroke-linejoin:bevel;stroke-miterlimit:4;stroke-dasharray:none;stroke-dashoffset:0;stroke-opacity:0.99607843"
       d="M 6 2 A 4 4 0 0 0 2 6 A 4 4 0 0 0 4 9.453125 L 4 13 A 2 2 0 0 0 5 14.732422 A 2 2 0 0 0 6 14.998047 L 6 15 L 10 15 L 10 14.998047 A 2 2 0 0 0 11 14.732422 A 2 2 0 0 0 12 13 L 12 9.453125 A 4 4 0 0 0 14 6 A 4 4 0 0 0 10 2 L 6 2 z M 5 5 A 1.0000174 1.0000174 0 0 1 6 6 A 1.0000174 1.0000174 0 0 1 5 7 A 1.0000174 1.0000174 0 0 1 4 6 A 1.0000174 1.0000174 0 0 1 5 5 z M 11 5 A 1.0000174 1.0000174 0 0 1 12 6 A 1.0000174 1.0000174 0 0 1 11 7 A 1.0000174 1.0000174 0 0 1 10 6 A 1.0000174 1.0000174 0 0 1 11 5 z M 7 7 L 9 7 L 9 8 L 7 8 L 7 7 z M 5 9 L 6 9 L 6 10 L 7 10 L 7 9 L 8 9 L 9 9 L 9 10 L 10 10 L 10 9 L 11 9 L 11 9.8671875 L 11 13 L 10 13 L 10 12 L 9 12 L 9 13 L 8 13 L 7 13 L 7 12 L 6 12 L 6 13 L 5 13 L 5 9.8691406 L 5 9 z "
       id="path4204" />
  </g>
</svg>
