<?xml version="1.0" encoding="UTF-8" standalone="no"?>
<!-- Created with Inkscape (http://www.inkscape.org/) -->

<svg
   xmlns:dc="http://purl.org/dc/elements/1.1/"
   xmlns:cc="http://creativecommons.org/ns#"
   xmlns:rdf="http://www.w3.org/1999/02/22-rdf-syntax-ns#"
   xmlns:svg="http://www.w3.org/2000/svg"
   xmlns="http://www.w3.org/2000/svg"
   xmlns:sodipodi="http://sodipodi.sourceforge.net/DTD/sodipodi-0.dtd"
   xmlns:inkscape="http://www.inkscape.org/namespaces/inkscape"
   width="16"
   height="16"
   viewBox="0 0 16 16"
   id="svg2"
   version="1.1"
   inkscape:version="0.92.2 (5c3e80d, 2017-08-06)"
   inkscape:export-filename="/home/djrm/Projects/godot/tools/editor/icons/icon_edit_key.png"
   inkscape:export-xdpi="90"
   inkscape:export-ydpi="90"
   sodipodi:docname="icon_edit_key.svg">
  <defs
     id="defs4" />
  <sodipodi:namedview
     id="base"
     pagecolor="#ffffff"
     bordercolor="#666666"
     borderopacity="1.0"
     inkscape:pageopacity="0.0"
     inkscape:pageshadow="2"
     inkscape:zoom="32.000001"
     inkscape:cx="6.8991462"
     inkscape:cy="9.106201"
     inkscape:document-units="px"
     inkscape:current-layer="layer1"
     showgrid="true"
     units="px"
     inkscape:snap-bbox="true"
     inkscape:bbox-paths="true"
     inkscape:bbox-nodes="true"
     inkscape:snap-bbox-edge-midpoints="true"
     inkscape:snap-bbox-midpoints="false"
     inkscape:snap-object-midpoints="true"
     inkscape:snap-center="true"
     inkscape:window-width="1920"
     inkscape:window-height="1016"
     inkscape:window-x="0"
     inkscape:window-y="27"
     inkscape:window-maximized="1">
    <inkscape:grid
       type="xygrid"
       id="grid3336" />
  </sodipodi:namedview>
  <metadata
     id="metadata7">
    <rdf:RDF>
      <cc:Work
         rdf:about="">
        <dc:format>image/svg+xml</dc:format>
        <dc:type
           rdf:resource="http://purl.org/dc/dcmitype/StillImage" />
        <dc:title />
      </cc:Work>
    </rdf:RDF>
  </metadata>
  <g
     inkscape:label="Layer 1"
     inkscape:groupmode="layer"
     id="layer1"
     transform="translate(0,-1036.3622)">
    <path
       style="fill:#e0e0e0;fill-opacity:1;stroke:none;stroke-width:0.76284212;stroke-miterlimit:4;stroke-dasharray:none;stroke-opacity:1"
       d="M 12 1 C 11.446 1 11 1.446 11 2 L 11 4 L 15 4 L 15 2 C 15 1.446 14.554 1 14 1 L 12 1 z M 5 4 C 4.8049996 4 4.6103569 4.07519 4.4609375 4.2246094 L 1.2246094 7.4609375 C 0.92577053 7.7597763 0.92577052 8.2402237 1.2246094 8.5390625 L 4.4609375 11.775391 C 4.7597763 12.074229 5.2402237 12.074229 5.5390625 11.775391 L 8.7753906 8.5390625 C 9.0742294 8.2402237 9.0742294 7.7597763 8.7753906 7.4609375 L 5.5390625 4.2246094 C 5.3896431 4.07519 5.1950004 4 5 4 z M 11 5 L 11 12 L 13 15 L 15 12 L 15 5 L 11 5 z M 12 6 L 13 6 L 13 11 L 12 11 L 12 6 z "
       transform="translate(0,1036.3622)"
       id="rect814" />
  </g>
</svg>
