<?xml version="1.0" encoding="UTF-8" standalone="no"?>
<!-- Created with Inkscape (http://www.inkscape.org/) -->

<svg
   xmlns:dc="http://purl.org/dc/elements/1.1/"
   xmlns:cc="http://creativecommons.org/ns#"
   xmlns:rdf="http://www.w3.org/1999/02/22-rdf-syntax-ns#"
   xmlns:svg="http://www.w3.org/2000/svg"
   xmlns="http://www.w3.org/2000/svg"
   xmlns:sodipodi="http://sodipodi.sourceforge.net/DTD/sodipodi-0.dtd"
   xmlns:inkscape="http://www.inkscape.org/namespaces/inkscape"
   width="16"
   height="12"
   viewBox="0 0 16 12"
   id="svg2"
   version="1.1"
   inkscape:version="0.92.3 (2405546, 2018-03-11)"
   inkscape:export-filename="/home/djrm/Projects/godot/tools/editor/icons/icon_add_track.png"
   inkscape:export-xdpi="45"
   inkscape:export-ydpi="45"
   sodipodi:docname="icon_pool_vector2i_array.svg">
  <defs
     id="defs4" />
  <sodipodi:namedview
     id="base"
     pagecolor="#ffffff"
     bordercolor="#666666"
     borderopacity="1.0"
     inkscape:pageopacity="0.0"
     inkscape:pageshadow="2"
     inkscape:zoom="32.000001"
     inkscape:cx="8.9444027"
     inkscape:cy="5.5672131"
     inkscape:document-units="px"
     inkscape:current-layer="layer1"
     showgrid="true"
     units="px"
     inkscape:snap-bbox="true"
     inkscape:bbox-paths="true"
     inkscape:bbox-nodes="true"
     inkscape:snap-bbox-edge-midpoints="true"
     inkscape:snap-bbox-midpoints="false"
     inkscape:snap-object-midpoints="true"
     inkscape:snap-center="true"
     inkscape:window-width="1366"
     inkscape:window-height="693"
     inkscape:window-x="0"
     inkscape:window-y="0"
     inkscape:window-maximized="1"
     inkscape:object-nodes="true"
     inkscape:snap-smooth-nodes="true"
     inkscape:document-rotation="0">
    <inkscape:grid
       type="xygrid"
       id="grid3336" />
  </sodipodi:namedview>
  <metadata
     id="metadata7">
    <rdf:RDF>
      <cc:Work
         rdf:about="">
        <dc:format>image/svg+xml</dc:format>
        <dc:type
           rdf:resource="http://purl.org/dc/dcmitype/StillImage" />
        <dc:title />
      </cc:Work>
    </rdf:RDF>
  </metadata>
  <g
     inkscape:label="Layer 1"
     inkscape:groupmode="layer"
     id="layer1">
    <path
       d="M 7.5,2 V 4 H 9 C 9.55228,4 10,4.44772 10,5 10,5.55228 9.55228,6 9,6 8.28534,5.9998752 7.6253,6.38109 7.268,7 7.09328,7.30426 7.00129,7.64914 7.002,8 H 7 v 2 h 5 V 8 H 9 c 1.0717,-1.344e-4 2.0622,-0.57191 2.598,-1.5 0.5359,-0.9282 0.5359,-2.0718 0,-3 C 11.06222,2.57191 10.0717,2.0001 9,2 Z M 2,4 v 6 H 4 C 5.6569,10 7,8.6569 7,7 V 4 H 5 V 7 C 5,7.55228 4.55228,8 4,8 V 4 Z M 7,7 C 3,10.3333 5,8.6667 7,7 Z"
       id="path15"
       inkscape:connector-curvature="0"
       style="fill:#9194f1"
       sodipodi:nodetypes="ccssccccccccccccccssccsccccc" />
    <path
       d="M 7.5,2 V 4 H 9 C 9.55228,4 10,4.44772 10,5 10,5.55228 9.55228,6 9,6 8.28534,5.9998752 7.6249,6.38109 7.2676,7 7.09288,7.30426 7.00127,7.64914 7.00198,8 H 7.00003 v 2 h 5 V 8 h -3 c 1.0717,-1.344e-4 2.0619,-0.57191 2.5977,-1.5 0.5359,-0.9282 0.5359,-2.0718 0,-3 C 11.0619,2.57191 10.07173,2.0001 9.00003,2 Z"
       id="path17"
       inkscape:connector-curvature="0"
       style="fill:#ffffff;fill-opacity:0.39216003" />
    <path
       d="m 12,2 v 2 h 2 V 2 Z m 0,4 v 4 h 2 V 6 Z"
       id="path19"
       inkscape:connector-curvature="0"
       style="fill:#9194f1" />
    <path
       style="fill:#e0e0e0;fill-opacity:1;stroke:none;stroke-width:2;stroke-linecap:round;stroke-linejoin:round;stroke-miterlimit:4;stroke-dasharray:none;stroke-opacity:1"
       d="M 0,0 V 12 H 4 V 10 H 2 V 2 H 4 V 0 Z m 12,0 v 2 h 2 v 8 h -2 v 2 h 4 V 0 Z"
       id="rect4158"
       inkscape:connector-curvature="0"
       sodipodi:nodetypes="cccccccccccccccccc" />
  </g>
</svg>
