<?xml version="1.0" encoding="UTF-8" standalone="no"?>
<!-- Created with Inkscape (http://www.inkscape.org/) -->

<svg
   xmlns:dc="http://purl.org/dc/elements/1.1/"
   xmlns:cc="http://creativecommons.org/ns#"
   xmlns:rdf="http://www.w3.org/1999/02/22-rdf-syntax-ns#"
   xmlns:svg="http://www.w3.org/2000/svg"
   xmlns="http://www.w3.org/2000/svg"
   xmlns:sodipodi="http://sodipodi.sourceforge.net/DTD/sodipodi-0.dtd"
   xmlns:inkscape="http://www.inkscape.org/namespaces/inkscape"
   width="16"
   height="16"
   viewBox="0 0 16 16"
   id="svg2"
   version="1.1"
   inkscape:version="0.92.2 (5c3e80d, 2017-08-06)"
   inkscape:export-filename="/home/djrm/Projects/godot/tools/editor/icons/icon_node_2d.png"
   inkscape:export-xdpi="90"
   inkscape:export-ydpi="90"
   sodipodi:docname="icon_capsule_mesh.svg">
  <defs
     id="defs4" />
  <sodipodi:namedview
     id="base"
     pagecolor="#ffffff"
     bordercolor="#666666"
     borderopacity="1.0"
     inkscape:pageopacity="0.0"
     inkscape:pageshadow="2"
     inkscape:zoom="22.627417"
     inkscape:cx="6.5093984"
     inkscape:cy="4.8931355"
     inkscape:document-units="px"
     inkscape:current-layer="layer1"
     showgrid="true"
     units="px"
     inkscape:snap-bbox="true"
     inkscape:bbox-paths="true"
     inkscape:bbox-nodes="true"
     inkscape:snap-bbox-edge-midpoints="true"
     inkscape:snap-bbox-midpoints="true"
     inkscape:snap-object-midpoints="true"
     inkscape:snap-center="true"
     inkscape:window-width="1920"
     inkscape:window-height="1016"
     inkscape:window-x="0"
     inkscape:window-y="27"
     inkscape:window-maximized="1"
     inkscape:document-rotation="0">
    <inkscape:grid
       type="xygrid"
       id="grid3336"
       empspacing="4" />
  </sodipodi:namedview>
  <metadata
     id="metadata7">
    <rdf:RDF>
      <cc:Work
         rdf:about="">
        <dc:format>image/svg+xml</dc:format>
        <dc:type
           rdf:resource="http://purl.org/dc/dcmitype/StillImage" />
        <dc:title />
      </cc:Work>
    </rdf:RDF>
  </metadata>
  <g
     inkscape:label="Layer 1"
     inkscape:groupmode="layer"
     id="layer1">
    <path
       style="fill:#ffd684;fill-opacity:1"
       d="M 8.0000001,1 C 5.2472801,1 3,3.2419 3,5.9903 v 4.0175 C 3,12.7562 5.2472801,15 8.0000001,15 10.75272,15 13,12.7562 13,10.0078 V 5.9903 C 13,3.2419 10.75272,1 8.0000001,1 Z M 6.9941062,3.1264 V 7.984 C 6.3285424,7.8793 5.6967662,7.612 5,7.3222 V 6 C 5,4.6526 5.7983771,3.5352 6.9941062,3.1264 Z m 2.0117878,0 C 10.201623,3.5352 11,4.6526 11,6 V 7.3451 C 10.315945,7.6505 9.6858409,7.9183 9.005894,8.0114 Z M 5,9.4604 c 0.6783617,0.2231 1.3125945,0.447 1.9941062,0.5264 v 2.8848 C 5.7983771,12.4624 5,11.3474 5,10 Z m 6,0.03 v 0.5094 c 0,1.3474 -0.798377,2.4619 -1.994106,2.8711 V 9.9998 C 9.6919493,9.9318 10.326549,9.717 11,9.4904 Z"
       id="path4272"
       inkscape:connector-curvature="0"
       sodipodi:nodetypes="ssssssscccsccsccccccsccsccc" />
  </g>
</svg>
