<?xml version="1.0" encoding="UTF-8" standalone="no"?>
<!-- Created with Inkscape (http://www.inkscape.org/) -->

<svg
   xmlns:dc="http://purl.org/dc/elements/1.1/"
   xmlns:cc="http://creativecommons.org/ns#"
   xmlns:rdf="http://www.w3.org/1999/02/22-rdf-syntax-ns#"
   xmlns:svg="http://www.w3.org/2000/svg"
   xmlns="http://www.w3.org/2000/svg"
   xmlns:sodipodi="http://sodipodi.sourceforge.net/DTD/sodipodi-0.dtd"
   xmlns:inkscape="http://www.inkscape.org/namespaces/inkscape"
   width="128"
   height="128"
   viewBox="0 0 128 128"
   id="svg2"
   version="1.1"
   inkscape:version="0.92+devel unknown"
   inkscape:export-filename="/home/djrm/Projects/godot/tools/editor/icons/icon_gizmo_directional_light.png"
   inkscape:export-xdpi="360"
   inkscape:export-ydpi="360"
   sodipodi:docname="icon_gizmo_directional_light.svg">
  <defs
     id="defs4" />
  <sodipodi:namedview
     id="base"
     pagecolor="#ffffff"
     bordercolor="#666666"
     borderopacity="1.0"
     inkscape:pageopacity="0.0"
     inkscape:pageshadow="2"
     inkscape:zoom="5.6568542"
     inkscape:cx="73.009085"
     inkscape:cy="65.647997"
     inkscape:document-units="px"
     inkscape:current-layer="layer1"
     showgrid="true"
     units="px"
     inkscape:snap-bbox="true"
     inkscape:bbox-paths="true"
     inkscape:bbox-nodes="true"
     inkscape:snap-bbox-edge-midpoints="true"
     inkscape:snap-bbox-midpoints="false"
     inkscape:snap-object-midpoints="true"
     inkscape:snap-center="true"
     inkscape:window-width="1920"
     inkscape:window-height="1016"
     inkscape:window-x="0"
     inkscape:window-y="27"
     inkscape:window-maximized="1"
     inkscape:document-rotation="0">
    <inkscape:grid
       type="xygrid"
       id="grid3336"
       empspacing="4" />
  </sodipodi:namedview>
  <metadata
     id="metadata7">
    <rdf:RDF>
      <cc:Work
         rdf:about="">
        <dc:format>image/svg+xml</dc:format>
        <dc:type
           rdf:resource="http://purl.org/dc/dcmitype/StillImage" />
        <dc:title />
      </cc:Work>
    </rdf:RDF>
  </metadata>
  <g
     inkscape:label="Layer 1"
     inkscape:groupmode="layer"
     id="layer1"
     transform="translate(0,-924.3622)">
    <path
       style="fill:#000000;fill-opacity:0.29411765;stroke-width:2;stroke-linecap:round;stroke-linejoin:round;stroke-opacity:0.98823529"
       d="M 64 4 C 59.568 4 56 7.568 56 12 L 56 28 C 56 32.432 59.568 36 64 36 C 68.432 36 72 32.432 72 28 L 72 12 C 72 7.568 68.432 4 64 4 z M 27.230469 19.222656 C 25.185516 19.222656 23.141167 20.00727 21.574219 21.574219 C 18.440321 24.708116 18.440321 29.752821 21.574219 32.886719 L 32.886719 44.201172 C 36.020616 47.335069 41.067275 47.335069 44.201172 44.201172 C 47.335069 41.067275 47.335069 36.020616 44.201172 32.886719 L 32.886719 21.574219 C 31.31977 20.00727 29.275422 19.222656 27.230469 19.222656 z M 100.76953 19.222656 C 98.724578 19.222656 96.68023 20.00727 95.113281 21.574219 L 83.798828 32.886719 C 80.664931 36.020616 80.664931 41.067275 83.798828 44.201172 C 86.932725 47.335069 91.979384 47.335069 95.113281 44.201172 L 106.42578 32.886719 C 109.55968 29.752821 109.55968 24.708116 106.42578 21.574219 C 104.85883 20.00727 102.81448 19.222656 100.76953 19.222656 z M 64 40 A 24 24 0 0 0 40 64 A 24 24 0 0 0 64 88 A 24 24 0 0 0 88 64 A 24 24 0 0 0 64 40 z M 12 56 C 7.568 56 4 59.568 4 64 C 4 68.432 7.568 72 12 72 L 28 72 C 32.432 72 36 68.432 36 64 C 36 59.568 32.432 56 28 56 L 12 56 z M 100 56 C 95.568 56 92 59.568 92 64 C 92 68.432 95.568 72 100 72 L 116 72 C 120.432 72 124 68.432 124 64 C 124 59.568 120.432 56 116 56 L 100 56 z M 38.544922 81.449219 C 36.499969 81.449219 34.453667 82.231879 32.886719 83.798828 L 21.574219 95.113281 C 18.440321 98.247179 18.440321 103.29188 21.574219 106.42578 C 24.708116 109.55968 29.752821 109.55968 32.886719 106.42578 L 44.201172 95.113281 C 47.335069 91.979384 47.335069 86.932725 44.201172 83.798828 C 42.634223 82.231879 40.589875 81.449219 38.544922 81.449219 z M 89.455078 81.449219 C 87.410125 81.449219 85.365777 82.231879 83.798828 83.798828 C 80.664931 86.932725 80.664931 91.979384 83.798828 95.113281 L 95.113281 106.42578 C 98.247179 109.55968 103.29188 109.55968 106.42578 106.42578 C 109.55968 103.29188 109.55968 98.247179 106.42578 95.113281 L 95.113281 83.798828 C 93.546333 82.231879 91.500031 81.449219 89.455078 81.449219 z M 64 92 C 59.568 92 56 95.568 56 100 L 56 116 C 56 120.432 59.568 124 64 124 C 68.432 124 72 120.432 72 116 L 72 100 C 72 95.568 68.432 92 64 92 z "
       transform="translate(0,924.3622)"
       id="path4282" />
    <path
       style="opacity:1;fill:#f7f5cf;fill-opacity:1;stroke:none;stroke-width:1.66666663;stroke-linecap:round;stroke-linejoin:round;stroke-miterlimit:4;stroke-dasharray:none;stroke-dashoffset:0;stroke-opacity:1"
       d="M 64 8 C 61.784 8 60 9.784 60 12 L 60 28 C 60 30.216 61.784 32 64 32 C 66.216 32 68 30.216 68 28 L 68 12 C 68 9.784 66.216 8 64 8 z M 27.230469 23.226562 C 26.207992 23.226562 25.185818 23.618869 24.402344 24.402344 C 22.835395 25.969292 22.835395 28.491645 24.402344 30.058594 L 35.714844 41.373047 C 37.281792 42.939996 39.806098 42.939996 41.373047 41.373047 C 42.939996 39.806098 42.939996 37.281792 41.373047 35.714844 L 30.058594 24.402344 C 29.275119 23.618869 28.252945 23.226562 27.230469 23.226562 z M 100.76953 23.226562 C 99.747055 23.226562 98.724881 23.618869 97.941406 24.402344 L 86.626953 35.714844 C 85.060004 37.281792 85.060004 39.806098 86.626953 41.373047 C 88.193902 42.939996 90.718208 42.939996 92.285156 41.373047 L 103.59766 30.058594 C 105.1646 28.491645 105.1646 25.969292 103.59766 24.402344 C 102.81418 23.618869 101.79201 23.226562 100.76953 23.226562 z M 64 44 C 52.954308 44.00001 44.000007 52.95431 44 64 C 44.000007 75.04569 52.954308 84 64 84 C 75.045692 84 83.999992 75.04569 84 64 C 83.999992 52.95431 75.045692 44.00001 64 44 z M 12 60 C 9.784 60 8 61.784 8 64 C 8 66.216 9.784 68 12 68 L 28 68 C 30.216 68 32 66.216 32 64 C 32 61.784 30.216 60 28 60 L 12 60 z M 100 60 C 97.784 60 96 61.784 96 64 C 96 66.216 97.784 68 100 68 L 116 68 C 118.216 68 120 66.216 120 64 C 120 61.784 118.216 60 116 60 L 100 60 z M 38.544922 85.453125 C 37.522445 85.453125 36.498318 85.843479 35.714844 86.626953 L 24.402344 97.941406 C 22.835395 99.508355 22.835395 102.03071 24.402344 103.59766 C 25.969292 105.1646 28.491645 105.1646 30.058594 103.59766 L 41.373047 92.285156 C 42.939996 90.718208 42.939996 88.193902 41.373047 86.626953 C 40.589573 85.843479 39.567398 85.453125 38.544922 85.453125 z M 89.455078 85.453125 C 88.432602 85.453125 87.410427 85.843479 86.626953 86.626953 C 85.060004 88.193902 85.060004 90.718208 86.626953 92.285156 L 97.941406 103.59766 C 99.508355 105.1646 102.03071 105.1646 103.59766 103.59766 C 105.1646 102.03071 105.1646 99.508355 103.59766 97.941406 L 92.285156 86.626953 C 91.501682 85.843479 90.477555 85.453125 89.455078 85.453125 z M 64 96 C 61.784 96 60 97.784 60 100 L 60 116 C 60 118.216 61.784 120 64 120 C 66.216 120 68 118.216 68 116 L 68 100 C 68 97.784 66.216 96 64 96 z "
       transform="translate(0,924.3622)"
       id="path4156" />
  </g>
</svg>
