<?xml version="1.0" encoding="UTF-8" standalone="no"?>
<!-- Created with Inkscape (http://www.inkscape.org/) -->

<svg
   xmlns:dc="http://purl.org/dc/elements/1.1/"
   xmlns:cc="http://creativecommons.org/ns#"
   xmlns:rdf="http://www.w3.org/1999/02/22-rdf-syntax-ns#"
   xmlns:svg="http://www.w3.org/2000/svg"
   xmlns="http://www.w3.org/2000/svg"
   xmlns:sodipodi="http://sodipodi.sourceforge.net/DTD/sodipodi-0.dtd"
   xmlns:inkscape="http://www.inkscape.org/namespaces/inkscape"
   width="16"
   height="16"
   viewBox="0 0 16 16"
   id="svg2"
   version="1.1"
   inkscape:version="0.92+devel unknown"
   inkscape:export-filename="/home/djrm/icon_node_2d.png"
   inkscape:export-xdpi="90"
   inkscape:export-ydpi="90"
   sodipodi:docname="icon_world_environment.svg">
  <defs
     id="defs4" />
  <sodipodi:namedview
     id="base"
     pagecolor="#ffffff"
     bordercolor="#666666"
     borderopacity="1.0"
     inkscape:pageopacity="0.0"
     inkscape:pageshadow="2"
     inkscape:zoom="45.254832"
     inkscape:cx="8.1604665"
     inkscape:cy="7.8673521"
     inkscape:document-units="px"
     inkscape:current-layer="layer1"
     showgrid="true"
     units="px"
     inkscape:snap-bbox="true"
     inkscape:bbox-paths="true"
     inkscape:bbox-nodes="true"
     inkscape:snap-bbox-edge-midpoints="true"
     inkscape:snap-bbox-midpoints="true"
     inkscape:snap-object-midpoints="true"
     inkscape:snap-center="true"
     inkscape:window-width="1920"
     inkscape:window-height="1016"
     inkscape:window-x="0"
     inkscape:window-y="27"
     inkscape:window-maximized="1"
     inkscape:object-paths="true"
     inkscape:snap-intersection-paths="true"
     inkscape:object-nodes="true"
     inkscape:snap-smooth-nodes="true"
     inkscape:document-rotation="0">
    <inkscape:grid
       type="xygrid"
       id="grid3336"
       empspacing="4" />
  </sodipodi:namedview>
  <metadata
     id="metadata7">
    <rdf:RDF>
      <cc:Work
         rdf:about="">
        <dc:format>image/svg+xml</dc:format>
        <dc:type
           rdf:resource="http://purl.org/dc/dcmitype/StillImage" />
        <dc:title />
      </cc:Work>
    </rdf:RDF>
  </metadata>
  <g
     inkscape:label="Layer 1"
     inkscape:groupmode="layer"
     id="layer1"
     transform="translate(0,-1036.3622)">
    <path
       style="fill:#fc9c9c;stroke-width:2;stroke-linecap:round;stroke-linejoin:round;fill-opacity:0.99607843"
       d="M 8 1 A 7 7 0 0 0 1 8 A 7 7 0 0 0 8 15 A 7 7 0 0 0 15 8 A 7 7 0 0 0 8 1 z M 6.2695312 3.3125 C 5.4382815 4.8497027 5.0010646 6.4162278 5 7.9941406 C 4.3594254 7.8816262 3.6995401 7.722558 3.0234375 7.5214844 A 5 5 0 0 1 6.2695312 3.3125 z M 9.7324219 3.3164062 A 5 5 0 0 1 12.970703 7.5039062 C 12.318834 7.6783853 11.663008 7.8325798 10.998047 7.953125 C 10.989597 6.3904061 10.555106 4.8390473 9.7324219 3.3164062 z M 8 3.3242188 C 9.0125592 4.9172489 9.5 6.4667273 9.5 8 C 9.5 8.054042 9.4933839 8.1080274 9.4921875 8.1621094 C 8.5282711 8.2589106 7.535607 8.2724081 6.5078125 8.1894531 C 6.506179 8.1262609 6.5 8.0631373 6.5 8 C 6.5 6.4667273 6.9874408 4.9172489 8 3.3242188 z M 12.878906 9.0820312 A 5 5 0 0 1 9.7304688 12.6875 C 10.301533 11.631051 10.683238 10.56069 10.867188 9.4824219 C 11.549231 9.3733704 12.222798 9.2445276 12.878906 9.0820312 z M 3.1328125 9.1152344 C 3.8165859 9.2967682 4.4883013 9.4486816 5.1425781 9.546875 C 5.3303881 10.602016 5.7090514 11.649471 6.2675781 12.683594 A 5 5 0 0 1 3.1328125 9.1152344 z M 9.3007812 9.6699219 C 9.0746361 10.658578 8.6465458 11.658308 8 12.675781 C 7.3618934 11.671589 6.9354705 10.685011 6.7070312 9.7089844 C 7.5972975 9.7631103 8.4587133 9.7383612 9.3007812 9.6699219 z "
       transform="translate(0,1036.3622)"
       id="path4298" />
    <path
       style="fill:#a5b7f3;stroke-width:2;stroke-linecap:round;stroke-linejoin:round;fill-opacity:1"
       d="M 8 1 L 8 3.3242188 C 9.0125592 4.9172488 9.5 6.4667273 9.5 8 C 9.5 8.054042 9.4933839 8.1080274 9.4921875 8.1621094 C 9.002786 8.2112575 8.5050581 8.2396618 8 8.2441406 L 8 9.7363281 C 8.4391523 9.7287313 8.8728686 9.7047006 9.3007812 9.6699219 C 9.0746361 10.658578 8.6465458 11.658308 8 12.675781 L 8 15 A 7 7 0 0 0 15 8 A 7 7 0 0 0 8 1 z M 9.7324219 3.3164062 A 5 5 0 0 1 12.970703 7.5039062 C 12.318834 7.6783854 11.663008 7.8325798 10.998047 7.953125 C 10.989597 6.3904061 10.555106 4.8390474 9.7324219 3.3164062 z M 12.878906 9.0820312 A 5 5 0 0 1 9.7304688 12.6875 C 10.301533 11.631051 10.683237 10.56069 10.867188 9.4824219 C 11.549231 9.3733704 12.222798 9.2445276 12.878906 9.0820312 z "
       transform="translate(0,1036.3622)"
       id="path4266" />
  </g>
</svg>
