<?xml version="1.0" encoding="UTF-8" standalone="no"?>
<!-- Created with Inkscape (http://www.inkscape.org/) -->

<svg
   xmlns:dc="http://purl.org/dc/elements/1.1/"
   xmlns:cc="http://creativecommons.org/ns#"
   xmlns:rdf="http://www.w3.org/1999/02/22-rdf-syntax-ns#"
   xmlns:svg="http://www.w3.org/2000/svg"
   xmlns="http://www.w3.org/2000/svg"
   xmlns:sodipodi="http://sodipodi.sourceforge.net/DTD/sodipodi-0.dtd"
   xmlns:inkscape="http://www.inkscape.org/namespaces/inkscape"
   width="16"
   height="16"
   viewBox="0 0 16 16"
   id="svg2"
   version="1.1"
   inkscape:version="0.92+devel unknown"
   inkscape:export-filename="/home/djrm/Projects/godot/tools/editor/icons/icon_camera.png"
   inkscape:export-xdpi="90"
   inkscape:export-ydpi="90"
   sodipodi:docname="icon_interpolated_camera.svg">
  <defs
     id="defs4" />
  <sodipodi:namedview
     id="base"
     pagecolor="#ffffff"
     bordercolor="#666666"
     borderopacity="1.0"
     inkscape:pageopacity="0.0"
     inkscape:pageshadow="2"
     inkscape:zoom="22.627417"
     inkscape:cx="5.7748972"
     inkscape:cy="12.702324"
     inkscape:document-units="px"
     inkscape:current-layer="layer1"
     showgrid="true"
     units="px"
     inkscape:snap-bbox="true"
     inkscape:bbox-paths="true"
     inkscape:bbox-nodes="true"
     inkscape:snap-bbox-edge-midpoints="true"
     inkscape:snap-bbox-midpoints="true"
     inkscape:snap-object-midpoints="true"
     inkscape:snap-center="true"
     inkscape:window-width="1920"
     inkscape:window-height="1016"
     inkscape:window-x="0"
     inkscape:window-y="27"
     inkscape:window-maximized="1"
     showguides="true"
     inkscape:document-rotation="0">
    <inkscape:grid
       type="xygrid"
       id="grid3336"
       empspacing="4" />
  </sodipodi:namedview>
  <metadata
     id="metadata7">
    <rdf:RDF>
      <cc:Work
         rdf:about="">
        <dc:format>image/svg+xml</dc:format>
        <dc:type
           rdf:resource="http://purl.org/dc/dcmitype/StillImage" />
        <dc:title />
      </cc:Work>
    </rdf:RDF>
  </metadata>
  <g
     inkscape:label="Layer 1"
     inkscape:groupmode="layer"
     id="layer1"
     transform="translate(0,-1036.3622)">
    <path
       style="opacity:1;fill:#fc9c9c;fill-opacity:1;stroke:none;stroke-width:4;stroke-linecap:round;stroke-linejoin:round;stroke-miterlimit:4;stroke-dasharray:none;stroke-dashoffset:0;stroke-opacity:1"
       d="M 9 0 A 3.0000174 3.0000174 0 0 0 6.0117188 2.7773438 A 2.9999828 2.9999828 0 0 0 4 2 A 2.9999828 2.9999828 0 0 0 1 5 A 2.9999828 2.9999828 0 0 0 3 7.8242188 L 3 10 C 3 10.554 3.44599 11 4 11 L 10 11 C 10.55401 11 11 10.554 11 10 L 11 9 L 14 11 L 14 5 L 11 7 L 11 5.2304688 A 3.0000174 3.0000174 0 0 0 12 3 A 3.0000174 3.0000174 0 0 0 9 0 z M 3 12 L 3 16 L 4 16 L 4 12 L 3 12 z M 6 12 L 6 16 L 7 16 L 7 15 L 8 15 A 1 1 0 0 0 9 14 L 9 13 A 1 1 0 0 0 8 12 L 7 12 L 6 12 z M 11 12 A 1 1 0 0 0 10 13 L 10 15 A 1 1 0 0 0 11 16 L 12 16 A 1 1 0 0 0 13 15 L 13 13 A 1 1 0 0 0 12 12 L 11 12 z M 7 13 L 8 13 L 8 14 L 7 14 L 7 13 z M 11 13 L 12 13 L 12 15 L 11 15 L 11 13 z "
       transform="translate(0,1036.3622)"
       id="rect4141" />
  </g>
</svg>
