<?xml version="1.0" encoding="UTF-8" standalone="no"?>
<!-- Created with Inkscape (http://www.inkscape.org/) -->

<svg
   xmlns:dc="http://purl.org/dc/elements/1.1/"
   xmlns:cc="http://creativecommons.org/ns#"
   xmlns:rdf="http://www.w3.org/1999/02/22-rdf-syntax-ns#"
   xmlns:svg="http://www.w3.org/2000/svg"
   xmlns="http://www.w3.org/2000/svg"
   xmlns:sodipodi="http://sodipodi.sourceforge.net/DTD/sodipodi-0.dtd"
   xmlns:inkscape="http://www.inkscape.org/namespaces/inkscape"
   width="16"
   height="16"
   viewBox="0 0 16 16"
   id="svg2"
   version="1.1"
   inkscape:version="0.92.2 (5c3e80d, 2017-08-06)"
   inkscape:export-filename="/home/djrm/Projects/godot/tools/editor/icons/icon_g_d_script.png"
   inkscape:export-xdpi="90"
   inkscape:export-ydpi="90"
   sodipodi:docname="icon_plugin_script.svg">
  <defs
     id="defs4" />
  <sodipodi:namedview
     id="base"
     pagecolor="#ffffff"
     bordercolor="#666666"
     borderopacity="1.0"
     inkscape:pageopacity="0.0"
     inkscape:pageshadow="2"
     inkscape:zoom="32"
     inkscape:cx="1.1295338"
     inkscape:cy="6.8813438"
     inkscape:document-units="px"
     inkscape:current-layer="layer1"
     showgrid="true"
     units="px"
     inkscape:snap-bbox="true"
     inkscape:bbox-paths="true"
     inkscape:bbox-nodes="true"
     inkscape:snap-bbox-edge-midpoints="true"
     inkscape:snap-bbox-midpoints="true"
     inkscape:snap-object-midpoints="true"
     inkscape:snap-center="true"
     inkscape:window-width="1920"
     inkscape:window-height="1053"
     inkscape:window-x="0"
     inkscape:window-y="27"
     inkscape:window-maximized="1">
    <inkscape:grid
       type="xygrid"
       id="grid3336" />
  </sodipodi:namedview>
  <metadata
     id="metadata7">
    <rdf:RDF>
      <cc:Work
         rdf:about="">
        <dc:format>image/svg+xml</dc:format>
        <dc:type
           rdf:resource="http://purl.org/dc/dcmitype/StillImage" />
        <dc:title />
      </cc:Work>
    </rdf:RDF>
  </metadata>
  <g
     inkscape:label="Layer 1"
     inkscape:groupmode="layer"
     id="layer1">
    <path
       style="opacity:1;fill:#e0e0e0;fill-opacity:1;stroke:none;stroke-width:3;stroke-linecap:round;stroke-linejoin:miter;stroke-miterlimit:4;stroke-dasharray:none;stroke-dashoffset:0;stroke-opacity:1"
       d="M 7 1 L 6.4355469 3.2578125 C 6.199113 3.3336631 5.9686577 3.4270203 5.7460938 3.5371094 L 3.7578125 2.34375 L 2.34375 3.7578125 L 3.5390625 5.7519531 C 3.4271514 5.9730857 3.3318366 6.2022329 3.2539062 6.4375 L 1 7 L 1 9 L 3.2578125 9.5644531 C 3.3059534 9.7139126 3.3736056 9.8558215 3.4355469 10 L 4.0234375 10 C 4.5393883 9.3158979 5.222195 8.7544339 6.0429688 8.4042969 C 6.0149495 8.2713407 6.0005523 8.1358754 6 8 C 6.0000096 6.8954345 6.8954345 6.0000096 8 6 C 9.1045655 6.0000096 9.9999904 6.8954345 10 8 C 9.9998263 8.1345032 9.9860854 8.2686458 9.9589844 8.4003906 C 10.781938 8.7514656 11.468011 9.3134002 11.984375 10 L 12.564453 10 C 12.628121 9.8553735 12.696374 9.7126007 12.746094 9.5625 L 15 9 L 15 7 L 12.742188 6.4355469 C 12.666246 6.1997785 12.572891 5.9699791 12.462891 5.7480469 L 13.65625 3.7578125 L 12.242188 2.34375 L 10.248047 3.5390625 C 10.026914 3.4271514 9.7977671 3.3318366 9.5625 3.2539062 L 9 1 L 7 1 z M 8 7 A 1 1 0 0 0 7.0019531 7.9296875 A 1 1 0 0 0 7 8 L 7 10.173828 A 3 3 0 0 0 5 13 L 6 13 L 6 15 L 7 15 L 7 13 L 9 13 L 9 15 L 10 15 L 10 13 L 11 13 A 3 3 0 0 0 10.984375 12.701172 A 3 3 0 0 0 9 10.175781 L 9 8 A 1 1 0 0 0 8 7 z "
       id="path4176-6" />
  </g>
</svg>
