<?xml version="1.0" encoding="UTF-8" standalone="no"?>
<svg
   xmlns:dc="http://purl.org/dc/elements/1.1/"
   xmlns:cc="http://creativecommons.org/ns#"
   xmlns:rdf="http://www.w3.org/1999/02/22-rdf-syntax-ns#"
   xmlns:svg="http://www.w3.org/2000/svg"
   xmlns="http://www.w3.org/2000/svg"
   xmlns:sodipodi="http://sodipodi.sourceforge.net/DTD/sodipodi-0.dtd"
   xmlns:inkscape="http://www.inkscape.org/namespaces/inkscape"
   height="12"
   viewBox="0 0 16 12"
   width="16"
   version="1.1"
   id="svg4"
   sodipodi:docname="icon_string_name.svg"
   inkscape:version="0.92.4 5da689c313, 2019-01-14">
  <metadata
     id="metadata10">
    <rdf:RDF>
      <cc:Work
         rdf:about="">
        <dc:format>image/svg+xml</dc:format>
        <dc:type
           rdf:resource="http://purl.org/dc/dcmitype/StillImage" />
        <dc:title />
      </cc:Work>
    </rdf:RDF>
  </metadata>
  <defs
     id="defs8" />
  <sodipodi:namedview
     pagecolor="#ffffff"
     bordercolor="#666666"
     borderopacity="1"
     objecttolerance="10"
     gridtolerance="10"
     guidetolerance="10"
     inkscape:pageopacity="0"
     inkscape:pageshadow="2"
     inkscape:window-width="1366"
     inkscape:window-height="703"
     id="namedview6"
     showgrid="true"
     inkscape:zoom="9.53125"
     inkscape:cx="14.136495"
     inkscape:cy="4.9027321"
     inkscape:window-x="0"
     inkscape:window-y="0"
     inkscape:window-maximized="1"
     inkscape:current-layer="svg4">
    <inkscape:grid
       type="xygrid"
       id="grid18" />
  </sodipodi:namedview>
  <g
     id="g35">
    <g
       id="g24">
      <path
         sodipodi:nodetypes="ssssccsssscscccssccscccscccssc"
         inkscape:connector-curvature="0"
         id="path2"
         d="M 5,2 C 3.3431458,2 2,3.3431458 2,5 V 7 C 2,7.5522847 1.5522847,8 1,8 H 0 v 2 H 1 C 2.6568542,10 4,8.6568542 4,7 V 5 C 4,4.4477153 4.4477153,4 5,4 h 1 v 3 c 0,1.6568542 1.3431458,3 3,3 1,0 2,0 3,0 V 6 h 1 c 0.552285,0 1,0.4477153 1,1 v 3 h 2 V 7 C 16,5.3431458 14.656854,4 13,4 11.298613,4 9.480461,4 8,4 V 2 Z m 3,4 h 2 V 8 H 9 C 8.4477153,8 8,7.5522847 8,7 Z"
         style="fill:#6ba7ec" />
    </g>
    <path
       inkscape:connector-curvature="0"
       style="fill:#ffffff;fill-opacity:0.39215686"
       d="m 10,4 v 6 h 2 V 6 h 1 c 0.552285,0 1,0.447715 1,1 v 3 h 2 V 7 C 16,5.343146 14.656854,4 13,4 h -1 z"
       id="path2-3-3"
       sodipodi:nodetypes="ccccssccsscc" />
  </g>
</svg>
