<?xml version="1.0" encoding="UTF-8" standalone="no"?>
<!-- Created with Inkscape (http://www.inkscape.org/) -->

<svg
   xmlns:dc="http://purl.org/dc/elements/1.1/"
   xmlns:cc="http://creativecommons.org/ns#"
   xmlns:rdf="http://www.w3.org/1999/02/22-rdf-syntax-ns#"
   xmlns:svg="http://www.w3.org/2000/svg"
   xmlns="http://www.w3.org/2000/svg"
   xmlns:sodipodi="http://sodipodi.sourceforge.net/DTD/sodipodi-0.dtd"
   xmlns:inkscape="http://www.inkscape.org/namespaces/inkscape"
   width="16"
   height="16"
   viewBox="0 0 16 16"
   id="svg2"
   version="1.1"
   inkscape:version="0.92.2 (5c3e80d, 2017-08-06)"
   inkscape:export-filename="/home/djrm/Projects/godot/tools/editor/icons/icon_bone.png"
   inkscape:export-xdpi="90"
   inkscape:export-ydpi="90"
   sodipodi:docname="icon_baked_lightmap_data.svg">
  <defs
     id="defs4" />
  <sodipodi:namedview
     id="base"
     pagecolor="#ffffff"
     bordercolor="#666666"
     borderopacity="1.0"
     inkscape:pageopacity="0.0"
     inkscape:pageshadow="2"
     inkscape:zoom="16"
     inkscape:cx="13.570768"
     inkscape:cy="7.8285577"
     inkscape:document-units="px"
     inkscape:current-layer="layer1"
     showgrid="true"
     units="px"
     inkscape:snap-bbox="true"
     inkscape:bbox-paths="true"
     inkscape:bbox-nodes="true"
     inkscape:snap-bbox-edge-midpoints="true"
     inkscape:snap-bbox-midpoints="true"
     inkscape:snap-object-midpoints="true"
     inkscape:snap-center="true"
     inkscape:window-width="1920"
     inkscape:window-height="1053"
     inkscape:window-x="0"
     inkscape:window-y="27"
     inkscape:window-maximized="1"
     showguides="true">
    <inkscape:grid
       type="xygrid"
       id="grid3336" />
  </sodipodi:namedview>
  <metadata
     id="metadata7">
    <rdf:RDF>
      <cc:Work
         rdf:about="">
        <dc:format>image/svg+xml</dc:format>
        <dc:type
           rdf:resource="http://purl.org/dc/dcmitype/StillImage" />
        <dc:title></dc:title>
      </cc:Work>
    </rdf:RDF>
  </metadata>
  <g
     inkscape:label="Layer 1"
     inkscape:groupmode="layer"
     id="layer1">
    <path
       style="opacity:1;fill:#e0e0e0;fill-opacity:1;stroke:none;stroke-width:3;stroke-linecap:round;stroke-linejoin:round;stroke-miterlimit:4;stroke-dasharray:none;stroke-dashoffset:0;stroke-opacity:1"
       d="M 1 1 L 1 3 L 3 3 L 3 1 L 1 1 z M 4 1 L 4 3 L 6 3 L 6 1 L 4 1 z M 8 1 L 8 3 L 14 3 L 14 1 L 8 1 z M 1 4 L 1 6 L 3 6 L 3 4 L 1 4 z M 4 4 L 4 6 L 6 6 L 6 4 L 4 4 z M 8 4 L 8 7 L 13 7 L 13 13 L 8 13 L 8 15 L 13 15 A 2 2.0000174 0 0 0 15 13 L 15 4 L 8 4 z M 9 5 L 10 5 L 10 6 L 9 6 L 9 5 z M 12 5 L 13 5 L 13 6 L 12 6 L 12 5 z M 1 7 L 1 9 L 3 9 L 3 7 L 1 7 z M 4 7 L 4 9 L 6 9 L 6 7 L 4 7 z M 8 8 L 8 9 L 10 9 L 10 8 L 8 8 z M 1 10 L 1 12 L 3 12 L 3 10 L 1 10 z M 4 10 L 4 12 L 6 12 L 6 10 L 4 10 z M 1 13 L 1 15 L 3 15 L 3 13 L 1 13 z M 4 13 L 4 15 L 6 15 L 6 13 L 4 13 z "
       id="rect4155-6" />
  </g>
</svg>
