<?xml version="1.0" encoding="UTF-8" standalone="no"?>
<!-- Created with Inkscape (http://www.inkscape.org/) -->

<svg
   xmlns:dc="http://purl.org/dc/elements/1.1/"
   xmlns:cc="http://creativecommons.org/ns#"
   xmlns:rdf="http://www.w3.org/1999/02/22-rdf-syntax-ns#"
   xmlns:svg="http://www.w3.org/2000/svg"
   xmlns="http://www.w3.org/2000/svg"
   xmlns:sodipodi="http://sodipodi.sourceforge.net/DTD/sodipodi-0.dtd"
   xmlns:inkscape="http://www.inkscape.org/namespaces/inkscape"
   width="16"
   height="16"
   viewBox="0 0 16 16"
   id="svg2"
   version="1.1"
   inkscape:version="0.92.2 (5c3e80d, 2017-08-06)"
   inkscape:export-filename="/home/djrm/Projects/godot/tools/editor/icons/icon_camera.png"
   inkscape:export-xdpi="90"
   inkscape:export-ydpi="90"
   sodipodi:docname="icon_a_r_v_r_controller.svg">
  <defs
     id="defs4" />
  <sodipodi:namedview
     id="base"
     pagecolor="#ffffff"
     bordercolor="#666666"
     borderopacity="1.0"
     inkscape:pageopacity="0.0"
     inkscape:pageshadow="2"
     inkscape:zoom="32"
     inkscape:cx="6.945691"
     inkscape:cy="5.6416374"
     inkscape:document-units="px"
     inkscape:current-layer="layer1"
     showgrid="true"
     units="px"
     inkscape:snap-bbox="true"
     inkscape:bbox-paths="true"
     inkscape:bbox-nodes="true"
     inkscape:snap-bbox-edge-midpoints="true"
     inkscape:snap-bbox-midpoints="true"
     inkscape:snap-object-midpoints="true"
     inkscape:snap-center="true"
     inkscape:window-width="1920"
     inkscape:window-height="1016"
     inkscape:window-x="0"
     inkscape:window-y="27"
     inkscape:window-maximized="1"
     showguides="true"
     inkscape:document-rotation="0">
    <inkscape:grid
       type="xygrid"
       id="grid3336"
       empspacing="4" />
  </sodipodi:namedview>
  <metadata
     id="metadata7">
    <rdf:RDF>
      <cc:Work
         rdf:about="">
        <dc:format>image/svg+xml</dc:format>
        <dc:type
           rdf:resource="http://purl.org/dc/dcmitype/StillImage" />
        <dc:title />
      </cc:Work>
    </rdf:RDF>
  </metadata>
  <g
     inkscape:label="Layer 1"
     inkscape:groupmode="layer"
     id="layer1">
    <path
       style="opacity:1;fill:#fc9c9c;fill-opacity:1;stroke:none;stroke-width:4;stroke-linecap:round;stroke-linejoin:round;stroke-miterlimit:4;stroke-dasharray:none;stroke-dashoffset:0;stroke-opacity:1"
       d="M 2 1 C 1.446 1 1 1.446 1 2 L 1 8 C 1 8.554 1.446 9 2 9 L 14 9 C 14.554 9 15 8.554 15 8 L 15 2 C 15 1.446 14.554 1 14 1 L 2 1 z M 4 2 L 6 2 L 6 4 L 8 4 L 8 6 L 6 6 L 6 8 L 4 8 L 4 6 L 2 6 L 2 4 L 4 4 L 4 2 z M 13 3 C 13.552285 3 14 3.4477153 14 4 C 14 4.5522847 13.552285 5 13 5 C 12.447715 5 12 4.5522847 12 4 C 12 3.4477153 12.447715 3 13 3 z M 11 5 C 11.552285 5 12 5.4477153 12 6 C 12 6.5522847 11.552285 7 11 7 C 10.447715 7 10 6.5522847 10 6 C 10 5.4477153 10.447715 5 11 5 z M 4 12 L 4 13 C 4 13.552285 4.447715 14 5 14 C 4.447715 14 4 14.447715 4 15 L 4 16 L 5 16 L 5 15 L 6 15 L 6 16 L 7 16 L 7 15 C 7 14.447715 6.552285 14 6 14 C 6.552285 14 7 13.552285 7 13 L 7 12 L 6 12 L 6 13 L 5 13 L 5 12 L 4 12 z M 9 12 L 9 13 L 9 16 L 10 16 L 10 15 L 11 15 L 11 16 L 12 16 L 12 15 C 11.999166 14.824214 11.952009 14.651753 11.863281 14.5 C 11.952009 14.348247 11.999166 14.175786 12 14 L 12 13 C 12 12.447715 11.552285 12 11 12 L 10 12 L 9 12 z M 10 13 L 11 13 L 11 14 L 10 14 L 10 13 z "
       id="rect4141" />
  </g>
</svg>
