<?xml version="1.0" encoding="UTF-8" standalone="no"?>
<!-- Created with Inkscape (http://www.inkscape.org/) -->

<svg
   xmlns:dc="http://purl.org/dc/elements/1.1/"
   xmlns:cc="http://creativecommons.org/ns#"
   xmlns:rdf="http://www.w3.org/1999/02/22-rdf-syntax-ns#"
   xmlns:svg="http://www.w3.org/2000/svg"
   xmlns="http://www.w3.org/2000/svg"
   xmlns:sodipodi="http://sodipodi.sourceforge.net/DTD/sodipodi-0.dtd"
   xmlns:inkscape="http://www.inkscape.org/namespaces/inkscape"
   width="16"
   height="16"
   viewBox="0 0 16 16"
   id="svg2"
   version="1.1"
   inkscape:version="0.92+devel unknown"
   inkscape:export-filename="/home/godotengine/godot/tools/editor/icons/2x/icon_load.png"
   inkscape:export-xdpi="180"
   inkscape:export-ydpi="180"
   sodipodi:docname="icon_load.svg">
  <defs
     id="defs4" />
  <sodipodi:namedview
     id="base"
     pagecolor="#ffffff"
     bordercolor="#666666"
     borderopacity="1.0"
     inkscape:pageopacity="0.0"
     inkscape:pageshadow="2"
     inkscape:zoom="22.627417"
     inkscape:cx="6.3187685"
     inkscape:cy="7.6629717"
     inkscape:document-units="px"
     inkscape:current-layer="layer1"
     showgrid="true"
     units="px"
     inkscape:snap-bbox="true"
     inkscape:bbox-paths="true"
     inkscape:bbox-nodes="true"
     inkscape:snap-bbox-edge-midpoints="true"
     inkscape:snap-bbox-midpoints="false"
     inkscape:snap-object-midpoints="true"
     inkscape:snap-center="true"
     inkscape:window-width="1920"
     inkscape:window-height="1016"
     inkscape:window-x="0"
     inkscape:window-y="27"
     inkscape:window-maximized="1"
     inkscape:snap-smooth-nodes="true"
     inkscape:object-nodes="true"
     showguides="false"
     inkscape:document-rotation="0">
    <inkscape:grid
       type="xygrid"
       id="grid3336"
       spacingx="1"
       spacingy="1"
       empspacing="2" />
  </sodipodi:namedview>
  <metadata
     id="metadata7">
    <rdf:RDF>
      <cc:Work
         rdf:about="">
        <dc:format>image/svg+xml</dc:format>
        <dc:type
           rdf:resource="http://purl.org/dc/dcmitype/StillImage" />
        <dc:title />
      </cc:Work>
    </rdf:RDF>
  </metadata>
  <g
     inkscape:label="Layer 1"
     inkscape:groupmode="layer"
     id="layer1"
     transform="translate(0,-1036.3622)">
    <path
       style="opacity:1;fill:#e0e0e0;fill-opacity:1;stroke:none;stroke-width:2;stroke-linecap:butt;stroke-linejoin:round;stroke-miterlimit:4;stroke-dasharray:none;stroke-opacity:1"
       d="M 3 2 C 1.8954305 2 1 2.8954 1 4 L 1 13 C 1 14.1046 1.8954305 15 3 15 L 12 15 C 13.10457 15 13.818405 14.089571 14 13 L 15 7 C 15.003977 6.8164581 14.957352 6.6588009 14.865234 6.5 C 14.686743 6.1908437 14.356983 6.0002826 14 6 L 6 6 C 5.643017 6.0002824 5.313257 6.1908435 5.1347656 6.5 C 5.0426478 6.6588009 4.9960226 6.8398957 5 7.0234375 L 4 13 C 3.908856 13.544728 3.5522847 14 3 14 C 2.4477153 14 2 13.5523 2 13 L 2 4 C 2 3.4477 2.4477153 3 3 3 L 5 3 C 5.5522847 3 6 3.4477 6 4 A 1 1 0 0 0 6.2929688 4.7070312 A 1 1 0 0 0 7 5 L 11 5 L 12 5 A 1 1 0 0 0 11.707031 4.2929688 A 1 1 0 0 0 11 4 L 7 4 C 7 2.8954 6.10457 2 5 2 L 3 2 z "
       transform="translate(0,1036.3622)"
       id="rect4153" />
  </g>
</svg>
