<?xml version="1.0" encoding="UTF-8" standalone="no"?>
<!-- Created with Inkscape (http://www.inkscape.org/) -->

<svg
   xmlns:dc="http://purl.org/dc/elements/1.1/"
   xmlns:cc="http://creativecommons.org/ns#"
   xmlns:rdf="http://www.w3.org/1999/02/22-rdf-syntax-ns#"
   xmlns:svg="http://www.w3.org/2000/svg"
   xmlns="http://www.w3.org/2000/svg"
   xmlns:sodipodi="http://sodipodi.sourceforge.net/DTD/sodipodi-0.dtd"
   xmlns:inkscape="http://www.inkscape.org/namespaces/inkscape"
   width="16"
   height="16"
   viewBox="0 0 14.999999 14.999999"
   id="svg2"
   version="1.1"
   inkscape:version="0.92.2 (5c3e80d, 2017-08-06)"
   inkscape:export-filename="/home/djrm/Projects/godot/tools/editor/icons/icon_collision_shape.png"
   inkscape:export-xdpi="90"
   inkscape:export-ydpi="90"
   sodipodi:docname="icon_cylinder_mesh.svg">
  <defs
     id="defs4" />
  <sodipodi:namedview
     id="base"
     pagecolor="#ffffff"
     bordercolor="#666666"
     borderopacity="1.0"
     inkscape:pageopacity="0.0"
     inkscape:pageshadow="2"
     inkscape:zoom="45.254834"
     inkscape:cx="10.803777"
     inkscape:cy="9.639144"
     inkscape:document-units="px"
     inkscape:current-layer="layer1"
     showgrid="true"
     units="px"
     inkscape:snap-bbox="true"
     inkscape:bbox-paths="true"
     inkscape:bbox-nodes="true"
     inkscape:snap-bbox-edge-midpoints="true"
     inkscape:snap-bbox-midpoints="true"
     inkscape:snap-object-midpoints="true"
     inkscape:snap-center="true"
     inkscape:window-width="1920"
     inkscape:window-height="1016"
     inkscape:window-x="0"
     inkscape:window-y="27"
     inkscape:window-maximized="1"
     inkscape:object-paths="true"
     inkscape:snap-intersection-paths="true"
     inkscape:object-nodes="true"
     inkscape:snap-smooth-nodes="true"
     inkscape:snap-midpoints="true"
     inkscape:document-rotation="0">
    <inkscape:grid
       type="xygrid"
       id="grid3336"
       originx="0"
       originy="0"
       spacingx="0.93749994"
       spacingy="0.93749994" />
  </sodipodi:namedview>
  <metadata
     id="metadata7">
    <rdf:RDF>
      <cc:Work
         rdf:about="">
        <dc:format>image/svg+xml</dc:format>
        <dc:type
           rdf:resource="http://purl.org/dc/dcmitype/StillImage" />
        <dc:title />
      </cc:Work>
    </rdf:RDF>
  </metadata>
  <g
     inkscape:label="Layer 1"
     inkscape:groupmode="layer"
     id="layer1">
    <path
       style="fill:#ffd684;fill-opacity:1;"
       d="m 7.4999995,0.9374999 c -1.6377445,0 -3.1200402,0.2123 -4.2736814,0.5969001 C 2.6494975,1.7266999 2.1508898,1.9581 1.7358397,2.2852 1.3207897,2.6123 0.93749994,3.1111 0.93749994,3.75 v 7.5 c 0,0.6389 0.38328976,1.1396 0.79833976,1.4667 0.4150501,0.3271 0.9136578,0.5585 1.4904784,0.7507 1.1536412,0.3846 2.6359369,0.5951 4.2736814,0.5951 1.6377445,0 3.1200395,-0.2105 4.2736815,-0.5951 0.576819,-0.1922 1.075427,-0.4236 1.490479,-0.7507 0.41505,-0.3271 0.798339,-0.8278 0.798339,-1.4667 v -7.5 c 0,-0.6389 -0.383289,-1.1377 -0.798339,-1.4648 C 12.849108,1.9581 12.3505,1.7267 11.773681,1.5344 10.620039,1.1498 9.137744,0.9375 7.4999995,0.9374999 Z m 0,1.875 c 1.468857,0 2.8000415,0.2076 3.6822505,0.5017 0.434696,0.1449 0.751297,0.3163 0.908203,0.4376 C 11.9334,3.873 11.616581,4.0428997 11.18225,4.1875997 c -0.882209,0.2941 -2.2133935,0.4999 -3.6822505,0.4999 -1.468857,0 -2.8000424,-0.2058 -3.6822507,-0.4999 C 3.3834177,4.0428997 3.0665989,3.873 2.9095457,3.7517999 c 0.1569059,-0.1213 0.4735068,-0.2927 0.9082031,-0.4376 0.8822083,-0.2941 2.2133937,-0.5017 3.6822507,-0.5017 z M 2.8124998,5.8007997 c 0.1376229,0.055 0.2657777,0.1173 0.4138183,0.1666 1.1536412,0.3846 2.6359369,0.5951 4.2736814,0.5951 1.6377445,0 3.1200395,-0.2105 4.2736815,-0.5951 0.148041,-0.049 0.276195,-0.1112 0.413818,-0.1666 V 11.25 c -0.157053,0.1212 -0.570918,0.2929 -1.005249,0.4376 -0.882209,0.2941 -2.2133935,0.4999 -3.6822505,0.4999 -1.468857,0 -2.8000424,-0.2058 -3.6822507,-0.4999 C 3.3834177,11.5429 2.969553,11.3712 2.8124998,11.25 Z"
       id="path4385"
       inkscape:connector-curvature="0"
       sodipodi:nodetypes="sssssscsccsscssscccscccsccsccccsccc" />
  </g>
</svg>
