<?xml version="1.0" encoding="UTF-8" standalone="no"?>
<!-- Created with Inkscape (http://www.inkscape.org/) -->

<svg
   xmlns:dc="http://purl.org/dc/elements/1.1/"
   xmlns:cc="http://creativecommons.org/ns#"
   xmlns:rdf="http://www.w3.org/1999/02/22-rdf-syntax-ns#"
   xmlns:svg="http://www.w3.org/2000/svg"
   xmlns="http://www.w3.org/2000/svg"
   xmlns:sodipodi="http://sodipodi.sourceforge.net/DTD/sodipodi-0.dtd"
   xmlns:inkscape="http://www.inkscape.org/namespaces/inkscape"
   width="16"
   height="12"
   viewBox="0 0 16 12"
   id="svg2"
   version="1.1"
   inkscape:version="0.92.3 (2405546, 2018-03-11)"
   inkscape:export-filename="/home/djrm/Projects/godot/tools/editor/icons/icon_add_track.png"
   inkscape:export-xdpi="45"
   inkscape:export-ydpi="45"
   sodipodi:docname="icon_pool_vector3i_array.svg">
  <defs
     id="defs4" />
  <sodipodi:namedview
     id="base"
     pagecolor="#ffffff"
     bordercolor="#666666"
     borderopacity="1.0"
     inkscape:pageopacity="0.0"
     inkscape:pageshadow="2"
     inkscape:zoom="32.000002"
     inkscape:cx="6.9844617"
     inkscape:cy="6.1166862"
     inkscape:document-units="px"
     inkscape:current-layer="layer1"
     showgrid="true"
     units="px"
     inkscape:snap-bbox="true"
     inkscape:bbox-paths="true"
     inkscape:bbox-nodes="true"
     inkscape:snap-bbox-edge-midpoints="true"
     inkscape:snap-bbox-midpoints="false"
     inkscape:snap-object-midpoints="true"
     inkscape:snap-center="true"
     inkscape:window-width="1366"
     inkscape:window-height="693"
     inkscape:window-x="0"
     inkscape:window-y="0"
     inkscape:window-maximized="1"
     inkscape:object-nodes="true"
     inkscape:snap-smooth-nodes="true"
     inkscape:document-rotation="0">
    <inkscape:grid
       type="xygrid"
       id="grid3336" />
  </sodipodi:namedview>
  <metadata
     id="metadata7">
    <rdf:RDF>
      <cc:Work
         rdf:about="">
        <dc:format>image/svg+xml</dc:format>
        <dc:type
           rdf:resource="http://purl.org/dc/dcmitype/StillImage" />
        <dc:title />
      </cc:Work>
    </rdf:RDF>
  </metadata>
  <g
     inkscape:label="Layer 1"
     inkscape:groupmode="layer"
     id="layer1">
    <path
       d="m 8,2 v 2 h 2 C 10,4.55228 9.55228,5 9,5 v 2 c 0.55228,0 1,0.44772 1,1 0,0.55228 -0.44772,1 -1,1 H 8 v 2 h 1 c 1.0717,-1.34e-4 2.0619,-0.57191 2.5977,-1.5 0.5359,-0.9282 0.5359,-2.0718 0,-3 C 11.49364,6.3205 11.37124,6.15229 11.23247,5.99805 11.37102,5.84504 11.49341,5.67814 11.5977,5.5 11.85979,5.04361 11.9972,4.52629 11.99614,4 h 0.0039 V 2 Z M 2,4 v 6 H 4 C 5.6569,10 7,8.6569 7,7 V 4 H 5 V 7 C 5,7.55228 4.55228,8 4,8 V 4 Z M 7,7 C 3,10.3333 5,8.6667 7,7 Z"
       id="path36"
       inkscape:connector-curvature="0"
       style="fill:#ad86f0" />
    <path
       d="m 8,2 v 2 h 2 A 1,1 0 0 1 9,5 V 7 A 1,1 0 0 1 10,8 1,1 0 0 1 9,9 H 8 v 2 h 1 a 3,3 0 0 0 2.5977,-1.5 3,3 0 0 0 0,-3 A 3,3 0 0 0 11.23247,5.99805 3,3 0 0 0 11.5977,5.5 3,3 0 0 0 11.99614,4 h 0.0039 V 2 Z"
       id="path38"
       inkscape:connector-curvature="0"
       style="fill:#ffffff;fill-opacity:0.39216003" />
    <path
       d="m12 2v2h2v-2zm0 4v4h2v-4z"
       fill="#ad86f0"
       id="path40" />
    <path
       style="fill:#e0e0e0;fill-opacity:1;stroke:none;stroke-width:2;stroke-linecap:round;stroke-linejoin:round;stroke-miterlimit:4;stroke-dasharray:none;stroke-opacity:1"
       d="M 0,0 V 12 H 4 V 10 H 2 V 2 H 4 V 0 Z m 12,0 v 2 h 2 v 8 h -2 v 2 h 4 V 0 Z"
       id="rect4158"
       inkscape:connector-curvature="0"
       sodipodi:nodetypes="cccccccccccccccccc" />
  </g>
</svg>
