<?xml version="1.0" encoding="UTF-8" standalone="no"?>
<svg
   xmlns:dc="http://purl.org/dc/elements/1.1/"
   xmlns:cc="http://creativecommons.org/ns#"
   xmlns:rdf="http://www.w3.org/1999/02/22-rdf-syntax-ns#"
   xmlns:svg="http://www.w3.org/2000/svg"
   xmlns="http://www.w3.org/2000/svg"
   xmlns:sodipodi="http://sodipodi.sourceforge.net/DTD/sodipodi-0.dtd"
   xmlns:inkscape="http://www.inkscape.org/namespaces/inkscape"
   height="12"
   viewBox="0 0 16 12"
   width="16"
   version="1.1"
   id="svg6"
   sodipodi:docname="icon_vector_2i.svg"
   inkscape:version="0.92.4 5da689c313, 2019-01-14">
  <metadata
     id="metadata12">
    <rdf:RDF>
      <cc:Work
         rdf:about="">
        <dc:format>image/svg+xml</dc:format>
        <dc:type
           rdf:resource="http://purl.org/dc/dcmitype/StillImage" />
        <dc:title></dc:title>
      </cc:Work>
    </rdf:RDF>
  </metadata>
  <defs
     id="defs10" />
  <sodipodi:namedview
     pagecolor="#ffffff"
     bordercolor="#666666"
     borderopacity="1"
     objecttolerance="10"
     gridtolerance="10"
     guidetolerance="10"
     inkscape:pageopacity="0"
     inkscape:pageshadow="2"
     inkscape:window-width="1366"
     inkscape:window-height="703"
     id="namedview8"
     showgrid="true"
     inkscape:zoom="26.958446"
     inkscape:cx="4.7838067"
     inkscape:cy="9.4988761"
     inkscape:window-x="0"
     inkscape:window-y="0"
     inkscape:window-maximized="1"
     inkscape:current-layer="svg6" />
  <g
     id="g36">
    <g
       id="g18">
      <path
         d="m 8.00002,2 v 2 h 1 c 0.552285,0 1,0.4477153 1,1 0,0.5522847 -0.447715,1 -1,1 C 8.285364,5.9998752 7.624948,6.3810898 7.26762,7 7.092897,7.3042638 7.001292,7.6491382 7.002,8 H 7 v 2 h 5 V 8 H 9 c 1.071662,-1.344e-4 2.061869,-0.5719132 2.5977,-1.5 0.535898,-0.9282032 0.535898,-2.0717968 0,-3 C 11.061916,2.5719132 10.071709,2.0001344 9.000047,2 Z M 1,4 v 6 H 3 C 4.6568542,10 6,8.6568542 6,7 V 4 H 4 V 7 C 4,7.5522847 3.5522847,8 3,8 V 4 Z"
         id="path2"
         inkscape:connector-curvature="0"
         style="fill:#bd91f1"
         sodipodi:nodetypes="ccssccccccccssccccssccsccc" />
      <path
         sodipodi:nodetypes="ccssccccccccsscc"
         style="fill:#ffffff;fill-opacity:0.39216003"
         inkscape:connector-curvature="0"
         d="m 7.999973,2 v 2 h 1 c 0.5522847,0 1,0.4477153 1,1 0,0.5522847 -0.4477153,1 -1,1 C 8.2853171,5.9998752 7.624901,6.3810898 7.267573,7 7.0928501,7.3042638 7.0012446,7.6491382 7.001953,8 H 7 v 2 h 5 V 8 H 9 c 1.071662,-1.344e-4 2.061869,-0.5719132 2.5977,-1.5 0.535898,-0.9282032 0.535898,-2.0717968 0,-3 C 11.061869,2.5719132 10.071662,2.0001344 9,2 Z"
         id="path4" />
    </g>
    <path
       sodipodi:nodetypes="cccccccccc"
       id="path2-3"
       d="m 13,2 v 2 h 2 V 2 Z m 0,4 v 4 h 2 V 6 Z"
       style="fill:#7dc6ef"
       inkscape:connector-curvature="0" />
  </g>
</svg>
