<svg width="16" height="16" xmlns="http://www.w3.org/2000/svg">

 <metadata id="metadata7">image/svg+xml</metadata>
 <g>
  <title>background</title>
  <rect fill="none" id="canvas_background" height="402" width="582" y="-1" x="-1"/>
 </g>
 <g>
  <title>Layer 1</title>
  <g id="layer1">
   <path fill="#a5b7f3" stroke-width="2" stroke-linecap="round" stroke-linejoin="round" stroke-miterlimit="4" stroke-dashoffset="0" id="path4162" d="m3,1c-1.10457,0 -2,0.89543 -2,2c0.00056,0.71397 0.38169,1.37349 1,1.73047l0,6.54101c-0.61771,0.35664 -0.99874,1.01525 -1,1.72852c0,1.10457 0.89543,2 2,2c0.71397,-0.00056 1.37349,-0.38169 1.73047,-1l1.26953,0l0,-2l-1.27148,0c-0.17478,-0.30301 -0.42598,-0.55488 -0.72852,-0.73047l0,-5.85547l3.58594,3.58594l1.41406,0l0,-1.41406l-3.58594,-3.58594l5.85742,0c0.17532,0.30158 0.42647,0.55205 0.72852,0.72656l0,1.27344l2,0l0,-1.26953c0.61831,-0.35698 0.99944,-1.0165 1,-1.73047c0,-1.10457 -0.89543,-2 -2,-2c-0.71397,0.00056 -1.37349,0.38169 -1.73047,1l-6.54101,0c-0.35664,-0.61771 -1.01525,-0.99874 -1.72852,-1zm8,7l0,3l-3,0l0,2l3,0l0,3l2,0l0,-3l3,0l0,-2l-3,0l0,-3l-2,0z"/>
  </g>
 </g>
</svg>