<?xml version="1.0" encoding="UTF-8" standalone="no"?>
<!-- Created with Inkscape (http://www.inkscape.org/) -->

<svg
   xmlns:dc="http://purl.org/dc/elements/1.1/"
   xmlns:cc="http://creativecommons.org/ns#"
   xmlns:rdf="http://www.w3.org/1999/02/22-rdf-syntax-ns#"
   xmlns:svg="http://www.w3.org/2000/svg"
   xmlns="http://www.w3.org/2000/svg"
   xmlns:sodipodi="http://sodipodi.sourceforge.net/DTD/sodipodi-0.dtd"
   xmlns:inkscape="http://www.inkscape.org/namespaces/inkscape"
   width="16"
   height="16"
   viewBox="0 0 16 16"
   id="svg2"
   version="1.1"
   inkscape:version="0.92+devel unknown"
   inkscape:export-filename="/home/djrm/Projects/godot/tools/editor/icons/icon_ungroup.png"
   inkscape:export-xdpi="90"
   inkscape:export-ydpi="90"
   sodipodi:docname="icon_group_viewport.svg">
  <defs
     id="defs4" />
  <sodipodi:namedview
     id="base"
     pagecolor="#ffffff"
     bordercolor="#666666"
     borderopacity="1.0"
     inkscape:pageopacity="0.0"
     inkscape:pageshadow="2"
     inkscape:zoom="45.254834"
     inkscape:cx="7.9195227"
     inkscape:cy="8.0755793"
     inkscape:document-units="px"
     inkscape:current-layer="layer1"
     showgrid="true"
     units="px"
     inkscape:snap-bbox="true"
     inkscape:bbox-paths="true"
     inkscape:bbox-nodes="true"
     inkscape:snap-bbox-edge-midpoints="true"
     inkscape:snap-bbox-midpoints="true"
     inkscape:snap-object-midpoints="true"
     inkscape:snap-center="true"
     inkscape:window-width="1920"
     inkscape:window-height="1016"
     inkscape:window-x="0"
     inkscape:window-y="27"
     inkscape:window-maximized="1"
     inkscape:snap-midpoints="false"
     inkscape:snap-smooth-nodes="true"
     inkscape:object-nodes="true"
     showguides="false"
     inkscape:document-rotation="0"
     inkscape:object-paths="true"
     inkscape:snap-intersection-paths="true">
    <inkscape:grid
       type="xygrid"
       id="grid3336"
       empspacing="4" />
  </sodipodi:namedview>
  <metadata
     id="metadata7">
    <rdf:RDF>
      <cc:Work
         rdf:about="">
        <dc:format>image/svg+xml</dc:format>
        <dc:type
           rdf:resource="http://purl.org/dc/dcmitype/StillImage" />
        <dc:title />
      </cc:Work>
    </rdf:RDF>
  </metadata>
  <g
     inkscape:label="Layer 1"
     inkscape:groupmode="layer"
     id="layer1"
     transform="translate(0,-1036.3622)">
    <path
       style="fill:#000000;fill-opacity:0.39215686;stroke-width:0.50000107;stroke-linecap:round;stroke-linejoin:round;stroke-opacity:0.98823529"
       d="M 0 0 L 0 4 L 4 4 L 4 0 L 0 0 z M 6 0 L 6 6 L 0 6 L 0 16 L 10 16 L 10 10 L 16 10 L 16 0 L 6 0 z M 10 4 L 12 4 L 12 6 L 10 6 L 10 4 z M 12 12 L 12 16 L 16 16 L 16 12 L 12 12 z "
       transform="translate(0,1036.3622)"
       id="rect4301" />
    <path
       style="opacity:1;fill:#e0e0e0;fill-opacity:1;stroke:none;stroke-width:2;stroke-linecap:round;stroke-linejoin:round;stroke-miterlimit:4;stroke-dasharray:none;stroke-dashoffset:0;stroke-opacity:1"
       d="M 7,1 V 7 H 1 v 8 H 2 9 V 9 h 6 V 7 1 Z m 2,2 h 4 V 7 H 9 Z"
       id="rect4697"
       transform="translate(0,1036.3622)"
       inkscape:connector-curvature="0"
       sodipodi:nodetypes="cccccccccccccccc" />
    <path
       style="opacity:1;fill:#ffffff;fill-opacity:1;stroke:none;stroke-width:1.9999826;stroke-linecap:round;stroke-linejoin:round;stroke-miterlimit:4;stroke-dasharray:none;stroke-dashoffset:0;stroke-opacity:1"
       d="M 1 1 L 1 3 C 1 3.0000234 1.446 3 2 3 C 2.554 3 3 3.0000234 3 3 L 3 1 C 3 0.99997659 2.554 1 2 1 C 1.446 1 1 0.99997659 1 1 z M 13 1 L 13 3 C 13 3.0000234 13.446 3 14 3 C 14.554 3 15 3.0000234 15 3 L 15 1 C 15 0.99997659 14.554 1 14 1 C 13.446 1 13 0.99997659 13 1 z M 1 13 L 1 15 C 1 15.000023 1.446 15 2 15 C 2.554 15 3 15.000023 3 15 L 3 13 C 3 12.999977 2.554 13 2 13 C 1.446 13 1 12.999977 1 13 z M 13 13 L 13 15 C 13 15.000023 13.446 15 14 15 C 14.554 15 15 15.000023 15 15 L 15 13 C 15 12.999977 14.554 13 14 13 C 13.446 13 13 12.999977 13 13 z "
       transform="translate(0,1036.3622)"
       id="rect4679" />
  </g>
</svg>
