<?xml version="1.0" encoding="UTF-8" standalone="no"?>
<svg
   xmlns:dc="http://purl.org/dc/elements/1.1/"
   xmlns:cc="http://creativecommons.org/ns#"
   xmlns:rdf="http://www.w3.org/1999/02/22-rdf-syntax-ns#"
   xmlns:svg="http://www.w3.org/2000/svg"
   xmlns="http://www.w3.org/2000/svg"
   xmlns:sodipodi="http://sodipodi.sourceforge.net/DTD/sodipodi-0.dtd"
   xmlns:inkscape="http://www.inkscape.org/namespaces/inkscape"
   height="12"
   viewBox="0 0 16 12"
   width="16"
   version="1.1"
   id="svg4"
   sodipodi:docname="icon_rect2i.svg"
   inkscape:version="0.92.4 5da689c313, 2019-01-14">
  <metadata
     id="metadata10">
    <rdf:RDF>
      <cc:Work
         rdf:about="">
        <dc:format>image/svg+xml</dc:format>
        <dc:type
           rdf:resource="http://purl.org/dc/dcmitype/StillImage" />
        <dc:title></dc:title>
        <dc:title />
      </cc:Work>
    </rdf:RDF>
  </metadata>
  <defs
     id="defs8" />
  <sodipodi:namedview
     pagecolor="#ffffff"
     bordercolor="#666666"
     borderopacity="1"
     objecttolerance="10"
     gridtolerance="10"
     guidetolerance="10"
     inkscape:pageopacity="0"
     inkscape:pageshadow="2"
     inkscape:window-width="1366"
     inkscape:window-height="703"
     id="namedview6"
     showgrid="true"
     inkscape:zoom="19.0625"
     inkscape:cx="-2.403124"
     inkscape:cy="2.8097054"
     inkscape:window-x="0"
     inkscape:window-y="0"
     inkscape:window-maximized="1"
     inkscape:current-layer="svg4" />
  <g
     id="g22">
    <path
       sodipodi:nodetypes="ccccsccssscsccsccccccssccssccs"
       style="fill:#f191a5"
       inkscape:connector-curvature="0"
       id="path2"
       d="M 9,2 V 4 H 8 C 6.273322,4 5,5.335887 5,7 5,8.6568542 6.343146,10 8,10 H 9 V 8 H 8 C 7.447715,8 7,7.5522847 7,7 7,6.4477153 7.447715,6 8,6 h 1 v 1 c 0,1.6568542 1.343146,3 3,3 V 8 C 11.447715,8 11.064738,7.5484773 11,7 V 6 h 1 V 4 H 11 V 2 Z M 4,4 C 2.3431458,4 1.0452524,5.3437639 1,7 v 3 H 3 V 7 C 3,6.4477153 3.4477153,6 4,6 H 5 V 4 Z" />
    <path
       sodipodi:nodetypes="cccccccccc"
       id="path2-3"
       d="m 13,2 v 2 h 2 V 2 Z m 0,4 v 3.9999995 h 2 V 6 Z"
       style="fill:#7dc6ef"
       inkscape:connector-curvature="0" />
  </g>
</svg>
