<?xml version="1.0" encoding="UTF-8" standalone="no"?>
<!-- Created with Inkscape (http://www.inkscape.org/) -->

<svg
   xmlns:dc="http://purl.org/dc/elements/1.1/"
   xmlns:cc="http://creativecommons.org/ns#"
   xmlns:rdf="http://www.w3.org/1999/02/22-rdf-syntax-ns#"
   xmlns:svg="http://www.w3.org/2000/svg"
   xmlns="http://www.w3.org/2000/svg"
   xmlns:sodipodi="http://sodipodi.sourceforge.net/DTD/sodipodi-0.dtd"
   xmlns:inkscape="http://www.inkscape.org/namespaces/inkscape"
   width="16"
   height="16"
   viewBox="0 0 16 16"
   id="svg2"
   version="1.1"
   inkscape:version="0.92+devel unknown"
   inkscape:export-filename="/home/djrm/Projects/godot/tools/editor/icons/icon_node.png"
   inkscape:export-xdpi="90"
   inkscape:export-ydpi="90"
   sodipodi:docname="icon_ungroup.svg">
  <defs
     id="defs4" />
  <sodipodi:namedview
     id="base"
     pagecolor="#ffffff"
     bordercolor="#666666"
     borderopacity="1.0"
     inkscape:pageopacity="0.0"
     inkscape:pageshadow="2"
     inkscape:zoom="31.999999"
     inkscape:cx="9.2588429"
     inkscape:cy="8.1652809"
     inkscape:document-units="px"
     inkscape:current-layer="layer1"
     showgrid="true"
     units="px"
     inkscape:snap-bbox="true"
     inkscape:bbox-paths="true"
     inkscape:bbox-nodes="true"
     inkscape:snap-bbox-edge-midpoints="true"
     inkscape:snap-bbox-midpoints="true"
     inkscape:snap-object-midpoints="true"
     inkscape:snap-center="true"
     inkscape:window-width="1920"
     inkscape:window-height="1016"
     inkscape:window-x="0"
     inkscape:window-y="27"
     inkscape:window-maximized="1"
     inkscape:document-rotation="0">
    <inkscape:grid
       type="xygrid"
       id="grid3336"
       empspacing="4" />
  </sodipodi:namedview>
  <metadata
     id="metadata7">
    <rdf:RDF>
      <cc:Work
         rdf:about="">
        <dc:format>image/svg+xml</dc:format>
        <dc:type
           rdf:resource="http://purl.org/dc/dcmitype/StillImage" />
        <dc:title />
      </cc:Work>
    </rdf:RDF>
  </metadata>
  <g
     inkscape:label="Layer 1"
     inkscape:groupmode="layer"
     id="layer1"
     transform="translate(0,-1036.3622)">
    <path
       style="opacity:1;fill:#e0e0e0;fill-opacity:0.39215686;stroke:none;stroke-width:2;stroke-linecap:round;stroke-linejoin:round;stroke-miterlimit:4;stroke-dasharray:none;stroke-dashoffset:0;stroke-opacity:1"
       d="m 7,1037.3624 v 6 H 1 v 8 h 8 v -6 h 6 v -2 -6 z m 2,2 h 4 v 4 H 9 Z"
       id="rect4697"
       inkscape:connector-curvature="0"
       sodipodi:nodetypes="ccccccccccccccc" />
    <path
       style="opacity:1;fill:#ffffff;fill-opacity:1;stroke:none;stroke-width:1.9999826;stroke-linecap:round;stroke-linejoin:round;stroke-miterlimit:4;stroke-dasharray:none;stroke-dashoffset:0;stroke-opacity:1"
       d="M 7 1 L 7 3 C 7 3.0000234 7.446 3 8 3 C 8.554 3 9 3.0000234 9 3 L 9 1 C 9 0.99997659 8.554 1 8 1 C 7.446 1 7 0.99997659 7 1 z M 13 1 L 13 3 C 13 3.0000234 13.446 3 14 3 C 14.554 3 15 3.0000234 15 3 L 15 1 C 15 0.99997659 14.554 1 14 1 C 13.446 1 13 0.99997659 13 1 z M 1 7 L 1 9 C 1 9.0000234 1.446 9 2 9 C 2.554 9 3 9.0000234 3 9 L 3 7 C 3 6.9999766 2.554 7 2 7 C 1.446 7 1 6.9999766 1 7 z M 7 7 L 7 9 C 7 9.0000234 7.446 9 8 9 C 8.554 9 9 9.0000234 9 9 L 9 7 C 9 6.9999766 8.554 7 8 7 C 7.446 7 7 6.9999766 7 7 z M 13 7 L 13 9 C 13 9.0000234 13.446 9 14 9 C 14.554 9 15 9.0000234 15 9 L 15 7 C 15 6.9999766 14.554 7 14 7 C 13.446 7 13 6.9999766 13 7 z M 1 13 L 1 15 C 1 15.000023 1.446 15 2 15 C 2.554 15 3 15.000023 3 15 L 3 13 C 3 12.999977 2.554 13 2 13 C 1.446 13 1 12.999977 1 13 z M 7 13 L 7 15 C 7 15.000023 7.446 15 8 15 C 8.554 15 9 15.000023 9 15 L 9 13 C 9 12.999977 8.554 13 8 13 C 7.446 13 7 12.999977 7 13 z "
       transform="translate(0,1036.3622)"
       id="rect4679" />
  </g>
</svg>
