<?xml version="1.0" encoding="UTF-8" standalone="no"?>
<svg
   xmlns:dc="http://purl.org/dc/elements/1.1/"
   xmlns:cc="http://creativecommons.org/ns#"
   xmlns:rdf="http://www.w3.org/1999/02/22-rdf-syntax-ns#"
   xmlns:svg="http://www.w3.org/2000/svg"
   xmlns="http://www.w3.org/2000/svg"
   xmlns:sodipodi="http://sodipodi.sourceforge.net/DTD/sodipodi-0.dtd"
   xmlns:inkscape="http://www.inkscape.org/namespaces/inkscape"
   height="12"
   viewBox="0 0 16 12"
   width="16"
   version="1.1"
   id="svg6"
   sodipodi:docname="icon_vector3i.svg"
   inkscape:version="0.92.4 5da689c313, 2019-01-14">
  <metadata
     id="metadata12">
    <rdf:RDF>
      <cc:Work
         rdf:about="">
        <dc:format>image/svg+xml</dc:format>
        <dc:type
           rdf:resource="http://purl.org/dc/dcmitype/StillImage" />
        <dc:title></dc:title>
      </cc:Work>
    </rdf:RDF>
  </metadata>
  <defs
     id="defs10" />
  <sodipodi:namedview
     pagecolor="#ffffff"
     bordercolor="#666666"
     borderopacity="1"
     objecttolerance="10"
     gridtolerance="10"
     guidetolerance="10"
     inkscape:pageopacity="0"
     inkscape:pageshadow="2"
     inkscape:window-width="1366"
     inkscape:window-height="703"
     id="namedview8"
     showgrid="true"
     inkscape:zoom="38.125"
     inkscape:cx="4.6672502"
     inkscape:cy="5.0167898"
     inkscape:window-x="0"
     inkscape:window-y="0"
     inkscape:window-maximized="1"
     inkscape:current-layer="svg6" />
  <g
     id="g25">
    <path
       sodipodi:nodetypes="cccccsscccscccccccccssccsccc"
       style="fill:#e286f0"
       inkscape:connector-curvature="0"
       id="path2"
       d="m 8,2 v 2 h 2 C 10,4.5522847 9.552285,5 9,5 v 2 c 0.552285,0 1,0.4477153 1,1 0,0.5522847 -0.4529585,0.9240761 -1,1 H 8 v 2 h 1 c 1.071662,-1.34e-4 2.061869,-0.571913 2.5977,-1.5 0.535898,-0.9282032 0.535898,-2.0717968 0,-3 C 11.493641,6.320504 11.371243,6.152287 11.23247,5.99805 11.371024,5.8450405 11.493415,5.6781397 11.5977,5.5 11.859788,5.0436053 11.9972,4.5262937 11.99614,4 h 0.0039 V 2 Z M 1,4 v 6 H 3 C 4.6568542,10 6,8.6568542 6,7 V 4 H 4 V 7 C 4,7.5522847 3.5522847,8 3,8 V 4 Z" />
    <path
       sodipodi:nodetypes="cccccsscccsccccccc"
       style="fill:#ffffff;fill-opacity:0.39216003"
       inkscape:connector-curvature="0"
       id="path4"
       d="m 8,2 v 2 h 2 C 10,4.5522847 9.5522847,5 9,5 v 2 c 0.5522847,0 1,0.4477153 1,1 0,0.5522847 -0.4494826,0.9558531 -1,1 H 8 v 2 h 1 c 1.071662,-1.34e-4 2.061869,-0.571913 2.5977,-1.5 0.535898,-0.9282032 0.535898,-2.0717968 0,-3 C 11.493641,6.320504 11.371243,6.152287 11.23247,5.99805 11.371024,5.8450405 11.493415,5.6781397 11.5977,5.5 11.859788,5.0436053 11.9972,4.5262937 11.99614,4 h 0.0039 V 2 Z" />
    <path
       inkscape:connector-curvature="0"
       style="fill:#7dc6ef"
       d="m 13,2 v 2 h 2 V 2 Z m 0,4 v 4 h 2 V 6 Z"
       id="path2-3"
       sodipodi:nodetypes="cccccccccc" />
  </g>
</svg>
