<?xml version="1.0" encoding="UTF-8" standalone="no"?>
<!-- Created with Inkscape (http://www.inkscape.org/) -->

<svg
   xmlns:dc="http://purl.org/dc/elements/1.1/"
   xmlns:cc="http://creativecommons.org/ns#"
   xmlns:rdf="http://www.w3.org/1999/02/22-rdf-syntax-ns#"
   xmlns:svg="http://www.w3.org/2000/svg"
   xmlns="http://www.w3.org/2000/svg"
   xmlns:sodipodi="http://sodipodi.sourceforge.net/DTD/sodipodi-0.dtd"
   xmlns:inkscape="http://www.inkscape.org/namespaces/inkscape"
   width="128"
   height="128"
   viewBox="0 0 128 128"
   id="svg2"
   version="1.1"
   inkscape:version="0.92+devel unknown"
   inkscape:export-filename="/home/djrm/Projects/godot/tools/editor/icons/icon_gizmo_light.png"
   inkscape:export-xdpi="90"
   inkscape:export-ydpi="90"
   sodipodi:docname="icon_gizmo_light.svg">
  <defs
     id="defs4" />
  <sodipodi:namedview
     id="base"
     pagecolor="#ffffff"
     bordercolor="#666666"
     borderopacity="1.0"
     inkscape:pageopacity="0.0"
     inkscape:pageshadow="2"
     inkscape:zoom="5.656854"
     inkscape:cx="84.265058"
     inkscape:cy="63.779414"
     inkscape:document-units="px"
     inkscape:current-layer="layer1"
     showgrid="true"
     units="px"
     inkscape:snap-bbox="true"
     inkscape:bbox-paths="true"
     inkscape:bbox-nodes="true"
     inkscape:snap-bbox-edge-midpoints="true"
     inkscape:snap-bbox-midpoints="false"
     inkscape:snap-object-midpoints="true"
     inkscape:snap-center="true"
     inkscape:window-width="1920"
     inkscape:window-height="1016"
     inkscape:window-x="0"
     inkscape:window-y="27"
     inkscape:window-maximized="1"
     inkscape:document-rotation="0">
    <inkscape:grid
       type="xygrid"
       id="grid3336"
       empspacing="4" />
  </sodipodi:namedview>
  <metadata
     id="metadata7">
    <rdf:RDF>
      <cc:Work
         rdf:about="">
        <dc:format>image/svg+xml</dc:format>
        <dc:type
           rdf:resource="http://purl.org/dc/dcmitype/StillImage" />
        <dc:title />
      </cc:Work>
    </rdf:RDF>
  </metadata>
  <g
     inkscape:label="Layer 1"
     inkscape:groupmode="layer"
     id="layer1"
     transform="translate(0,-924.3622)">
    <path
       style="fill:#000000;fill-opacity:0.29411765;stroke-width:2.19999909;stroke-linecap:round;stroke-linejoin:round;stroke-opacity:0.98823529"
       d="M 64 2 A 43.999981 43.999981 0 0 0 20 46 A 43.999981 43.999981 0 0 0 44 85.189453 L 44 91 L 44 96 L 44 99 C 44 104.05149 47.375644 108.27691 52 109.57812 L 52 126 L 76 126 L 76 109.57812 C 80.624356 108.27691 84 104.05149 84 99 L 84 96 L 84 91 L 84 85.142578 A 43.999981 43.999981 0 0 0 108 46 A 43.999981 43.999981 0 0 0 64 2 z M 64 22 A 24 24 0 0 1 88 46 A 24 24 0 0 1 64 70 A 24 24 0 0 1 40 46 A 24 24 0 0 1 64 22 z "
       transform="translate(0,924.3622)"
       id="path4268" />
    <path
       style="opacity:1;fill:#f7f5cf;fill-opacity:1;stroke:none;stroke-width:2;stroke-linecap:round;stroke-linejoin:round;stroke-miterlimit:4;stroke-dasharray:none;stroke-dashoffset:0;stroke-opacity:1"
       d="M 64 6 A 40.000068 40.000068 0 0 0 24 46 A 40.000068 40.000068 0 0 0 48 82.607422 L 48 98 A 8 8 0 0 0 56 106 L 72 106 A 8 8 0 0 0 80 98 L 80 82.636719 A 40.000068 40.000068 0 0 0 104 46 A 40.000068 40.000068 0 0 0 64 6 z M 64 18 A 28 28 0 0 1 92 46 A 28 28 0 0 1 64 74 A 28 28 0 0 1 36 46 A 28 28 0 0 1 64 18 z M 56 114 L 56 122 L 72 122 L 72 114 L 56 114 z "
       transform="translate(0,924.3622)"
       id="path4162" />
  </g>
</svg>
