<?xml version="1.0" encoding="UTF-8" standalone="no"?>
<svg
   xmlns:dc="http://purl.org/dc/elements/1.1/"
   xmlns:cc="http://creativecommons.org/ns#"
   xmlns:rdf="http://www.w3.org/1999/02/22-rdf-syntax-ns#"
   xmlns:svg="http://www.w3.org/2000/svg"
   xmlns="http://www.w3.org/2000/svg"
   xmlns:sodipodi="http://sodipodi.sourceforge.net/DTD/sodipodi-0.dtd"
   xmlns:inkscape="http://www.inkscape.org/namespaces/inkscape"
   width="16"
   height="16"
   version="1.1"
   viewBox="0 0 16 16"
   id="svg20"
   sodipodi:docname="icon_visual_shader.svg"
   inkscape:version="0.92.4 5da689c313, 2019-01-14">
  <metadata
     id="metadata26">
    <rdf:RDF>
      <cc:Work
         rdf:about="">
        <dc:format>image/svg+xml</dc:format>
        <dc:type
           rdf:resource="http://purl.org/dc/dcmitype/StillImage" />
        <dc:title />
      </cc:Work>
    </rdf:RDF>
  </metadata>
  <defs
     id="defs24" />
  <sodipodi:namedview
     pagecolor="#ffffff"
     bordercolor="#666666"
     borderopacity="1"
     objecttolerance="10"
     gridtolerance="10"
     guidetolerance="10"
     inkscape:pageopacity="0"
     inkscape:pageshadow="2"
     inkscape:window-width="1366"
     inkscape:window-height="709"
     id="namedview22"
     showgrid="false"
     inkscape:zoom="11.313709"
     inkscape:cx="-5.4943924"
     inkscape:cy="4.3150829"
     inkscape:window-x="0"
     inkscape:window-y="0"
     inkscape:window-maximized="1"
     inkscape:current-layer="svg20" />
  <path
     inkscape:connector-curvature="0"
     style="fill:#e0e0e0"
     d="m 2.8642321,9.9954317 v 5.9999993 h 2 a 3,3 0 0 0 3,-3 V 9.9954317 h -2 v 2.9999993 a 1,1 0 0 1 -1,1 V 9.9954317 Z"
     id="path1394" />
  <path
     inkscape:connector-curvature="0"
     style="fill:#e0e0e0"
     d="m 10.864232,9.9954317 a 2,2 0 0 0 -1.7323999,0.9999993 2,2 0 0 0 0,2 2,2 0 0 0 1.7323999,1 H 8.8642321 v 2 h 1.9999999 a 2,2 0 0 0 1.7324,-1 2,2 0 0 0 0,-2 2,2 0 0 0 -1.7324,-1 h 2 V 9.9954317 Z"
     id="path30" />
  <g
     id="g11297">
    <path
       inkscape:connector-curvature="0"
       id="path11232"
       d="M 2,1 C 1.44774,1.0001 1.00006,1.4477 1,2 V 9 H 3 V 3 h 6 v 3 c 0,0.554 0.44599,1 1,1 h 3 v 2 h 2 V 6 L 10,1 Z"
       style="fill:#e0e0e0" />
    <path
       d="M 4,6 H 6 V 7 H 4 Z"
       id="path11236"
       inkscape:connector-curvature="0"
       style="fill:#ffeb70" />
    <path
       d="m 8,8 h 4 V 9 H 8 Z"
       id="path11238"
       inkscape:connector-curvature="0"
       style="fill:#9dff70" />
    <path
       d="M 7,6 H 8 V 7 H 7 Z"
       id="path11240"
       inkscape:connector-curvature="0"
       style="fill:#70deff" />
    <path
       d="M 4,4 H 7 V 5 H 4 Z"
       id="path11244"
       inkscape:connector-curvature="0"
       style="fill:#ff7070" />
    <path
       d="M 4,8 H 7 V 9 H 4 Z"
       id="path11246"
       inkscape:connector-curvature="0"
       style="fill:#70ffb9" />
  </g>
</svg>
