<?xml version="1.0" encoding="UTF-8" standalone="no"?>
<!-- Created with Inkscape (http://www.inkscape.org/) -->

<svg
   xmlns:dc="http://purl.org/dc/elements/1.1/"
   xmlns:cc="http://creativecommons.org/ns#"
   xmlns:rdf="http://www.w3.org/1999/02/22-rdf-syntax-ns#"
   xmlns:svg="http://www.w3.org/2000/svg"
   xmlns="http://www.w3.org/2000/svg"
   xmlns:sodipodi="http://sodipodi.sourceforge.net/DTD/sodipodi-0.dtd"
   xmlns:inkscape="http://www.inkscape.org/namespaces/inkscape"
   width="16"
   height="16"
   viewBox="0 0 16 16"
   id="svg2"
   version="1.1"
   inkscape:version="0.92.2 (5c3e80d, 2017-08-06)"
   inkscape:export-filename="/home/djrm/Projects/godot/tools/editor/icons/icon_sprite_3d.png"
   inkscape:export-xdpi="90"
   inkscape:export-ydpi="90"
   sodipodi:docname="icon_kinematic_body_2d.svg">
  <defs
     id="defs4" />
  <sodipodi:namedview
     id="base"
     pagecolor="#ffffff"
     bordercolor="#666666"
     borderopacity="1.0"
     inkscape:pageopacity="0.0"
     inkscape:pageshadow="2"
     inkscape:zoom="32"
     inkscape:cx="9.3366488"
     inkscape:cy="6.8125343"
     inkscape:document-units="px"
     inkscape:current-layer="layer1"
     showgrid="true"
     units="px"
     inkscape:snap-bbox="true"
     inkscape:bbox-paths="true"
     inkscape:bbox-nodes="true"
     inkscape:snap-bbox-edge-midpoints="true"
     inkscape:snap-bbox-midpoints="true"
     inkscape:snap-object-midpoints="true"
     inkscape:snap-center="true"
     inkscape:window-width="1920"
     inkscape:window-height="1016"
     inkscape:window-x="0"
     inkscape:window-y="27"
     inkscape:window-maximized="1">
    <inkscape:grid
       type="xygrid"
       id="grid3336" />
  </sodipodi:namedview>
  <metadata
     id="metadata7">
    <rdf:RDF>
      <cc:Work
         rdf:about="">
        <dc:format>image/svg+xml</dc:format>
        <dc:type
           rdf:resource="http://purl.org/dc/dcmitype/StillImage" />
        <dc:title />
      </cc:Work>
    </rdf:RDF>
  </metadata>
  <g
     inkscape:label="Layer 1"
     inkscape:groupmode="layer"
     id="layer1">
    <path
       inkscape:connector-curvature="0"
       style="fill:#a5b7f3;fill-opacity:1;stroke:none;stroke-width:2;stroke-linecap:round;stroke-linejoin:round;stroke-miterlimit:4;stroke-dasharray:none;stroke-opacity:0.99607843"
       d="m 6.4921153,1 c -0.5540096,0 -1,0.446 -1,1 v 3 c 0,0.554 0.4459904,1 1,1 h 1 V 6.9902 A 1.0001,1.0001 0 0 0 7.1757091,7.0522 L 5.1249278,7.7358 4.4413342,5.685 A 1.0001,1.0001 0 0 0 3.4510998,4.9878 1.0001,1.0001 0 0 0 2.5428966,6.3159 l 1,3 A 1.0001,1.0001 0 0 0 4.8085215,9.9487 L 6.4921153,9.3882 v 0.6113 c 0,0.041 0.018715,0.076 0.023437,0.1152 l -4.5781249,3.0528 a 1.0001,1.0001 0 1 0 1.109375,1.664 l 5.0566406,-3.3711 1.4941407,2.9864 a 1.0001,1.0001 0 0 0 1.2109373,0.5019 l 3,-1 a 1.0001,1.0001 0 1 0 -0.632812,-1.8965 l -2.177735,0.7246 -0.974609,-1.9511 c 0.275899,-0.1777 0.46875,-0.4723 0.46875,-0.8262 v -1 h 1.382812 l 0.722657,1.4473 a 1.0001315,1.0001315 0 1 0 1.789062,-0.8946 l -1,-2 A 1.0001,1.0001 0 0 0 12.492115,6.9995 H 9.4921154 v -1 h 0.9999996 c 0.55401,0 1,-0.446 1,-1 v -3 c 0,-0.554 -0.44599,-1 -1,-1 z m 0,2 h 1 v 2 h -1 z"
       id="rect849" />
  </g>
</svg>
