<?xml version="1.0" encoding="UTF-8" standalone="no"?>
<!-- Created with Inkscape (http://www.inkscape.org/) -->

<svg
   xmlns:dc="http://purl.org/dc/elements/1.1/"
   xmlns:cc="http://creativecommons.org/ns#"
   xmlns:rdf="http://www.w3.org/1999/02/22-rdf-syntax-ns#"
   xmlns:svg="http://www.w3.org/2000/svg"
   xmlns="http://www.w3.org/2000/svg"
   xmlns:sodipodi="http://sodipodi.sourceforge.net/DTD/sodipodi-0.dtd"
   xmlns:inkscape="http://www.inkscape.org/namespaces/inkscape"
   width="16"
   height="16"
   viewBox="0 0 16 16"
   id="svg2"
   version="1.1"
   inkscape:version="0.92.2 (5c3e80d, 2017-08-06)"
   inkscape:export-filename="/home/djrm/Projects/godot/tools/editor/icons/icon_camera.png"
   inkscape:export-xdpi="90"
   inkscape:export-ydpi="90"
   sodipodi:docname="icon_a_r_v_r_anchor.svg">
  <defs
     id="defs4" />
  <sodipodi:namedview
     id="base"
     pagecolor="#ffffff"
     bordercolor="#666666"
     borderopacity="1.0"
     inkscape:pageopacity="0.0"
     inkscape:pageshadow="2"
     inkscape:zoom="32"
     inkscape:cx="8.2475331"
     inkscape:cy="10.131278"
     inkscape:document-units="px"
     inkscape:current-layer="layer1"
     showgrid="true"
     units="px"
     inkscape:snap-bbox="true"
     inkscape:bbox-paths="true"
     inkscape:bbox-nodes="true"
     inkscape:snap-bbox-edge-midpoints="true"
     inkscape:snap-bbox-midpoints="true"
     inkscape:snap-object-midpoints="true"
     inkscape:snap-center="true"
     inkscape:window-width="1920"
     inkscape:window-height="1016"
     inkscape:window-x="0"
     inkscape:window-y="27"
     inkscape:window-maximized="1"
     showguides="true"
     inkscape:document-rotation="0">
    <inkscape:grid
       type="xygrid"
       id="grid3336"
       empspacing="4" />
  </sodipodi:namedview>
  <metadata
     id="metadata7">
    <rdf:RDF>
      <cc:Work
         rdf:about="">
        <dc:format>image/svg+xml</dc:format>
        <dc:type
           rdf:resource="http://purl.org/dc/dcmitype/StillImage" />
        <dc:title />
      </cc:Work>
    </rdf:RDF>
  </metadata>
  <g
     inkscape:label="Layer 1"
     inkscape:groupmode="layer"
     id="layer1">
    <path
       style="opacity:1;fill:#fc9c9c;fill-opacity:1;stroke:none;stroke-width:4;stroke-linecap:round;stroke-linejoin:round;stroke-miterlimit:4;stroke-dasharray:none;stroke-dashoffset:0;stroke-opacity:1"
       d="M 7,1 V 3 H 5 V 5 H 7 V 8.2656245 L 4.4472656,6.9882808 C 4.2972183,6.913028 4.1306419,6.8767573 3.9628906,6.882812 3.5975296,6.8964595 3.2687414,7.1084119 3.1054688,7.4355464 2.8583812,7.9295774 3.0586459,8.530371 3.5527344,8.7773432 L 8,11 12.447266,8.7773432 C 12.941354,8.5303706 13.141618,7.9295772 12.894531,7.4355464 12.647559,6.9414578 12.046765,6.7411933 11.552734,6.9882808 L 9,8.2656245 V 5 h 2 V 3 H 9 V 1 Z M 4,12 v 1 c 0,0.552285 0.4477153,1 1,1 -0.5522847,0 -1,0.447715 -1,1 v 1 h 1 v -1 h 1 v 1 H 7 V 15 C 7,14.447715 6.5522847,14 6,14 6.5522847,14 7,13.552285 7,13 V 12 H 6 v 1 H 5 v -1 z m 5,0 v 1 3 h 1 v -1 h 1 v 1 h 1 V 15 C 11.999166,14.824214 11.952009,14.651753 11.863281,14.5 11.952009,14.348247 11.999166,14.175786 12,14 v -1 c 0,-0.552285 -0.447715,-1 -1,-1 h -1 z m 1,1 h 1 v 1 h -1 z"
       id="rect4141"
       inkscape:connector-curvature="0"
       sodipodi:nodetypes="ccccccccccccccccccccccscsccccccscscccccccccccccccccssccccccc" />
  </g>
</svg>
