<?xml version="1.0" encoding="UTF-8" standalone="no"?>
<!-- Created with Inkscape (http://www.inkscape.org/) -->

<svg
   xmlns:dc="http://purl.org/dc/elements/1.1/"
   xmlns:cc="http://creativecommons.org/ns#"
   xmlns:rdf="http://www.w3.org/1999/02/22-rdf-syntax-ns#"
   xmlns:svg="http://www.w3.org/2000/svg"
   xmlns="http://www.w3.org/2000/svg"
   xmlns:sodipodi="http://sodipodi.sourceforge.net/DTD/sodipodi-0.dtd"
   xmlns:inkscape="http://www.inkscape.org/namespaces/inkscape"
   width="16"
   height="16"
   viewBox="0 0 16 16"
   id="svg2"
   version="1.1"
   inkscape:version="0.92.2 (5c3e80d, 2017-08-06)"
   inkscape:export-filename="/home/djrm/Projects/godot/tools/editor/icons/icon_area.png"
   inkscape:export-xdpi="90"
   inkscape:export-ydpi="90"
   sodipodi:docname="icon_cone_twist_joint.svg">
  <defs
     id="defs4" />
  <sodipodi:namedview
     id="base"
     pagecolor="#ffffff"
     bordercolor="#666666"
     borderopacity="1.0"
     inkscape:pageopacity="0.0"
     inkscape:pageshadow="2"
     inkscape:zoom="22.627417"
     inkscape:cx="6.8130751"
     inkscape:cy="6.5681491"
     inkscape:document-units="px"
     inkscape:current-layer="layer1"
     showgrid="true"
     units="px"
     inkscape:snap-bbox="true"
     inkscape:bbox-paths="true"
     inkscape:bbox-nodes="true"
     inkscape:snap-bbox-edge-midpoints="true"
     inkscape:snap-bbox-midpoints="true"
     inkscape:snap-object-midpoints="true"
     inkscape:snap-center="true"
     inkscape:window-width="1920"
     inkscape:window-height="1016"
     inkscape:window-x="0"
     inkscape:window-y="27"
     inkscape:window-maximized="1"
     inkscape:snap-midpoints="true"
     inkscape:snap-smooth-nodes="true"
     inkscape:object-nodes="true">
    <inkscape:grid
       type="xygrid"
       id="grid3336" />
  </sodipodi:namedview>
  <metadata
     id="metadata7">
    <rdf:RDF>
      <cc:Work
         rdf:about="">
        <dc:format>image/svg+xml</dc:format>
        <dc:type
           rdf:resource="http://purl.org/dc/dcmitype/StillImage" />
        <dc:title />
      </cc:Work>
    </rdf:RDF>
  </metadata>
  <g
     inkscape:label="Layer 1"
     inkscape:groupmode="layer"
     id="layer1"
     transform="translate(0,-1036.3622)">
    <path
       style="color:#000000;font-style:normal;font-variant:normal;font-weight:normal;font-stretch:normal;font-size:medium;line-height:normal;font-family:sans-serif;font-variant-ligatures:normal;font-variant-position:normal;font-variant-caps:normal;font-variant-numeric:normal;font-variant-alternates:normal;font-feature-settings:normal;text-indent:0;text-align:start;text-decoration:none;text-decoration-line:none;text-decoration-style:solid;text-decoration-color:#000000;letter-spacing:normal;word-spacing:normal;text-transform:none;writing-mode:lr-tb;direction:ltr;text-orientation:mixed;dominant-baseline:auto;baseline-shift:baseline;text-anchor:start;white-space:normal;shape-padding:0;clip-rule:nonzero;display:inline;overflow:visible;visibility:visible;opacity:1;isolation:auto;mix-blend-mode:normal;color-interpolation:sRGB;color-interpolation-filters:linearRGB;solid-color:#000000;solid-opacity:1;vector-effect:none;fill:#fc9c9c;fill-opacity:1;fill-rule:nonzero;stroke:none;stroke-width:2;stroke-linecap:round;stroke-linejoin:round;stroke-miterlimit:4;stroke-dasharray:none;stroke-dashoffset:0;stroke-opacity:1;color-rendering:auto;image-rendering:auto;shape-rendering:auto;text-rendering:auto;enable-background:accumulate"
       d="M 7.9824219 1 A 1.0001 1.0001 0 0 0 7.1679688 1.4453125 L 2.4667969 8.4980469 C 1.6656305 9.080014 1.0866995 9.85439 1.0175781 10.8125 A 1.0001 1.0001 0 0 0 1 11 C 1 11.214487 1.0339758 11.416284 1.0820312 11.613281 C 1.0892295 11.641595 1.0973369 11.669253 1.1054688 11.697266 C 1.1591001 11.88876 1.2328733 12.071787 1.3261719 12.246094 C 1.5229502 12.613729 1.7972202 12.942605 2.1289062 13.232422 C 2.1368942 13.239447 2.1423487 13.248895 2.1503906 13.255859 C 2.1673439 13.270538 2.1878603 13.282391 2.2050781 13.296875 C 2.308068 13.382987 2.4176641 13.462186 2.5292969 13.541016 C 2.7681241 13.710941 3.0201311 13.871765 3.2988281 14.011719 C 3.3013576 14.012989 3.304108 14.014357 3.3066406 14.015625 C 3.3079536 14.016283 3.3092334 14.016921 3.3105469 14.017578 C 3.3191254 14.021868 3.329279 14.025034 3.3378906 14.029297 C 3.6028764 14.160326 3.8896332 14.27526 4.1875 14.380859 C 4.2923679 14.418493 4.3995223 14.452006 4.5078125 14.486328 C 4.5807575 14.50923 4.6480136 14.537043 4.7226562 14.558594 C 4.8904244 14.607024 5.0642656 14.644979 5.2363281 14.685547 C 5.3298902 14.707452 5.418181 14.734292 5.5136719 14.753906 C 5.5244045 14.756111 5.5361186 14.75759 5.546875 14.759766 C 5.8931087 14.830943 6.2466107 14.881729 6.6035156 14.921875 C 6.6614046 14.928103 6.7189572 14.934005 6.7773438 14.939453 C 7.5878599 15.018951 8.4121401 15.018951 9.2226562 14.939453 C 9.2810428 14.934005 9.3385954 14.928103 9.3964844 14.921875 C 9.7533894 14.881729 10.106891 14.830943 10.453125 14.759766 C 10.464073 14.757515 10.475394 14.756188 10.486328 14.753906 C 10.581819 14.734292 10.67011 14.707452 10.763672 14.685547 C 10.935734 14.644979 11.109576 14.607024 11.277344 14.558594 C 11.351986 14.537043 11.419242 14.50923 11.492188 14.486328 C 11.600478 14.452006 11.707632 14.418493 11.8125 14.380859 C 12.110367 14.27526 12.397124 14.160326 12.662109 14.029297 C 12.67206 14.024377 12.683457 14.020582 12.693359 14.015625 C 12.695985 14.01431 12.698548 14.013037 12.701172 14.011719 C 12.979869 13.871765 13.231876 13.710941 13.470703 13.541016 C 13.582336 13.462186 13.691932 13.382987 13.794922 13.296875 C 13.81214 13.282391 13.832656 13.270538 13.849609 13.255859 C 13.857651 13.248895 13.863106 13.239447 13.871094 13.232422 C 14.20278 12.942605 14.47705 12.613729 14.673828 12.246094 C 14.767127 12.071787 14.8409 11.88876 14.894531 11.697266 C 14.902663 11.669253 14.91077 11.641595 14.917969 11.613281 C 14.966024 11.416284 15 11.214487 15 11 A 1.0001 1.0001 0 0 0 14.982422 10.818359 A 1.0001 1.0001 0 0 0 14.980469 10.800781 C 14.907388 9.8481359 14.331063 9.0776124 13.533203 8.4980469 L 8.8320312 1.4453125 A 1.0001 1.0001 0 0 0 7.9824219 1 z M 7 5.3027344 L 7 7.0488281 C 6.5608864 7.082289 6.1363388 7.136663 5.7265625 7.2128906 L 7 5.3027344 z M 9 5.3027344 L 10.273438 7.2128906 C 9.8636612 7.136663 9.4391136 7.082289 9 7.0488281 L 9 5.3027344 z M 7 9.0507812 L 7 11 A 1.0001 1.0001 0 1 0 9 11 L 9 9.0507812 C 10.112595 9.1556545 11.095145 9.4235518 11.794922 9.7734375 C 11.916378 9.8341651 12.001137 9.8956165 12.101562 9.9570312 L 12.902344 11.158203 C 12.869379 11.304972 12.81269 11.464788 12.597656 11.675781 C 12.546192 11.72493 12.497314 11.773918 12.433594 11.824219 C 12.388401 11.859531 12.342221 11.894367 12.291016 11.929688 C 12.178569 12.007958 12.045909 12.088065 11.900391 12.166016 C 11.824963 12.20622 11.745089 12.244387 11.662109 12.283203 C 11.500163 12.358685 11.32759 12.429828 11.140625 12.496094 C 11.070037 12.521418 10.996086 12.544503 10.921875 12.568359 C 10.687626 12.642832 10.441104 12.712277 10.177734 12.769531 C 10.156391 12.77411 10.136696 12.78072 10.115234 12.785156 C 9.8593385 12.838836 9.5842258 12.875673 9.3066406 12.910156 C 8.4506375 13.012443 7.5493625 13.012443 6.6933594 12.910156 C 6.4157742 12.875673 6.1406615 12.838836 5.8847656 12.785156 C 5.863304 12.78072 5.8436095 12.77411 5.8222656 12.769531 C 5.5588963 12.712277 5.3123742 12.642832 5.078125 12.568359 C 5.0039137 12.544503 4.9299628 12.521418 4.859375 12.496094 C 4.6724099 12.429828 4.4998369 12.358685 4.3378906 12.283203 C 4.2549114 12.244387 4.1750368 12.20622 4.0996094 12.166016 C 3.9540907 12.088065 3.8214307 12.007958 3.7089844 11.929688 C 3.657779 11.894367 3.6115989 11.859531 3.5664062 11.824219 C 3.5026859 11.773918 3.453808 11.72493 3.4023438 11.675781 C 3.1873091 11.464788 3.130618 11.304972 3.0976562 11.158203 L 3.8984375 9.9570312 C 3.9988627 9.8956165 4.083622 9.8341651 4.2050781 9.7734375 C 4.9048545 9.4235518 5.8874049 9.1556545 7 9.0507812 z "
       transform="translate(0,1036.3622)"
       id="path4172" />
  </g>
</svg>
