<?xml version="1.0" encoding="UTF-8" standalone="no"?>
<!-- Created with Inkscape (http://www.inkscape.org/) -->

<svg
   xmlns:dc="http://purl.org/dc/elements/1.1/"
   xmlns:cc="http://creativecommons.org/ns#"
   xmlns:rdf="http://www.w3.org/1999/02/22-rdf-syntax-ns#"
   xmlns:svg="http://www.w3.org/2000/svg"
   xmlns="http://www.w3.org/2000/svg"
   xmlns:sodipodi="http://sodipodi.sourceforge.net/DTD/sodipodi-0.dtd"
   xmlns:inkscape="http://www.inkscape.org/namespaces/inkscape"
   width="16"
   height="16"
   viewBox="0 0 16 16"
   id="svg2"
   version="1.1"
   inkscape:version="0.92.2 (5c3e80d, 2017-08-06)"
   inkscape:export-filename="/home/djrm/Projects/godot/tools/editor/icons/icon_sprite_3d.png"
   inkscape:export-xdpi="90"
   inkscape:export-ydpi="90"
   sodipodi:docname="icon_kinematic_body.svg">
  <defs
     id="defs4" />
  <sodipodi:namedview
     id="base"
     pagecolor="#ffffff"
     bordercolor="#666666"
     borderopacity="1.0"
     inkscape:pageopacity="0.0"
     inkscape:pageshadow="2"
     inkscape:zoom="45.254834"
     inkscape:cx="9.9526894"
     inkscape:cy="10.98941"
     inkscape:document-units="px"
     inkscape:current-layer="layer1"
     showgrid="true"
     units="px"
     inkscape:snap-bbox="true"
     inkscape:bbox-paths="true"
     inkscape:bbox-nodes="true"
     inkscape:snap-bbox-edge-midpoints="true"
     inkscape:snap-bbox-midpoints="true"
     inkscape:snap-object-midpoints="true"
     inkscape:snap-center="true"
     inkscape:window-width="1920"
     inkscape:window-height="1016"
     inkscape:window-x="0"
     inkscape:window-y="27"
     inkscape:window-maximized="1">
    <inkscape:grid
       type="xygrid"
       id="grid3336" />
  </sodipodi:namedview>
  <metadata
     id="metadata7">
    <rdf:RDF>
      <cc:Work
         rdf:about="">
        <dc:format>image/svg+xml</dc:format>
        <dc:type
           rdf:resource="http://purl.org/dc/dcmitype/StillImage" />
        <dc:title />
      </cc:Work>
    </rdf:RDF>
  </metadata>
  <g
     inkscape:label="Layer 1"
     inkscape:groupmode="layer"
     id="layer1"
     transform="translate(0,-1036.3622)">
    <path
       style="fill:#fc9c9c;fill-opacity:0.99607843;stroke:none;stroke-width:2;stroke-linecap:round;stroke-linejoin:round;stroke-miterlimit:4;stroke-dasharray:none;stroke-opacity:0.99607843"
       d="M 6 1 C 5.4459904 1 5 1.4459904 5 2 L 5 5 C 5 5.5540096 5.4459904 6 6 6 L 7 6 L 7 6.9902344 A 1.0001 1.0001 0 0 0 6.6835938 7.0527344 L 4.6328125 7.7363281 L 3.9492188 5.6855469 A 1.0001 1.0001 0 0 0 2.9589844 4.9882812 A 1.0001 1.0001 0 0 0 2.0507812 6.3164062 L 3.0507812 9.3164062 A 1.0001 1.0001 0 0 0 4.3164062 9.9492188 L 6 9.3886719 L 6 10 C 6 10.040884 6.0187153 10.075662 6.0234375 10.115234 L 1.4453125 13.167969 A 1.0001 1.0001 0 1 0 2.5546875 14.832031 L 7.6113281 11.460938 L 9.1054688 14.447266 A 1.0001 1.0001 0 0 0 10.316406 14.949219 L 13.316406 13.949219 A 1.0001 1.0001 0 1 0 12.683594 12.052734 L 10.505859 12.777344 L 9.53125 10.826172 C 9.8071486 10.648527 10 10.3539 10 10 L 10 9 L 11.382812 9 L 12.105469 10.447266 A 1.0001091 1.0001091 0 1 0 13.894531 9.5527344 L 12.894531 7.5527344 A 1.0001 1.0001 0 0 0 12 7 L 9 7 L 9 6 L 10 6 C 10.55401 6 11 5.5540096 11 5 L 11 2 C 11 1.4459904 10.55401 1 10 1 L 6 1 z M 6 3 L 7 3 L 7 5 L 6 5 L 6 3 z "
       transform="translate(0,1036.3622)"
       id="rect849" />
  </g>
</svg>
