<?xml version="1.0" encoding="UTF-8" standalone="no"?>
<!-- Created with Inkscape (http://www.inkscape.org/) -->

<svg
   xmlns:dc="http://purl.org/dc/elements/1.1/"
   xmlns:cc="http://creativecommons.org/ns#"
   xmlns:rdf="http://www.w3.org/1999/02/22-rdf-syntax-ns#"
   xmlns:svg="http://www.w3.org/2000/svg"
   xmlns="http://www.w3.org/2000/svg"
   xmlns:sodipodi="http://sodipodi.sourceforge.net/DTD/sodipodi-0.dtd"
   xmlns:inkscape="http://www.inkscape.org/namespaces/inkscape"
   width="16"
   height="16"
   viewBox="0 0 16 16"
   id="svg2"
   version="1.1"
   inkscape:version="0.92+devel unknown"
   inkscape:export-filename="/home/djrm/Projects/godot/tools/editor/icons/icon_key.png"
   inkscape:export-xdpi="90"
   inkscape:export-ydpi="90"
   sodipodi:docname="icon_key_scale_enabled.svg">
  <defs
     id="defs4">
    <clipPath
       clipPathUnits="userSpaceOnUse"
       id="clipPath4253">
      <path
         style="fill:#ffffff;fill-opacity:1;stroke:none;stroke-width:4;stroke-linecap:round;stroke-linejoin:round;stroke-miterlimit:4;stroke-dasharray:none;stroke-opacity:1"
         d="m 16.458984,1024.37 a 12.000027,12.000027 0 0 0 -3.564453,0.4004 12.000027,12.000027 0 0 0 -8.4863279,14.6973 12.000027,12.000027 0 0 0 14.6972659,8.4863 12.000027,12.000027 0 0 0 8.486328,-14.6973 12.000027,12.000027 0 0 0 -11.132813,-8.8867 z M 16.25,1029.8212 a 6.5451717,6.5451717 0 0 1 6.072266,4.8476 6.5451717,6.5451717 0 0 1 -4.628907,8.0157 6.5451717,6.5451717 0 0 1 -8.0156246,-4.6289 6.5451717,6.5451717 0 0 1 4.6289066,-8.0157 6.5451717,6.5451717 0 0 1 1.943359,-0.2187 z"
         id="path4255"
         inkscape:connector-curvature="0" />
    </clipPath>
    <clipPath
       clipPathUnits="userSpaceOnUse"
       id="clipPath4199">
      <path
         inkscape:connector-curvature="0"
         id="path4201"
         d="m 16.5,1025.8622 a 11.8125,10.499999 0 0 0 -11.8125001,10.5 11.8125,10.499999 0 0 0 11.8125001,10.5 11.8125,10.499999 0 0 0 11.8125,-10.5 11.8125,10.499999 0 0 0 -11.8125,-10.5 z m -3.375,3 a 3.375,2.9999997 0 0 1 3.375,3 3.375,2.9999997 0 0 1 -3.375,3 3.375,2.9999997 0 0 1 -3.3750001,-3 3.375,2.9999997 0 0 1 3.3750001,-3 z"
         style="opacity:1;fill:#ffffff;fill-opacity:1;stroke:none;stroke-width:2;stroke-linecap:round;stroke-linejoin:miter;stroke-miterlimit:4;stroke-dasharray:none;stroke-dashoffset:0;stroke-opacity:1" />
    </clipPath>
    <clipPath
       id="clipPath4392"
       clipPathUnits="userSpaceOnUse">
      <path
         inkscape:connector-curvature="0"
         id="path4394"
         d="m 8.072266,1041.3622 a 5,5 0 0 0 -3.607422,1.4648 5,5 0 0 0 0,7.0704 5,5 0 0 0 7.070312,0 l -1.416015,-1.4161 A 3,3 0 0 1 8,1049.3622 a 3,3 0 0 1 -3,-3 3,3 0 0 1 3,-3 3,3 0 0 1 2.119141,0.8809 l 1.416015,-1.4161 a 5,5 0 0 0 -3.46289,-1.4648 z"
         style="fill:#e0e0e0;fill-opacity:1;stroke:none;stroke-width:2;stroke-linecap:round;stroke-linejoin:round;stroke-miterlimit:4;stroke-dasharray:none;stroke-opacity:1" />
    </clipPath>
    <clipPath
       clipPathUnits="userSpaceOnUse"
       id="clipPath4196">
      <path
         style="opacity:1;fill:#ffffff;fill-opacity:1;stroke:none;stroke-width:2;stroke-linecap:round;stroke-linejoin:miter;stroke-miterlimit:4;stroke-dasharray:none;stroke-dashoffset:0;stroke-opacity:1"
         d="m 8.0624999,1025.8622 a 3.375,2.9999997 0 0 0 -3.375,3 3.375,2.9999997 0 0 0 1.6875,2.5957 l 0,9.8115 a 3.375,2.9999997 0 0 0 -1.6875,2.5928 3.375,2.9999997 0 0 0 3.375,3 3.375,2.9999997 0 0 0 3.3750001,-3 3.375,2.9999997 0 0 0 -1.6875001,-2.5957 l 0,-8.7832 11.9311511,10.6054 a 3.375,2.9999997 0 0 0 -0.118651,0.7735 3.375,2.9999997 0 0 0 3.375,3 3.375,2.9999997 0 0 0 3.375,-3 3.375,2.9999997 0 0 0 -3.375,-3 3.375,2.9999997 0 0 0 -0.873413,0.1025 l -11.927857,-10.6025 9.884399,0 a 3.375,2.9999997 0 0 0 2.916871,1.5 3.375,2.9999997 0 0 0 3.375,-3 3.375,2.9999997 0 0 0 -3.375,-3 3.375,2.9999997 0 0 0 -2.920166,1.5 l -11.037964,0 a 3.375,2.9999997 0 0 0 -2.9168701,-1.5 z"
         id="path4198"
         inkscape:connector-curvature="0" />
    </clipPath>
    <clipPath
       clipPathUnits="userSpaceOnUse"
       id="clipPath4253-75">
      <path
         style="fill:#ffffff;fill-opacity:1;stroke:none;stroke-width:4;stroke-linecap:round;stroke-linejoin:round;stroke-miterlimit:4;stroke-dasharray:none;stroke-opacity:1"
         d="m 16.458984,1024.37 a 12.000027,12.000027 0 0 0 -3.564453,0.4004 12.000027,12.000027 0 0 0 -8.4863279,14.6973 12.000027,12.000027 0 0 0 14.6972659,8.4863 12.000027,12.000027 0 0 0 8.486328,-14.6973 12.000027,12.000027 0 0 0 -11.132813,-8.8867 z M 16.25,1029.8212 a 6.5451717,6.5451717 0 0 1 6.072266,4.8476 6.5451717,6.5451717 0 0 1 -4.628907,8.0157 6.5451717,6.5451717 0 0 1 -8.0156246,-4.6289 6.5451717,6.5451717 0 0 1 4.6289066,-8.0157 6.5451717,6.5451717 0 0 1 1.943359,-0.2187 z"
         id="path4255-3"
         inkscape:connector-curvature="0" />
    </clipPath>
    <clipPath
       clipPathUnits="userSpaceOnUse"
       id="clipPath4199-5">
      <path
         inkscape:connector-curvature="0"
         id="path4201-6"
         d="m 16.5,1025.8622 a 11.8125,10.499999 0 0 0 -11.8125001,10.5 11.8125,10.499999 0 0 0 11.8125001,10.5 11.8125,10.499999 0 0 0 11.8125,-10.5 11.8125,10.499999 0 0 0 -11.8125,-10.5 z m -3.375,3 a 3.375,2.9999997 0 0 1 3.375,3 3.375,2.9999997 0 0 1 -3.375,3 3.375,2.9999997 0 0 1 -3.3750001,-3 3.375,2.9999997 0 0 1 3.3750001,-3 z"
         style="opacity:1;fill:#ffffff;fill-opacity:1;stroke:none;stroke-width:2;stroke-linecap:round;stroke-linejoin:miter;stroke-miterlimit:4;stroke-dasharray:none;stroke-dashoffset:0;stroke-opacity:1" />
    </clipPath>
    <clipPath
       id="clipPath4392-2"
       clipPathUnits="userSpaceOnUse">
      <path
         inkscape:connector-curvature="0"
         id="path4394-9"
         d="m 8.072266,1041.3622 a 5,5 0 0 0 -3.607422,1.4648 5,5 0 0 0 0,7.0704 5,5 0 0 0 7.070312,0 l -1.416015,-1.4161 A 3,3 0 0 1 8,1049.3622 a 3,3 0 0 1 -3,-3 3,3 0 0 1 3,-3 3,3 0 0 1 2.119141,0.8809 l 1.416015,-1.4161 a 5,5 0 0 0 -3.46289,-1.4648 z"
         style="fill:#e0e0e0;fill-opacity:1;stroke:none;stroke-width:2;stroke-linecap:round;stroke-linejoin:round;stroke-miterlimit:4;stroke-dasharray:none;stroke-opacity:1" />
    </clipPath>
    <clipPath
       clipPathUnits="userSpaceOnUse"
       id="clipPath4196-1">
      <path
         style="opacity:1;fill:#ffffff;fill-opacity:1;stroke:none;stroke-width:2;stroke-linecap:round;stroke-linejoin:miter;stroke-miterlimit:4;stroke-dasharray:none;stroke-dashoffset:0;stroke-opacity:1"
         d="m 8.0624999,1025.8622 a 3.375,2.9999997 0 0 0 -3.375,3 3.375,2.9999997 0 0 0 1.6875,2.5957 l 0,9.8115 a 3.375,2.9999997 0 0 0 -1.6875,2.5928 3.375,2.9999997 0 0 0 3.375,3 3.375,2.9999997 0 0 0 3.3750001,-3 3.375,2.9999997 0 0 0 -1.6875001,-2.5957 l 0,-8.7832 11.9311511,10.6054 a 3.375,2.9999997 0 0 0 -0.118651,0.7735 3.375,2.9999997 0 0 0 3.375,3 3.375,2.9999997 0 0 0 3.375,-3 3.375,2.9999997 0 0 0 -3.375,-3 3.375,2.9999997 0 0 0 -0.873413,0.1025 l -11.927857,-10.6025 9.884399,0 a 3.375,2.9999997 0 0 0 2.916871,1.5 3.375,2.9999997 0 0 0 3.375,-3 3.375,2.9999997 0 0 0 -3.375,-3 3.375,2.9999997 0 0 0 -2.920166,1.5 l -11.037964,0 a 3.375,2.9999997 0 0 0 -2.9168701,-1.5 z"
         id="path4198-2"
         inkscape:connector-curvature="0" />
    </clipPath>
    <clipPath
       clipPathUnits="userSpaceOnUse"
       id="clipPath4253-7">
      <path
         style="fill:#ffffff;fill-opacity:1;stroke:none;stroke-width:4;stroke-linecap:round;stroke-linejoin:round;stroke-miterlimit:4;stroke-dasharray:none;stroke-opacity:1"
         d="m 16.458984,1024.37 a 12.000027,12.000027 0 0 0 -3.564453,0.4004 12.000027,12.000027 0 0 0 -8.4863279,14.6973 12.000027,12.000027 0 0 0 14.6972659,8.4863 12.000027,12.000027 0 0 0 8.486328,-14.6973 12.000027,12.000027 0 0 0 -11.132813,-8.8867 z M 16.25,1029.8212 a 6.5451717,6.5451717 0 0 1 6.072266,4.8476 6.5451717,6.5451717 0 0 1 -4.628907,8.0157 6.5451717,6.5451717 0 0 1 -8.0156246,-4.6289 6.5451717,6.5451717 0 0 1 4.6289066,-8.0157 6.5451717,6.5451717 0 0 1 1.943359,-0.2187 z"
         id="path4255-5"
         inkscape:connector-curvature="0" />
    </clipPath>
    <clipPath
       clipPathUnits="userSpaceOnUse"
       id="clipPath4199-3">
      <path
         inkscape:connector-curvature="0"
         id="path4201-5"
         d="m 16.5,1025.8622 a 11.8125,10.499999 0 0 0 -11.8125001,10.5 11.8125,10.499999 0 0 0 11.8125001,10.5 11.8125,10.499999 0 0 0 11.8125,-10.5 11.8125,10.499999 0 0 0 -11.8125,-10.5 z m -3.375,3 a 3.375,2.9999997 0 0 1 3.375,3 3.375,2.9999997 0 0 1 -3.375,3 3.375,2.9999997 0 0 1 -3.3750001,-3 3.375,2.9999997 0 0 1 3.3750001,-3 z"
         style="opacity:1;fill:#ffffff;fill-opacity:1;stroke:none;stroke-width:2;stroke-linecap:round;stroke-linejoin:miter;stroke-miterlimit:4;stroke-dasharray:none;stroke-dashoffset:0;stroke-opacity:1" />
    </clipPath>
    <clipPath
       id="clipPath4392-6"
       clipPathUnits="userSpaceOnUse">
      <path
         inkscape:connector-curvature="0"
         id="path4394-2"
         d="m 8.072266,1041.3622 a 5,5 0 0 0 -3.607422,1.4648 5,5 0 0 0 0,7.0704 5,5 0 0 0 7.070312,0 l -1.416015,-1.4161 A 3,3 0 0 1 8,1049.3622 a 3,3 0 0 1 -3,-3 3,3 0 0 1 3,-3 3,3 0 0 1 2.119141,0.8809 l 1.416015,-1.4161 a 5,5 0 0 0 -3.46289,-1.4648 z"
         style="fill:#e0e0e0;fill-opacity:1;stroke:none;stroke-width:2;stroke-linecap:round;stroke-linejoin:round;stroke-miterlimit:4;stroke-dasharray:none;stroke-opacity:1" />
    </clipPath>
    <clipPath
       clipPathUnits="userSpaceOnUse"
       id="clipPath4196-9">
      <path
         style="opacity:1;fill:#ffffff;fill-opacity:1;stroke:none;stroke-width:2;stroke-linecap:round;stroke-linejoin:miter;stroke-miterlimit:4;stroke-dasharray:none;stroke-dashoffset:0;stroke-opacity:1"
         d="m 8.0624999,1025.8622 a 3.375,2.9999997 0 0 0 -3.375,3 3.375,2.9999997 0 0 0 1.6875,2.5957 l 0,9.8115 a 3.375,2.9999997 0 0 0 -1.6875,2.5928 3.375,2.9999997 0 0 0 3.375,3 3.375,2.9999997 0 0 0 3.3750001,-3 3.375,2.9999997 0 0 0 -1.6875001,-2.5957 l 0,-8.7832 11.9311511,10.6054 a 3.375,2.9999997 0 0 0 -0.118651,0.7735 3.375,2.9999997 0 0 0 3.375,3 3.375,2.9999997 0 0 0 3.375,-3 3.375,2.9999997 0 0 0 -3.375,-3 3.375,2.9999997 0 0 0 -0.873413,0.1025 l -11.927857,-10.6025 9.884399,0 a 3.375,2.9999997 0 0 0 2.916871,1.5 3.375,2.9999997 0 0 0 3.375,-3 3.375,2.9999997 0 0 0 -3.375,-3 3.375,2.9999997 0 0 0 -2.920166,1.5 l -11.037964,0 a 3.375,2.9999997 0 0 0 -2.9168701,-1.5 z"
         id="path4198-1"
         inkscape:connector-curvature="0" />
    </clipPath>
    <clipPath
       clipPathUnits="userSpaceOnUse"
       id="clipPath4253-753">
      <path
         style="fill:#ffffff;fill-opacity:1;stroke:none;stroke-width:4;stroke-linecap:round;stroke-linejoin:round;stroke-miterlimit:4;stroke-dasharray:none;stroke-opacity:1"
         d="m 16.458984,1024.37 a 12.000027,12.000027 0 0 0 -3.564453,0.4004 12.000027,12.000027 0 0 0 -8.4863279,14.6973 12.000027,12.000027 0 0 0 14.6972659,8.4863 12.000027,12.000027 0 0 0 8.486328,-14.6973 12.000027,12.000027 0 0 0 -11.132813,-8.8867 z M 16.25,1029.8212 a 6.5451717,6.5451717 0 0 1 6.072266,4.8476 6.5451717,6.5451717 0 0 1 -4.628907,8.0157 6.5451717,6.5451717 0 0 1 -8.0156246,-4.6289 6.5451717,6.5451717 0 0 1 4.6289066,-8.0157 6.5451717,6.5451717 0 0 1 1.943359,-0.2187 z"
         id="path4255-56"
         inkscape:connector-curvature="0" />
    </clipPath>
    <clipPath
       clipPathUnits="userSpaceOnUse"
       id="clipPath4199-2">
      <path
         inkscape:connector-curvature="0"
         id="path4201-9"
         d="m 16.5,1025.8622 a 11.8125,10.499999 0 0 0 -11.8125001,10.5 11.8125,10.499999 0 0 0 11.8125001,10.5 11.8125,10.499999 0 0 0 11.8125,-10.5 11.8125,10.499999 0 0 0 -11.8125,-10.5 z m -3.375,3 a 3.375,2.9999997 0 0 1 3.375,3 3.375,2.9999997 0 0 1 -3.375,3 3.375,2.9999997 0 0 1 -3.3750001,-3 3.375,2.9999997 0 0 1 3.3750001,-3 z"
         style="opacity:1;fill:#ffffff;fill-opacity:1;stroke:none;stroke-width:2;stroke-linecap:round;stroke-linejoin:miter;stroke-miterlimit:4;stroke-dasharray:none;stroke-dashoffset:0;stroke-opacity:1" />
    </clipPath>
    <clipPath
       id="clipPath4392-1"
       clipPathUnits="userSpaceOnUse">
      <path
         inkscape:connector-curvature="0"
         id="path4394-27"
         d="m 8.072266,1041.3622 a 5,5 0 0 0 -3.607422,1.4648 5,5 0 0 0 0,7.0704 5,5 0 0 0 7.070312,0 l -1.416015,-1.4161 A 3,3 0 0 1 8,1049.3622 a 3,3 0 0 1 -3,-3 3,3 0 0 1 3,-3 3,3 0 0 1 2.119141,0.8809 l 1.416015,-1.4161 a 5,5 0 0 0 -3.46289,-1.4648 z"
         style="fill:#e0e0e0;fill-opacity:1;stroke:none;stroke-width:2;stroke-linecap:round;stroke-linejoin:round;stroke-miterlimit:4;stroke-dasharray:none;stroke-opacity:1" />
    </clipPath>
    <clipPath
       clipPathUnits="userSpaceOnUse"
       id="clipPath4196-0">
      <path
         style="opacity:1;fill:#ffffff;fill-opacity:1;stroke:none;stroke-width:2;stroke-linecap:round;stroke-linejoin:miter;stroke-miterlimit:4;stroke-dasharray:none;stroke-dashoffset:0;stroke-opacity:1"
         d="m 8.0624999,1025.8622 a 3.375,2.9999997 0 0 0 -3.375,3 3.375,2.9999997 0 0 0 1.6875,2.5957 l 0,9.8115 a 3.375,2.9999997 0 0 0 -1.6875,2.5928 3.375,2.9999997 0 0 0 3.375,3 3.375,2.9999997 0 0 0 3.3750001,-3 3.375,2.9999997 0 0 0 -1.6875001,-2.5957 l 0,-8.7832 11.9311511,10.6054 a 3.375,2.9999997 0 0 0 -0.118651,0.7735 3.375,2.9999997 0 0 0 3.375,3 3.375,2.9999997 0 0 0 3.375,-3 3.375,2.9999997 0 0 0 -3.375,-3 3.375,2.9999997 0 0 0 -0.873413,0.1025 l -11.927857,-10.6025 9.884399,0 a 3.375,2.9999997 0 0 0 2.916871,1.5 3.375,2.9999997 0 0 0 3.375,-3 3.375,2.9999997 0 0 0 -3.375,-3 3.375,2.9999997 0 0 0 -2.920166,1.5 l -11.037964,0 a 3.375,2.9999997 0 0 0 -2.9168701,-1.5 z"
         id="path4198-9"
         inkscape:connector-curvature="0" />
    </clipPath>
    <clipPath
       clipPathUnits="userSpaceOnUse"
       id="clipPath4253-75-3">
      <path
         style="fill:#ffffff;fill-opacity:1;stroke:none;stroke-width:4;stroke-linecap:round;stroke-linejoin:round;stroke-miterlimit:4;stroke-dasharray:none;stroke-opacity:1"
         d="m 16.458984,1024.37 a 12.000027,12.000027 0 0 0 -3.564453,0.4004 12.000027,12.000027 0 0 0 -8.4863279,14.6973 12.000027,12.000027 0 0 0 14.6972659,8.4863 12.000027,12.000027 0 0 0 8.486328,-14.6973 12.000027,12.000027 0 0 0 -11.132813,-8.8867 z M 16.25,1029.8212 a 6.5451717,6.5451717 0 0 1 6.072266,4.8476 6.5451717,6.5451717 0 0 1 -4.628907,8.0157 6.5451717,6.5451717 0 0 1 -8.0156246,-4.6289 6.5451717,6.5451717 0 0 1 4.6289066,-8.0157 6.5451717,6.5451717 0 0 1 1.943359,-0.2187 z"
         id="path4255-3-6"
         inkscape:connector-curvature="0" />
    </clipPath>
    <clipPath
       clipPathUnits="userSpaceOnUse"
       id="clipPath4199-5-0">
      <path
         inkscape:connector-curvature="0"
         id="path4201-6-6"
         d="m 16.5,1025.8622 a 11.8125,10.499999 0 0 0 -11.8125001,10.5 11.8125,10.499999 0 0 0 11.8125001,10.5 11.8125,10.499999 0 0 0 11.8125,-10.5 11.8125,10.499999 0 0 0 -11.8125,-10.5 z m -3.375,3 a 3.375,2.9999997 0 0 1 3.375,3 3.375,2.9999997 0 0 1 -3.375,3 3.375,2.9999997 0 0 1 -3.3750001,-3 3.375,2.9999997 0 0 1 3.3750001,-3 z"
         style="opacity:1;fill:#ffffff;fill-opacity:1;stroke:none;stroke-width:2;stroke-linecap:round;stroke-linejoin:miter;stroke-miterlimit:4;stroke-dasharray:none;stroke-dashoffset:0;stroke-opacity:1" />
    </clipPath>
    <clipPath
       id="clipPath4392-2-2"
       clipPathUnits="userSpaceOnUse">
      <path
         inkscape:connector-curvature="0"
         id="path4394-9-6"
         d="m 8.072266,1041.3622 a 5,5 0 0 0 -3.607422,1.4648 5,5 0 0 0 0,7.0704 5,5 0 0 0 7.070312,0 l -1.416015,-1.4161 A 3,3 0 0 1 8,1049.3622 a 3,3 0 0 1 -3,-3 3,3 0 0 1 3,-3 3,3 0 0 1 2.119141,0.8809 l 1.416015,-1.4161 a 5,5 0 0 0 -3.46289,-1.4648 z"
         style="fill:#e0e0e0;fill-opacity:1;stroke:none;stroke-width:2;stroke-linecap:round;stroke-linejoin:round;stroke-miterlimit:4;stroke-dasharray:none;stroke-opacity:1" />
    </clipPath>
    <clipPath
       clipPathUnits="userSpaceOnUse"
       id="clipPath4196-1-1">
      <path
         style="opacity:1;fill:#ffffff;fill-opacity:1;stroke:none;stroke-width:2;stroke-linecap:round;stroke-linejoin:miter;stroke-miterlimit:4;stroke-dasharray:none;stroke-dashoffset:0;stroke-opacity:1"
         d="m 8.0624999,1025.8622 a 3.375,2.9999997 0 0 0 -3.375,3 3.375,2.9999997 0 0 0 1.6875,2.5957 l 0,9.8115 a 3.375,2.9999997 0 0 0 -1.6875,2.5928 3.375,2.9999997 0 0 0 3.375,3 3.375,2.9999997 0 0 0 3.3750001,-3 3.375,2.9999997 0 0 0 -1.6875001,-2.5957 l 0,-8.7832 11.9311511,10.6054 a 3.375,2.9999997 0 0 0 -0.118651,0.7735 3.375,2.9999997 0 0 0 3.375,3 3.375,2.9999997 0 0 0 3.375,-3 3.375,2.9999997 0 0 0 -3.375,-3 3.375,2.9999997 0 0 0 -0.873413,0.1025 l -11.927857,-10.6025 9.884399,0 a 3.375,2.9999997 0 0 0 2.916871,1.5 3.375,2.9999997 0 0 0 3.375,-3 3.375,2.9999997 0 0 0 -3.375,-3 3.375,2.9999997 0 0 0 -2.920166,1.5 l -11.037964,0 a 3.375,2.9999997 0 0 0 -2.9168701,-1.5 z"
         id="path4198-2-8"
         inkscape:connector-curvature="0" />
    </clipPath>
    <clipPath
       clipPathUnits="userSpaceOnUse"
       id="clipPath4253-7-7">
      <path
         style="fill:#ffffff;fill-opacity:1;stroke:none;stroke-width:4;stroke-linecap:round;stroke-linejoin:round;stroke-miterlimit:4;stroke-dasharray:none;stroke-opacity:1"
         d="m 16.458984,1024.37 a 12.000027,12.000027 0 0 0 -3.564453,0.4004 12.000027,12.000027 0 0 0 -8.4863279,14.6973 12.000027,12.000027 0 0 0 14.6972659,8.4863 12.000027,12.000027 0 0 0 8.486328,-14.6973 12.000027,12.000027 0 0 0 -11.132813,-8.8867 z M 16.25,1029.8212 a 6.5451717,6.5451717 0 0 1 6.072266,4.8476 6.5451717,6.5451717 0 0 1 -4.628907,8.0157 6.5451717,6.5451717 0 0 1 -8.0156246,-4.6289 6.5451717,6.5451717 0 0 1 4.6289066,-8.0157 6.5451717,6.5451717 0 0 1 1.943359,-0.2187 z"
         id="path4255-5-9"
         inkscape:connector-curvature="0" />
    </clipPath>
    <clipPath
       clipPathUnits="userSpaceOnUse"
       id="clipPath4199-3-2">
      <path
         inkscape:connector-curvature="0"
         id="path4201-5-0"
         d="m 16.5,1025.8622 a 11.8125,10.499999 0 0 0 -11.8125001,10.5 11.8125,10.499999 0 0 0 11.8125001,10.5 11.8125,10.499999 0 0 0 11.8125,-10.5 11.8125,10.499999 0 0 0 -11.8125,-10.5 z m -3.375,3 a 3.375,2.9999997 0 0 1 3.375,3 3.375,2.9999997 0 0 1 -3.375,3 3.375,2.9999997 0 0 1 -3.3750001,-3 3.375,2.9999997 0 0 1 3.3750001,-3 z"
         style="opacity:1;fill:#ffffff;fill-opacity:1;stroke:none;stroke-width:2;stroke-linecap:round;stroke-linejoin:miter;stroke-miterlimit:4;stroke-dasharray:none;stroke-dashoffset:0;stroke-opacity:1" />
    </clipPath>
    <clipPath
       id="clipPath4392-6-2"
       clipPathUnits="userSpaceOnUse">
      <path
         inkscape:connector-curvature="0"
         id="path4394-2-3"
         d="m 8.072266,1041.3622 a 5,5 0 0 0 -3.607422,1.4648 5,5 0 0 0 0,7.0704 5,5 0 0 0 7.070312,0 l -1.416015,-1.4161 A 3,3 0 0 1 8,1049.3622 a 3,3 0 0 1 -3,-3 3,3 0 0 1 3,-3 3,3 0 0 1 2.119141,0.8809 l 1.416015,-1.4161 a 5,5 0 0 0 -3.46289,-1.4648 z"
         style="fill:#e0e0e0;fill-opacity:1;stroke:none;stroke-width:2;stroke-linecap:round;stroke-linejoin:round;stroke-miterlimit:4;stroke-dasharray:none;stroke-opacity:1" />
    </clipPath>
    <clipPath
       clipPathUnits="userSpaceOnUse"
       id="clipPath4196-9-7">
      <path
         style="opacity:1;fill:#ffffff;fill-opacity:1;stroke:none;stroke-width:2;stroke-linecap:round;stroke-linejoin:miter;stroke-miterlimit:4;stroke-dasharray:none;stroke-dashoffset:0;stroke-opacity:1"
         d="m 8.0624999,1025.8622 a 3.375,2.9999997 0 0 0 -3.375,3 3.375,2.9999997 0 0 0 1.6875,2.5957 l 0,9.8115 a 3.375,2.9999997 0 0 0 -1.6875,2.5928 3.375,2.9999997 0 0 0 3.375,3 3.375,2.9999997 0 0 0 3.3750001,-3 3.375,2.9999997 0 0 0 -1.6875001,-2.5957 l 0,-8.7832 11.9311511,10.6054 a 3.375,2.9999997 0 0 0 -0.118651,0.7735 3.375,2.9999997 0 0 0 3.375,3 3.375,2.9999997 0 0 0 3.375,-3 3.375,2.9999997 0 0 0 -3.375,-3 3.375,2.9999997 0 0 0 -0.873413,0.1025 l -11.927857,-10.6025 9.884399,0 a 3.375,2.9999997 0 0 0 2.916871,1.5 3.375,2.9999997 0 0 0 3.375,-3 3.375,2.9999997 0 0 0 -3.375,-3 3.375,2.9999997 0 0 0 -2.920166,1.5 l -11.037964,0 a 3.375,2.9999997 0 0 0 -2.9168701,-1.5 z"
         id="path4198-1-5"
         inkscape:connector-curvature="0" />
    </clipPath>
    <clipPath
       clipPathUnits="userSpaceOnUse"
       id="clipPath4253-1">
      <path
         style="fill:#ffffff;fill-opacity:1;stroke:none;stroke-width:4;stroke-linecap:round;stroke-linejoin:round;stroke-miterlimit:4;stroke-dasharray:none;stroke-opacity:1"
         d="m 16.458984,1024.37 a 12.000027,12.000027 0 0 0 -3.564453,0.4004 12.000027,12.000027 0 0 0 -8.4863279,14.6973 12.000027,12.000027 0 0 0 14.6972659,8.4863 12.000027,12.000027 0 0 0 8.486328,-14.6973 12.000027,12.000027 0 0 0 -11.132813,-8.8867 z M 16.25,1029.8212 a 6.5451717,6.5451717 0 0 1 6.072266,4.8476 6.5451717,6.5451717 0 0 1 -4.628907,8.0157 6.5451717,6.5451717 0 0 1 -8.0156246,-4.6289 6.5451717,6.5451717 0 0 1 4.6289066,-8.0157 6.5451717,6.5451717 0 0 1 1.943359,-0.2187 z"
         id="path4255-9"
         inkscape:connector-curvature="0" />
    </clipPath>
    <clipPath
       clipPathUnits="userSpaceOnUse"
       id="clipPath4199-4">
      <path
         inkscape:connector-curvature="0"
         id="path4201-7"
         d="m 16.5,1025.8622 a 11.8125,10.499999 0 0 0 -11.8125001,10.5 11.8125,10.499999 0 0 0 11.8125001,10.5 11.8125,10.499999 0 0 0 11.8125,-10.5 11.8125,10.499999 0 0 0 -11.8125,-10.5 z m -3.375,3 a 3.375,2.9999997 0 0 1 3.375,3 3.375,2.9999997 0 0 1 -3.375,3 3.375,2.9999997 0 0 1 -3.3750001,-3 3.375,2.9999997 0 0 1 3.3750001,-3 z"
         style="opacity:1;fill:#ffffff;fill-opacity:1;stroke:none;stroke-width:2;stroke-linecap:round;stroke-linejoin:miter;stroke-miterlimit:4;stroke-dasharray:none;stroke-dashoffset:0;stroke-opacity:1" />
    </clipPath>
    <clipPath
       id="clipPath4392-8"
       clipPathUnits="userSpaceOnUse">
      <path
         inkscape:connector-curvature="0"
         id="path4394-4"
         d="m 8.072266,1041.3622 a 5,5 0 0 0 -3.607422,1.4648 5,5 0 0 0 0,7.0704 5,5 0 0 0 7.070312,0 l -1.416015,-1.4161 A 3,3 0 0 1 8,1049.3622 a 3,3 0 0 1 -3,-3 3,3 0 0 1 3,-3 3,3 0 0 1 2.119141,0.8809 l 1.416015,-1.4161 a 5,5 0 0 0 -3.46289,-1.4648 z"
         style="fill:#e0e0e0;fill-opacity:1;stroke:none;stroke-width:2;stroke-linecap:round;stroke-linejoin:round;stroke-miterlimit:4;stroke-dasharray:none;stroke-opacity:1" />
    </clipPath>
    <clipPath
       clipPathUnits="userSpaceOnUse"
       id="clipPath4196-5">
      <path
         style="opacity:1;fill:#ffffff;fill-opacity:1;stroke:none;stroke-width:2;stroke-linecap:round;stroke-linejoin:miter;stroke-miterlimit:4;stroke-dasharray:none;stroke-dashoffset:0;stroke-opacity:1"
         d="m 8.0624999,1025.8622 a 3.375,2.9999997 0 0 0 -3.375,3 3.375,2.9999997 0 0 0 1.6875,2.5957 l 0,9.8115 a 3.375,2.9999997 0 0 0 -1.6875,2.5928 3.375,2.9999997 0 0 0 3.375,3 3.375,2.9999997 0 0 0 3.3750001,-3 3.375,2.9999997 0 0 0 -1.6875001,-2.5957 l 0,-8.7832 11.9311511,10.6054 a 3.375,2.9999997 0 0 0 -0.118651,0.7735 3.375,2.9999997 0 0 0 3.375,3 3.375,2.9999997 0 0 0 3.375,-3 3.375,2.9999997 0 0 0 -3.375,-3 3.375,2.9999997 0 0 0 -0.873413,0.1025 l -11.927857,-10.6025 9.884399,0 a 3.375,2.9999997 0 0 0 2.916871,1.5 3.375,2.9999997 0 0 0 3.375,-3 3.375,2.9999997 0 0 0 -3.375,-3 3.375,2.9999997 0 0 0 -2.920166,1.5 l -11.037964,0 a 3.375,2.9999997 0 0 0 -2.9168701,-1.5 z"
         id="path4198-0"
         inkscape:connector-curvature="0" />
    </clipPath>
  </defs>
  <sodipodi:namedview
     id="base"
     pagecolor="#ffffff"
     bordercolor="#666666"
     borderopacity="1.0"
     inkscape:pageopacity="0.0"
     inkscape:pageshadow="2"
     inkscape:zoom="22.627418"
     inkscape:cx="9.1458021"
     inkscape:cy="10.543519"
     inkscape:document-units="px"
     inkscape:current-layer="layer1"
     showgrid="true"
     units="px"
     inkscape:snap-bbox="true"
     inkscape:bbox-paths="true"
     inkscape:bbox-nodes="true"
     inkscape:snap-bbox-edge-midpoints="true"
     inkscape:snap-bbox-midpoints="false"
     inkscape:snap-object-midpoints="true"
     inkscape:snap-center="true"
     inkscape:window-width="1920"
     inkscape:window-height="1016"
     inkscape:window-x="0"
     inkscape:window-y="27"
     inkscape:window-maximized="1"
     inkscape:document-rotation="0">
    <inkscape:grid
       type="xygrid"
       id="grid3336" />
  </sodipodi:namedview>
  <metadata
     id="metadata7">
    <rdf:RDF>
      <cc:Work
         rdf:about="">
        <dc:format>image/svg+xml</dc:format>
        <dc:type
           rdf:resource="http://purl.org/dc/dcmitype/StillImage" />
        <dc:title />
      </cc:Work>
    </rdf:RDF>
  </metadata>
  <g
     inkscape:label="Layer 1"
     inkscape:groupmode="layer"
     id="layer1"
     transform="translate(0,-1036.3622)">
    <path
       style="opacity:1;fill:#e0e0e0;fill-opacity:0.99607843;stroke:none;stroke-width:3;stroke-linecap:round;stroke-linejoin:miter;stroke-miterlimit:4;stroke-dasharray:none;stroke-dashoffset:0;stroke-opacity:1"
       d="M 8 1 C 7.8049996 1 7.6103569 1.07519 7.4609375 1.2246094 L 4.2246094 4.4609375 C 3.9257706 4.7597763 3.9257706 5.2402237 4.2246094 5.5390625 L 7.4609375 8.7753906 C 7.7597763 9.0742294 8.2402237 9.0742294 8.5390625 8.7753906 L 11.775391 5.5390625 C 12.074229 5.2402237 12.074229 4.7597763 11.775391 4.4609375 L 8.5390625 1.2246094 C 8.3896431 1.07519 8.1950004 1 8 1 z M 11 8 L 11 13 C 11 14.656854 12.343146 16 14 16 L 15 16 L 15 14 L 14 14 C 13.447719 13.99999 13.00001 13.552281 13 13 L 13 8 L 11 8 z M 3 10 C 2.2853362 9.9999 1.62491 10.3811 1.2675781 11 C 0.91031255 11.6188 0.91031255 12.3812 1.2675781 13 C 1.62491 13.6189 2.2853362 14.0001 3 14 L 1 14 L 1 16 L 3 16 C 3.7146638 16.0001 4.37509 15.6189 4.7324219 15 C 5.0896875 14.3812 5.0896875 13.6188 4.7324219 13 C 4.37509 12.3811 3.7146638 11.9999 3 12 L 5 12 L 5 10 L 3 10 z M 9 10 C 7.3431458 10 6 11.343146 6 13 C 6 14.656854 7.3431458 16 9 16 L 10 16 L 10 14 L 9 14 C 8.4477192 13.99999 8.0000096 13.552281 8 13 C 8.0000096 12.447719 8.4477192 12.00001 9 12 L 10 12 L 10 10 L 9 10 z "
       transform="translate(0,1036.3622)"
       id="path4137" />
  </g>
</svg>
