<?xml version="1.0" encoding="UTF-8" standalone="no"?>
<!-- Created with Inkscape (http://www.inkscape.org/) -->

<svg
   xmlns:dc="http://purl.org/dc/elements/1.1/"
   xmlns:cc="http://creativecommons.org/ns#"
   xmlns:rdf="http://www.w3.org/1999/02/22-rdf-syntax-ns#"
   xmlns:svg="http://www.w3.org/2000/svg"
   xmlns="http://www.w3.org/2000/svg"
   xmlns:sodipodi="http://sodipodi.sourceforge.net/DTD/sodipodi-0.dtd"
   xmlns:inkscape="http://www.inkscape.org/namespaces/inkscape"
   width="16"
   height="16"
   viewBox="0 0 16 16"
   id="svg2"
   version="1.1"
   inkscape:version="0.92.2 (5c3e80d, 2017-08-06)"
   inkscape:export-filename="/home/djrm/Projects/godot/tools/editor/icons/icon_sprite.png"
   inkscape:export-xdpi="45"
   inkscape:export-ydpi="45"
   sodipodi:docname="icon_sprite.svg">
  <defs
     id="defs4" />
  <sodipodi:namedview
     id="base"
     pagecolor="#ffffff"
     bordercolor="#666666"
     borderopacity="1.0"
     inkscape:pageopacity="0.0"
     inkscape:pageshadow="2"
     inkscape:zoom="32"
     inkscape:cx="6.7363693"
     inkscape:cy="8.2155737"
     inkscape:document-units="px"
     inkscape:current-layer="layer1"
     showgrid="true"
     units="px"
     inkscape:snap-bbox="true"
     inkscape:bbox-paths="true"
     inkscape:bbox-nodes="true"
     inkscape:snap-bbox-edge-midpoints="true"
     inkscape:snap-bbox-midpoints="true"
     inkscape:snap-object-midpoints="true"
     inkscape:snap-center="true"
     inkscape:window-width="1920"
     inkscape:window-height="1016"
     inkscape:window-x="0"
     inkscape:window-y="27"
     inkscape:window-maximized="1"
     inkscape:document-rotation="0">
    <inkscape:grid
       type="xygrid"
       id="grid3336" />
  </sodipodi:namedview>
  <metadata
     id="metadata7">
    <rdf:RDF>
      <cc:Work
         rdf:about="">
        <dc:format>image/svg+xml</dc:format>
        <dc:type
           rdf:resource="http://purl.org/dc/dcmitype/StillImage" />
        <dc:title />
      </cc:Work>
    </rdf:RDF>
  </metadata>
  <g
     inkscape:label="Layer 1"
     inkscape:groupmode="layer"
     id="layer1">
    <path
       style="fill:#a5b7f6;fill-opacity:0.98823529;stroke:none;stroke-width:2;stroke-linecap:round;stroke-linejoin:round;stroke-miterlimit:4;stroke-dasharray:none;stroke-opacity:1"
       d="M 5 1 C 2.784 1 1 2.784 1 5 L 1 11 C 1 13.216 2.784 15 5 15 L 11 15 C 13.216 15 15 13.216 15 11 L 15 5 C 15 2.784 13.216 1 11 1 L 5 1 z M 4 6 C 4.554 6 5 6.446 5 7 L 5 9 C 5 9.554 4.554 10 4 10 C 3.446 10 3 9.554 3 9 L 3 7 C 3 6.446 3.446 6 4 6 z M 12 6 C 12.554 6 13 6.446 13 7 L 13 9 C 13 9.554 12.554 10 12 10 C 11.446 10 11 9.554 11 9 L 11 7 C 11 6.446 11.446 6 12 6 z M 10.111328 11.107422 A 1.0001 1.0001 0 0 1 10.828125 12.828125 C 10.078251 13.577999 9.0604818 14 8 14 C 6.9395182 14 5.9217489 13.577999 5.171875 12.828125 A 1.0001 1.0001 0 0 1 5.8691406 11.111328 A 1.0001 1.0001 0 0 1 6.5859375 11.414062 C 6.9612819 11.789409 7.4691828 12 8 12 C 8.5308172 12 9.0387181 11.789409 9.4140625 11.414062 A 1.0001 1.0001 0 0 1 10.111328 11.107422 z "
       id="rect814" />
  </g>
</svg>
