<?xml version="1.0" encoding="UTF-8" standalone="no"?>
<!-- Created with Inkscape (http://www.inkscape.org/) -->

<svg
   xmlns:dc="http://purl.org/dc/elements/1.1/"
   xmlns:cc="http://creativecommons.org/ns#"
   xmlns:rdf="http://www.w3.org/1999/02/22-rdf-syntax-ns#"
   xmlns:svg="http://www.w3.org/2000/svg"
   xmlns="http://www.w3.org/2000/svg"
   xmlns:sodipodi="http://sodipodi.sourceforge.net/DTD/sodipodi-0.dtd"
   xmlns:inkscape="http://www.inkscape.org/namespaces/inkscape"
   width="16"
   height="16"
   viewBox="0 0 16 16"
   id="svg2"
   version="1.1"
   inkscape:version="0.92.2 (5c3e80d, 2017-08-06)"
   inkscape:export-filename="/home/djrm/Projects/godot/tools/editor/icons/icon_zoom.png"
   inkscape:export-xdpi="90"
   inkscape:export-ydpi="90"
   sodipodi:docname="icon_viewport_zoom.svg">
  <defs
     id="defs4" />
  <sodipodi:namedview
     id="base"
     pagecolor="#ffffff"
     bordercolor="#666666"
     borderopacity="1.0"
     inkscape:pageopacity="0.0"
     inkscape:pageshadow="2"
     inkscape:zoom="45.254834"
     inkscape:cx="10.13225"
     inkscape:cy="11.605657"
     inkscape:document-units="px"
     inkscape:current-layer="layer1"
     showgrid="true"
     units="px"
     inkscape:snap-bbox="true"
     inkscape:bbox-paths="true"
     inkscape:bbox-nodes="true"
     inkscape:snap-bbox-edge-midpoints="true"
     inkscape:snap-bbox-midpoints="false"
     inkscape:snap-object-midpoints="true"
     inkscape:snap-center="true"
     inkscape:window-width="1920"
     inkscape:window-height="1016"
     inkscape:window-x="0"
     inkscape:window-y="27"
     inkscape:window-maximized="1">
    <inkscape:grid
       type="xygrid"
       id="grid3336" />
  </sodipodi:namedview>
  <metadata
     id="metadata7">
    <rdf:RDF>
      <cc:Work
         rdf:about="">
        <dc:format>image/svg+xml</dc:format>
        <dc:type
           rdf:resource="http://purl.org/dc/dcmitype/StillImage" />
        <dc:title />
      </cc:Work>
    </rdf:RDF>
  </metadata>
  <g
     inkscape:label="Layer 1"
     inkscape:groupmode="layer"
     id="layer1">
    <path
       style="color:#000000;font-style:normal;font-variant:normal;font-weight:normal;font-stretch:normal;font-size:medium;line-height:normal;font-family:sans-serif;font-variant-ligatures:normal;font-variant-position:normal;font-variant-caps:normal;font-variant-numeric:normal;font-variant-alternates:normal;font-feature-settings:normal;text-indent:0;text-align:start;text-decoration:none;text-decoration-line:none;text-decoration-style:solid;text-decoration-color:#000000;letter-spacing:normal;word-spacing:normal;text-transform:none;writing-mode:lr-tb;direction:ltr;text-orientation:mixed;dominant-baseline:auto;baseline-shift:baseline;text-anchor:start;white-space:normal;shape-padding:0;clip-rule:nonzero;display:inline;overflow:visible;visibility:visible;opacity:1;isolation:auto;mix-blend-mode:normal;color-interpolation:sRGB;color-interpolation-filters:linearRGB;solid-color:#000000;solid-opacity:1;vector-effect:none;fill:#000000;fill-opacity:1;fill-rule:nonzero;stroke:none;stroke-width:2;stroke-linecap:round;stroke-linejoin:round;stroke-miterlimit:4;stroke-dasharray:none;stroke-dashoffset:0;stroke-opacity:1;color-rendering:auto;image-rendering:auto;shape-rendering:auto;text-rendering:auto;enable-background:accumulate"
       d="M 6,0 C 2.6981361,0 0,2.6981 0,6 c 0,3.3019 2.6981361,6 6,6 h 0.00195 c 0.8882805,0 1.7370001,-0.2588 2.5332031,-0.6367 l 3.8281249,3.8281 c 0.39053,0.3904 1.023533,0.3904 1.414063,0 l 1.414062,-1.4141 c 0.390327,-0.3905 0.390327,-1.0235 0,-1.414 l -3.791015,-3.791 c 0.02779,-0.058 0.06588,-0.1109 0.0918,-0.17 C 11.547728,8.2755 11.576328,8.1385 11.576168,8 H 13 c 0.552262,-10e-5 0.999945,-0.4477 1,-1 V 6 h 1 c 0.552262,-10e-5 0.999945,-0.4477 1,-1 V 3 C 15.999945,2.4477 15.552262,2.0001 15,2 H 14 V 1 C 13.999945,0.4477 13.552262,1e-4 13,0 H 11 C 10.447738,1e-4 10.000055,0.4477 10,1 V 2 H 9.99023 C 9.990374,1.6849 9.8420054,1.3882 9.5898394,1.1992 8.554583,0.4228 7.2960197,0.0025 6.0019487,0 h -0.00195 z"
       id="path814"
       inkscape:connector-curvature="0"
       sodipodi:nodetypes="cssscccccccccccccccccccccccccc" />
    <path
       style="opacity:1;fill:#ffffff;fill-opacity:1;stroke:none;stroke-width:3;stroke-linecap:round;stroke-linejoin:round;stroke-miterlimit:4;stroke-dasharray:none;stroke-dashoffset:0;stroke-opacity:1"
       d="m 6,1 a 5,5 0 0 0 -5,5 5,5 0 0 0 5,5 5,5 0 0 0 2.7519531,-0.833984 l 4.3183589,4.318359 1.414063,-1.414063 -4.318359,-4.3183589 A 5,5 0 0 0 10.576172,8 H 10 V 6 H 9 A 3,3 0 0 1 6,9 3,3 0 0 1 3,6 3,3 0 0 1 6,3 3,3 0 0 1 8,3.7675781 V 2 H 8.9902344 A 5,5 0 0 0 6,1 Z m 5,0 V 3 H 9 v 2 h 2 v 2 h 2 V 5 h 2 V 3 H 13 V 1 Z"
       id="path4135"
       inkscape:connector-curvature="0" />
  </g>
</svg>
