<?xml version="1.0" encoding="UTF-8" standalone="no"?>
<!-- Created with Inkscape (http://www.inkscape.org/) -->

<svg
   xmlns:dc="http://purl.org/dc/elements/1.1/"
   xmlns:cc="http://creativecommons.org/ns#"
   xmlns:rdf="http://www.w3.org/1999/02/22-rdf-syntax-ns#"
   xmlns:svg="http://www.w3.org/2000/svg"
   xmlns="http://www.w3.org/2000/svg"
   xmlns:sodipodi="http://sodipodi.sourceforge.net/DTD/sodipodi-0.dtd"
   xmlns:inkscape="http://www.inkscape.org/namespaces/inkscape"
   width="128"
   height="128"
   viewBox="0 0 128 128"
   id="svg2"
   version="1.1"
   inkscape:version="0.92.2 (5c3e80d, 2017-08-06)"
   inkscape:export-filename="/home/djrm/Projects/godot/tools/editor/icons/icon_dependency_changed_hl.png"
   inkscape:export-xdpi="45"
   inkscape:export-ydpi="45"
   sodipodi:docname="icon_gizmo_baked_lightmap.svg">
  <defs
     id="defs4" />
  <sodipodi:namedview
     id="base"
     pagecolor="#ffffff"
     bordercolor="#666666"
     borderopacity="1.0"
     inkscape:pageopacity="0.0"
     inkscape:pageshadow="2"
     inkscape:zoom="4"
     inkscape:cx="140.50714"
     inkscape:cy="80.704948"
     inkscape:document-units="px"
     inkscape:current-layer="layer1"
     showgrid="true"
     units="px"
     inkscape:snap-bbox="true"
     inkscape:bbox-paths="true"
     inkscape:bbox-nodes="true"
     inkscape:snap-bbox-edge-midpoints="true"
     inkscape:snap-bbox-midpoints="false"
     inkscape:snap-object-midpoints="true"
     inkscape:snap-center="true"
     inkscape:window-width="1920"
     inkscape:window-height="1053"
     inkscape:window-x="0"
     inkscape:window-y="27"
     inkscape:window-maximized="1"
     inkscape:snap-smooth-nodes="true"
     inkscape:object-nodes="true"
     inkscape:snap-intersection-paths="true"
     inkscape:document-rotation="0">
    <inkscape:grid
       type="xygrid"
       id="grid3336"
       empspacing="4" />
  </sodipodi:namedview>
  <metadata
     id="metadata7">
    <rdf:RDF>
      <cc:Work
         rdf:about="">
        <dc:format>image/svg+xml</dc:format>
        <dc:type
           rdf:resource="http://purl.org/dc/dcmitype/StillImage" />
        <dc:title></dc:title>
      </cc:Work>
    </rdf:RDF>
  </metadata>
  <g
     inkscape:label="Layer 1"
     inkscape:groupmode="layer"
     id="layer1">
    <path
       sodipodi:nodetypes="cccccsscccccccccccccccscccsccccccsccccccccccccscscsscscsscscsssscssssss"
       inkscape:connector-curvature="0"
       id="path877"
       d="m 18,8 c -2.209048,2.2e-4 -3.999779,1.79095 -4,4 l 0.01563,20 H 8 c -2.2090475,2.2e-4 -3.9997791,1.79095 -4,4 v 71.07617 C 4,116.38267 11.61735,124 20.923828,124 H 82 c 2.209048,-2e-4 3.999779,-1.791 4,-4 v -12 c -2.21e-4,-2.209 -1.790952,-3.9998 -4,-4 H 24 V 64 h 20 v 12 c 2.21e-4,2.209 1.790952,3.9998 4,4 h 32 c 2.209048,-2e-4 3.999779,-1.791 4,-4 V 64 h 20 v 4 c 0.002,0.72576 0.20093,1.437364 0.57617,2.058594 C 104.38033,70.052594 104.19716,70 104,70 93.001709,70 84,79.0016 84,90 c -4e-6,0 -4e-6,0.0098 0,0.0098 0.0088,6.2734 3.083318,12.00996 8,15.75585 v 2.23829 c 0,2.88336 1.660004,5.34564 4,6.75 V 120 c 2.21e-4,2.209 1.790952,3.9998 4,4 h 8 c 2.20905,-2e-4 3.99978,-1.791 4,-4 v -5.24805 c 2.34046,-1.40432 4,-3.86821 4,-6.75195 v -2.23438 c 4.91786,-3.74749 7.99312,-9.486614 8,-15.761714 0,-7.935 -4.71857,-14.77429 -11.45898,-18 H 120 c 2.20905,-2.2e-4 3.99978,-1.79095 4,-4 V 64.927734 36.003906 c -2.2e-4,-2.20905 -1.79095,-3.99978 -4,-4 L 114,32 V 12.003906 c -2.2e-4,-2.2090498 -1.79095,-3.9997797 -4,-3.9999998 z m 8,38 c 1.151944,0 2.000003,0.84806 2,2 3e-6,1.15194 -0.848056,2 -2,2 -1.151944,0 -2.000003,-0.84806 -2,-2 -3e-6,-1.15194 0.848056,-2 2,-2 z m 25,0 c 1.151944,0 2.000003,0.84806 2,2 3e-6,1.15194 -0.848056,2 -2,2 -1.151944,0 -2.000003,-0.84806 -2,-2 -3e-6,-1.15194 0.848056,-2 2,-2 z m 26,0 c 1.151944,0 2.000003,0.84806 2,2 3e-6,1.15194 -0.848056,2 -2,2 -1.151944,0 -2.000003,-0.84806 -2,-2 -3e-6,-1.15194 0.848056,-2 2,-2 z m 25,0 c 1.15194,0 2,0.84806 2,2 0,1.15194 -0.84806,2 -2,2 -1.15194,0 -2.000003,-0.84806 -2,-2 -3e-6,-1.15194 0.84806,-2 2,-2 z m 2,38 c 3.36109,0 6,2.6388 6,6 0,3.361 -2.63896,6 -6,6 -3.36105,0 -6,-2.639 -6,-6 0,-3.3612 2.6389,-6 6,-6 z"
       style="color:#000000;font-style:normal;font-variant:normal;font-weight:normal;font-stretch:normal;font-size:medium;line-height:normal;font-family:sans-serif;font-variant-ligatures:normal;font-variant-position:normal;font-variant-caps:normal;font-variant-numeric:normal;font-variant-alternates:normal;font-feature-settings:normal;text-indent:0;text-align:start;text-decoration:none;text-decoration-line:none;text-decoration-style:solid;text-decoration-color:#000000;letter-spacing:normal;word-spacing:normal;text-transform:none;writing-mode:lr-tb;direction:ltr;text-orientation:mixed;dominant-baseline:auto;baseline-shift:baseline;text-anchor:start;white-space:normal;shape-padding:0;clip-rule:nonzero;display:inline;overflow:visible;visibility:visible;opacity:1;isolation:auto;mix-blend-mode:normal;color-interpolation:sRGB;color-interpolation-filters:linearRGB;solid-color:#000000;solid-opacity:1;vector-effect:none;fill:#000000;fill-opacity:0.29411765;fill-rule:nonzero;stroke:none;stroke-width:8;stroke-linecap:round;stroke-linejoin:round;stroke-miterlimit:4;stroke-dasharray:none;stroke-dashoffset:0;stroke-opacity:1;color-rendering:auto;image-rendering:auto;shape-rendering:auto;text-rendering:auto;enable-background:accumulate" />
    <path
       sodipodi:nodetypes="cccccccsccccccccccccccccccccccccccccccccccsccssssccssssssccccc"
       inkscape:connector-curvature="0"
       id="rect847"
       d="m 18,12 v 16 h 92 V 12 Z M 8,36 v 71.07622 c 0,7.1594 5.76443,12.9238 12.92383,12.9238 H 82 v -12 H 20 V 60 h 88 v 8 h 12 V 36 Z m 18,6 c 3.313712,-1e-5 6.000009,2.68629 6,6 9e-6,3.31371 -2.686288,6.00001 -6,6 -3.313712,1e-5 -6.000009,-2.68629 -6,-6 -9e-6,-3.31371 2.686288,-6.00001 6,-6 z m 25,0 c 3.313712,-1e-5 6.000009,2.68629 6,6 9e-6,3.31371 -2.686288,6.00001 -6,6 -3.313712,1e-5 -6.000009,-2.68629 -6,-6 -9e-6,-3.31371 2.686288,-6.00001 6,-6 z m 26,0 c 3.313712,-1e-5 6.000009,2.68629 6,6 9e-6,3.31371 -2.686288,6.00001 -6,6 -3.313712,1e-5 -6.000009,-2.68629 -6,-6 -9e-6,-3.31371 2.686288,-6.00001 6,-6 z m 25,0 c 3.31371,-1e-5 6.00001,2.68629 6,6 1e-5,3.31371 -2.68629,6.00001 -6,6 -3.313712,1e-5 -6.000009,-2.68629 -6,-6 -9e-6,-3.31371 2.686288,-6.00001 6,-6 z M 48,68 v 8.00002 H 80 V 68 Z m 56,6 c -8.83654,0 -16,7.16342 -16,16.000023 0.008,5.7082 3.05653,10.979897 8,13.833997 v 4.166 c 0,2.216 1.78401,4 4,4 h 8 c 2.21599,0 4,-1.784 4,-4 v -4.1602 c 4.94498,-2.855 7.99374,-8.129897 8,-13.839797 C 120,81.16342 112.83653,74 104,74 Z m 0,6.00002 c 5.52283,0 10,4.477103 10,10.000003 0,5.5228 -4.47717,9.999997 -10,9.999997 -5.52284,0 -10,-4.477197 -10,-9.999997 0,-5.5229 4.47716,-10.000003 10,-10.000003 z m -4,36 v 4 h 8 v -4 z"
       style="opacity:1;fill:#f7f5cf;fill-opacity:1;stroke:none;stroke-width:8.61538506;stroke-linecap:round;stroke-linejoin:round;stroke-miterlimit:4;stroke-dasharray:none;stroke-dashoffset:0;stroke-opacity:1" />
  </g>
</svg>
