<?xml version="1.0" encoding="UTF-8" standalone="no"?>
<!-- Created with Inkscape (http://www.inkscape.org/) -->

<svg
   xmlns:dc="http://purl.org/dc/elements/1.1/"
   xmlns:cc="http://creativecommons.org/ns#"
   xmlns:rdf="http://www.w3.org/1999/02/22-rdf-syntax-ns#"
   xmlns:svg="http://www.w3.org/2000/svg"
   xmlns="http://www.w3.org/2000/svg"
   xmlns:sodipodi="http://sodipodi.sourceforge.net/DTD/sodipodi-0.dtd"
   xmlns:inkscape="http://www.inkscape.org/namespaces/inkscape"
   width="16"
   height="16"
   viewBox="0 0 16 16"
   id="svg2"
   version="1.1"
   inkscape:version="0.92.2 (5c3e80d, 2017-08-06)"
   inkscape:export-filename="/home/djrm/Projects/godot/tools/editor/icons/icon_animated_sprite.png"
   inkscape:export-xdpi="90"
   inkscape:export-ydpi="90"
   sodipodi:docname="icon_animated_sprite.svg">
  <defs
     id="defs4" />
  <sodipodi:namedview
     id="base"
     pagecolor="#ffffff"
     bordercolor="#666666"
     borderopacity="1.0"
     inkscape:pageopacity="0.0"
     inkscape:pageshadow="2"
     inkscape:zoom="45.254834"
     inkscape:cx="7.6395078"
     inkscape:cy="6.7576076"
     inkscape:document-units="px"
     inkscape:current-layer="layer1"
     showgrid="true"
     units="px"
     inkscape:snap-bbox="true"
     inkscape:bbox-paths="true"
     inkscape:bbox-nodes="true"
     inkscape:snap-bbox-edge-midpoints="true"
     inkscape:snap-bbox-midpoints="true"
     inkscape:snap-object-midpoints="true"
     inkscape:snap-center="true"
     inkscape:window-width="1920"
     inkscape:window-height="1016"
     inkscape:window-x="0"
     inkscape:window-y="27"
     inkscape:window-maximized="1"
     inkscape:document-rotation="0"
     inkscape:snap-midpoints="true"
     inkscape:snap-smooth-nodes="true"
     inkscape:snap-intersection-paths="true"
     inkscape:object-paths="true">
    <inkscape:grid
       type="xygrid"
       id="grid3336" />
  </sodipodi:namedview>
  <metadata
     id="metadata7">
    <rdf:RDF>
      <cc:Work
         rdf:about="">
        <dc:format>image/svg+xml</dc:format>
        <dc:type
           rdf:resource="http://purl.org/dc/dcmitype/StillImage" />
        <dc:title />
      </cc:Work>
    </rdf:RDF>
  </metadata>
  <g
     inkscape:label="Layer 1"
     inkscape:groupmode="layer"
     id="layer1">
    <path
       style="fill:#a5b7f3;fill-opacity:0.39215686;stroke:none;stroke-width:2;stroke-linecap:round;stroke-linejoin:round;stroke-miterlimit:4;stroke-dasharray:none;stroke-opacity:1"
       d="M 7,0 C 5.8919904,0 5,0.89199036 5,2 h 7 c 1.10801,0 2,0.8919904 2,2 v 6 c 1.10801,0 2,-0.8919904 2,-2 V 2 C 16,0.89199036 15.10801,0 14,0 Z"
       id="rect823"
       inkscape:connector-curvature="0"
       sodipodi:nodetypes="scsscssss" />
    <path
       style="fill:#a5b7f3;fill-opacity:0.58823532;stroke:none;stroke-width:2;stroke-linecap:round;stroke-linejoin:round;stroke-miterlimit:4;stroke-dasharray:none;stroke-opacity:1"
       d="M 5 2 C 3.8919904 2 3 2.8919904 3 4 L 10 4 C 11.10801 4 12 4.8919904 12 6 L 12 13 C 13.10801 13 14 12.10801 14 11 L 14 4 C 14 2.8919904 13.10801 2 12 2 L 5 2 z "
       id="rect821"/>
    <path
       style="fill:#a5b7f3;fill-opacity:1;stroke:none;stroke-width:2;stroke-linecap:round;stroke-linejoin:round;stroke-miterlimit:4;stroke-dasharray:none;stroke-opacity:1"
       d="M 3 4 C 1.8919904 4 1 4.8919904 1 6 L 1 13 C 1 14.10801 1.8919904 15 3 15 L 10 15 C 11.10801 15 12 14.10801 12 13 L 12 6 C 12 4.8919904 11.10801 4 10 4 L 3 4 z M 3 8 C 3.554 8 4 8.446 4 9 L 4 10 C 4 10.554 3.554 11 3 11 C 2.446 11 2 10.554 2 10 L 2 9 C 2 8.446 2.446 8 3 8 z M 10 8 C 10.554 8 11 8.446 11 9 L 11 10 C 11 10.554 10.554 11 10 11 C 9.446 11 9 10.554 9 10 L 9 9 C 9 8.446 9.446 8 10 8 z M 4 12 L 9 12 A 2.5 2 0 0 1 7.75 13.732422 A 2.5 2 0 0 1 5.25 13.732422 A 2.5 2 0 0 1 4 12 z "
       id="rect819" />
  </g>
</svg>
