<?xml version="1.0" encoding="UTF-8" standalone="no"?>
<!-- Created with Inkscape (http://www.inkscape.org/) -->

<svg
   xmlns:dc="http://purl.org/dc/elements/1.1/"
   xmlns:cc="http://creativecommons.org/ns#"
   xmlns:rdf="http://www.w3.org/1999/02/22-rdf-syntax-ns#"
   xmlns:svg="http://www.w3.org/2000/svg"
   xmlns="http://www.w3.org/2000/svg"
   xmlns:sodipodi="http://sodipodi.sourceforge.net/DTD/sodipodi-0.dtd"
   xmlns:inkscape="http://www.inkscape.org/namespaces/inkscape"
   width="16"
   height="16"
   viewBox="0 0 16 16"
   id="svg2"
   version="1.1"
   inkscape:version="0.92.2 (5c3e80d, 2017-08-06)"
   inkscape:export-filename="/home/djrm/Projects/godot/tools/editor/icons/icon_sprite_3d.png"
   inkscape:export-xdpi="90"
   inkscape:export-ydpi="90"
   sodipodi:docname="icon_kinematic_body_2d.svg">
  <defs
     id="defs4" />
  <sodipodi:namedview
     id="base"
     pagecolor="#ffffff"
     bordercolor="#666666"
     borderopacity="1.0"
     inkscape:pageopacity="0.0"
     inkscape:pageshadow="2"
     inkscape:zoom="32"
     inkscape:cx="6.542032"
     inkscape:cy="9.4431766"
     inkscape:document-units="px"
     inkscape:current-layer="layer1"
     showgrid="true"
     units="px"
     inkscape:snap-bbox="true"
     inkscape:bbox-paths="true"
     inkscape:bbox-nodes="true"
     inkscape:snap-bbox-edge-midpoints="true"
     inkscape:snap-bbox-midpoints="true"
     inkscape:snap-object-midpoints="true"
     inkscape:snap-center="true"
     inkscape:window-width="1920"
     inkscape:window-height="1016"
     inkscape:window-x="0"
     inkscape:window-y="27"
     inkscape:window-maximized="1">
    <inkscape:grid
       type="xygrid"
       id="grid3336" />
  </sodipodi:namedview>
  <metadata
     id="metadata7">
    <rdf:RDF>
      <cc:Work
         rdf:about="">
        <dc:format>image/svg+xml</dc:format>
        <dc:type
           rdf:resource="http://purl.org/dc/dcmitype/StillImage" />
        <dc:title />
      </cc:Work>
    </rdf:RDF>
  </metadata>
  <g
     inkscape:label="Layer 1"
     inkscape:groupmode="layer"
     id="layer1"
     transform="translate(0,-1036.3622)">
    <g
       id="layer1-5"
       inkscape:label="Layer 1"
       transform="translate(0.49211535,-0.00440186)"
       style="fill:#a5b7f5;fill-opacity:0.98823529">
      <path
         id="rect849"
         transform="translate(0,1036.3622)"
         d="M 6,1 C 5.4459904,1 5,1.4459904 5,2 v 3 c 0,0.5540096 0.4459904,1 1,1 h 1 v 0.9902344 a 1.0001,1.0001 0 0 0 -0.3164062,0.0625 L 4.6328125,7.7363281 3.9492188,5.6855469 A 1.0001,1.0001 0 0 0 2.9589844,4.9882812 1.0001,1.0001 0 0 0 2.0507812,6.3164062 l 1,3 a 1.0001,1.0001 0 0 0 1.265625,0.6328126 L 6,9.3886719 V 10 c 0,0.04088 0.018715,0.07566 0.023437,0.115234 l -4.578125,3.052735 a 1.0001,1.0001 0 1 0 1.109375,1.664062 l 5.0566406,-3.371093 1.4941407,2.986328 a 1.0001,1.0001 0 0 0 1.2109377,0.501953 l 3,-1 A 1.0001,1.0001 0 1 0 12.683594,12.052734 L 10.505859,12.777344 9.53125,10.826172 C 9.8071486,10.648527 10,10.3539 10,10 V 9 h 1.382812 l 0.722657,1.447266 a 1.0001162,1.0001162 0 1 0 1.789062,-0.8945316 l -1,-2 A 1.0001,1.0001 0 0 0 12,7 H 9 V 6 h 1 c 0.55401,0 1,-0.4459904 1,-1 V 2 C 11,1.4459904 10.55401,1 10,1 Z M 6,3 H 7 V 5 H 6 Z"
         style="fill:#a5b7f5;fill-opacity:0.98823529;stroke:none;stroke-width:2;stroke-linecap:round;stroke-linejoin:round;stroke-miterlimit:4;stroke-dasharray:none;stroke-opacity:0.99607843"
         inkscape:connector-curvature="0" />
    </g>
  </g>
</svg>
