<?xml version="1.0" encoding="UTF-8" standalone="no"?>
<!-- Created with Inkscape (http://www.inkscape.org/) -->

<svg
   xmlns:dc="http://purl.org/dc/elements/1.1/"
   xmlns:cc="http://creativecommons.org/ns#"
   xmlns:rdf="http://www.w3.org/1999/02/22-rdf-syntax-ns#"
   xmlns:svg="http://www.w3.org/2000/svg"
   xmlns="http://www.w3.org/2000/svg"
   xmlns:sodipodi="http://sodipodi.sourceforge.net/DTD/sodipodi-0.dtd"
   xmlns:inkscape="http://www.inkscape.org/namespaces/inkscape"
   width="16"
   height="16"
   viewBox="0 0 16 16"
   id="svg2"
   version="1.1"
   inkscape:version="0.92+devel unknown"
   inkscape:export-filename="/home/djrm/Projects/godot/tools/editor/icons/icon_center_container.png"
   inkscape:export-xdpi="90"
   inkscape:export-ydpi="90"
   sodipodi:docname="icon_style_box_texture.svg">
  <defs
     id="defs4" />
  <sodipodi:namedview
     id="base"
     pagecolor="#ffffff"
     bordercolor="#666666"
     borderopacity="1.0"
     inkscape:pageopacity="0.0"
     inkscape:pageshadow="2"
     inkscape:zoom="32"
     inkscape:cx="8.0704022"
     inkscape:cy="9.5576419"
     inkscape:document-units="px"
     inkscape:current-layer="layer1"
     showgrid="true"
     units="px"
     inkscape:snap-bbox="true"
     inkscape:bbox-paths="true"
     inkscape:bbox-nodes="true"
     inkscape:snap-bbox-edge-midpoints="true"
     inkscape:snap-bbox-midpoints="true"
     inkscape:snap-object-midpoints="true"
     inkscape:snap-center="true"
     inkscape:window-width="1920"
     inkscape:window-height="1016"
     inkscape:window-x="0"
     inkscape:window-y="27"
     inkscape:window-maximized="1"
     inkscape:snap-smooth-nodes="true"
     inkscape:object-nodes="true"
     inkscape:snap-midpoints="true"
     inkscape:document-rotation="0">
    <inkscape:grid
       type="xygrid"
       id="grid3336" />
  </sodipodi:namedview>
  <metadata
     id="metadata7">
    <rdf:RDF>
      <cc:Work
         rdf:about="">
        <dc:format>image/svg+xml</dc:format>
        <dc:type
           rdf:resource="http://purl.org/dc/dcmitype/StillImage" />
        <dc:title />
      </cc:Work>
    </rdf:RDF>
  </metadata>
  <g
     inkscape:label="Layer 1"
     inkscape:groupmode="layer"
     id="layer1"
     transform="translate(0,-1036.3622)">
    <path
       style="fill:#ff7070;fill-opacity:1;stroke:none;stroke-width:2.51415753;stroke-linecap:round;stroke-linejoin:miter;stroke-miterlimit:4;stroke-dasharray:none;stroke-opacity:1"
       d="M 2 1 A 1.0001 1.0001 0 0 0 1 2 L 1 3 L 3 3 L 13 3 L 15 3 L 15 2 A 1.0001 1.0001 0 0 0 14 1 L 2 1 z "
       transform="translate(0,1036.3622)"
       id="rect4159" />
    <path
       style="fill:#ffeb70;fill-opacity:1;stroke:none;stroke-width:2.51415753;stroke-linecap:round;stroke-linejoin:miter;stroke-miterlimit:4;stroke-dasharray:none;stroke-opacity:1"
       d="M 1 3 L 1 5 L 3 5 L 3 3 L 1 3 z M 13 3 L 13 5 L 15 5 L 15 3 L 13 3 z M 9 4 L 9 5 L 10 5 L 10 4 L 9 4 z "
       transform="translate(0,1036.3622)"
       id="rect4161" />
    <path
       style="fill:#9dff70;fill-opacity:1;stroke:none;stroke-width:2.51415753;stroke-linecap:round;stroke-linejoin:miter;stroke-miterlimit:4;stroke-dasharray:none;stroke-opacity:1"
       d="M 1 5 L 1 7 L 3 7 L 3 5 L 1 5 z M 8 5 L 8 6 L 6 6 L 6 7 L 9.5429688 7 C 9.8051184 6.6556159 10.046698 6.3196144 10.240234 5.984375 A 2.0314813 2.0314813 0 0 1 11 5.2324219 L 11 5 L 10 5 L 9 5 L 8 5 z M 13 5 L 13 5.2324219 A 2.0314813 2.0314813 0 0 1 13.759766 5.984375 C 13.951187 6.315908 14.196753 6.6547053 14.458984 7 L 15 7 L 15 5 L 13 5 z "
       transform="translate(0,1036.3622)"
       id="rect4163" />
    <path
       style="fill:#70ffb9;fill-opacity:1;stroke:none;stroke-width:2.51415753;stroke-linecap:round;stroke-linejoin:miter;stroke-miterlimit:4;stroke-dasharray:none;stroke-opacity:1"
       d="M 1 7 L 1 9 L 3 9 L 3 7 L 1 7 z M 5 7 L 5 8 L 4 8 L 4 9 L 8.015625 9 C 8.161478 8.7887 8.3098119 8.5840844 8.453125 8.3964844 C 8.8343346 7.8974459 9.2070619 7.4412783 9.5429688 7 L 6 7 L 5 7 z M 12 7 C 11.569528 7.7455991 11.055494 8.3866987 10.564453 9 L 13.435547 9 C 12.944506 8.3866987 12.430472 7.7455991 12 7 z M 14.458984 7 C 14.633366 7.2296185 14.810985 7.4608188 15 7.6992188 L 15 7 L 14.458984 7 z "
       transform="translate(0,1036.3622)"
       id="rect4165" />
    <path
       style="fill:#70deff;fill-opacity:1;stroke:none;stroke-width:2.51415753;stroke-linecap:round;stroke-linejoin:miter;stroke-miterlimit:4;stroke-dasharray:none;stroke-opacity:1"
       d="M 1 9 L 1 11 L 3 11 L 3 9 L 1 9 z M 10.564453 9 C 10.011977 9.6900319 9.5061662 10.342145 9.2304688 11 L 14.769531 11 C 14.493834 10.342145 13.988023 9.6900319 13.435547 9 L 10.564453 9 z "
       transform="translate(0,1036.3622)"
       id="rect4167" />
    <path
       style="fill:#ff70ac;fill-opacity:1;stroke:none;stroke-width:2.51415753;stroke-linecap:round;stroke-linejoin:miter;stroke-miterlimit:4;stroke-dasharray:none;stroke-opacity:1"
       d="M 1 13 L 1 14 A 1.0001 1.0001 0 0 0 2 15 L 7.9980469 15 C 7.555148 14.4136 7.2251059 13.7408 7.0722656 13 L 3 13 L 1 13 z M 9.1835938 13 C 9.5967177 14.162815 10.69549 15 12 15 C 13.30451 15 14.403282 14.162815 14.816406 13 L 9.1835938 13 z "
       transform="translate(0,1036.3622)"
       id="rect4169" />
    <path
       style="fill:#9f70ff;fill-opacity:1;stroke:none;stroke-width:2.51415753;stroke-linecap:round;stroke-linejoin:miter;stroke-miterlimit:4;stroke-dasharray:none;stroke-opacity:1"
       d="M 1 11 L 1 13 L 3 13 L 3 11 L 1 11 z M 9.2304688 11 C 9.0939089 11.325852 9 11.655763 9 12 C 9 12.352353 9.0720105 12.685928 9.1835938 13 L 14.816406 13 C 14.92799 12.685928 15 12.352353 15 12 C 15 11.655763 14.906091 11.325852 14.769531 11 L 9.2304688 11 z "
       transform="translate(0,1036.3622)"
       id="rect4146" />
  </g>
</svg>
