<?xml version="1.0" encoding="UTF-8" standalone="no"?>
<!-- Created with Inkscape (http://www.inkscape.org/) -->

<svg
   xmlns:dc="http://purl.org/dc/elements/1.1/"
   xmlns:cc="http://creativecommons.org/ns#"
   xmlns:rdf="http://www.w3.org/1999/02/22-rdf-syntax-ns#"
   xmlns:svg="http://www.w3.org/2000/svg"
   xmlns="http://www.w3.org/2000/svg"
   xmlns:sodipodi="http://sodipodi.sourceforge.net/DTD/sodipodi-0.dtd"
   xmlns:inkscape="http://www.inkscape.org/namespaces/inkscape"
   width="128"
   height="128"
   viewBox="0 0 128 128"
   id="svg2"
   version="1.1"
   inkscape:version="0.92+devel unknown"
   inkscape:export-filename="/home/djrm/Projects/godot/tools/editor/icons/2x/icon_gizmo_listener.png"
   inkscape:export-xdpi="180"
   inkscape:export-ydpi="180"
   sodipodi:docname="icon_gizmo_listener.svg">
  <defs
     id="defs4" />
  <sodipodi:namedview
     id="base"
     pagecolor="#ffffff"
     bordercolor="#666666"
     borderopacity="1.0"
     inkscape:pageopacity="0.0"
     inkscape:pageshadow="2"
     inkscape:zoom="5.656854"
     inkscape:cx="63.552735"
     inkscape:cy="82.948887"
     inkscape:document-units="px"
     inkscape:current-layer="g4175"
     showgrid="true"
     units="px"
     inkscape:snap-bbox="true"
     inkscape:bbox-paths="true"
     inkscape:bbox-nodes="true"
     inkscape:snap-bbox-edge-midpoints="true"
     inkscape:snap-bbox-midpoints="false"
     inkscape:snap-object-midpoints="true"
     inkscape:snap-center="true"
     inkscape:window-width="1920"
     inkscape:window-height="1016"
     inkscape:window-x="0"
     inkscape:window-y="27"
     inkscape:window-maximized="1"
     inkscape:document-rotation="0">
    <inkscape:grid
       type="xygrid"
       id="grid3336"
       empspacing="4" />
  </sodipodi:namedview>
  <metadata
     id="metadata7">
    <rdf:RDF>
      <cc:Work
         rdf:about="">
        <dc:format>image/svg+xml</dc:format>
        <dc:type
           rdf:resource="http://purl.org/dc/dcmitype/StillImage" />
        <dc:title />
      </cc:Work>
    </rdf:RDF>
  </metadata>
  <g
     inkscape:label="Layer 1"
     inkscape:groupmode="layer"
     id="layer1"
     transform="translate(0,-924.3622)">
    <g
       id="g4175"
       transform="matrix(2,0,0,2,-16,-1040.3622)">
      <path
         sodipodi:nodetypes="cccccccsccsssccccccccccsccccccccccccc"
         inkscape:connector-curvature="0"
         id="path4275"
         d="m 32,984.3622 c -12.126467,2e-5 -21.999906,9.87293 -22,21.999 1.1e-4,1.1045 0.895476,1.9999 2,2 h 8 c 1.104524,-1e-4 1.99989,-0.8955 2,-2 2.23e-4,-5.546 4.453574,-9.99899 10,-9.999 5.546425,10e-6 9.999776,4.453 10,9.999 0,6.5873 -1.603212,8.0251 -3.840821,9.8897 -1.029539,0.8579 -2.313265,1.6111 -3.796875,2.6826 -0.722852,0.522 -1.664889,1.2341 -2.548828,2.3496 -0.982884,1.2402 -1.813476,2.99 -1.813476,5.0781 0,2.3898 -0.316576,3.686 -0.610352,4.3194 -0.293776,0.6333 -0.470597,0.73 -0.977539,1.0341 -0.549468,0.3297 -2.516163,0.6446 -4.412109,0.6446 -0.0065,3e-4 -0.01302,6e-4 -0.01953,10e-4 H 20 c -1.104523,10e-5 -1.999889,0.8954 -2,2 v 8 c 1.1e-4,1.1045 0.895476,1.9999 2,2 h 4 c 0.0072,-3e-4 0.01432,-5e-4 0.02148,-10e-4 1.905224,10e-4 6.309846,0.1982 10.566406,-2.3555 4.010252,-2.4061 6.662805,-7.2724 7.173828,-13.5918 0.812242,-0.548 2.344532,-1.497 4.079102,-2.9424 C 49.84335,1022.1343 54,1015.9291 54,1006.3612 c -9.5e-5,-12.12607 -9.873534,-21.99898 -22,-21.999 z m 31.80664,4.00195 c -0.38259,-0.0177 -0.76221,0.0749 -1.09375,0.2666 l -6.953125,4.01563 c -0.957544,0.55332 -1.284337,1.77869 -0.729492,2.73535 1.936377,3.33652 2.960941,7.12287 2.971682,10.98047 -0.0072,3.8597 -1.029607,7.6487 -2.964846,10.9883 -0.554518,0.9572 -0.226808,2.1827 0.731445,2.7353 l 6.945311,4.0069 c 0.956565,0.5517 2.17923,0.2238 2.731445,-0.7325 6.07168,-10.5162 6.07168,-23.48171 0,-33.998 -0.3406,-0.59005 -0.95812,-0.96615 -1.63867,-0.99805 z"
         style="color:#000000;font-style:normal;font-variant:normal;font-weight:normal;font-stretch:normal;font-size:medium;line-height:normal;font-family:sans-serif;font-variant-ligatures:normal;font-variant-position:normal;font-variant-caps:normal;font-variant-numeric:normal;font-variant-alternates:normal;font-variant-east-asian:normal;font-feature-settings:normal;text-indent:0;text-align:start;text-decoration:none;text-decoration-line:none;text-decoration-style:solid;text-decoration-color:#000000;letter-spacing:normal;word-spacing:normal;text-transform:none;writing-mode:lr-tb;direction:ltr;text-orientation:mixed;dominant-baseline:auto;baseline-shift:baseline;text-anchor:start;white-space:normal;shape-padding:0;clip-rule:nonzero;display:inline;overflow:visible;visibility:visible;isolation:auto;mix-blend-mode:normal;color-interpolation:sRGB;color-interpolation-filters:linearRGB;solid-color:#000000;solid-opacity:1;vector-effect:none;fill:#000000;fill-opacity:0.29411765;fill-rule:nonzero;stroke:none;stroke-width:4;stroke-linecap:butt;stroke-linejoin:round;stroke-miterlimit:4;stroke-dasharray:none;stroke-dashoffset:0;stroke-opacity:1;color-rendering:auto;image-rendering:auto;shape-rendering:auto;text-rendering:auto;enable-background:accumulate" />
      <path
         style="opacity:1;fill:#f7f5cf;fill-opacity:1;stroke:none;stroke-width:4;stroke-linecap:butt;stroke-linejoin:round;stroke-miterlimit:4;stroke-dasharray:none;stroke-dashoffset:0;stroke-opacity:1"
         d="M 48 8 A 40.000052 39.998358 0 0 0 8 47.998047 L 24 47.998047 A 24.00003 23.999014 0 0 1 48 24 A 24.00003 23.999014 0 0 1 72 47.998047 C 72 61.997447 67.669952 66.857209 62.878906 70.849609 C 60.483384 72.845809 57.842626 74.379766 55.066406 76.384766 C 53.678296 77.387166 52.200257 78.510772 50.761719 80.326172 C 49.323181 82.141372 48 84.998047 48 87.998047 C 48 98.219447 45.461745 100.58757 42.882812 102.13477 C 40.30388 103.68197 36.000006 103.99414 32 103.99414 L 32 103.99609 L 24 103.99609 L 24 119.99609 L 32 119.99609 L 32 119.99414 C 36.000006 119.99414 43.696105 120.30572 51.117188 115.85352 C 58.177414 111.61752 63.314926 102.57452 63.8125 89.853516 C 63.996002 89.689916 63.961328 89.698622 64.433594 89.357422 C 66.15738 88.112422 69.51661 86.146178 73.121094 83.142578 C 80.330064 77.135378 88 65.997447 88 47.998047 A 40.000052 39.998358 0 0 0 48 8 z M 111.42578 16 L 97.519531 24.03125 A 48.000062 47.99803 0 0 1 104.00391 47.998047 A 48.000062 47.99803 0 0 1 97.535156 71.982422 L 111.42578 79.996094 A 64.000082 63.997374 0 0 0 111.42578 16 z "
         id="path4274"
         transform="matrix(0.5,0,0,0.5,8,982.3622)" />
    </g>
  </g>
</svg>
