<?xml version="1.0" encoding="UTF-8" standalone="no"?>
<!-- Created with Inkscape (http://www.inkscape.org/) -->

<svg
   xmlns:dc="http://purl.org/dc/elements/1.1/"
   xmlns:cc="http://creativecommons.org/ns#"
   xmlns:rdf="http://www.w3.org/1999/02/22-rdf-syntax-ns#"
   xmlns:svg="http://www.w3.org/2000/svg"
   xmlns="http://www.w3.org/2000/svg"
   xmlns:sodipodi="http://sodipodi.sourceforge.net/DTD/sodipodi-0.dtd"
   xmlns:inkscape="http://www.inkscape.org/namespaces/inkscape"
   width="16"
   height="12"
   viewBox="0 0 16 12"
   id="svg2"
   version="1.1"
   inkscape:version="0.92+devel unknown"
   inkscape:export-filename="/home/djrm/Projects/godot/tools/editor/icons/icon_add_track.png"
   inkscape:export-xdpi="45"
   inkscape:export-ydpi="45"
   sodipodi:docname="icon_mini_raw_array.svg">
  <defs
     id="defs4" />
  <sodipodi:namedview
     id="base"
     pagecolor="#ffffff"
     bordercolor="#666666"
     borderopacity="1.0"
     inkscape:pageopacity="0.0"
     inkscape:pageshadow="2"
     inkscape:zoom="45.254835"
     inkscape:cx="7.428846"
     inkscape:cy="6.1260074"
     inkscape:document-units="px"
     inkscape:current-layer="layer1"
     showgrid="true"
     units="px"
     inkscape:snap-bbox="true"
     inkscape:bbox-paths="true"
     inkscape:bbox-nodes="true"
     inkscape:snap-bbox-edge-midpoints="true"
     inkscape:snap-bbox-midpoints="false"
     inkscape:snap-object-midpoints="true"
     inkscape:snap-center="true"
     inkscape:window-width="1920"
     inkscape:window-height="1016"
     inkscape:window-x="0"
     inkscape:window-y="27"
     inkscape:window-maximized="1"
     inkscape:object-nodes="true"
     inkscape:snap-smooth-nodes="true"
     inkscape:document-rotation="0">
    <inkscape:grid
       type="xygrid"
       id="grid3336" />
  </sodipodi:namedview>
  <metadata
     id="metadata7">
    <rdf:RDF>
      <cc:Work
         rdf:about="">
        <dc:format>image/svg+xml</dc:format>
        <dc:type
           rdf:resource="http://purl.org/dc/dcmitype/StillImage" />
        <dc:title />
      </cc:Work>
    </rdf:RDF>
  </metadata>
  <g
     inkscape:label="Layer 1"
     inkscape:groupmode="layer"
     id="layer1"
     transform="translate(0,-1040.3622)">
    <path
       style="fill:#e0e0e0;fill-opacity:1;stroke:none;stroke-width:2;stroke-linecap:round;stroke-linejoin:round;stroke-miterlimit:4;stroke-dasharray:none;stroke-opacity:1"
       d="M 0 0 L 0 2 L 0 10 L 0 12 L 4 12 L 4 10 L 2 10 L 2 2 L 4 2 L 4 0 L 2 0 L 0 0 z M 12 0 L 12 2 L 14 2 L 14 10 L 12 10 L 12 12 L 16 12 L 16 10 L 16 2 L 16 0 L 14 0 L 12 0 z "
       transform="translate(0,1040.3622)"
       id="rect4158" />
    <path
       style="fill:#69ec9e;fill-opacity:1;stroke:none;stroke-width:2;stroke-linecap:butt;stroke-linejoin:round;stroke-miterlimit:4;stroke-dasharray:none;stroke-opacity:1"
       d="M 5 3 A 3 3 0 0 0 2 6 L 2 9 L 4 9 L 4 6 A 1.0000174 1.0000174 0 0 1 5 5 L 6 5 L 6 9 L 8 9 A 3 3 0 0 0 9 8.8242188 L 9 9 L 11 9 A 3 3 0 0 0 14 6 L 14 3 L 12 3 L 12 6 A 1.0000174 1.0000174 0 0 1 11 7 L 11 6 L 11 3 L 9 3 L 9 6 A 1.0000174 1.0000174 0 0 1 8 7 L 8 3 L 6 3 L 5 3 z "
       id="rect4245"
       transform="translate(0,1040.3622)" />
    <path
       style="fill:#ffffff;fill-opacity:0.39215687;stroke:none;stroke-width:2;stroke-linecap:butt;stroke-linejoin:round;stroke-miterlimit:4;stroke-dasharray:none;stroke-opacity:1"
       d="m 6,1049.3622 0,-6 2,0 0,4 a 1.0000174,1.0000174 0 0 0 1,-1 l 0,-3 2,0 0,3 0,1 a 1.0000174,1.0000174 0 0 0 1,-1 l 0,-3 2,0 0,3 a 3,3 0 0 1 -3,3 l -2,0 0,-0.1758 a 3,3 0 0 1 -1,0.1758 l -2,0 z"
       id="path4771"
       inkscape:connector-curvature="0" />
  </g>
</svg>
