<?xml version="1.0" encoding="UTF-8" standalone="no"?>
<!-- Created with Inkscape (http://www.inkscape.org/) -->

<svg
   xmlns:dc="http://purl.org/dc/elements/1.1/"
   xmlns:cc="http://creativecommons.org/ns#"
   xmlns:rdf="http://www.w3.org/1999/02/22-rdf-syntax-ns#"
   xmlns:svg="http://www.w3.org/2000/svg"
   xmlns="http://www.w3.org/2000/svg"
   xmlns:sodipodi="http://sodipodi.sourceforge.net/DTD/sodipodi-0.dtd"
   xmlns:inkscape="http://www.inkscape.org/namespaces/inkscape"
   width="16"
   height="16"
   viewBox="0 0 16 16"
   id="svg2"
   version="1.1"
   inkscape:version="0.92+devel unknown"
   inkscape:export-filename="/home/djrm/Projects/godot/tools/editor/icons/icon_canvas_item_material.png"
   inkscape:export-xdpi="45"
   inkscape:export-ydpi="45"
   sodipodi:docname="icon_shader.svg">
  <defs
     id="defs4">
    <clipPath
       clipPathUnits="userSpaceOnUse"
       id="clipPath4253">
      <path
         style="fill:#ffffff;fill-opacity:1;stroke:none;stroke-width:4;stroke-linecap:round;stroke-linejoin:round;stroke-miterlimit:4;stroke-dasharray:none;stroke-opacity:1"
         d="m 16.458984,1024.37 a 12.000027,12.000027 0 0 0 -3.564453,0.4004 12.000027,12.000027 0 0 0 -8.4863279,14.6973 12.000027,12.000027 0 0 0 14.6972659,8.4863 12.000027,12.000027 0 0 0 8.486328,-14.6973 12.000027,12.000027 0 0 0 -11.132813,-8.8867 z M 16.25,1029.8212 a 6.5451717,6.5451717 0 0 1 6.072266,4.8476 6.5451717,6.5451717 0 0 1 -4.628907,8.0157 6.5451717,6.5451717 0 0 1 -8.0156246,-4.6289 6.5451717,6.5451717 0 0 1 4.6289066,-8.0157 6.5451717,6.5451717 0 0 1 1.943359,-0.2187 z"
         id="path4255"
         inkscape:connector-curvature="0" />
    </clipPath>
  </defs>
  <sodipodi:namedview
     id="base"
     pagecolor="#ffffff"
     bordercolor="#666666"
     borderopacity="1.0"
     inkscape:pageopacity="0.0"
     inkscape:pageshadow="2"
     inkscape:zoom="45.254833"
     inkscape:cx="6.0877985"
     inkscape:cy="8.6537932"
     inkscape:document-units="px"
     inkscape:current-layer="layer1"
     showgrid="true"
     units="px"
     inkscape:snap-bbox="true"
     inkscape:bbox-paths="true"
     inkscape:bbox-nodes="true"
     inkscape:snap-bbox-edge-midpoints="true"
     inkscape:snap-bbox-midpoints="true"
     inkscape:snap-object-midpoints="true"
     inkscape:snap-center="true"
     inkscape:window-width="1920"
     inkscape:window-height="1016"
     inkscape:window-x="0"
     inkscape:window-y="27"
     inkscape:window-maximized="1"
     showguides="true"
     inkscape:snap-smooth-nodes="true"
     inkscape:object-nodes="true"
     inkscape:snap-intersection-paths="false"
     inkscape:document-rotation="0">
    <inkscape:grid
       type="xygrid"
       id="grid3336"
       empspacing="4" />
  </sodipodi:namedview>
  <metadata
     id="metadata7">
    <rdf:RDF>
      <cc:Work
         rdf:about="">
        <dc:format>image/svg+xml</dc:format>
        <dc:type
           rdf:resource="http://purl.org/dc/dcmitype/StillImage" />
        <dc:title />
      </cc:Work>
    </rdf:RDF>
  </metadata>
  <g
     inkscape:label="Layer 1"
     inkscape:groupmode="layer"
     id="layer1"
     transform="translate(0,-1036.3622)">
    <path
       style="fill:#ff7070;fill-opacity:1;stroke:none;stroke-width:2.51415753;stroke-linecap:round;stroke-linejoin:miter;stroke-miterlimit:4;stroke-dasharray:none;stroke-opacity:1"
       d="M 2 1 C 1.4477381 1.0001 1.0000552 1.4477 1 2 L 1 3 L 3 3 L 9 3 L 12 3 L 10 1 L 2 1 z "
       transform="translate(0,1036.3622)"
       id="rect4159" />
    <path
       style="fill:#ffeb70;fill-opacity:1;stroke:none;stroke-width:2.51415753;stroke-linecap:round;stroke-linejoin:miter;stroke-miterlimit:4;stroke-dasharray:none;stroke-opacity:1"
       d="M 1 3 L 1 5 L 3 5 L 3 3 L 1 3 z M 9 3 L 9 5 L 14 5 L 12 3 L 9 3 z "
       transform="translate(0,1036.3622)"
       id="rect4161" />
    <path
       style="fill:#9dff70;fill-opacity:1;stroke:none;stroke-width:2.51415753;stroke-linecap:round;stroke-linejoin:miter;stroke-miterlimit:4;stroke-dasharray:none;stroke-opacity:1"
       d="M 1 5 L 1 7 L 3 7 L 3 5 L 1 5 z M 9 5 L 9 6 C 9 6.554 9.4459905 7 10 7 L 13 7 L 15 7 L 15 6 L 14 5 L 9 5 z "
       transform="translate(0,1036.3622)"
       id="rect4163" />
    <path
       style="fill:#70ffb9;fill-opacity:1;stroke:none;stroke-width:2.51415753;stroke-linecap:round;stroke-linejoin:miter;stroke-miterlimit:4;stroke-dasharray:none;stroke-opacity:1"
       d="M 1 7 L 1 9 L 3 9 L 3 7 L 1 7 z M 13 7 L 13 9 L 15 9 L 15 7 L 13 7 z "
       transform="translate(0,1036.3622)"
       id="rect4165" />
    <path
       style="fill:#70deff;fill-opacity:1;stroke:none;stroke-width:2.51415753;stroke-linecap:round;stroke-linejoin:miter;stroke-miterlimit:4;stroke-dasharray:none;stroke-opacity:1"
       d="M 1 9 L 1 11 L 3 11 L 3 9 L 1 9 z M 13 9 L 13 11 L 15 11 L 15 9 L 13 9 z "
       transform="translate(0,1036.3622)"
       id="rect4167" />
    <path
       style="fill:#ff70ac;fill-opacity:1;stroke:none;stroke-width:2.51415753;stroke-linecap:round;stroke-linejoin:miter;stroke-miterlimit:4;stroke-dasharray:none;stroke-opacity:1"
       d="M 1 13 L 1 14 C 1.0000552 14.5523 1.4477381 14.9999 2 15 L 14 15 C 14.552262 14.9999 14.999945 14.5523 15 14 L 15 13 L 13 13 L 3 13 L 1 13 z "
       transform="translate(0,1036.3622)"
       id="rect4169" />
    <path
       style="fill:#9f70ff;fill-opacity:1;stroke:none;stroke-width:2.51415753;stroke-linecap:round;stroke-linejoin:miter;stroke-miterlimit:4;stroke-dasharray:none;stroke-opacity:1"
       d="M 1 11 L 1 13 L 3 13 L 3 11 L 1 11 z M 13 11 L 13 13 L 15 13 L 15 11 L 13 11 z "
       transform="translate(0,1036.3622)"
       id="rect4146" />
  </g>
</svg>
