<?xml version="1.0" encoding="UTF-8" standalone="no"?>
<!-- Created with Inkscape (http://www.inkscape.org/) -->

<svg
   xmlns:dc="http://purl.org/dc/elements/1.1/"
   xmlns:cc="http://creativecommons.org/ns#"
   xmlns:rdf="http://www.w3.org/1999/02/22-rdf-syntax-ns#"
   xmlns:svg="http://www.w3.org/2000/svg"
   xmlns="http://www.w3.org/2000/svg"
   xmlns:sodipodi="http://sodipodi.sourceforge.net/DTD/sodipodi-0.dtd"
   xmlns:inkscape="http://www.inkscape.org/namespaces/inkscape"
   width="16"
   height="16"
   viewBox="0 0 16 16"
   id="svg2"
   version="1.1"
   inkscape:version="0.92+devel unknown"
   inkscape:export-filename="/home/djrm/Projects/godot/tools/editor/icons/icon_bone.png"
   inkscape:export-xdpi="90"
   inkscape:export-ydpi="90"
   sodipodi:docname="icon_theme.svg">
  <defs
     id="defs4" />
  <sodipodi:namedview
     id="base"
     pagecolor="#ffffff"
     bordercolor="#666666"
     borderopacity="1.0"
     inkscape:pageopacity="0.0"
     inkscape:pageshadow="2"
     inkscape:zoom="32"
     inkscape:cx="9.8298821"
     inkscape:cy="8.3066498"
     inkscape:document-units="px"
     inkscape:current-layer="layer1"
     showgrid="true"
     units="px"
     inkscape:snap-bbox="true"
     inkscape:bbox-paths="true"
     inkscape:bbox-nodes="true"
     inkscape:snap-bbox-edge-midpoints="true"
     inkscape:snap-bbox-midpoints="true"
     inkscape:snap-object-midpoints="true"
     inkscape:snap-center="true"
     inkscape:window-width="1920"
     inkscape:window-height="1016"
     inkscape:window-x="0"
     inkscape:window-y="27"
     inkscape:window-maximized="1"
     showguides="true"
     inkscape:document-rotation="0">
    <inkscape:grid
       type="xygrid"
       id="grid3336" />
  </sodipodi:namedview>
  <metadata
     id="metadata7">
    <rdf:RDF>
      <cc:Work
         rdf:about="">
        <dc:format>image/svg+xml</dc:format>
        <dc:type
           rdf:resource="http://purl.org/dc/dcmitype/StillImage" />
        <dc:title />
      </cc:Work>
    </rdf:RDF>
  </metadata>
  <g
     inkscape:label="Layer 1"
     inkscape:groupmode="layer"
     id="layer1"
     transform="translate(0,-1036.3622)">
    <path
       style="fill:#ff7070;fill-opacity:1;stroke:none;stroke-width:2.51415753;stroke-linecap:round;stroke-linejoin:miter;stroke-miterlimit:4;stroke-dasharray:none;stroke-opacity:1"
       d="M 7 1 L 6.5 3 L 9.5 3 L 9 1 L 7 1 z M 3.7578125 2.34375 L 3.1015625 3 L 4.8515625 3 L 3.7578125 2.34375 z M 12.242188 2.34375 L 11.146484 3 L 12.898438 3 L 12.242188 2.34375 z "
       transform="translate(0,1036.3622)"
       id="rect4159" />
    <path
       style="fill:#ffeb70;fill-opacity:1;stroke:none;stroke-width:2.51415753;stroke-linecap:round;stroke-linejoin:miter;stroke-miterlimit:4;stroke-dasharray:none;stroke-opacity:1"
       d="M 3.1015625 3 L 2.34375 3.7578125 L 3.0878906 5 L 12.912109 5 L 13.65625 3.7578125 L 12.898438 3 L 11.146484 3 L 10.248047 3.5390625 A 5.0000172 5.0000172 0 0 0 9.5625 3.2539062 L 9.5 3 L 6.5 3 L 6.4355469 3.2578125 A 5.0000172 5.0000172 0 0 0 5.7460938 3.5371094 L 4.8515625 3 L 3.1015625 3 z "
       transform="translate(0,1036.3622)"
       id="rect4161-3" />
    <path
       style="fill:#9dff70;fill-opacity:1;stroke:none;stroke-width:2.51415753;stroke-linecap:round;stroke-linejoin:miter;stroke-miterlimit:4;stroke-dasharray:none;stroke-opacity:1"
       d="M 3.0878906 5 L 3.5390625 5.7519531 A 5.0000172 5.0000172 0 0 0 3.2539062 6.4375 L 1 7 L 6.2695312 7 A 2.0000174 2.0000174 0 0 1 8 6 A 2.0000174 2.0000174 0 0 1 9.7285156 7 L 15 7 L 12.742188 6.4355469 A 5.0000172 5.0000172 0 0 0 12.462891 5.7480469 L 12.912109 5 L 3.0878906 5 z "
       transform="translate(0,1036.3622)"
       id="rect4163-6" />
    <path
       style="fill:#70ffb9;fill-opacity:1;stroke:none;stroke-width:2.51415753;stroke-linecap:round;stroke-linejoin:miter;stroke-miterlimit:4;stroke-dasharray:none;stroke-opacity:1"
       d="M 1 7 L 1 9 L 6.2714844 9 A 2.0000174 2.0000174 0 0 1 6 8 A 2.0000174 2.0000174 0 0 1 6.2695312 7 L 1 7 z M 9.7285156 7 A 2.0000174 2.0000174 0 0 1 10 8 A 2.0000174 2.0000174 0 0 1 9.7304688 9 L 15 9 L 15 7 L 9.7285156 7 z "
       transform="translate(0,1036.3622)"
       id="rect4165-1" />
    <path
       style="fill:#70deff;fill-opacity:1;stroke:none;stroke-width:2.51415753;stroke-linecap:round;stroke-linejoin:miter;stroke-miterlimit:4;stroke-dasharray:none;stroke-opacity:1"
       d="M 1 9 L 3.2578125 9.5644531 A 5.0000172 5.0000172 0 0 0 3.5371094 10.251953 L 3.0878906 11 L 12.912109 11 L 12.460938 10.248047 A 5.0000172 5.0000172 0 0 0 12.746094 9.5625 L 15 9 L 9.7304688 9 A 2.0000174 2.0000174 0 0 1 8 10 A 2.0000174 2.0000174 0 0 1 6.2714844 9 L 1 9 z "
       transform="translate(0,1036.3622)"
       id="rect4167" />
    <path
       style="fill:#ff70ac;fill-opacity:1;stroke:none;stroke-width:2.51415753;stroke-linecap:round;stroke-linejoin:miter;stroke-miterlimit:4;stroke-dasharray:none;stroke-opacity:1"
       d="M 3.1015625 13 L 3.7578125 13.65625 L 4.8535156 13 L 3.1015625 13 z M 6.5 13 L 7 15 L 9 15 L 9.5 13 L 6.5 13 z M 11.148438 13 L 12.242188 13.65625 L 12.898438 13 L 11.148438 13 z "
       transform="translate(0,1036.3622)"
       id="rect4169" />
    <path
       style="fill:#9f70ff;fill-opacity:1;stroke:none;stroke-width:2.51415753;stroke-linecap:round;stroke-linejoin:miter;stroke-miterlimit:4;stroke-dasharray:none;stroke-opacity:1"
       d="M 3.0878906 11 L 2.34375 12.242188 L 3.1015625 13 L 4.8535156 13 L 5.7519531 12.460938 A 5.0000172 5.0000172 0 0 0 6.4375 12.746094 L 6.5 13 L 9.5 13 L 9.5644531 12.742188 A 5.0000172 5.0000172 0 0 0 10.251953 12.462891 L 11.148438 13 L 12.898438 13 L 13.65625 12.242188 L 12.912109 11 L 3.0878906 11 z "
       transform="translate(0,1036.3622)"
       id="rect4146" />
  </g>
</svg>
