<?xml version="1.0" encoding="UTF-8" standalone="no"?>
<!-- Created with Inkscape (http://www.inkscape.org/) -->

<svg
   xmlns:dc="http://purl.org/dc/elements/1.1/"
   xmlns:cc="http://creativecommons.org/ns#"
   xmlns:rdf="http://www.w3.org/1999/02/22-rdf-syntax-ns#"
   xmlns:svg="http://www.w3.org/2000/svg"
   xmlns="http://www.w3.org/2000/svg"
   xmlns:sodipodi="http://sodipodi.sourceforge.net/DTD/sodipodi-0.dtd"
   xmlns:inkscape="http://www.inkscape.org/namespaces/inkscape"
   width="128"
   height="128"
   viewBox="0 0 128 128"
   id="svg2"
   version="1.1"
   inkscape:version="0.92+devel unknown"
   inkscape:export-filename="/home/djrm/Projects/godot/tools/editor/icons/icon_dependency_changed_hl.png"
   inkscape:export-xdpi="45"
   inkscape:export-ydpi="45"
   sodipodi:docname="icon_gizmo_g_i_probe.svg">
  <defs
     id="defs4" />
  <sodipodi:namedview
     id="base"
     pagecolor="#ffffff"
     bordercolor="#666666"
     borderopacity="1.0"
     inkscape:pageopacity="0.0"
     inkscape:pageshadow="2"
     inkscape:zoom="2"
     inkscape:cx="15.576247"
     inkscape:cy="47.196689"
     inkscape:document-units="px"
     inkscape:current-layer="layer1"
     showgrid="true"
     units="px"
     inkscape:snap-bbox="true"
     inkscape:bbox-paths="true"
     inkscape:bbox-nodes="true"
     inkscape:snap-bbox-edge-midpoints="true"
     inkscape:snap-bbox-midpoints="false"
     inkscape:snap-object-midpoints="true"
     inkscape:snap-center="true"
     inkscape:window-width="1920"
     inkscape:window-height="1016"
     inkscape:window-x="0"
     inkscape:window-y="27"
     inkscape:window-maximized="1"
     inkscape:snap-smooth-nodes="true"
     inkscape:object-nodes="true"
     inkscape:snap-intersection-paths="true"
     inkscape:document-rotation="0">
    <inkscape:grid
       type="xygrid"
       id="grid3336"
       empspacing="4" />
  </sodipodi:namedview>
  <metadata
     id="metadata7">
    <rdf:RDF>
      <cc:Work
         rdf:about="">
        <dc:format>image/svg+xml</dc:format>
        <dc:type
           rdf:resource="http://purl.org/dc/dcmitype/StillImage" />
        <dc:title />
      </cc:Work>
    </rdf:RDF>
  </metadata>
  <g
     inkscape:label="Layer 1"
     inkscape:groupmode="layer"
     id="layer1"
     transform="translate(0,-924.3622)">
    <path
       style="color:#000000;font-style:normal;font-variant:normal;font-weight:normal;font-stretch:normal;font-size:medium;line-height:normal;font-family:sans-serif;font-variant-ligatures:normal;font-variant-position:normal;font-variant-caps:normal;font-variant-numeric:normal;font-variant-alternates:normal;font-variant-east-asian:normal;font-feature-settings:normal;text-indent:0;text-align:start;text-decoration:none;text-decoration-line:none;text-decoration-style:solid;text-decoration-color:#000000;letter-spacing:normal;word-spacing:normal;text-transform:none;writing-mode:lr-tb;direction:ltr;text-orientation:mixed;dominant-baseline:auto;baseline-shift:baseline;text-anchor:start;white-space:normal;shape-padding:0;clip-rule:nonzero;display:inline;overflow:visible;visibility:visible;isolation:auto;mix-blend-mode:normal;color-interpolation:sRGB;color-interpolation-filters:linearRGB;solid-color:#000000;solid-opacity:1;vector-effect:none;fill:#f7f5cf;fill-opacity:1;fill-rule:nonzero;stroke:none;stroke-width:8;stroke-linecap:butt;stroke-linejoin:round;stroke-miterlimit:4;stroke-dasharray:none;stroke-dashoffset:0;stroke-opacity:1;filter-blend-mode:normal;filter-gaussianBlur-deviation:0;color-rendering:auto;image-rendering:auto;shape-rendering:auto;text-rendering:auto;enable-background:accumulate;opacity:1"
       d="M 12 8 A 4.0004 4.0004 0 0 0 8 12 L 8 116 A 4.0004 4.0004 0 0 0 12 120 L 72 120 L 72 112 L 16 112 L 16 16 L 112 16 L 112 24 L 120 24 L 120 12 A 4.0004 4.0004 0 0 0 116 8 L 12 8 z M 39.714844 25.951172 C 38.482394 26.037326 37.315276 26.716096 36.648438 27.871094 L 36.5 28.128906 C 35.433059 29.976902 36.06216 32.323684 37.910156 33.390625 L 48.558594 39.539062 C 50.40659 40.606003 52.753372 39.976902 53.820312 38.128906 L 53.96875 37.871094 C 55.035691 36.023098 54.40659 33.676316 52.558594 32.609375 L 41.910156 26.460938 C 41.217158 26.060835 40.454313 25.899479 39.714844 25.951172 z M 92 28 A 32 32 0 0 0 60 60 A 32 32 0 0 0 76 87.667969 L 76 96 C 76 100.432 79.568 104 84 104 L 100 104 C 104.432 104 108 100.432 108 96 L 108 87.677734 A 32 32 0 0 0 124 60 A 32 32 0 0 0 92 28 z M 92 40 A 20.000017 20.000017 0 0 1 112 60 A 20.000017 20.000017 0 0 1 92 80 A 20.000017 20.000017 0 0 1 72 60 A 20.000017 20.000017 0 0 1 92 40 z M 31.851562 56 C 29.717681 56 28 57.717681 28 59.851562 L 28 60.148438 C 28 62.282319 29.717681 64 31.851562 64 L 44.148438 64 C 46.282319 64 48 62.282319 48 60.148438 L 48 59.851562 C 48 57.717681 46.282319 56 44.148438 56 L 31.851562 56 z M 50.753906 79.951172 C 50.014437 79.899479 49.251592 80.060835 48.558594 80.460938 L 37.910156 86.609375 C 36.06216 87.676316 35.433059 90.023098 36.5 91.871094 L 36.648438 92.128906 C 37.715378 93.976902 40.06216 94.606003 41.910156 93.539062 L 52.558594 87.390625 C 54.40659 86.323684 55.035691 83.976902 53.96875 82.128906 L 53.820312 81.871094 C 53.153474 80.716096 51.986356 80.037326 50.753906 79.951172 z M 84 112 L 84 120 L 100 120 L 100 112 L 84 112 z "
       transform="translate(0,924.3622)"
       id="path4278" />
  </g>
</svg>
