<?xml version="1.0" encoding="UTF-8" standalone="no"?>
<!-- Created with Inkscape (http://www.inkscape.org/) -->

<svg
   xmlns:dc="http://purl.org/dc/elements/1.1/"
   xmlns:cc="http://creativecommons.org/ns#"
   xmlns:rdf="http://www.w3.org/1999/02/22-rdf-syntax-ns#"
   xmlns:svg="http://www.w3.org/2000/svg"
   xmlns="http://www.w3.org/2000/svg"
   xmlns:sodipodi="http://sodipodi.sourceforge.net/DTD/sodipodi-0.dtd"
   xmlns:inkscape="http://www.inkscape.org/namespaces/inkscape"
   width="16"
   height="12"
   viewBox="0 0 16 12"
   id="svg2"
   version="1.1"
   inkscape:version="0.92+devel unknown"
   inkscape:export-filename="/home/djrm/Projects/godot/tools/editor/icons/icon_add_track.png"
   inkscape:export-xdpi="45"
   inkscape:export-ydpi="45"
   sodipodi:docname="icon_mini_quat.svg">
  <defs
     id="defs4" />
  <sodipodi:namedview
     id="base"
     pagecolor="#ffffff"
     bordercolor="#666666"
     borderopacity="1.0"
     inkscape:pageopacity="0.0"
     inkscape:pageshadow="2"
     inkscape:zoom="45.254836"
     inkscape:cx="7.0330887"
     inkscape:cy="6.0717303"
     inkscape:document-units="px"
     inkscape:current-layer="layer1"
     showgrid="true"
     units="px"
     inkscape:snap-bbox="true"
     inkscape:bbox-paths="true"
     inkscape:bbox-nodes="true"
     inkscape:snap-bbox-edge-midpoints="true"
     inkscape:snap-bbox-midpoints="false"
     inkscape:snap-object-midpoints="true"
     inkscape:snap-center="true"
     inkscape:window-width="1920"
     inkscape:window-height="1016"
     inkscape:window-x="0"
     inkscape:window-y="27"
     inkscape:window-maximized="1"
     inkscape:object-nodes="true"
     inkscape:snap-smooth-nodes="true"
     inkscape:document-rotation="0">
    <inkscape:grid
       type="xygrid"
       id="grid3336" />
  </sodipodi:namedview>
  <metadata
     id="metadata7">
    <rdf:RDF>
      <cc:Work
         rdf:about="">
        <dc:format>image/svg+xml</dc:format>
        <dc:type
           rdf:resource="http://purl.org/dc/dcmitype/StillImage" />
        <dc:title />
      </cc:Work>
    </rdf:RDF>
  </metadata>
  <g
     inkscape:label="Layer 1"
     inkscape:groupmode="layer"
     id="layer1"
     transform="translate(0,-1040.3622)">
    <path
       style="fill:#ec69a3;fill-opacity:1;stroke:none;stroke-width:2;stroke-linecap:butt;stroke-linejoin:round;stroke-miterlimit:4;stroke-dasharray:none;stroke-opacity:1"
       d="M 3 3 A 3 3 0 0 0 0 6 A 3 3 0 0 0 3 9 L 3 11 L 5 11 L 5 8.2304688 A 3 3 0 0 0 7 9 L 9 9 L 9 3 L 7 3 L 7 7 A 1.0000174 1.0000174 0 0 1 6 6 L 6 3 L 5 3 L 4 3 L 3 3 z M 3 5 L 3 7 A 1.0000174 1.0000174 0 0 1 2 6 A 1.0000174 1.0000174 0 0 1 3 5 z "
       transform="translate(0,1040.3622)"
       id="path4843" />
    <path
       inkscape:connector-curvature="0"
       id="path4276"
       d="m 4,1043.3622 v 3 a 3,3 0 0 0 3,3 h 2 v -6 H 7 v 4 a 1.0000174,1.0000174 0 0 1 -1,-1 v -3 z"
       style="fill:#ffffff;fill-opacity:0.39215687;stroke:none;stroke-width:2;stroke-linecap:butt;stroke-linejoin:round;stroke-miterlimit:4;stroke-dasharray:none;stroke-opacity:1" />
    <path
       style="fill:#ec69a3;fill-opacity:1;stroke:none;stroke-width:2;stroke-linecap:butt;stroke-linejoin:round;stroke-miterlimit:4;stroke-dasharray:none;stroke-opacity:1"
       d="M 13 1 L 13 3 L 11 3 A 3 3 0 0 0 8 6 A 3 3 0 0 0 11 9 L 13 9 L 13 6 A 3 3 0 0 0 16 9 L 16 7 A 1.0000174 1.0000174 0 0 1 15 6 L 15 5 L 16 5 L 16 3 L 15 3 L 15 1 L 13 1 z M 11 5 L 11 7 A 1.0000174 1.0000174 0 0 1 10 6 A 1.0000174 1.0000174 0 0 1 11 5 z "
       transform="translate(0,1040.3622)"
       id="rect4293-6" />
  </g>
</svg>
