<?xml version="1.0" encoding="UTF-8" standalone="no"?>
<!-- Created with Inkscape (http://www.inkscape.org/) -->

<svg
   xmlns:dc="http://purl.org/dc/elements/1.1/"
   xmlns:cc="http://creativecommons.org/ns#"
   xmlns:rdf="http://www.w3.org/1999/02/22-rdf-syntax-ns#"
   xmlns:svg="http://www.w3.org/2000/svg"
   xmlns="http://www.w3.org/2000/svg"
   xmlns:sodipodi="http://sodipodi.sourceforge.net/DTD/sodipodi-0.dtd"
   xmlns:inkscape="http://www.inkscape.org/namespaces/inkscape"
   width="16"
   height="16"
   viewBox="0 0 16 16"
   id="svg2"
   version="1.1"
   inkscape:version="0.92.2 (5c3e80d, 2017-08-06)"
   inkscape:export-filename="/home/djrm/Projects/godot/tools/editor/icons/icon_bone.png"
   inkscape:export-xdpi="90"
   inkscape:export-ydpi="90"
   sodipodi:docname="icon_theme.svg">
  <defs
     id="defs4">
    <clipPath
       id="clipPath4313"
       clipPathUnits="userSpaceOnUse">
      <path
         inkscape:connector-curvature="0"
         id="path4315"
         d="m 6.3750001,1025.8622 c -0.931942,2e-4 -1.6874069,0.6716 -1.6875,1.5 l 0,1.5 3.375,0 0,-3 -1.6875,0 z m 5.0624999,0 0,3 3.375,0 0,-3 -3.375,0 z m 6.75,0 0,3 3.375,0 0,-3 -3.375,0 z m 6.75,0 0,3 3.375,0 0,-1.5 c -9.3e-5,-0.8284 -0.755558,-1.4998 -1.6875,-1.5 l -1.6875,0 z m -20.2499999,6 0,3 3.375,0 0,-3 -3.375,0 z m 20.2499999,0 0,0.3486 c 0.532973,0.2675 0.975667,0.657 1.282105,1.128 0.537834,0.828 1.294284,1.6769 2.092895,2.5722 l 0,-4.0488 -3.375,0 z m -1.6875,3 c -1.948558,3 -5.0625,5.0147 -5.0625,7.5 0,2.4854 2.266559,4.5 5.0625,4.5 2.795941,0 5.0625,-2.0146 5.0625,-4.5 0,-2.4853 -3.113942,-4.5 -5.0625,-7.5 z m -18.5624999,3 0,3 3.375,0 0,-3 -3.375,0 z m 0,6 0,1.5 c 9.31e-5,0.8284 0.755558,1.4998 1.6875,1.5 l 1.6875,0 0,-3 -3.375,0 z m 6.7499999,0 0,3 3.375,0 0,-3 -3.375,0 z"
         style="color:#000000;font-style:normal;font-variant:normal;font-weight:normal;font-stretch:normal;font-size:medium;line-height:normal;font-family:sans-serif;text-indent:0;text-align:start;text-decoration:none;text-decoration-line:none;text-decoration-style:solid;text-decoration-color:#000000;letter-spacing:normal;word-spacing:normal;text-transform:none;direction:ltr;block-progression:tb;writing-mode:lr-tb;baseline-shift:baseline;text-anchor:start;white-space:normal;clip-rule:nonzero;display:inline;overflow:visible;visibility:visible;opacity:1;isolation:auto;mix-blend-mode:normal;color-interpolation:sRGB;color-interpolation-filters:linearRGB;solid-color:#000000;solid-opacity:1;fill:#000000;fill-opacity:1;fill-rule:evenodd;stroke:none;stroke-width:2;stroke-linecap:butt;stroke-linejoin:round;stroke-miterlimit:4;stroke-dasharray:none;stroke-dashoffset:0;stroke-opacity:1;color-rendering:auto;image-rendering:auto;shape-rendering:auto;text-rendering:auto;enable-background:accumulate" />
    </clipPath>
  </defs>
  <sodipodi:namedview
     id="base"
     pagecolor="#ffffff"
     bordercolor="#666666"
     borderopacity="1.0"
     inkscape:pageopacity="0.0"
     inkscape:pageshadow="2"
     inkscape:zoom="45.254834"
     inkscape:cx="10.176716"
     inkscape:cy="7.4085918"
     inkscape:document-units="px"
     inkscape:current-layer="layer1"
     showgrid="true"
     units="px"
     inkscape:snap-bbox="true"
     inkscape:bbox-paths="true"
     inkscape:bbox-nodes="true"
     inkscape:snap-bbox-edge-midpoints="true"
     inkscape:snap-bbox-midpoints="true"
     inkscape:snap-object-midpoints="true"
     inkscape:snap-center="true"
     inkscape:window-width="1920"
     inkscape:window-height="1016"
     inkscape:window-x="0"
     inkscape:window-y="27"
     inkscape:window-maximized="1"
     showguides="true"
     inkscape:document-rotation="0"
     inkscape:snap-text-baseline="false"
     inkscape:object-paths="true"
     inkscape:snap-intersection-paths="true"
     inkscape:snap-midpoints="true"
     inkscape:snap-smooth-nodes="true">
    <inkscape:grid
       type="xygrid"
       id="grid3336" />
  </sodipodi:namedview>
  <metadata
     id="metadata7">
    <rdf:RDF>
      <cc:Work
         rdf:about="">
        <dc:format>image/svg+xml</dc:format>
        <dc:type
           rdf:resource="http://purl.org/dc/dcmitype/StillImage" />
        <dc:title />
      </cc:Work>
    </rdf:RDF>
  </metadata>
  <g
     inkscape:label="Layer 1"
     inkscape:groupmode="layer"
     id="layer1"
     transform="translate(0,-1036.3622)">
    <path
       style="opacity:1;fill:#ffeb70;fill-opacity:1;stroke:#575757;stroke-width:0;stroke-linecap:round;stroke-linejoin:round;stroke-miterlimit:4;stroke-dasharray:none;stroke-dashoffset:0;stroke-opacity:1"
       d="M 6.7246094 3 C 6.19476 3.7893489 5.7619437 4.4021389 5.3300781 5 L 10.669922 5 C 10.238056 4.4021389 9.80524 3.7893489 9.2753906 3 L 6.7246094 3 z "
       transform="translate(0,1036.3622)"
       id="rect823" />
    <path
       style="opacity:1;fill:#9dff70;fill-opacity:1;stroke:#575757;stroke-width:0;stroke-linecap:round;stroke-linejoin:round;stroke-miterlimit:4;stroke-dasharray:none;stroke-dashoffset:0;stroke-opacity:1"
       d="M 5.3300781 5 C 4.8039123 5.7284074 4.3102366 6.4207649 3.9550781 7 L 12.044922 7 C 11.689763 6.4207649 11.196088 5.7284074 10.669922 5 L 5.3300781 5 z "
       transform="translate(0,1036.3622)"
       id="rect825" />
    <path
       style="opacity:1;fill:#70ffb9;fill-opacity:1;stroke:#575757;stroke-width:0;stroke-linecap:round;stroke-linejoin:round;stroke-miterlimit:4;stroke-dasharray:none;stroke-dashoffset:0;stroke-opacity:1"
       d="M 3.9550781 7 C 3.5405727 7.6760253 3.239742 8.308189 3.0996094 9 L 12.900391 9 C 12.760258 8.308189 12.459427 7.6760253 12.044922 7 L 3.9550781 7 z "
       transform="translate(0,1036.3622)"
       id="rect827" />
    <path
       style="opacity:1;fill:#70deff;fill-opacity:1;stroke:#575757;stroke-width:0;stroke-linecap:round;stroke-linejoin:round;stroke-miterlimit:4;stroke-dasharray:none;stroke-dashoffset:0;stroke-opacity:1"
       d="M 3.0996094 9 C 3.03562 9.3159047 3 9.6449847 3 10 C 3 10.342418 3.0347761 10.676931 3.1015625 11 L 12.898438 11 C 12.965224 10.676931 13 10.342418 13 10 C 13 9.6449847 12.96438 9.3159047 12.900391 9 L 3.0996094 9 z "
       transform="translate(0,1036.3622)"
       id="rect829" />
    <path
       style="opacity:1;fill:#9f70ff;fill-opacity:1;stroke:#575757;stroke-width:0;stroke-linecap:round;stroke-linejoin:round;stroke-miterlimit:4;stroke-dasharray:none;stroke-dashoffset:0;stroke-opacity:1"
       d="M 3.1015625 11 C 3.2553764 11.744053 3.5912299 12.415895 4.0371094 13 L 11.962891 13 C 12.40877 12.415895 12.744624 11.744053 12.898438 11 L 3.1015625 11 z "
       transform="translate(0,1036.3622)"
       id="rect831" />
    <path
       style="opacity:1;fill:#ff70ac;fill-opacity:1;stroke:#575757;stroke-width:0;stroke-linecap:round;stroke-linejoin:round;stroke-miterlimit:4;stroke-dasharray:none;stroke-dashoffset:0;stroke-opacity:1"
       d="M 4.0371094 13 C 4.9589116 14.207566 6.3982785 15 8 15 C 9.6017215 15 11.041088 14.207566 11.962891 13 L 4.0371094 13 z "
       transform="translate(0,1036.3622)"
       id="rect833" />
    <path
       style="opacity:1;fill:#ff7070;fill-opacity:1;stroke:#575757;stroke-width:0;stroke-linecap:round;stroke-linejoin:round;stroke-miterlimit:4;stroke-dasharray:none;stroke-dashoffset:0;stroke-opacity:1"
       d="M 8 1 C 7.5480375 1.7532708 7.1277592 2.3994032 6.7246094 3 L 9.2753906 3 C 8.8722408 2.3994032 8.4519625 1.7532708 8 1 z "
       transform="translate(0,1036.3622)"
       id="rect835" />
  </g>
</svg>
