<?xml version="1.0" encoding="UTF-8" standalone="no"?>
<!-- Created with Inkscape (http://www.inkscape.org/) -->

<svg
   xmlns:dc="http://purl.org/dc/elements/1.1/"
   xmlns:cc="http://creativecommons.org/ns#"
   xmlns:rdf="http://www.w3.org/1999/02/22-rdf-syntax-ns#"
   xmlns:svg="http://www.w3.org/2000/svg"
   xmlns="http://www.w3.org/2000/svg"
   xmlns:sodipodi="http://sodipodi.sourceforge.net/DTD/sodipodi-0.dtd"
   xmlns:inkscape="http://www.inkscape.org/namespaces/inkscape"
   width="16"
   height="16"
   viewBox="0 0 16 16"
   id="svg2"
   version="1.1"
   inkscape:version="0.92.2 (5c3e80d, 2017-08-06)"
   inkscape:export-filename="/home/djrm/Projects/godot/tools/editor/icons/icon_add_track.png"
   inkscape:export-xdpi="45"
   inkscape:export-ydpi="45"
   sodipodi:docname="icon_connection_and_groups.svg">
  <defs
     id="defs4" />
  <sodipodi:namedview
     id="base"
     pagecolor="#ffffff"
     bordercolor="#666666"
     borderopacity="1.0"
     inkscape:pageopacity="0.0"
     inkscape:pageshadow="2"
     inkscape:zoom="32.000001"
     inkscape:cx="8.6823645"
     inkscape:cy="6.9839658"
     inkscape:document-units="px"
     inkscape:current-layer="layer1"
     showgrid="true"
     units="px"
     inkscape:snap-bbox="true"
     inkscape:bbox-paths="true"
     inkscape:bbox-nodes="true"
     inkscape:snap-bbox-edge-midpoints="true"
     inkscape:snap-bbox-midpoints="false"
     inkscape:snap-object-midpoints="true"
     inkscape:snap-center="true"
     inkscape:window-width="1920"
     inkscape:window-height="1016"
     inkscape:window-x="0"
     inkscape:window-y="27"
     inkscape:window-maximized="1">
    <inkscape:grid
       type="xygrid"
       id="grid3336" />
  </sodipodi:namedview>
  <metadata
     id="metadata7">
    <rdf:RDF>
      <cc:Work
         rdf:about="">
        <dc:format>image/svg+xml</dc:format>
        <dc:type
           rdf:resource="http://purl.org/dc/dcmitype/StillImage" />
        <dc:title></dc:title>
      </cc:Work>
    </rdf:RDF>
  </metadata>
  <g
     inkscape:label="Layer 1"
     inkscape:groupmode="layer"
     id="layer1"
     transform="translate(0,-1036.3622)">
    <path
       style="fill:#e0e0e0;stroke:none;stroke-width:2;stroke-linecap:round;stroke-linejoin:round"
       d="M 6 0 C 5.4477153 0 5 0.4477 5 1 C 5 1.5523 5.4477153 2 6 2 C 10.430123 2 14 5.5699 14 10 C 14 10.5523 14.447715 11 15 11 C 15.552285 11 16 10.5523 16 10 C 16 4.489 11.511003 0 6 0 z M 6 4 C 5.4477153 4 5 4.4477 5 5 C 5 5.5523 5.4477153 6 6 6 C 8.2209836 6 10 7.779 10 10 C 10 10.5523 10.447715 11 11 11 C 11.552285 11 12 10.5523 12 10 C 12 6.6982 9.3018638 4 6 4 z M 1 8 A 1.0001 1.0001 0 0 0 0 9 L 0 15 A 1.0001 1.0001 0 0 0 1 16 L 7 16 A 1.0001 1.0001 0 0 0 8 15 L 8 9 A 1.0001 1.0001 0 0 0 7 8 L 1 8 z M 2 10 L 6 10 L 6 14 L 2 14 L 2 10 z "
       transform="translate(0,1036.3622)"
       id="path4266" />
  </g>
</svg>
