<?xml version="1.0" standalone="no"?><!-- Generator: Gravit.io --><svg xmlns="http://www.w3.org/2000/svg" xmlns:xlink="http://www.w3.org/1999/xlink" style="isolation:isolate" viewBox="0 0 16 16" width="16" height="16"><path d=" M 9 1 C 8.448 1 8 1.448 8 2 C 8 2.552 8.448 3 9 3 L 11.586 3 L 10.293 4.293 L 11.707 5.707 L 13 4.414 L 13 7 C 13 7.552 13.448 8 14 8 C 14.552 8 15 7.552 15 7 L 15 2 C 15 1.448 14.552 1 14 1 L 9 1 Z  M 2 8 C 1.448 8 1 8.448 1 9 L 1 14 C 1 14.552 1.448 15 2 15 L 7 15 C 7.552 15 8 14.552 8 14 C 8 13.448 7.552 13 7 13 L 4.414 13 L 5.707 11.707 L 4.293 10.293 L 3 11.586 L 3 9 C 3 8.448 2.552 8 2 8 Z " fill-rule="evenodd" fill="rgb(224,224,224)" fill-opacity="0.99608"/><path d="M 5.168 7.595 L 7.595 5.168 C 7.819 4.944 8.181 4.944 8.405 5.168 L 10.832 7.595 C 11.056 7.819 11.056 8.181 10.832 8.405 L 8.405 10.832 C 8.181 11.056 7.819 11.056 7.595 10.832 L 5.168 8.405 C 4.944 8.181 4.944 7.819 5.168 7.595 Z" style="stroke:none;fill:#84C2FF;stroke-miterlimit:10;"/></svg>