<?xml version="1.0" encoding="UTF-8" standalone="no"?>
<!-- Created with Inkscape (http://www.inkscape.org/) -->

<svg
   xmlns:dc="http://purl.org/dc/elements/1.1/"
   xmlns:cc="http://creativecommons.org/ns#"
   xmlns:rdf="http://www.w3.org/1999/02/22-rdf-syntax-ns#"
   xmlns:svg="http://www.w3.org/2000/svg"
   xmlns="http://www.w3.org/2000/svg"
   xmlns:sodipodi="http://sodipodi.sourceforge.net/DTD/sodipodi-0.dtd"
   xmlns:inkscape="http://www.inkscape.org/namespaces/inkscape"
   width="128"
   height="128"
   viewBox="0 0 128 128"
   id="svg2"
   version="1.1"
   inkscape:version="0.92+devel unknown"
   inkscape:export-filename="/home/djrm/Projects/godot/tools/editor/icons/2x/icon_gizmo_listener.png"
   inkscape:export-xdpi="180"
   inkscape:export-ydpi="180"
   sodipodi:docname="icon_gizmo_listener.svg">
  <defs
     id="defs4" />
  <sodipodi:namedview
     id="base"
     pagecolor="#ffffff"
     bordercolor="#666666"
     borderopacity="1.0"
     inkscape:pageopacity="0.0"
     inkscape:pageshadow="2"
     inkscape:zoom="5.656854"
     inkscape:cx="64.645548"
     inkscape:cy="64.006254"
     inkscape:document-units="px"
     inkscape:current-layer="g4175"
     showgrid="true"
     units="px"
     inkscape:snap-bbox="true"
     inkscape:bbox-paths="true"
     inkscape:bbox-nodes="true"
     inkscape:snap-bbox-edge-midpoints="true"
     inkscape:snap-bbox-midpoints="false"
     inkscape:snap-object-midpoints="true"
     inkscape:snap-center="true"
     inkscape:window-width="1920"
     inkscape:window-height="1016"
     inkscape:window-x="0"
     inkscape:window-y="27"
     inkscape:window-maximized="1"
     inkscape:document-rotation="0">
    <inkscape:grid
       type="xygrid"
       id="grid3336"
       empspacing="4" />
  </sodipodi:namedview>
  <metadata
     id="metadata7">
    <rdf:RDF>
      <cc:Work
         rdf:about="">
        <dc:format>image/svg+xml</dc:format>
        <dc:type
           rdf:resource="http://purl.org/dc/dcmitype/StillImage" />
        <dc:title />
      </cc:Work>
    </rdf:RDF>
  </metadata>
  <g
     inkscape:label="Layer 1"
     inkscape:groupmode="layer"
     id="layer1"
     transform="translate(0,-924.3622)">
    <g
       id="g4175"
       transform="matrix(2,0,0,2,-16,-1040.3622)">
      <path
         style="opacity:1;fill:#f7f5cf;fill-opacity:1;stroke:none;stroke-width:4;stroke-linecap:butt;stroke-linejoin:round;stroke-miterlimit:4;stroke-dasharray:none;stroke-dashoffset:0;stroke-opacity:1"
         d="M 48 8 A 40.000052 39.998358 0 0 0 8 47.998047 L 24 47.998047 A 24.00003 23.999014 0 0 1 48 24 A 24.00003 23.999014 0 0 1 72 47.998047 C 72 61.997447 67.669952 66.857209 62.878906 70.849609 C 60.483384 72.845809 57.842626 74.379766 55.066406 76.384766 C 53.678296 77.387166 52.200257 78.510772 50.761719 80.326172 C 49.323181 82.141372 48 84.998047 48 87.998047 C 48 98.219447 45.461745 100.58757 42.882812 102.13477 C 40.30388 103.68197 36.000006 103.99414 32 103.99414 L 32 103.99609 L 24 103.99609 L 24 119.99609 L 32 119.99609 L 32 119.99414 C 36.000006 119.99414 43.696105 120.30572 51.117188 115.85352 C 58.177414 111.61752 63.314926 102.57452 63.8125 89.853516 C 63.996002 89.689916 63.961328 89.698622 64.433594 89.357422 C 66.15738 88.112422 69.51661 86.146178 73.121094 83.142578 C 80.330064 77.135378 88 65.997447 88 47.998047 A 40.000052 39.998358 0 0 0 48 8 z M 111.42578 16 L 97.519531 24.03125 A 48.000062 47.99803 0 0 1 104.00391 47.998047 A 48.000062 47.99803 0 0 1 97.535156 71.982422 L 111.42578 79.996094 A 64.000082 63.997374 0 0 0 111.42578 16 z "
         transform="matrix(0.5,0,0,0.5,8,982.3622)"
         id="path4274" />
    </g>
  </g>
</svg>
