<?xml version="1.0" encoding="UTF-8" standalone="no"?>
<!-- Created with Inkscape (http://www.inkscape.org/) -->

<svg
   xmlns:dc="http://purl.org/dc/elements/1.1/"
   xmlns:cc="http://creativecommons.org/ns#"
   xmlns:rdf="http://www.w3.org/1999/02/22-rdf-syntax-ns#"
   xmlns:svg="http://www.w3.org/2000/svg"
   xmlns="http://www.w3.org/2000/svg"
   xmlns:sodipodi="http://sodipodi.sourceforge.net/DTD/sodipodi-0.dtd"
   xmlns:inkscape="http://www.inkscape.org/namespaces/inkscape"
   width="16"
   height="16"
   viewBox="0 0 16 16"
   id="svg2"
   version="1.1"
   inkscape:version="0.92+devel unknown"
   inkscape:export-filename="/home/djrm/Projects/godot/tools/editor/icons/icon_node_2d.png"
   inkscape:export-xdpi="90"
   inkscape:export-ydpi="90"
   sodipodi:docname="icon_particle_attractor_2d.svg">
  <defs
     id="defs4" />
  <sodipodi:namedview
     id="base"
     pagecolor="#ffffff"
     bordercolor="#666666"
     borderopacity="1.0"
     inkscape:pageopacity="0.0"
     inkscape:pageshadow="2"
     inkscape:zoom="31.999999"
     inkscape:cx="8.9614257"
     inkscape:cy="5.6970686"
     inkscape:document-units="px"
     inkscape:current-layer="layer1"
     showgrid="true"
     units="px"
     inkscape:snap-bbox="true"
     inkscape:bbox-paths="true"
     inkscape:bbox-nodes="true"
     inkscape:snap-bbox-edge-midpoints="true"
     inkscape:snap-bbox-midpoints="true"
     inkscape:snap-object-midpoints="true"
     inkscape:snap-center="true"
     inkscape:window-width="1920"
     inkscape:window-height="1016"
     inkscape:window-x="0"
     inkscape:window-y="27"
     inkscape:window-maximized="1"
     inkscape:object-paths="true"
     inkscape:snap-intersection-paths="true"
     inkscape:object-nodes="true"
     inkscape:snap-smooth-nodes="true"
     inkscape:document-rotation="0">
    <inkscape:grid
       type="xygrid"
       id="grid3336"
       empspacing="4" />
  </sodipodi:namedview>
  <metadata
     id="metadata7">
    <rdf:RDF>
      <cc:Work
         rdf:about="">
        <dc:format>image/svg+xml</dc:format>
        <dc:type
           rdf:resource="http://purl.org/dc/dcmitype/StillImage" />
        <dc:title />
      </cc:Work>
    </rdf:RDF>
  </metadata>
  <g
     inkscape:label="Layer 1"
     inkscape:groupmode="layer"
     id="layer1"
     transform="translate(0,-1036.3622)">
    <path
       style="opacity:1;fill:#a5b7f3;fill-opacity:0.98823529;stroke:none;stroke-width:2;stroke-linecap:round;stroke-linejoin:round;stroke-miterlimit:4;stroke-dasharray:none;stroke-dashoffset:0;stroke-opacity:0.99607843"
       d="M 8 1 A 3 7 0 0 0 5.9199219 2.9667969 A 7 3 45 0 0 3.0507812 3.0507812 A 7 3 45 0 0 2.9707031 5.9140625 A 7 3 0 0 0 1 8 A 7 3 0 0 0 2.9667969 10.080078 A 3 7 45 0 0 3.0507812 12.949219 A 3 7 45 0 0 5.9140625 13.029297 A 3 7 0 0 0 8 15 A 3 7 0 0 0 10.080078 13.033203 A 7 3 45 0 0 12.949219 12.949219 A 7 3 45 0 0 13.029297 10.085938 A 7 3 0 0 0 15 8 A 7 3 0 0 0 13.033203 5.9199219 A 3 7 45 0 0 12.949219 3.0507812 A 3 7 45 0 0 10.085938 2.9707031 A 3 7 0 0 0 8 1 z M 8 2 A 2 5.9999828 0 0 1 9.2597656 3.34375 A 3 7 45 0 0 8.0019531 4.1035156 A 7 3 45 0 0 6.7382812 3.3457031 A 2 5.9999828 0 0 1 8 2 z M 4.3652344 3.5292969 A 5.9999828 2 45 0 1 5.5996094 3.8183594 A 3 7 0 0 0 5.2460938 5.2421875 A 7 3 0 0 0 3.8164062 5.5996094 A 5.9999828 2 45 0 1 3.7578125 3.7578125 A 5.9999828 2 45 0 1 4.3652344 3.5292969 z M 11.441406 3.5332031 A 2 5.9999828 45 0 1 12.242188 3.7578125 A 2 5.9999828 45 0 1 12.181641 5.5996094 A 7 3 0 0 0 10.757812 5.2460938 A 3 7 0 0 0 10.400391 3.8164062 A 2 5.9999828 45 0 1 11.441406 3.5332031 z M 6.4433594 4.2402344 A 5.9999828 2 45 0 1 7.1835938 4.7109375 A 3 7 45 0 0 6.7714844 5.0507812 A 7 3 0 0 0 6.2480469 5.0996094 A 2 5.9999828 0 0 1 6.4433594 4.2402344 z M 9.5585938 4.2421875 A 2 5.9999828 0 0 1 9.7480469 5.0976562 A 7 3 0 0 0 9.21875 5.046875 A 7 3 45 0 0 8.8144531 4.7109375 A 2 5.9999828 45 0 1 9.5585938 4.2421875 z M 8 6 A 5.9999828 2 0 0 1 8.8203125 6.0214844 A 5.9999828 2 45 0 1 9.4140625 6.5859375 A 5.9999828 2 45 0 1 9.9785156 7.1796875 A 2 5.9999828 0 0 1 10 8 A 2 5.9999828 0 0 1 9.9785156 8.8203125 A 2 5.9999828 45 0 1 9.4140625 9.4140625 A 2 5.9999828 45 0 1 8.8203125 9.9785156 A 5.9999828 2 0 0 1 8 10 A 5.9999828 2 0 0 1 7.1796875 9.9785156 A 5.9999828 2 45 0 1 6.5859375 9.4140625 A 5.9999828 2 45 0 1 6.0214844 8.8203125 A 2 5.9999828 0 0 1 6 8 A 2 5.9999828 0 0 1 6.0214844 7.1796875 A 2 5.9999828 45 0 1 6.5859375 6.5859375 A 2 5.9999828 45 0 1 7.1796875 6.0214844 A 5.9999828 2 0 0 1 8 6 z M 10.900391 6.2480469 A 5.9999828 2 0 0 1 11.759766 6.4433594 A 2 5.9999828 45 0 1 11.289062 7.1835938 A 7 3 45 0 0 10.949219 6.7714844 A 3 7 0 0 0 10.900391 6.2480469 z M 5.0976562 6.2519531 A 3 7 0 0 0 5.046875 6.78125 A 3 7 45 0 0 4.7109375 7.1855469 A 5.9999828 2 45 0 1 4.2421875 6.4414062 A 5.9999828 2 0 0 1 5.0976562 6.2519531 z M 12.654297 6.7382812 A 5.9999828 2 0 0 1 14 8 A 5.9999828 2 0 0 1 12.65625 9.2597656 A 7 3 45 0 0 11.896484 8.0019531 A 3 7 45 0 0 12.654297 6.7382812 z M 3.34375 6.7402344 A 7 3 45 0 0 4.1035156 7.9980469 A 3 7 45 0 0 3.3457031 9.2617188 A 5.9999828 2 0 0 1 2 8 A 5.9999828 2 0 0 1 3.34375 6.7402344 z M 8 7 A 1 1 0 0 0 7 8 A 1 1 0 0 0 8 9 A 1 1 0 0 0 9 8 A 1 1 0 0 0 8 7 z M 11.289062 8.8144531 A 5.9999828 2 45 0 1 11.757812 9.5585938 A 5.9999828 2 0 0 1 10.902344 9.7480469 A 3 7 0 0 0 10.953125 9.21875 A 3 7 45 0 0 11.289062 8.8144531 z M 4.7109375 8.8164062 A 7 3 45 0 0 5.0507812 9.2285156 A 3 7 0 0 0 5.0996094 9.7519531 A 5.9999828 2 0 0 1 4.2402344 9.5566406 A 2 5.9999828 45 0 1 4.7109375 8.8164062 z M 3.8183594 10.400391 A 7 3 0 0 0 5.2421875 10.753906 A 3 7 0 0 0 5.5996094 12.183594 A 2 5.9999828 45 0 1 3.7578125 12.242188 A 2 5.9999828 45 0 1 3.8183594 10.400391 z M 12.183594 10.400391 A 5.9999828 2 45 0 1 12.242188 12.242188 A 5.9999828 2 45 0 1 10.400391 12.181641 A 3 7 0 0 0 10.753906 10.757812 A 7 3 0 0 0 12.183594 10.400391 z M 9.7519531 10.900391 A 2 5.9999828 0 0 1 9.5566406 11.759766 A 5.9999828 2 45 0 1 8.8164062 11.289062 A 3 7 45 0 0 9.2285156 10.949219 A 7 3 0 0 0 9.7519531 10.900391 z M 6.2519531 10.902344 A 7 3 0 0 0 6.78125 10.953125 A 7 3 45 0 0 7.1855469 11.289062 A 2 5.9999828 45 0 1 6.4414062 11.757812 A 2 5.9999828 0 0 1 6.2519531 10.902344 z M 7.9980469 11.896484 A 7 3 45 0 0 9.2617188 12.654297 A 2 5.9999828 0 0 1 8 14 A 2 5.9999828 0 0 1 6.7402344 12.65625 A 3 7 45 0 0 7.9980469 11.896484 z "
       transform="translate(0,1036.3622)"
       id="path4143" />
  </g>
</svg>
