<?xml version="1.0" standalone="no"?><!-- Generator: Gravit.io --><svg xmlns="http://www.w3.org/2000/svg" xmlns:xlink="http://www.w3.org/1999/xlink" style="isolation:isolate" viewBox="0 0 16 16" width="16" height="16"><path d=" M 8.088 1.001 C 7.986 1 7.885 1.001 7.783 1.003 C 7.55 1.011 7.317 1.03 7.086 1.06 C 4.113 1.452 1.72 3.693 1.135 6.634 C 0.675 8.953 1.416 11.346 3.105 12.999 L 2 12.999 L 2 14.999 L 6 14.999 C 6.308 15 6.599 14.858 6.788 14.615 C 6.978 14.372 7.045 14.056 6.971 13.757 L 5.971 9.757 L 4.029 10.244 L 4.31 11.365 C 3.47 10.445 3.002 9.245 3 7.999 C 3 5.238 5.239 2.999 8 2.999 C 9.326 2.999 10.598 3.526 11.536 4.464 C 12.473 5.402 13 6.673 13 7.999 C 12.999 9.325 12.471 10.596 11.533 11.533 L 12.949 12.949 C 15.069 10.828 15.603 7.593 14.277 4.904 C 13.112 2.542 10.721 1.035 8.088 1.001 L 8.088 1.001 L 8.088 1.001 Z " fill="rgb(224,224,224)" fill-opacity="0.5"/><path d=" M 5.168 7.595 L 7.595 5.168 C 7.819 4.944 8.181 4.944 8.405 5.168 L 10.832 7.595 C 11.056 7.819 11.056 8.181 10.832 8.405 L 8.405 10.832 C 8.181 11.056 7.819 11.056 7.595 10.832 L 5.168 8.405 C 4.944 8.181 4.944 7.819 5.168 7.595 Z " fill="rgb(132,194,255)" fill-opacity="0.5"/></svg>