<?xml version="1.0" encoding="UTF-8" standalone="no"?>
<!-- Created with Inkscape (http://www.inkscape.org/) -->

<svg
   xmlns:dc="http://purl.org/dc/elements/1.1/"
   xmlns:cc="http://creativecommons.org/ns#"
   xmlns:rdf="http://www.w3.org/1999/02/22-rdf-syntax-ns#"
   xmlns:svg="http://www.w3.org/2000/svg"
   xmlns="http://www.w3.org/2000/svg"
   xmlns:sodipodi="http://sodipodi.sourceforge.net/DTD/sodipodi-0.dtd"
   xmlns:inkscape="http://www.inkscape.org/namespaces/inkscape"
   width="16"
   height="16"
   viewBox="0 0 16 16"
   id="svg2"
   version="1.1"
   inkscape:version="0.92+devel unknown"
   inkscape:export-filename="/home/djrm/Projects/godot/tools/editor/icons/icon_node_2d.png"
   inkscape:export-xdpi="90"
   inkscape:export-ydpi="90"
   sodipodi:docname="icon_multi_mesh_instance.svg">
  <defs
     id="defs4" />
  <sodipodi:namedview
     id="base"
     pagecolor="#ffffff"
     bordercolor="#666666"
     borderopacity="1.0"
     inkscape:pageopacity="0.0"
     inkscape:pageshadow="2"
     inkscape:zoom="45.254832"
     inkscape:cx="7.9179235"
     inkscape:cy="7.0878016"
     inkscape:document-units="px"
     inkscape:current-layer="layer1"
     showgrid="true"
     units="px"
     inkscape:snap-bbox="true"
     inkscape:bbox-paths="true"
     inkscape:bbox-nodes="true"
     inkscape:snap-bbox-edge-midpoints="true"
     inkscape:snap-bbox-midpoints="true"
     inkscape:snap-object-midpoints="true"
     inkscape:snap-center="true"
     inkscape:window-width="1920"
     inkscape:window-height="1016"
     inkscape:window-x="0"
     inkscape:window-y="27"
     inkscape:window-maximized="1"
     inkscape:document-rotation="0">
    <inkscape:grid
       type="xygrid"
       id="grid3336"
       empspacing="4" />
  </sodipodi:namedview>
  <metadata
     id="metadata7">
    <rdf:RDF>
      <cc:Work
         rdf:about="">
        <dc:format>image/svg+xml</dc:format>
        <dc:type
           rdf:resource="http://purl.org/dc/dcmitype/StillImage" />
        <dc:title />
      </cc:Work>
    </rdf:RDF>
  </metadata>
  <g
     inkscape:label="Layer 1"
     inkscape:groupmode="layer"
     id="layer1"
     transform="translate(0,-1036.3622)">
    <path
       style="opacity:1;fill:#fc9c9c;fill-opacity:0.99607843;stroke:none;stroke-width:2;stroke-linecap:round;stroke-linejoin:round;stroke-miterlimit:4;stroke-dasharray:none;stroke-dashoffset:0;stroke-opacity:1"
       d="M 3,1 C 1.8954305,1 1,1.8954305 1,3 1.0005649,3.7139659 1.3816871,4.373486 2,4.7304688 V 11.271484 C 1.3822902,11.628117 1.0012613,12.286732 1,13 c 0,1.104569 0.8954305,2 2,2 0.7139659,-5.65e-4 1.373486,-0.381687 1.7304688,-1 H 6 V 12 H 4.7285156 C 4.5537358,11.696991 4.3025401,11.445122 4,11.269531 V 5.4140625 L 7.5859375,9 H 9 V 7.5859375 L 5.4140625,4 H 11.271484 C 11.446805,4.301576 11.697954,4.5520522 12,4.7265625 V 6 h 2 V 4.7304688 C 14.618313,4.373486 14.999435,3.7139659 15,3 15,1.8954305 14.104569,1 13,1 12.286034,1.0005648 11.626514,1.381687 11.269531,2 H 4.7285156 C 4.3718822,1.3822903 3.7132679,1.0012614 3,1 Z m 8,7 v 3 H 8 v 2 h 3 v 3 h 2 v -3 h 3 V 11 H 13 V 8 Z"
       transform="translate(0,1036.3622)"
       id="path4162"
       inkscape:connector-curvature="0"
       sodipodi:nodetypes="ccccccccccccccccccccccccccccccccccccccc" />
  </g>
</svg>
