<?xml version="1.0" encoding="UTF-8" standalone="no"?>
<!-- Created with Inkscape (http://www.inkscape.org/) -->

<svg
   xmlns:dc="http://purl.org/dc/elements/1.1/"
   xmlns:cc="http://creativecommons.org/ns#"
   xmlns:rdf="http://www.w3.org/1999/02/22-rdf-syntax-ns#"
   xmlns:svg="http://www.w3.org/2000/svg"
   xmlns="http://www.w3.org/2000/svg"
   xmlns:sodipodi="http://sodipodi.sourceforge.net/DTD/sodipodi-0.dtd"
   xmlns:inkscape="http://www.inkscape.org/namespaces/inkscape"
   width="16"
   height="16"
   viewBox="0 0 16 16"
   id="svg2"
   version="1.1"
   inkscape:version="0.92+devel unknown"
   inkscape:export-filename="/home/djrm/Projects/godot/tools/editor/icons/icon_center_container.png"
   inkscape:export-xdpi="90"
   inkscape:export-ydpi="90"
   sodipodi:docname="icon_style_box_flat.svg">
  <defs
     id="defs4">
    <clipPath
       clipPathUnits="userSpaceOnUse"
       id="clipPath4313">
      <path
         style="color:#000000;font-style:normal;font-variant:normal;font-weight:normal;font-stretch:normal;font-size:medium;line-height:normal;font-family:sans-serif;text-indent:0;text-align:start;text-decoration:none;text-decoration-line:none;text-decoration-style:solid;text-decoration-color:#000000;letter-spacing:normal;word-spacing:normal;text-transform:none;direction:ltr;block-progression:tb;writing-mode:lr-tb;baseline-shift:baseline;text-anchor:start;white-space:normal;clip-rule:nonzero;display:inline;overflow:visible;visibility:visible;opacity:1;isolation:auto;mix-blend-mode:normal;color-interpolation:sRGB;color-interpolation-filters:linearRGB;solid-color:#000000;solid-opacity:1;fill:#000000;fill-opacity:1;fill-rule:evenodd;stroke:none;stroke-width:2;stroke-linecap:butt;stroke-linejoin:round;stroke-miterlimit:4;stroke-dasharray:none;stroke-dashoffset:0;stroke-opacity:1;color-rendering:auto;image-rendering:auto;shape-rendering:auto;text-rendering:auto;enable-background:accumulate"
         d="m 6.3750001,1025.8622 c -0.931942,2e-4 -1.6874069,0.6716 -1.6875,1.5 l 0,1.5 3.375,0 0,-3 -1.6875,0 z m 5.0624999,0 0,3 3.375,0 0,-3 -3.375,0 z m 6.75,0 0,3 3.375,0 0,-3 -3.375,0 z m 6.75,0 0,3 3.375,0 0,-1.5 c -9.3e-5,-0.8284 -0.755558,-1.4998 -1.6875,-1.5 l -1.6875,0 z m -20.2499999,6 0,3 3.375,0 0,-3 -3.375,0 z m 20.2499999,0 0,0.3486 c 0.532973,0.2675 0.975667,0.657 1.282105,1.128 0.537834,0.828 1.294284,1.6769 2.092895,2.5722 l 0,-4.0488 -3.375,0 z m -1.6875,3 c -1.948558,3 -5.0625,5.0147 -5.0625,7.5 0,2.4854 2.266559,4.5 5.0625,4.5 2.795941,0 5.0625,-2.0146 5.0625,-4.5 0,-2.4853 -3.113942,-4.5 -5.0625,-7.5 z m -18.5624999,3 0,3 3.375,0 0,-3 -3.375,0 z m 0,6 0,1.5 c 9.31e-5,0.8284 0.755558,1.4998 1.6875,1.5 l 1.6875,0 0,-3 -3.375,0 z m 6.7499999,0 0,3 3.375,0 0,-3 -3.375,0 z"
         id="path4315"
         inkscape:connector-curvature="0" />
    </clipPath>
  </defs>
  <sodipodi:namedview
     id="base"
     pagecolor="#ffffff"
     bordercolor="#666666"
     borderopacity="1.0"
     inkscape:pageopacity="0.0"
     inkscape:pageshadow="2"
     inkscape:zoom="32"
     inkscape:cx="8.0420578"
     inkscape:cy="8.5876013"
     inkscape:document-units="px"
     inkscape:current-layer="layer1"
     showgrid="true"
     units="px"
     inkscape:snap-bbox="true"
     inkscape:bbox-paths="true"
     inkscape:bbox-nodes="true"
     inkscape:snap-bbox-edge-midpoints="true"
     inkscape:snap-bbox-midpoints="true"
     inkscape:snap-object-midpoints="true"
     inkscape:snap-center="true"
     inkscape:window-width="1920"
     inkscape:window-height="1016"
     inkscape:window-x="0"
     inkscape:window-y="27"
     inkscape:window-maximized="1"
     inkscape:snap-smooth-nodes="true"
     inkscape:object-nodes="true"
     inkscape:snap-midpoints="true"
     inkscape:document-rotation="0">
    <inkscape:grid
       type="xygrid"
       id="grid3336" />
  </sodipodi:namedview>
  <metadata
     id="metadata7">
    <rdf:RDF>
      <cc:Work
         rdf:about="">
        <dc:format>image/svg+xml</dc:format>
        <dc:type
           rdf:resource="http://purl.org/dc/dcmitype/StillImage" />
        <dc:title />
      </cc:Work>
    </rdf:RDF>
  </metadata>
  <g
     inkscape:label="Layer 1"
     inkscape:groupmode="layer"
     id="layer1"
     transform="translate(0,-1036.3622)">
    <path
       style="fill:#ff7070;fill-opacity:1;stroke:none;stroke-width:2.51415753;stroke-linecap:round;stroke-linejoin:miter;stroke-miterlimit:4;stroke-dasharray:none;stroke-opacity:1"
       d="M 2 1 C 1.4477381 1.0001 1.0000552 1.4477 1 2 L 1 3 L 15 3 L 15 2 C 14.999945 1.4477 14.552262 1.0001 14 1 L 2 1 z "
       transform="translate(0,1036.3622)"
       id="rect4159" />
    <path
       style="fill:#ffeb70;fill-opacity:1;stroke:none;stroke-width:2.51415753;stroke-linecap:round;stroke-linejoin:miter;stroke-miterlimit:4;stroke-dasharray:none;stroke-opacity:1"
       d="M 1 3 L 1 5 L 15 5 L 15 3 L 1 3 z "
       transform="translate(0,1036.3622)"
       id="rect4161" />
    <path
       style="fill:#9dff70;fill-opacity:1;stroke:none;stroke-width:2.51415753;stroke-linecap:round;stroke-linejoin:miter;stroke-miterlimit:4;stroke-dasharray:none;stroke-opacity:1"
       d="M 1 5 L 1 7 L 9.5820312 7 C 9.8388862 6.6615331 10.076678 6.3306617 10.267578 6 C 10.60643 5.4141 11.218609 5.0389063 11.894531 5.0039062 C 12.645732 4.9639063 13.355849 5.3488 13.732422 6 C 13.921412 6.3273656 14.16073 6.6604925 14.417969 7 L 15 7 L 15 5 L 1 5 z "
       transform="translate(0,1036.3622)"
       id="rect4163" />
    <path
       style="fill:#70ffb9;fill-opacity:1;stroke:none;stroke-width:2.51415753;stroke-linecap:round;stroke-linejoin:miter;stroke-miterlimit:4;stroke-dasharray:none;stroke-opacity:1"
       d="M 1 7 L 1 9 L 8.0546875 9 C 8.1958434 8.7965478 8.3397671 8.5976651 8.4785156 8.4160156 C 8.8645217 7.9107139 9.2420002 7.4480711 9.5820312 7 L 1 7 z M 12 7 C 11.569528 7.7455991 11.055494 8.3866987 10.564453 9 L 13.435547 9 C 12.944506 8.3866987 12.430472 7.7455991 12 7 z M 14.417969 7 C 14.604226 7.2458259 14.797245 7.4941927 15 7.75 L 15 7 L 14.417969 7 z "
       transform="translate(0,1036.3622)"
       id="rect4165" />
    <path
       style="fill:#70deff;fill-opacity:1;stroke:none;stroke-width:2.51415753;stroke-linecap:round;stroke-linejoin:miter;stroke-miterlimit:4;stroke-dasharray:none;stroke-opacity:1"
       d="M 1 9 L 1 11 L 7.1171875 11 C 7.2967354 10.216054 7.6629592 9.5646099 8.0546875 9 L 1 9 z M 10.564453 9 C 10.011977 9.6900319 9.5061662 10.342145 9.2304688 11 L 14.769531 11 C 14.493834 10.342145 13.988023 9.6900319 13.435547 9 L 10.564453 9 z "
       transform="translate(0,1036.3622)"
       id="rect4167" />
    <path
       style="fill:#ff70ac;fill-opacity:1;stroke:none;stroke-width:2.51415753;stroke-linecap:round;stroke-linejoin:miter;stroke-miterlimit:4;stroke-dasharray:none;stroke-opacity:1"
       d="M 1 13 L 1 14 C 1.0000552 14.5523 1.4477381 14.9999 2 15 L 8.0371094 15 C 7.5920018 14.416123 7.275496 13.736083 7.1171875 13 L 1 13 z M 9.1835938 13 C 9.5967177 14.162815 10.69549 15 12 15 C 13.30451 15 14.403282 14.162815 14.816406 13 L 9.1835938 13 z "
       transform="translate(0,1036.3622)"
       id="rect4169" />
    <path
       style="fill:#9f70ff;fill-opacity:1;stroke:none;stroke-width:2.51415753;stroke-linecap:round;stroke-linejoin:miter;stroke-miterlimit:4;stroke-dasharray:none;stroke-opacity:1"
       d="M 1 11 L 1 13 L 7.1171875 13 C 7.0475272 12.676102 7 12.344041 7 12 C 7 11.64345 7.0454735 11.313119 7.1171875 11 L 1 11 z M 9.2304688 11 C 9.0939089 11.325852 9 11.655763 9 12 C 9 12.352353 9.0720105 12.685928 9.1835938 13 L 14.816406 13 C 14.92799 12.685928 15 12.352353 15 12 C 15 11.655763 14.906091 11.325852 14.769531 11 L 9.2304688 11 z "
       transform="translate(0,1036.3622)"
       id="rect4146" />
  </g>
</svg>
