<?xml version="1.0" encoding="UTF-8" standalone="no"?>
<!-- Created with Inkscape (http://www.inkscape.org/) -->

<svg
   xmlns:dc="http://purl.org/dc/elements/1.1/"
   xmlns:cc="http://creativecommons.org/ns#"
   xmlns:rdf="http://www.w3.org/1999/02/22-rdf-syntax-ns#"
   xmlns:svg="http://www.w3.org/2000/svg"
   xmlns="http://www.w3.org/2000/svg"
   xmlns:sodipodi="http://sodipodi.sourceforge.net/DTD/sodipodi-0.dtd"
   xmlns:inkscape="http://www.inkscape.org/namespaces/inkscape"
   width="16"
   height="12"
   viewBox="0 0 16 12"
   id="svg2"
   version="1.1"
   inkscape:version="0.92+devel unknown"
   inkscape:export-filename="/home/djrm/Projects/godot/tools/editor/icons/icon_add_track.png"
   inkscape:export-xdpi="45"
   inkscape:export-ydpi="45"
   sodipodi:docname="icon_mini_transform2D.svg">
  <defs
     id="defs4" />
  <sodipodi:namedview
     id="base"
     pagecolor="#ffffff"
     bordercolor="#666666"
     borderopacity="1.0"
     inkscape:pageopacity="0.0"
     inkscape:pageshadow="2"
     inkscape:zoom="32.000001"
     inkscape:cx="7.8598309"
     inkscape:cy="5.3330278"
     inkscape:document-units="px"
     inkscape:current-layer="layer1"
     showgrid="true"
     units="px"
     inkscape:snap-bbox="true"
     inkscape:bbox-paths="true"
     inkscape:bbox-nodes="true"
     inkscape:snap-bbox-edge-midpoints="true"
     inkscape:snap-bbox-midpoints="false"
     inkscape:snap-object-midpoints="true"
     inkscape:snap-center="true"
     inkscape:window-width="1920"
     inkscape:window-height="1016"
     inkscape:window-x="0"
     inkscape:window-y="27"
     inkscape:window-maximized="1"
     inkscape:object-nodes="true"
     inkscape:snap-smooth-nodes="true"
     inkscape:document-rotation="0">
    <inkscape:grid
       type="xygrid"
       id="grid3336" />
  </sodipodi:namedview>
  <metadata
     id="metadata7">
    <rdf:RDF>
      <cc:Work
         rdf:about="">
        <dc:format>image/svg+xml</dc:format>
        <dc:type
           rdf:resource="http://purl.org/dc/dcmitype/StillImage" />
        <dc:title />
      </cc:Work>
    </rdf:RDF>
  </metadata>
  <g
     inkscape:label="Layer 1"
     inkscape:groupmode="layer"
     id="layer1"
     transform="translate(0,-1040.3622)">
    <path
       style="fill:#c4ec69;fill-opacity:1;stroke:none;stroke-width:1.85164022;stroke-miterlimit:4;stroke-dasharray:none;stroke-opacity:1"
       d="M 0 2 L 0 4 L 2 4 L 2 10 L 4 10 L 4 4 L 6 4 L 6 2 L 0 2 z M 7 2 L 7 4 A 1 1 0 0 1 8 5 A 1 1 0 0 1 7 6 A 2 2 0 0 0 5.2675781 7 A 2 2 0 0 0 5.0019531 8 L 5 8 L 5 8.046875 L 5 10 L 7 10 L 10 10 L 12 10 A 4 4 0 0 0 15.464844 8 A 4 4 0 0 0 15.464844 4 A 4 4 0 0 0 12 2 L 10 2 L 10 8 L 7 8 A 3 3 0 0 0 9.5976562 6.5 A 3 3 0 0 0 9.5976562 3.5 A 3 3 0 0 0 7 2 z M 12 4 A 2.0000174 2.0000174 0 0 1 13.732422 5 A 2.0000174 2.0000174 0 0 1 13.732422 7 A 2.0000174 2.0000174 0 0 1 12 8 L 12 4 z "
       transform="translate(0,1040.3622)"
       id="rect823" />
    <path
       style="fill:#ffffff;fill-opacity:0.39215687;stroke:none;stroke-width:2;stroke-linecap:round;stroke-linejoin:round;stroke-miterlimit:4;stroke-dasharray:none;stroke-opacity:1"
       d="M 7 2 L 7 4 A 1 1 0 0 1 8 5 A 1 1 0 0 1 7 6 A 2 2 0 0 0 5.2675781 7 A 2 2 0 0 0 5.0019531 8 L 5 8 L 5 8.046875 L 5 10 L 7 10 L 10 10 L 10 8 L 7 8 A 3 3 0 0 0 9.5976562 6.5 A 3 3 0 0 0 9.5976562 3.5 A 3 3 0 0 0 7 2 z "
       id="rect4763"
       transform="translate(0,1040.3622)" />
  </g>
</svg>
