<?xml version="1.0" encoding="UTF-8" standalone="no"?>
<!-- Created with Inkscape (http://www.inkscape.org/) -->

<svg
   xmlns:dc="http://purl.org/dc/elements/1.1/"
   xmlns:cc="http://creativecommons.org/ns#"
   xmlns:rdf="http://www.w3.org/1999/02/22-rdf-syntax-ns#"
   xmlns:svg="http://www.w3.org/2000/svg"
   xmlns="http://www.w3.org/2000/svg"
   xmlns:sodipodi="http://sodipodi.sourceforge.net/DTD/sodipodi-0.dtd"
   xmlns:inkscape="http://www.inkscape.org/namespaces/inkscape"
   width="128"
   height="128"
   viewBox="0 0 128 128"
   id="svg2"
   version="1.1"
   inkscape:version="0.92+devel unknown"
   inkscape:export-filename="/home/djrm/Projects/godot/tools/editor/icons/icon_gizmo_directional_light.png"
   inkscape:export-xdpi="360"
   inkscape:export-ydpi="360"
   sodipodi:docname="icon_gizmo_directional_light.svg">
  <defs
     id="defs4" />
  <sodipodi:namedview
     id="base"
     pagecolor="#ffffff"
     bordercolor="#666666"
     borderopacity="1.0"
     inkscape:pageopacity="0.0"
     inkscape:pageshadow="2"
     inkscape:zoom="2.8284271"
     inkscape:cx="67.25963"
     inkscape:cy="58.911264"
     inkscape:document-units="px"
     inkscape:current-layer="layer1"
     showgrid="true"
     units="px"
     inkscape:snap-bbox="true"
     inkscape:bbox-paths="true"
     inkscape:bbox-nodes="true"
     inkscape:snap-bbox-edge-midpoints="true"
     inkscape:snap-bbox-midpoints="false"
     inkscape:snap-object-midpoints="true"
     inkscape:snap-center="true"
     inkscape:window-width="1920"
     inkscape:window-height="1016"
     inkscape:window-x="0"
     inkscape:window-y="27"
     inkscape:window-maximized="1"
     inkscape:document-rotation="0">
    <inkscape:grid
       type="xygrid"
       id="grid3336"
       empspacing="4" />
  </sodipodi:namedview>
  <metadata
     id="metadata7">
    <rdf:RDF>
      <cc:Work
         rdf:about="">
        <dc:format>image/svg+xml</dc:format>
        <dc:type
           rdf:resource="http://purl.org/dc/dcmitype/StillImage" />
        <dc:title />
      </cc:Work>
    </rdf:RDF>
  </metadata>
  <g
     inkscape:label="Layer 1"
     inkscape:groupmode="layer"
     id="layer1"
     transform="translate(0,-924.3622)">
    <path
       style="opacity:1;fill:#f7f5cf;fill-opacity:1;stroke:none;stroke-width:2;stroke-linecap:round;stroke-linejoin:round;stroke-miterlimit:4;stroke-dasharray:none;stroke-dashoffset:0;stroke-opacity:1"
       d="M 64 4 A 8.0000172 8.0000172 0 0 0 56 12 L 56 24 A 7.9999828 7.9999828 0 0 0 64 32 A 7.9999828 7.9999828 0 0 0 72 24 L 72 12 A 8.0000172 8.0000172 0 0 0 64 4 z M 27.113281 19.230469 A 8.0000172 8.0000172 0 0 0 21.574219 21.574219 A 8.0000172 8.0000172 0 0 0 21.574219 32.886719 L 30.058594 41.373047 A 7.9999828 7.9999828 0 0 0 41.373047 41.373047 A 7.9999828 7.9999828 0 0 0 41.373047 30.058594 L 32.886719 21.574219 A 8.0000172 8.0000172 0 0 0 27.113281 19.230469 z M 100.65234 19.230469 A 8.0000172 8.0000172 0 0 0 95.113281 21.574219 L 86.626953 30.058594 A 7.9999828 7.9999828 0 0 0 86.626953 41.373047 A 7.9999828 7.9999828 0 0 0 97.941406 41.373047 L 106.42578 32.886719 A 8.0000172 8.0000172 0 0 0 106.42578 21.574219 A 8.0000172 8.0000172 0 0 0 100.65234 19.230469 z M 64 40 A 24.000017 24.000017 0 0 0 40 64 A 24.000017 24.000017 0 0 0 64 88 A 24.000017 24.000017 0 0 0 88 64 A 24.000017 24.000017 0 0 0 64 40 z M 12 56 A 8.0000172 8.0000172 0 0 0 4 64 A 8.0000172 8.0000172 0 0 0 12 72 L 24 72 A 7.9999828 7.9999828 0 0 0 32 64 A 7.9999828 7.9999828 0 0 0 24 56 L 12 56 z M 104 56 A 7.9999828 7.9999828 0 0 0 96 64 A 7.9999828 7.9999828 0 0 0 104 72 L 116 72 A 8.0000172 8.0000172 0 0 0 124 64 A 8.0000172 8.0000172 0 0 0 116 56 L 104 56 z M 35.599609 84.285156 A 7.9999828 7.9999828 0 0 0 30.058594 86.626953 L 21.574219 95.113281 A 8.0000172 8.0000172 0 0 0 21.574219 106.42578 A 8.0000172 8.0000172 0 0 0 32.886719 106.42578 L 41.373047 97.941406 A 7.9999828 7.9999828 0 0 0 41.373047 86.626953 A 7.9999828 7.9999828 0 0 0 35.599609 84.285156 z M 92.167969 84.285156 A 7.9999828 7.9999828 0 0 0 86.626953 86.626953 A 7.9999828 7.9999828 0 0 0 86.626953 97.941406 L 95.113281 106.42578 A 8.0000172 8.0000172 0 0 0 106.42578 106.42578 A 8.0000172 8.0000172 0 0 0 106.42578 95.113281 L 97.941406 86.626953 A 7.9999828 7.9999828 0 0 0 92.167969 84.285156 z M 64 96 A 7.9999828 7.9999828 0 0 0 56 104 L 56 116 A 8.0000172 8.0000172 0 0 0 64 124 A 8.0000172 8.0000172 0 0 0 72 116 L 72 104 A 7.9999828 7.9999828 0 0 0 64 96 z "
       transform="translate(0,924.3622)"
       id="path4156" />
  </g>
</svg>
