<?xml version="1.0" encoding="UTF-8" standalone="no"?>
<!-- Created with Inkscape (http://www.inkscape.org/) -->

<svg
   xmlns:dc="http://purl.org/dc/elements/1.1/"
   xmlns:cc="http://creativecommons.org/ns#"
   xmlns:rdf="http://www.w3.org/1999/02/22-rdf-syntax-ns#"
   xmlns:svg="http://www.w3.org/2000/svg"
   xmlns="http://www.w3.org/2000/svg"
   xmlns:sodipodi="http://sodipodi.sourceforge.net/DTD/sodipodi-0.dtd"
   xmlns:inkscape="http://www.inkscape.org/namespaces/inkscape"
   width="16"
   height="16"
   viewBox="0 0 16 16"
   id="svg2"
   version="1.1"
   inkscape:version="0.92+devel unknown"
   inkscape:export-filename="/home/djrm/Projects/godot/tools/editor/icons/icon_tool_move.png"
   inkscape:export-xdpi="90"
   inkscape:export-ydpi="90"
   sodipodi:docname="icon_tool_move.svg">
  <defs
     id="defs4" />
  <sodipodi:namedview
     id="base"
     pagecolor="#ffffff"
     bordercolor="#666666"
     borderopacity="1.0"
     inkscape:pageopacity="0.0"
     inkscape:pageshadow="2"
     inkscape:zoom="22.627417"
     inkscape:cx="9.4760961"
     inkscape:cy="8.00251"
     inkscape:document-units="px"
     inkscape:current-layer="layer1"
     showgrid="true"
     units="px"
     inkscape:snap-bbox="true"
     inkscape:bbox-paths="true"
     inkscape:bbox-nodes="true"
     inkscape:snap-bbox-edge-midpoints="true"
     inkscape:snap-bbox-midpoints="false"
     inkscape:snap-object-midpoints="true"
     inkscape:snap-center="true"
     inkscape:window-width="1920"
     inkscape:window-height="1016"
     inkscape:window-x="0"
     inkscape:window-y="27"
     inkscape:window-maximized="1"
     inkscape:document-rotation="0">
    <inkscape:grid
       type="xygrid"
       id="grid3336" />
  </sodipodi:namedview>
  <metadata
     id="metadata7">
    <rdf:RDF>
      <cc:Work
         rdf:about="">
        <dc:format>image/svg+xml</dc:format>
        <dc:type
           rdf:resource="http://purl.org/dc/dcmitype/StillImage" />
        <dc:title />
      </cc:Work>
    </rdf:RDF>
  </metadata>
  <g
     inkscape:label="Layer 1"
     inkscape:groupmode="layer"
     id="layer1"
     transform="translate(0,-1036.3622)">
    <path
       style="fill:#e0e0e0;fill-opacity:0.99607843;stroke:none;stroke-width:4;stroke-linecap:round;stroke-linejoin:round;stroke-opacity:0.99607843"
       d="M 7.984375 1.0019531 A 1.0001 1.0001 0 0 0 7.2929688 1.2929688 L 5.2929688 3.2929688 L 6.7070312 4.7070312 L 8 3.4140625 L 9.2929688 4.7070312 L 10.707031 3.2929688 L 8.7070312 1.2929688 A 1.0001 1.0001 0 0 0 7.984375 1.0019531 z M 3.2929688 5.2929688 L 1.2929688 7.2929688 A 1.0001 1.0001 0 0 0 1.2929688 8.7070312 L 3.2929688 10.707031 L 4.7070312 9.2929688 L 3.4140625 8 L 4.7070312 6.7070312 L 3.2929688 5.2929688 z M 12.707031 5.2929688 L 11.292969 6.7070312 L 12.585938 8 L 11.292969 9.2929688 L 12.707031 10.707031 L 14.707031 8.7070312 A 1.0001 1.0001 0 0 0 14.707031 7.2929688 L 12.707031 5.2929688 z M 8 6 A 2 2 0 0 0 6 8 A 2 2 0 0 0 8 10 A 2 2 0 0 0 10 8 A 2 2 0 0 0 8 6 z M 6.7070312 11.292969 L 5.2929688 12.707031 L 7.2929688 14.707031 A 1.0001 1.0001 0 0 0 8.7070312 14.707031 L 10.707031 12.707031 L 9.2929688 11.292969 L 8 12.585938 L 6.7070312 11.292969 z "
       transform="translate(0,1036.3622)"
       id="path4266" />
  </g>
</svg>
