<?xml version="1.0" encoding="UTF-8" standalone="no"?>
<!-- Created with Inkscape (http://www.inkscape.org/) -->

<svg
   xmlns:dc="http://purl.org/dc/elements/1.1/"
   xmlns:cc="http://creativecommons.org/ns#"
   xmlns:rdf="http://www.w3.org/1999/02/22-rdf-syntax-ns#"
   xmlns:svg="http://www.w3.org/2000/svg"
   xmlns="http://www.w3.org/2000/svg"
   xmlns:sodipodi="http://sodipodi.sourceforge.net/DTD/sodipodi-0.dtd"
   xmlns:inkscape="http://www.inkscape.org/namespaces/inkscape"
   width="128"
   height="128"
   viewBox="0 0 128 128"
   id="svg2"
   version="1.1"
   inkscape:version="0.92+devel unknown"
   inkscape:export-filename="/home/djrm/Projects/godot/tools/editor/icons/icon_gizmo_directional_light.png"
   inkscape:export-xdpi="360"
   inkscape:export-ydpi="360"
   sodipodi:docname="icon_gizmo_directional_light.svg">
  <defs
     id="defs4" />
  <sodipodi:namedview
     id="base"
     pagecolor="#ffffff"
     bordercolor="#666666"
     borderopacity="1.0"
     inkscape:pageopacity="0.0"
     inkscape:pageshadow="2"
     inkscape:zoom="4"
     inkscape:cx="30.817687"
     inkscape:cy="72.108314"
     inkscape:document-units="px"
     inkscape:current-layer="layer1"
     showgrid="true"
     units="px"
     inkscape:snap-bbox="true"
     inkscape:bbox-paths="true"
     inkscape:bbox-nodes="true"
     inkscape:snap-bbox-edge-midpoints="true"
     inkscape:snap-bbox-midpoints="false"
     inkscape:snap-object-midpoints="true"
     inkscape:snap-center="true"
     inkscape:window-width="1920"
     inkscape:window-height="1016"
     inkscape:window-x="0"
     inkscape:window-y="27"
     inkscape:window-maximized="1"
     inkscape:document-rotation="0">
    <inkscape:grid
       type="xygrid"
       id="grid3336"
       empspacing="4" />
  </sodipodi:namedview>
  <metadata
     id="metadata7">
    <rdf:RDF>
      <cc:Work
         rdf:about="">
        <dc:format>image/svg+xml</dc:format>
        <dc:type
           rdf:resource="http://purl.org/dc/dcmitype/StillImage" />
        <dc:title />
      </cc:Work>
    </rdf:RDF>
  </metadata>
  <g
     inkscape:label="Layer 1"
     inkscape:groupmode="layer"
     id="layer1"
     transform="translate(0,-924.3622)">
    <path
       style="opacity:1;fill:#f7f5cf;fill-opacity:1;stroke:none;stroke-width:1.66666663;stroke-linecap:round;stroke-linejoin:round;stroke-miterlimit:4;stroke-dasharray:none;stroke-dashoffset:0;stroke-opacity:1"
       d="M 64 8 C 61.784 8 60 9.784 60 12 L 60 28 C 60 30.216 61.784 32 64 32 C 66.216 32 68 30.216 68 28 L 68 12 C 68 9.784 66.216 8 64 8 z M 27.230469 23.226562 C 26.207992 23.226562 25.185818 23.618869 24.402344 24.402344 C 22.835395 25.969292 22.835395 28.491645 24.402344 30.058594 L 35.714844 41.373047 C 37.281792 42.939996 39.806098 42.939996 41.373047 41.373047 C 42.939996 39.806098 42.939996 37.281792 41.373047 35.714844 L 30.058594 24.402344 C 29.275119 23.618869 28.252945 23.226562 27.230469 23.226562 z M 100.76953 23.226562 C 99.747055 23.226562 98.724881 23.618869 97.941406 24.402344 L 86.626953 35.714844 C 85.060004 37.281792 85.060004 39.806098 86.626953 41.373047 C 88.193902 42.939996 90.718208 42.939996 92.285156 41.373047 L 103.59766 30.058594 C 105.1646 28.491645 105.1646 25.969292 103.59766 24.402344 C 102.81418 23.618869 101.79201 23.226562 100.76953 23.226562 z M 64 44 C 52.954308 44.00001 44.000007 52.95431 44 64 C 44.000007 75.04569 52.954308 84 64 84 C 75.045692 84 83.999992 75.04569 84 64 C 83.999992 52.95431 75.045692 44.00001 64 44 z M 12 60 C 9.784 60 8 61.784 8 64 C 8 66.216 9.784 68 12 68 L 28 68 C 30.216 68 32 66.216 32 64 C 32 61.784 30.216 60 28 60 L 12 60 z M 100 60 C 97.784 60 96 61.784 96 64 C 96 66.216 97.784 68 100 68 L 116 68 C 118.216 68 120 66.216 120 64 C 120 61.784 118.216 60 116 60 L 100 60 z M 38.544922 85.453125 C 37.522445 85.453125 36.498318 85.843479 35.714844 86.626953 L 24.402344 97.941406 C 22.835395 99.508355 22.835395 102.03071 24.402344 103.59766 C 25.969292 105.1646 28.491645 105.1646 30.058594 103.59766 L 41.373047 92.285156 C 42.939996 90.718208 42.939996 88.193902 41.373047 86.626953 C 40.589573 85.843479 39.567398 85.453125 38.544922 85.453125 z M 89.455078 85.453125 C 88.432602 85.453125 87.410427 85.843479 86.626953 86.626953 C 85.060004 88.193902 85.060004 90.718208 86.626953 92.285156 L 97.941406 103.59766 C 99.508355 105.1646 102.03071 105.1646 103.59766 103.59766 C 105.1646 102.03071 105.1646 99.508355 103.59766 97.941406 L 92.285156 86.626953 C 91.501682 85.843479 90.477555 85.453125 89.455078 85.453125 z M 64 96 C 61.784 96 60 97.784 60 100 L 60 116 C 60 118.216 61.784 120 64 120 C 66.216 120 68 118.216 68 116 L 68 100 C 68 97.784 66.216 96 64 96 z "
       transform="translate(0,924.3622)"
       id="path4156" />
  </g>
</svg>
