<?xml version="1.0" encoding="UTF-8" standalone="no"?>
<!-- Created with Inkscape (http://www.inkscape.org/) -->

<svg
   xmlns:dc="http://purl.org/dc/elements/1.1/"
   xmlns:cc="http://creativecommons.org/ns#"
   xmlns:rdf="http://www.w3.org/1999/02/22-rdf-syntax-ns#"
   xmlns:svg="http://www.w3.org/2000/svg"
   xmlns="http://www.w3.org/2000/svg"
   xmlns:sodipodi="http://sodipodi.sourceforge.net/DTD/sodipodi-0.dtd"
   xmlns:inkscape="http://www.inkscape.org/namespaces/inkscape"
   width="42"
   height="26"
   viewBox="0 0 42 25.999998"
   id="svg2"
   version="1.1"
   inkscape:version="0.92.2 (5c3e80d, 2017-08-06)"
   sodipodi:docname="icon_GUI_toggle_on.svg"
   inkscape:export-filename="/mnt/2TB/Development/godot_dev/editor/icons/2x/icon_hslider_bg.png"
   inkscape:export-xdpi="96"
   inkscape:export-ydpi="96">
  <defs
     id="defs4" />
  <sodipodi:namedview
     id="base"
     pagecolor="#ffffff"
     bordercolor="#666666"
     borderopacity="1.0"
     inkscape:pageopacity="0.0"
     inkscape:pageshadow="2"
     inkscape:zoom="16"
     inkscape:cx="21.713922"
     inkscape:cy="16.650435"
     inkscape:document-units="px"
     inkscape:current-layer="layer1"
     showgrid="true"
     units="px"
     inkscape:object-paths="false"
     inkscape:snap-intersection-paths="false"
     inkscape:snap-bbox="true"
     inkscape:bbox-paths="true"
     inkscape:bbox-nodes="true"
     inkscape:snap-bbox-edge-midpoints="true"
     inkscape:window-width="1920"
     inkscape:window-height="1016"
     inkscape:window-x="0"
     inkscape:window-y="27"
     inkscape:window-maximized="1"
     inkscape:snap-smooth-nodes="true"
     inkscape:object-nodes="true"
     inkscape:document-rotation="0">
    <inkscape:grid
       type="xygrid"
       id="grid4136"
       empspacing="4" />
  </sodipodi:namedview>
  <metadata
     id="metadata7">
    <rdf:RDF>
      <cc:Work
         rdf:about="">
        <dc:format>image/svg+xml</dc:format>
        <dc:type
           rdf:resource="http://purl.org/dc/dcmitype/StillImage" />
        <dc:title></dc:title>
      </cc:Work>
    </rdf:RDF>
  </metadata>
  <g
     inkscape:label="Layer 1"
     inkscape:groupmode="layer"
     id="layer1"
     transform="translate(0,-1026.3623)">
    <path
       style="color:#000000;font-style:normal;font-variant:normal;font-weight:normal;font-stretch:normal;font-size:medium;line-height:normal;font-family:sans-serif;font-variant-ligatures:normal;font-variant-position:normal;font-variant-caps:normal;font-variant-numeric:normal;font-variant-alternates:normal;font-feature-settings:normal;text-indent:0;text-align:start;text-decoration:none;text-decoration-line:none;text-decoration-style:solid;text-decoration-color:#000000;letter-spacing:normal;word-spacing:normal;text-transform:none;writing-mode:lr-tb;direction:ltr;text-orientation:mixed;dominant-baseline:auto;baseline-shift:baseline;text-anchor:start;white-space:normal;shape-padding:0;clip-rule:nonzero;display:inline;overflow:visible;visibility:visible;opacity:1;isolation:auto;mix-blend-mode:normal;color-interpolation:sRGB;color-interpolation-filters:linearRGB;solid-color:#000000;solid-opacity:1;vector-effect:none;fill:#e0e0e0;fill-opacity:0.78431373;fill-rule:nonzero;stroke:none;stroke-width:2.00016665;stroke-linecap:round;stroke-linejoin:round;stroke-miterlimit:4;stroke-dasharray:none;stroke-dashoffset:0;stroke-opacity:1;color-rendering:auto;image-rendering:auto;shape-rendering:auto;text-rendering:auto;enable-background:accumulate"
       d="m 13,1027.3623 c -6.6307,0 -12,5.3662 -12,11.998 0,6.6318 5.3693,12.002 12,12.002 h 16 c 6.6307,0 12,-5.3702 12,-12.002 0,-6.6318 -5.3693,-11.998 -12,-11.998 z m 17,6.9972 a 1,1.0001667 0 0 1 1,1.0001 v 8.0014 a 1.0001,1.0002667 0 0 1 -1.751953,0.6623 L 24,1038.0223 v 5.3387 a 1,1.0001667 0 0 1 -1,1.0001 1,1.0001667 0 0 1 -1,-1.0001 v -8.0014 a 1.0001,1.0002667 0 0 1 1.751953,-0.6583 L 29,1040.7023 v -5.3427 a 1,1.0001667 0 0 1 1,-1.0001 z m -15,0 c 2.749579,0 5,2.2507 5,5.0008 0,2.7501 -2.250421,5.0008 -5,5.0008 -2.749579,0 -5,-2.2507 -5,-5.0008 0,-2.7501 2.250421,-5.0008 5,-5.0008 z m 0,2.0003 c -1.668699,0 -3,1.3315 -3,3.0005 0,1.669 1.331301,3.0005 3,3.0005 1.668699,0 3,-1.3315 3,-3.0005 0,-1.669 -1.331301,-3.0005 -3,-3.0005 z"
       id="path4272"
       inkscape:connector-curvature="0" />
  </g>
</svg>
