<?xml version="1.0" encoding="UTF-8" standalone="no"?>
<!-- Created with Inkscape (http://www.inkscape.org/) -->

<svg
   xmlns:dc="http://purl.org/dc/elements/1.1/"
   xmlns:cc="http://creativecommons.org/ns#"
   xmlns:rdf="http://www.w3.org/1999/02/22-rdf-syntax-ns#"
   xmlns:svg="http://www.w3.org/2000/svg"
   xmlns="http://www.w3.org/2000/svg"
   xmlns:sodipodi="http://sodipodi.sourceforge.net/DTD/sodipodi-0.dtd"
   xmlns:inkscape="http://www.inkscape.org/namespaces/inkscape"
   width="16"
   height="16"
   viewBox="0 0 16 16"
   id="svg2"
   version="1.1"
   inkscape:version="0.92+devel unknown"
   inkscape:export-filename="/home/djrm/Projects/godot/tools/editor/icons/icon_help.png"
   inkscape:export-xdpi="90"
   inkscape:export-ydpi="90"
   sodipodi:docname="icon_help.svg">
  <defs
     id="defs4" />
  <sodipodi:namedview
     id="base"
     pagecolor="#ffffff"
     bordercolor="#666666"
     borderopacity="1.0"
     inkscape:pageopacity="0.0"
     inkscape:pageshadow="2"
     inkscape:zoom="31.999999"
     inkscape:cx="9.7940153"
     inkscape:cy="7.5068869"
     inkscape:document-units="px"
     inkscape:current-layer="layer1"
     showgrid="true"
     units="px"
     inkscape:snap-bbox="true"
     inkscape:bbox-paths="true"
     inkscape:bbox-nodes="true"
     inkscape:snap-bbox-edge-midpoints="true"
     inkscape:snap-bbox-midpoints="true"
     inkscape:snap-object-midpoints="true"
     inkscape:snap-center="true"
     inkscape:window-width="1920"
     inkscape:window-height="1016"
     inkscape:window-x="0"
     inkscape:window-y="27"
     inkscape:window-maximized="1"
     inkscape:document-rotation="0">
    <inkscape:grid
       type="xygrid"
       id="grid3336" />
  </sodipodi:namedview>
  <metadata
     id="metadata7">
    <rdf:RDF>
      <cc:Work
         rdf:about="">
        <dc:format>image/svg+xml</dc:format>
        <dc:type
           rdf:resource="http://purl.org/dc/dcmitype/StillImage" />
        <dc:title />
      </cc:Work>
    </rdf:RDF>
  </metadata>
  <g
     inkscape:label="Layer 1"
     inkscape:groupmode="layer"
     id="layer1"
     transform="translate(0,-1036.3622)">
    <path
       style="fill:#e0e0e0;fill-opacity:0.58823532;stroke-width:2;stroke-linecap:round;stroke-linejoin:round;stroke-opacity:0.3254902"
       d="M 5.0292969 1 C 4.0296094 0.989075 3.0196929 1.31165 2 2 L 2 9 C 4.0172141 7.6471 6.0167145 7.6864 8 9 C 9.9832855 7.6864 11.982786 7.6471 14 9 L 14 2 C 12.980307 1.31165 11.970391 0.989075 10.970703 1 C 10.309402 1.007227 9.6532285 1.1734956 9 1.4628906 L 9 6 L 8 6 L 8 2 C 7.0184429 1.35535 6.0289844 1.010925 5.0292969 1 z M 0 10 L 0 16 L 2 16 A 3 3 0 0 0 5 13 A 3 3 0 0 0 2 10 L 0 10 z M 5 13 A 3 3 0 0 0 8 16 A 3 3 0 0 0 11 13 A 3 3 0 0 0 8 10 A 3 3 0 0 0 5 13 z M 11 13 A 3 3 0 0 0 14 16 L 15 16 L 15 14 L 14 14 A 1.0000174 1.0000174 0 0 1 13 13 A 1.0000174 1.0000174 0 0 1 14 12 L 15 12 L 15 10 L 14 10 A 3 3 0 0 0 11 13 z M 2 12 A 1 1 0 0 1 3 13 A 1 1 0 0 1 2 14 L 2 12 z M 8 12 A 1.0000174 1.0000174 0 0 1 9 13 A 1.0000174 1.0000174 0 0 1 8 14 A 1.0000174 1.0000174 0 0 1 7 13 A 1.0000174 1.0000174 0 0 1 8 12 z "
       transform="translate(0,1036.3622)"
       id="path4270" />
  </g>
</svg>
