<?xml version="1.0" encoding="UTF-8" standalone="no"?>
<!-- Created with Inkscape (http://www.inkscape.org/) -->

<svg
   xmlns:dc="http://purl.org/dc/elements/1.1/"
   xmlns:cc="http://creativecommons.org/ns#"
   xmlns:rdf="http://www.w3.org/1999/02/22-rdf-syntax-ns#"
   xmlns:svg="http://www.w3.org/2000/svg"
   xmlns="http://www.w3.org/2000/svg"
   xmlns:sodipodi="http://sodipodi.sourceforge.net/DTD/sodipodi-0.dtd"
   xmlns:inkscape="http://www.inkscape.org/namespaces/inkscape"
   width="16"
   height="12"
   viewBox="0 0 16 12"
   id="svg2"
   version="1.1"
   inkscape:version="0.92+devel unknown"
   inkscape:export-filename="/home/djrm/Projects/godot/tools/editor/icons/icon_add_track.png"
   inkscape:export-xdpi="45"
   inkscape:export-ydpi="45"
   sodipodi:docname="icon_mini_basis.svg">
  <defs
     id="defs4" />
  <sodipodi:namedview
     id="base"
     pagecolor="#ffffff"
     bordercolor="#666666"
     borderopacity="1.0"
     inkscape:pageopacity="0.0"
     inkscape:pageshadow="2"
     inkscape:zoom="32.000001"
     inkscape:cx="13.060222"
     inkscape:cy="5.0032724"
     inkscape:document-units="px"
     inkscape:current-layer="layer1"
     showgrid="true"
     units="px"
     inkscape:snap-bbox="true"
     inkscape:bbox-paths="true"
     inkscape:bbox-nodes="true"
     inkscape:snap-bbox-edge-midpoints="true"
     inkscape:snap-bbox-midpoints="false"
     inkscape:snap-object-midpoints="true"
     inkscape:snap-center="true"
     inkscape:window-width="1920"
     inkscape:window-height="1016"
     inkscape:window-x="0"
     inkscape:window-y="27"
     inkscape:window-maximized="1"
     inkscape:object-nodes="true"
     inkscape:snap-smooth-nodes="true"
     inkscape:document-rotation="0">
    <inkscape:grid
       type="xygrid"
       id="grid3336" />
  </sodipodi:namedview>
  <metadata
     id="metadata7">
    <rdf:RDF>
      <cc:Work
         rdf:about="">
        <dc:format>image/svg+xml</dc:format>
        <dc:type
           rdf:resource="http://purl.org/dc/dcmitype/StillImage" />
        <dc:title />
      </cc:Work>
    </rdf:RDF>
  </metadata>
  <g
     inkscape:label="Layer 1"
     inkscape:groupmode="layer"
     id="layer1"
     transform="translate(0,-1040.3622)">
    <path
       style="fill:#e3ec69;fill-opacity:1;stroke:none;stroke-width:2;stroke-linecap:butt;stroke-linejoin:round;stroke-miterlimit:4;stroke-dasharray:none;stroke-opacity:1"
       d="M 0 2 L 0 6 L 0 10 L 2 10 A 3 3 0 0 0 5 7 A 3 3 0 0 0 2 4 L 2 2 L 0 2 z M 10 2 L 10 4 L 12 4 L 12 2 L 10 2 z M 7 4 A 2 2 0 0 0 5.2675781 5 A 2 2 0 0 0 5.2675781 7 A 2 2 0 0 0 7 8 L 5 8 L 5 10 L 7 10 A 2 2 0 0 0 8.7324219 9 A 2 2 0 0 0 8.7324219 7 A 2 2 0 0 0 7 6 L 9 6 L 9 4 L 7 4 z M 14 4 A 2 2 0 0 0 12.267578 5 A 2 2 0 0 0 12.267578 7 A 2 2 0 0 0 14 8 L 12 8 L 12 6 L 10 6 L 10 10 L 12 10 L 14 10 A 2 2 0 0 0 15.732422 9 A 2 2 0 0 0 15.732422 7 A 2 2 0 0 0 14 6 L 16 6 L 16 4 L 14 4 z M 2 6 A 1.0000174 1.0000174 0 0 1 3 7 A 1.0000174 1.0000174 0 0 1 2 8 L 2 6 z "
       transform="translate(0,1040.3622)"
       id="rect4364" />
    <path
       style="fill:#ffffff;fill-opacity:0.39215687;stroke:none;stroke-width:2;stroke-linecap:butt;stroke-linejoin:round;stroke-miterlimit:4;stroke-dasharray:none;stroke-opacity:1"
       d="m 10,1042.3622 v 2 h 2 v -2 z m 0,4 v 4 h 2 v -4 z"
       id="rect4412"
       inkscape:connector-curvature="0" />
  </g>
</svg>
