<?xml version="1.0" encoding="UTF-8" standalone="no"?>
<!-- Created with Inkscape (http://www.inkscape.org/) -->

<svg
   xmlns:dc="http://purl.org/dc/elements/1.1/"
   xmlns:cc="http://creativecommons.org/ns#"
   xmlns:rdf="http://www.w3.org/1999/02/22-rdf-syntax-ns#"
   xmlns:svg="http://www.w3.org/2000/svg"
   xmlns="http://www.w3.org/2000/svg"
   xmlns:sodipodi="http://sodipodi.sourceforge.net/DTD/sodipodi-0.dtd"
   xmlns:inkscape="http://www.inkscape.org/namespaces/inkscape"
   width="16"
   height="16"
   viewBox="0 0 16 16"
   id="svg2"
   version="1.1"
   inkscape:version="0.92+devel unknown"
   inkscape:export-filename="/home/djrm/Projects/godot/tools/editor/icons/icon_collision_shape.png"
   inkscape:export-xdpi="90"
   inkscape:export-ydpi="90"
   sodipodi:docname="icon_fixed_spatial_material.svg">
  <defs
     id="defs4">
    <clipPath
       id="clipPath4189"
       clipPathUnits="userSpaceOnUse">
      <path
         inkscape:connector-curvature="0"
         id="path4191"
         d="m 6.3750001,1025.8622 a 1.6876688,1.5001498 0 0 0 -1.6875,1.5 l 0,18 a 1.6876688,1.5001498 0 0 0 1.6875,1.5 l 10.1217039,0 c -0.747392,-0.8796 -1.304338,-1.8888 -1.562256,-3 l -6.8719479,0 0,-15 16.8749999,0 0,3.3486 a 3.4281247,3.0472216 0 0 1 1.282105,1.1279 c 0.537834,0.828 1.294284,1.677 2.092895,2.5723 l 0,-8.5488 a 1.6876688,1.5001498 0 0 0 -1.6875,-1.5 l -20.2499999,0 z m 11.8124999,4.5 0,1.5 -1.6875,0 0,1.5 -3.375,0 0,1.5 -1.6875,0 0,1.5 -1.6874999,0 0,1.5 3.3749999,0 3.375,0 0.02637,0 c 0.246127,-0.317 0.496441,-0.6239 0.738282,-0.9053 1.145331,-1.3327 2.270672,-2.4711 3.015746,-3.6182 a 3.4281247,3.0472216 0 0 1 1.282105,-1.1279 l 0,-0.3486 -1.6875,0 0,-1.5 -1.6875,0 z m 5.0625,4.5 c -1.948558,3 -5.0625,5.0146 -5.0625,7.5 0,2.4853 2.266559,4.5 5.0625,4.5 2.795941,0 5.0625,-2.0147 5.0625,-4.5 0,-2.4854 -3.113942,-4.5 -5.0625,-7.5 z"
         style="color:#000000;font-style:normal;font-variant:normal;font-weight:normal;font-stretch:normal;font-size:medium;line-height:normal;font-family:sans-serif;text-indent:0;text-align:start;text-decoration:none;text-decoration-line:none;text-decoration-style:solid;text-decoration-color:#000000;letter-spacing:normal;word-spacing:normal;text-transform:none;direction:ltr;block-progression:tb;writing-mode:lr-tb;baseline-shift:baseline;text-anchor:start;white-space:normal;clip-rule:nonzero;display:inline;overflow:visible;visibility:visible;opacity:1;isolation:auto;mix-blend-mode:normal;color-interpolation:sRGB;color-interpolation-filters:linearRGB;solid-color:#000000;solid-opacity:1;fill:#000000;fill-opacity:1;fill-rule:evenodd;stroke:none;stroke-width:2;stroke-linecap:butt;stroke-linejoin:round;stroke-miterlimit:4;stroke-dasharray:none;stroke-dashoffset:0;stroke-opacity:1;color-rendering:auto;image-rendering:auto;shape-rendering:auto;text-rendering:auto;enable-background:accumulate" />
    </clipPath>
    <clipPath
       id="clipPath4253"
       clipPathUnits="userSpaceOnUse">
      <path
         inkscape:connector-curvature="0"
         id="path4255"
         d="m 16.458984,1024.37 a 12.000027,12.000027 0 0 0 -3.564453,0.4004 12.000027,12.000027 0 0 0 -8.4863279,14.6973 12.000027,12.000027 0 0 0 14.6972659,8.4863 12.000027,12.000027 0 0 0 8.486328,-14.6973 12.000027,12.000027 0 0 0 -11.132813,-8.8867 z M 16.25,1029.8212 a 6.5451717,6.5451717 0 0 1 6.072266,4.8476 6.5451717,6.5451717 0 0 1 -4.628907,8.0157 6.5451717,6.5451717 0 0 1 -8.0156246,-4.6289 6.5451717,6.5451717 0 0 1 4.6289066,-8.0157 6.5451717,6.5451717 0 0 1 1.943359,-0.2187 z"
         style="fill:#ffffff;fill-opacity:1;stroke:none;stroke-width:4;stroke-linecap:round;stroke-linejoin:round;stroke-miterlimit:4;stroke-dasharray:none;stroke-opacity:1" />
    </clipPath>
    <clipPath
       clipPathUnits="userSpaceOnUse"
       id="clipPath4208">
      <path
         style="fill:none;fill-rule:evenodd;stroke:none;stroke-width:1px;stroke-linecap:butt;stroke-linejoin:miter;stroke-opacity:1"
         d="m 4.6875001,1042.3622 11.8124999,4.5 11.8125,-4.5 0,-12 -11.8125,-4.5 -11.8124999,4.5 z"
         id="path4210"
         inkscape:connector-curvature="0" />
    </clipPath>
  </defs>
  <sodipodi:namedview
     id="base"
     pagecolor="#ffffff"
     bordercolor="#666666"
     borderopacity="1.0"
     inkscape:pageopacity="0.0"
     inkscape:pageshadow="2"
     inkscape:zoom="32"
     inkscape:cx="5.5108586"
     inkscape:cy="8.8204557"
     inkscape:document-units="px"
     inkscape:current-layer="layer1"
     showgrid="true"
     units="px"
     inkscape:snap-bbox="true"
     inkscape:bbox-paths="true"
     inkscape:bbox-nodes="true"
     inkscape:snap-bbox-edge-midpoints="true"
     inkscape:snap-bbox-midpoints="true"
     inkscape:snap-object-midpoints="true"
     inkscape:snap-center="true"
     inkscape:window-width="1920"
     inkscape:window-height="1016"
     inkscape:window-x="0"
     inkscape:window-y="27"
     inkscape:window-maximized="1"
     inkscape:object-paths="false"
     inkscape:snap-intersection-paths="false"
     inkscape:object-nodes="false"
     inkscape:snap-smooth-nodes="false"
     inkscape:snap-midpoints="false"
     inkscape:document-rotation="0">
    <inkscape:grid
       type="xygrid"
       id="grid3336" />
  </sodipodi:namedview>
  <metadata
     id="metadata7">
    <rdf:RDF>
      <cc:Work
         rdf:about="">
        <dc:format>image/svg+xml</dc:format>
        <dc:type
           rdf:resource="http://purl.org/dc/dcmitype/StillImage" />
        <dc:title />
      </cc:Work>
    </rdf:RDF>
  </metadata>
  <g
     inkscape:label="Layer 1"
     inkscape:groupmode="layer"
     id="layer1"
     transform="translate(0,-1036.3622)">
    <path
       style="fill:#ff7070;fill-opacity:1;stroke:none;stroke-width:2.51415753;stroke-linecap:round;stroke-linejoin:miter;stroke-miterlimit:4;stroke-dasharray:none;stroke-opacity:1"
       d="M 8 1 A 7 7.0000001 0 0 0 3.1113281 3 L 6 3 L 12.896484 3 A 7 7.0000001 0 0 0 8 1 z "
       transform="translate(0,1036.3622)"
       id="rect4159" />
    <path
       style="fill:#ffeb70;fill-opacity:1;stroke:none;stroke-width:2.51415753;stroke-linecap:round;stroke-linejoin:miter;stroke-miterlimit:4;stroke-dasharray:none;stroke-opacity:1"
       d="M 3.1113281 3 A 7 7.0000001 0 0 0 1.6835938 5 L 4 5 A 2 2 0 0 1 6 3 L 3.1113281 3 z M 6 3 A 2 2 0 0 1 8 5 L 14.314453 5 A 7 7.0000001 0 0 0 12.896484 3 L 6 3 z "
       transform="translate(0,1036.3622)"
       id="rect4161" />
    <path
       style="fill:#9dff70;fill-opacity:1;stroke:none;stroke-width:2.51415753;stroke-linecap:round;stroke-linejoin:miter;stroke-miterlimit:4;stroke-dasharray:none;stroke-opacity:1"
       d="M 1.6835938 5 A 7 7.0000001 0 0 0 1.078125 7 L 6 7 A 2 2 0 0 1 4 5 L 1.6835938 5 z M 6 7 L 14.919922 7 A 7 7.0000001 0 0 0 14.314453 5 L 8 5 A 2 2 0 0 1 6 7 z "
       transform="translate(0,1036.3622)"
       id="rect4163" />
    <path
       style="fill:#70ffb9;fill-opacity:1;stroke:none;stroke-width:2.51415753;stroke-linecap:round;stroke-linejoin:miter;stroke-miterlimit:4;stroke-dasharray:none;stroke-opacity:1"
       d="M 1.078125 7 A 7 7.0000001 0 0 0 1 8 A 7 7.0000001 0 0 0 1.0800781 9 L 14.921875 9 A 7 7.0000001 0 0 0 15 8 A 7 7.0000001 0 0 0 14.919922 7 L 6 7 L 1.078125 7 z "
       id="rect4165"
       transform="translate(0,1036.3622)" />
    <path
       style="fill:#70deff;fill-opacity:1;stroke:none;stroke-width:2.51415753;stroke-linecap:round;stroke-linejoin:miter;stroke-miterlimit:4;stroke-dasharray:none;stroke-opacity:1"
       d="M 1.0800781 9 A 7 7.0000001 0 0 0 1.6855469 11 L 14.316406 11 A 7 7.0000001 0 0 0 14.921875 9 L 1.0800781 9 z "
       transform="translate(0,1036.3622)"
       id="rect4167" />
    <path
       style="fill:#ff70ac;fill-opacity:1;stroke:none;stroke-width:2.51415753;stroke-linecap:round;stroke-linejoin:miter;stroke-miterlimit:4;stroke-dasharray:none;stroke-opacity:1"
       d="M 3.1035156 13 A 7 7.0000001 0 0 0 8 15 A 7 7.0000001 0 0 0 12.888672 13 L 3.1035156 13 z "
       transform="translate(0,1036.3622)"
       id="rect4169" />
    <path
       style="fill:#9f70ff;fill-opacity:1;stroke:none;stroke-width:2.51415753;stroke-linecap:round;stroke-linejoin:miter;stroke-miterlimit:4;stroke-dasharray:none;stroke-opacity:1"
       d="M 1.6855469 11 A 7 7.0000001 0 0 0 3.1035156 13 L 12.888672 13 A 7 7.0000001 0 0 0 14.316406 11 L 1.6855469 11 z "
       transform="translate(0,1036.3622)"
       id="rect4146" />
  </g>
</svg>
