<?xml version="1.0" encoding="UTF-8" standalone="no"?>
<!-- Created with Inkscape (http://www.inkscape.org/) -->

<svg
   xmlns:dc="http://purl.org/dc/elements/1.1/"
   xmlns:cc="http://creativecommons.org/ns#"
   xmlns:rdf="http://www.w3.org/1999/02/22-rdf-syntax-ns#"
   xmlns:svg="http://www.w3.org/2000/svg"
   xmlns="http://www.w3.org/2000/svg"
   xmlns:sodipodi="http://sodipodi.sourceforge.net/DTD/sodipodi-0.dtd"
   xmlns:inkscape="http://www.inkscape.org/namespaces/inkscape"
   width="64"
   height="64"
   viewBox="0 0 64 64"
   id="svg2"
   version="1.1"
   inkscape:version="0.92+devel unknown"
   inkscape:export-filename="/home/djrm/Projects/godot/tools/editor/icons/icon_dependency_changed_hl.png"
   inkscape:export-xdpi="45"
   inkscape:export-ydpi="45"
   sodipodi:docname="icon_thumbnail_wait.svg">
  <defs
     id="defs4" />
  <sodipodi:namedview
     id="base"
     pagecolor="#ffffff"
     bordercolor="#666666"
     borderopacity="1.0"
     inkscape:pageopacity="0.0"
     inkscape:pageshadow="2"
     inkscape:zoom="8"
     inkscape:cx="39.185703"
     inkscape:cy="30.78595"
     inkscape:document-units="px"
     inkscape:current-layer="layer1"
     showgrid="true"
     units="px"
     inkscape:snap-bbox="true"
     inkscape:bbox-paths="true"
     inkscape:bbox-nodes="true"
     inkscape:snap-bbox-edge-midpoints="true"
     inkscape:snap-bbox-midpoints="false"
     inkscape:snap-object-midpoints="true"
     inkscape:snap-center="true"
     inkscape:window-width="1920"
     inkscape:window-height="1016"
     inkscape:window-x="0"
     inkscape:window-y="27"
     inkscape:window-maximized="1"
     inkscape:document-rotation="0">
    <inkscape:grid
       type="xygrid"
       id="grid3336"
       empspacing="4" />
  </sodipodi:namedview>
  <metadata
     id="metadata7">
    <rdf:RDF>
      <cc:Work
         rdf:about="">
        <dc:format>image/svg+xml</dc:format>
        <dc:type
           rdf:resource="http://purl.org/dc/dcmitype/StillImage" />
        <dc:title></dc:title>
      </cc:Work>
    </rdf:RDF>
  </metadata>
  <g
     inkscape:label="Layer 1"
     inkscape:groupmode="layer"
     id="layer1"
     transform="translate(0,-988.3622)">
    <path
       style="fill:#e0e0e0;fill-opacity:1;stroke-width:2;stroke-linecap:round;stroke-linejoin:round"
       d="M 8 0 C 3.5679905 0 0 3.5679905 0 8 L 0 56 C 0 60.43201 3.5679905 64 8 64 L 56 64 C 60.43201 64 64 60.43201 64 56 L 64 8 C 64 3.5679905 60.43201 0 56 0 L 8 0 z M 8 2 L 56 2 C 59.324043 2 62 4.6759567 62 8 L 62 56 C 62 59.324043 59.324043 62 56 62 L 8 62 C 4.6759567 62 2 59.324043 2 56 L 2 8 C 2 4.6759567 4.6759567 2 8 2 z M 7.9863281 7.0019531 A 1 1 0 0 0 7.2929688 7.2929688 A 1 1 0 0 0 7.2929688 8.7070312 L 15.292969 16.707031 A 1 1 0 0 0 16.707031 16.707031 A 1 1 0 0 0 16.707031 15.292969 L 8.7070312 7.2929688 A 1 1 0 0 0 7.9863281 7.0019531 z M 55.986328 7.0019531 A 1 1 0 0 0 55.292969 7.2929688 L 47.292969 15.292969 A 1 1 0 0 0 47.292969 16.707031 A 1 1 0 0 0 48.707031 16.707031 L 56.707031 8.7070312 A 1 1 0 0 0 56.707031 7.2929688 A 1 1 0 0 0 55.986328 7.0019531 z M 22 18 A 2.0002 2.0002 0 0 0 21.621094 18.039062 C 21.615392 18.040149 21.6092 18.039881 21.603516 18.041016 C 21.589496 18.043814 21.57641 18.047693 21.5625 18.050781 A 2.0002 2.0002 0 0 0 21.253906 18.146484 C 21.229314 18.156353 21.205732 18.16693 21.181641 18.177734 A 2.0002 2.0002 0 0 0 20.935547 18.310547 C 20.914203 18.323999 20.891878 18.335381 20.871094 18.349609 C 20.862278 18.355645 20.854416 18.362968 20.845703 18.369141 A 2.0002 2.0002 0 0 0 20.630859 18.544922 C 20.609359 18.565153 20.586989 18.584308 20.566406 18.605469 A 2.0002 2.0002 0 0 0 20.564453 18.607422 A 2.0002 2.0002 0 0 0 20.378906 18.832031 C 20.361118 18.8567 20.342843 18.880748 20.326172 18.90625 A 2.0002 2.0002 0 0 0 20.183594 19.171875 C 20.169973 19.201784 20.156702 19.231033 20.144531 19.261719 A 2.0002 2.0002 0 0 0 20.050781 19.5625 C 20.046578 19.581431 20.042728 19.600009 20.039062 19.619141 A 2.0002 2.0002 0 0 0 20 20 C 20 23 21.933934 25.245406 23.746094 27.316406 C 25.267831 29.055606 26.578317 30.6052 27.496094 32 C 26.578317 33.3948 25.267831 34.944394 23.746094 36.683594 C 21.933934 38.754594 20 41 20 44 A 2.0002 2.0002 0 0 0 20.041016 44.404297 A 2.0002 2.0002 0 0 0 20.146484 44.746094 C 20.155258 44.767956 20.164315 44.789079 20.173828 44.810547 A 2.0002 2.0002 0 0 0 20.320312 45.083984 C 20.330329 45.099497 20.339179 45.115648 20.349609 45.130859 C 20.349609 45.130859 20.351562 45.132812 20.351562 45.132812 A 2.0002 2.0002 0 0 0 20.544922 45.369141 C 20.565153 45.390641 20.584308 45.413011 20.605469 45.433594 A 2.0002 2.0002 0 0 0 20.607422 45.435547 A 2.0002 2.0002 0 0 0 20.841797 45.628906 C 20.863184 45.644126 20.884244 45.659442 20.90625 45.673828 A 2.0002 2.0002 0 0 0 21.183594 45.824219 C 21.203337 45.833041 21.222107 45.843366 21.242188 45.851562 A 2.0002 2.0002 0 0 0 21.580078 45.955078 C 21.585409 45.956209 21.590356 45.957896 21.595703 45.958984 A 2.0002 2.0002 0 0 0 21.605469 45.958984 A 2.0002 2.0002 0 0 0 22 46 L 42 46 A 2.0002 2.0002 0 0 0 42.404297 45.958984 A 2.0002 2.0002 0 0 0 42.779297 45.84375 A 2.0002 2.0002 0 0 0 43.072266 45.685547 C 43.091097 45.673563 43.110514 45.662981 43.128906 45.650391 A 2.0002 2.0002 0 0 0 43.150391 45.634766 A 2.0002 2.0002 0 0 0 43.386719 45.439453 C 43.400015 45.426645 43.414798 45.415514 43.427734 45.402344 A 2.0002 2.0002 0 0 0 43.632812 45.152344 C 43.644939 45.135176 43.65833 45.119127 43.669922 45.101562 A 2.0002 2.0002 0 0 0 43.822266 44.820312 C 43.833326 44.795707 43.843431 44.771223 43.853516 44.746094 A 2.0002 2.0002 0 0 0 43.951172 44.431641 C 43.954735 44.41535 43.957772 44.399251 43.960938 44.382812 A 2.0002 2.0002 0 0 0 44 44 C 44 41 42.066066 38.754594 40.253906 36.683594 C 38.732168 34.944394 37.421684 33.3948 36.503906 32 C 37.421684 30.6052 38.732168 29.055606 40.253906 27.316406 C 42.066066 25.245406 44 23 44 20 A 2.0002 2.0002 0 0 0 43.958984 19.595703 C 43.958984 19.595703 43.958984 19.59375 43.958984 19.59375 A 2.0002 2.0002 0 0 0 43.857422 19.267578 C 43.845457 19.237138 43.833703 19.207415 43.820312 19.177734 A 2.0002 2.0002 0 0 0 43.685547 18.927734 C 43.673563 18.908903 43.662981 18.889486 43.650391 18.871094 A 2.0002 2.0002 0 0 0 43.626953 18.839844 A 2.0002 2.0002 0 0 0 43.46875 18.646484 C 43.443724 18.61933 43.419064 18.592131 43.392578 18.566406 A 2.0002 2.0002 0 0 0 43.365234 18.541016 A 2.0002 2.0002 0 0 0 43.175781 18.386719 C 43.144744 18.364078 43.114397 18.341169 43.082031 18.320312 C 43.082031 18.320312 43.080078 18.318359 43.080078 18.318359 A 2.0002 2.0002 0 0 0 42.837891 18.1875 C 42.806565 18.173033 42.776327 18.157402 42.744141 18.144531 A 2.0002 2.0002 0 0 0 42.445312 18.052734 C 42.423758 18.047857 42.402676 18.043242 42.380859 18.039062 A 2.0002 2.0002 0 0 0 42 18 L 22 18 z M 25.175781 22 L 38.824219 22 C 38.348615 22.8814 38.21322 23.578194 37.246094 24.683594 C 35.558253 26.612594 33.44945 28.628469 32.210938 31.105469 A 2.0002 2.0002 0 0 0 32.001953 32 L 31.998047 32 A 2.0002 2.0002 0 0 0 31.789062 31.105469 C 30.550549 28.628469 28.441747 26.612594 26.753906 24.683594 C 25.78678 23.578194 25.651385 22.8814 25.175781 22 z M 15.986328 47.001953 A 1 1 0 0 0 15.292969 47.292969 L 7.2929688 55.292969 A 1 1 0 0 0 7.2929688 56.707031 A 1 1 0 0 0 8.7070312 56.707031 L 16.707031 48.707031 A 1 1 0 0 0 16.707031 47.292969 A 1 1 0 0 0 15.986328 47.001953 z M 47.986328 47.001953 A 1 1 0 0 0 47.292969 47.292969 A 1 1 0 0 0 47.292969 48.707031 L 55.292969 56.707031 A 1 1 0 0 0 56.707031 56.707031 A 1 1 0 0 0 56.707031 55.292969 L 48.707031 47.292969 A 1 1 0 0 0 47.986328 47.001953 z "
       transform="translate(0,988.3622)"
       id="rect4323" />
  </g>
</svg>
