<?xml version="1.0" encoding="UTF-8" standalone="no"?>
<!-- Created with Inkscape (http://www.inkscape.org/) -->

<svg
   xmlns:dc="http://purl.org/dc/elements/1.1/"
   xmlns:cc="http://creativecommons.org/ns#"
   xmlns:rdf="http://www.w3.org/1999/02/22-rdf-syntax-ns#"
   xmlns:svg="http://www.w3.org/2000/svg"
   xmlns="http://www.w3.org/2000/svg"
   xmlns:sodipodi="http://sodipodi.sourceforge.net/DTD/sodipodi-0.dtd"
   xmlns:inkscape="http://www.inkscape.org/namespaces/inkscape"
   width="16"
   height="16"
   viewBox="0 0 16 16"
   id="svg2"
   version="1.1"
   inkscape:version="0.92+devel unknown"
   inkscape:export-filename="/home/djrm/Projects/godot/tools/editor/icons/icon_lock.png"
   inkscape:export-xdpi="45"
   inkscape:export-ydpi="45"
   sodipodi:docname="icon_lock_viewport.svg">
  <defs
     id="defs4" />
  <sodipodi:namedview
     id="base"
     pagecolor="#ffffff"
     bordercolor="#666666"
     borderopacity="1.0"
     inkscape:pageopacity="0.0"
     inkscape:pageshadow="2"
     inkscape:zoom="45.254834"
     inkscape:cx="9.9443782"
     inkscape:cy="7.4198879"
     inkscape:document-units="px"
     inkscape:current-layer="layer1"
     showgrid="true"
     units="px"
     inkscape:snap-bbox="true"
     inkscape:bbox-paths="true"
     inkscape:bbox-nodes="true"
     inkscape:snap-bbox-edge-midpoints="true"
     inkscape:snap-bbox-midpoints="false"
     inkscape:snap-object-midpoints="false"
     inkscape:snap-center="true"
     inkscape:window-width="1920"
     inkscape:window-height="1016"
     inkscape:window-x="0"
     inkscape:window-y="27"
     inkscape:window-maximized="1"
     inkscape:snap-others="true"
     inkscape:document-rotation="0">
    <inkscape:grid
       type="xygrid"
       id="grid3336" />
  </sodipodi:namedview>
  <metadata
     id="metadata7">
    <rdf:RDF>
      <cc:Work
         rdf:about="">
        <dc:format>image/svg+xml</dc:format>
        <dc:type
           rdf:resource="http://purl.org/dc/dcmitype/StillImage" />
        <dc:title></dc:title>
      </cc:Work>
    </rdf:RDF>
  </metadata>
  <g
     inkscape:label="Layer 1"
     inkscape:groupmode="layer"
     id="layer1"
     transform="translate(0,-1036.3622)">
    <path
       style="fill:#000000;fill-opacity:0.39215686;stroke-width:4;stroke-linecap:round;stroke-linejoin:round;stroke-opacity:0.98823529"
       d="M 8 0 A 6 6 0 0 0 2 6 L 2 7 L 1 7 L 1 16 L 15 16 L 15 7 L 14 7 L 14 6 A 6 6 0 0 0 8 0 z M 8 4 C 9.1045695 4 10 4.8954305 10 6 L 10 7 L 6 7 L 6 6 C 6 4.8954305 6.8954305 4 8 4 z "
       transform="translate(0,1036.3622)"
       id="circle4296" />
    <g
       transform="matrix(0.63636994,0,0,0.63636994,11.81847,382.85245)"
       inkscape:label="Layer 1"
       id="g4515"
       style="stroke:#ffffff;stroke-width:6.28565216;stroke-linejoin:miter;stroke-miterlimit:4;stroke-dasharray:none;stroke-opacity:1" />
    <path
       style="opacity:1;fill:#e0e0e0;fill-opacity:1;stroke:none;stroke-width:3;stroke-linecap:round;stroke-linejoin:round;stroke-miterlimit:4;stroke-dasharray:none;stroke-dashoffset:0;stroke-opacity:1"
       d="M 8 1 A 5 5 0 0 0 3 6 L 3 8 L 2 8 L 2 15 L 14 15 L 14 8 L 13 8 L 13 6 A 5 5 0 0 0 8 1 z M 8 3 A 3 3 0 0 1 11 6 L 11 8 L 5 8 L 5 6 A 3 3 0 0 1 8 3 z M 7 10 L 9 10 L 9 13 L 7 13 L 7 10 z "
       transform="translate(0,1036.3622)"
       id="rect4139" />
  </g>
</svg>
