<?xml version="1.0" encoding="UTF-8" standalone="no"?>
<!-- Created with Inkscape (http://www.inkscape.org/) -->

<svg
   xmlns:dc="http://purl.org/dc/elements/1.1/"
   xmlns:cc="http://creativecommons.org/ns#"
   xmlns:rdf="http://www.w3.org/1999/02/22-rdf-syntax-ns#"
   xmlns:svg="http://www.w3.org/2000/svg"
   xmlns="http://www.w3.org/2000/svg"
   xmlns:sodipodi="http://sodipodi.sourceforge.net/DTD/sodipodi-0.dtd"
   xmlns:inkscape="http://www.inkscape.org/namespaces/inkscape"
   width="16"
   height="16"
   viewBox="0 0 16 16"
   id="svg2"
   version="1.1"
   inkscape:version="0.92+devel unknown"
   inkscape:export-filename="/home/djrm/Projects/godot/tools/editor/icons/icon_button.png"
   inkscape:export-xdpi="90"
   inkscape:export-ydpi="90"
   sodipodi:docname="icon_tool_button.svg">
  <defs
     id="defs4" />
  <sodipodi:namedview
     id="base"
     pagecolor="#ffffff"
     bordercolor="#666666"
     borderopacity="1.0"
     inkscape:pageopacity="0.0"
     inkscape:pageshadow="2"
     inkscape:zoom="32"
     inkscape:cx="7.704418"
     inkscape:cy="7.4979984"
     inkscape:document-units="px"
     inkscape:current-layer="layer1"
     showgrid="true"
     units="px"
     inkscape:snap-bbox="true"
     inkscape:bbox-paths="true"
     inkscape:bbox-nodes="true"
     inkscape:snap-bbox-edge-midpoints="true"
     inkscape:snap-bbox-midpoints="true"
     inkscape:snap-object-midpoints="true"
     inkscape:snap-center="true"
     inkscape:window-width="1920"
     inkscape:window-height="1016"
     inkscape:window-x="0"
     inkscape:window-y="27"
     inkscape:window-maximized="1"
     inkscape:document-rotation="0">
    <inkscape:grid
       type="xygrid"
       id="grid3336"
       empspacing="4" />
  </sodipodi:namedview>
  <metadata
     id="metadata7">
    <rdf:RDF>
      <cc:Work
         rdf:about="">
        <dc:format>image/svg+xml</dc:format>
        <dc:type
           rdf:resource="http://purl.org/dc/dcmitype/StillImage" />
        <dc:title />
      </cc:Work>
    </rdf:RDF>
  </metadata>
  <g
     inkscape:label="Layer 1"
     inkscape:groupmode="layer"
     id="layer1"
     transform="translate(0,-1036.3622)">
    <path
       style="fill:#a5efac;fill-opacity:1;stroke:none;stroke-width:2;stroke-linecap:round;stroke-linejoin:round;stroke-miterlimit:4;stroke-dasharray:none;stroke-opacity:1"
       d="M 11,1.1738281 C 9.8021407,1.5973281 9.0009552,2.7295 9,4 9.0009552,5.2705 9.8021407,6.4026719 11,6.8261719 V 14 c 0,0.554 0.446,1 1,1 0.554,0 1,-0.446 1,-1 V 6.8242188 C 14.197184,6.4010188 14.998218,5.2698 15,4 14.9982,2.7302 14.197184,1.5989812 13,1.1757812 V 4 C 13,4.5523 12.552285,5 12,5 11.447715,5 11,4.5523 11,4 Z M 4,3 v 3.1328125 l -1.4453125,-0.9648437 -1.109375,1.6640624 3,2 c 0.3359017,0.2238947 0.7734733,0.2238947 1.109375,0 l 3,-2 L 7.4453125,5.1679688 6,6.1328125 V 3 Z M 3.5,11 C 2.669,11 2,11.669 2,12.5 V 13 H 1 v 2 H 9 V 13 H 8 V 12.5 C 8,11.669 7.331,11 6.5,11 Z"
       transform="translate(0,1036.3622)"
       id="rect829"
       inkscape:connector-curvature="0"
       sodipodi:nodetypes="ccccsccccsssccccccccccccssccccccsss" />
  </g>
</svg>
