<?xml version="1.0" encoding="UTF-8" standalone="no"?>
<!-- Created with Inkscape (http://www.inkscape.org/) -->

<svg
   xmlns:dc="http://purl.org/dc/elements/1.1/"
   xmlns:cc="http://creativecommons.org/ns#"
   xmlns:rdf="http://www.w3.org/1999/02/22-rdf-syntax-ns#"
   xmlns:svg="http://www.w3.org/2000/svg"
   xmlns="http://www.w3.org/2000/svg"
   xmlns:sodipodi="http://sodipodi.sourceforge.net/DTD/sodipodi-0.dtd"
   xmlns:inkscape="http://www.inkscape.org/namespaces/inkscape"
   width="128"
   height="128"
   viewBox="0 0 128 128"
   id="svg2"
   version="1.1"
   inkscape:version="0.92+devel unknown"
   inkscape:export-filename="/home/djrm/Projects/godot/tools/editor/icons/icon_dependency_changed_hl.png"
   inkscape:export-xdpi="45"
   inkscape:export-ydpi="45"
   sodipodi:docname="icon_gizmo_particles.svg">
  <defs
     id="defs4" />
  <sodipodi:namedview
     id="base"
     pagecolor="#ffffff"
     bordercolor="#666666"
     borderopacity="1.0"
     inkscape:pageopacity="0.0"
     inkscape:pageshadow="2"
     inkscape:zoom="5.6568542"
     inkscape:cx="78.408687"
     inkscape:cy="67.924902"
     inkscape:document-units="px"
     inkscape:current-layer="layer1"
     showgrid="true"
     units="px"
     inkscape:snap-bbox="true"
     inkscape:bbox-paths="true"
     inkscape:bbox-nodes="true"
     inkscape:snap-bbox-edge-midpoints="true"
     inkscape:snap-bbox-midpoints="false"
     inkscape:snap-object-midpoints="true"
     inkscape:snap-center="true"
     inkscape:window-width="1920"
     inkscape:window-height="1016"
     inkscape:window-x="0"
     inkscape:window-y="27"
     inkscape:window-maximized="1"
     inkscape:snap-smooth-nodes="true"
     inkscape:object-nodes="true"
     inkscape:snap-intersection-paths="true"
     inkscape:document-rotation="0">
    <inkscape:grid
       type="xygrid"
       id="grid3336"
       empspacing="4" />
  </sodipodi:namedview>
  <metadata
     id="metadata7">
    <rdf:RDF>
      <cc:Work
         rdf:about="">
        <dc:format>image/svg+xml</dc:format>
        <dc:type
           rdf:resource="http://purl.org/dc/dcmitype/StillImage" />
        <dc:title />
      </cc:Work>
    </rdf:RDF>
  </metadata>
  <g
     inkscape:label="Layer 1"
     inkscape:groupmode="layer"
     id="layer1"
     transform="translate(0,-924.3622)">
    <path
       sodipodi:nodetypes="cccssssccccsssssssssssssss"
       inkscape:connector-curvature="0"
       id="path4274"
       d="m 63.998047,928.3622 c -18.42909,0.005 -34.028935,13.87951 -38.556641,32.92578 C 13.041056,964.29566 4.0143093,975.36805 4,988.35829 v 0.004 c 0,15.4166 12.583406,28 28,28 h 64 c 15.41659,0 28,-12.5834 28,-28 v -0.004 c -0.0152,-12.99977 -9.05488,-24.07635 -21.4668,-27.07422 C 98.006684,942.25072 82.420997,928.38116 64.003906,928.3622 Z m 32.001953,88 c -6.580038,0 -12,5.42 -12,12 0,6.58 5.419962,12 12,12 6.58004,0 12,-5.42 12,-12 0,-6.58 -5.41996,-12 -12,-12 z m -64,0 c -6.580038,0 -12,5.42 -12,12 0,6.58 5.419962,12 12,12 6.580038,0 12,-5.42 12,-12 0,-6.58 -5.419962,-12 -12,-12 z m 32,8 c -6.580038,0 -12,5.42 -12,12 0,6.58 5.419962,12 12,12 6.580038,0 12,-5.42 12,-12 0,-6.58 -5.419962,-12 -12,-12 z"
       style="color:#000000;font-style:normal;font-variant:normal;font-weight:normal;font-stretch:normal;font-size:medium;line-height:normal;font-family:sans-serif;font-variant-ligatures:normal;font-variant-position:normal;font-variant-caps:normal;font-variant-numeric:normal;font-variant-alternates:normal;font-variant-east-asian:normal;font-feature-settings:normal;text-indent:0;text-align:start;text-decoration:none;text-decoration-line:none;text-decoration-style:solid;text-decoration-color:#000000;letter-spacing:normal;word-spacing:normal;text-transform:none;writing-mode:lr-tb;direction:ltr;text-orientation:mixed;dominant-baseline:auto;baseline-shift:baseline;text-anchor:start;white-space:normal;shape-padding:0;clip-rule:nonzero;display:inline;overflow:visible;visibility:visible;isolation:auto;mix-blend-mode:normal;color-interpolation:sRGB;color-interpolation-filters:linearRGB;solid-color:#000000;solid-opacity:1;vector-effect:none;fill:#000000;fill-opacity:0.29411765;fill-rule:nonzero;stroke:none;stroke-width:8;stroke-linecap:round;stroke-linejoin:round;stroke-miterlimit:4;stroke-dasharray:none;stroke-dashoffset:0;stroke-opacity:1;color-rendering:auto;image-rendering:auto;shape-rendering:auto;text-rendering:auto;enable-background:accumulate" />
    <path
       style="opacity:1;fill:#f7f5cf;fill-opacity:1;stroke:none;stroke-width:16;stroke-linecap:round;stroke-linejoin:round;stroke-miterlimit:4;stroke-dasharray:none;stroke-dashoffset:0;stroke-opacity:0.99607843"
       d="M 64 8 A 35.999958 39.999878 0 0 0 28.689453 40.255859 A 24 24 0 0 0 8 64 A 24 24 0 0 0 32 88 L 96 88 A 24 24 0 0 0 120 64 A 24 24 0 0 0 99.285156 40.253906 A 35.999958 39.999878 0 0 0 64 8 z M 32 96 A 8 8 0 0 0 24 104 A 8 8 0 0 0 32 112 A 8 8 0 0 0 40 104 A 8 8 0 0 0 32 96 z M 96 96 A 8 8 0 0 0 88 104 A 8 8 0 0 0 96 112 A 8 8 0 0 0 104 104 A 8 8 0 0 0 96 96 z M 64 104 A 8 8 0 0 0 56 112 A 8 8 0 0 0 64 120 A 8 8 0 0 0 72 112 A 8 8 0 0 0 64 104 z "
       transform="translate(0,924.3622)"
       id="path4138" />
  </g>
</svg>
