<?xml version="1.0" encoding="UTF-8" standalone="no"?>
<!-- Created with Inkscape (http://www.inkscape.org/) -->

<svg
   xmlns:dc="http://purl.org/dc/elements/1.1/"
   xmlns:cc="http://creativecommons.org/ns#"
   xmlns:rdf="http://www.w3.org/1999/02/22-rdf-syntax-ns#"
   xmlns:svg="http://www.w3.org/2000/svg"
   xmlns="http://www.w3.org/2000/svg"
   xmlns:sodipodi="http://sodipodi.sourceforge.net/DTD/sodipodi-0.dtd"
   xmlns:inkscape="http://www.inkscape.org/namespaces/inkscape"
   width="16"
   height="16"
   viewBox="0 0 4.2333333 4.2333333"
   version="1.1"
   id="svg8"
   inkscape:version="0.92.2 (5c3e80d, 2017-08-06)"
   sodipodi:docname="icon_viewport_speed.svg">
  <defs
     id="defs2" />
  <sodipodi:namedview
     id="base"
     pagecolor="#ffffff"
     bordercolor="#666666"
     borderopacity="1.0"
     inkscape:pageopacity="0.0"
     inkscape:pageshadow="2"
     inkscape:zoom="31.678384"
     inkscape:cx="10.413209"
     inkscape:cy="12.094863"
     inkscape:document-units="mm"
     inkscape:current-layer="svg8"
     showgrid="true"
     units="px"
     inkscape:window-width="1920"
     inkscape:window-height="1016"
     inkscape:window-x="0"
     inkscape:window-y="27"
     inkscape:window-maximized="1">
    <inkscape:grid
       type="xygrid"
       id="grid815"
       empspacing="4" />
  </sodipodi:namedview>
  <metadata
     id="metadata5">
    <rdf:RDF>
      <cc:Work
         rdf:about="">
        <dc:format>image/svg+xml</dc:format>
        <dc:type
           rdf:resource="http://purl.org/dc/dcmitype/StillImage" />
        <dc:title></dc:title>
      </cc:Work>
    </rdf:RDF>
  </metadata>
  <g
     inkscape:label="Layer 1"
     inkscape:groupmode="layer"
     id="layer1">
    <path
       style="color:#000000;font-style:normal;font-variant:normal;font-weight:normal;font-stretch:normal;font-size:medium;line-height:normal;font-family:sans-serif;font-variant-ligatures:normal;font-variant-position:normal;font-variant-caps:normal;font-variant-numeric:normal;font-variant-alternates:normal;font-feature-settings:normal;text-indent:0;text-align:start;text-decoration:none;text-decoration-line:none;text-decoration-style:solid;text-decoration-color:#000000;letter-spacing:normal;word-spacing:normal;text-transform:none;writing-mode:lr-tb;direction:ltr;text-orientation:mixed;dominant-baseline:auto;baseline-shift:baseline;text-anchor:start;white-space:normal;shape-padding:0;clip-rule:nonzero;display:inline;overflow:visible;visibility:visible;opacity:1;isolation:auto;mix-blend-mode:normal;color-interpolation:sRGB;color-interpolation-filters:linearRGB;solid-color:#000000;solid-opacity:1;vector-effect:none;fill:#000000;fill-opacity:1;fill-rule:nonzero;stroke:none;stroke-width:0.52916664;stroke-linecap:round;stroke-linejoin:round;stroke-miterlimit:4;stroke-dasharray:none;stroke-dashoffset:0;stroke-opacity:1;color-rendering:auto;image-rendering:auto;shape-rendering:auto;text-rendering:auto;enable-background:accumulate"
       d="M 1.5875,0 C 1.2989214,0 1.0583335,0.24059 1.0583335,0.52917 V 1.14049 C 0.9727445,1.08949 0.8772015,1.05139 0.7730795,1.05519 0.4245918,1.06789 0.1778816,1.42865 0.2924887,1.75797 l 0.2635498,0.79066 c 0.048664,0.14623 0.1597929,0.24805 0.2924886,0.30644 L 0.239262,3.26176 c -0.1312102,0.0845 -0.2210173,0.22389 -0.241329,0.3633 -0.020312,0.13941 0.017471,0.26985 0.087333,0.37465 0.069862,0.1048 0.1761439,0.19045 0.3126425,0.22532 0.1363398,0.0348 0.2994558,0.006 0.4278809,-0.0827 h 5.159e-4 L 1.9115104,3.41885 2.1724764,3.94077 C 2.2892982,4.17468 2.5652121,4.28906 2.813264,4.20638 L 3.607014,3.9418 3.599264,3.9448 C 3.7503133,3.8994 3.8765886,3.78865 3.9341272,3.6585 3.9916652,3.52835 3.9892712,3.39077 3.9491132,3.27041 3.9175532,3.17581 3.8393911,3.10171 3.7563603,3.03424 3.8254593,2.97964 3.9008646,2.9306 3.9367109,2.84099 3.9884719,2.71158 3.9819679,2.54807 3.9129409,2.41001 L 3.6483549,1.88055 C 3.5589479,1.70122 3.3748749,1.58747 3.175,1.5875 H 3.0638958 C 3.1159248,1.5058 3.1750002,1.42536 3.1750002,1.32292 V 0.52917 C 3.1750002,0.24059 2.9344124,0 2.6458335,0 Z"
       id="path833"
       inkscape:connector-curvature="0"
       sodipodi:nodetypes="ssccccccssccccccccccccccccssss" />
    <path
       inkscape:connector-curvature="0"
       style="fill:#ffffff;fill-opacity:0.99607843;stroke:none;stroke-width:0.52916664;stroke-linecap:round;stroke-linejoin:round;stroke-miterlimit:4;stroke-dasharray:none;stroke-opacity:0.99607843"
       d="m 1.5875001,0.26458003 c -0.1465816,0 -0.2645832,0.118 -0.2645832,0.26459 V 1.32292 c 0,0.14658 0.1180016,0.26458 0.2645832,0.26458 h 0.2645832 v 0.262 A 0.26460979,0.26460979 0 0 0 1.7683673,1.866 L 1.2257649,2.04686 1.0448974,1.50426 A 0.26460979,0.26460979 0 0 0 0.78289803,1.31978 0.26460979,0.26460979 0 0 0 0.54260249,1.67118 L 0.80718593,2.46493 A 0.26460979,0.26460979 0 0 0 1.142049,2.63236 L 1.5874998,2.48405 v 0.16174 c 0,0.0108 0.00495,0.02 0.0062,0.0305 L 0.38240449,3.4840001 A 0.26460979,0.26460979 0 1 0 0.67592659,3.92428 L 2.0138292,3.0323399 2.4091541,3.82248 A 0.26460979,0.26460979 0 0 0 2.7295478,3.9552802 L 3.5232979,3.6907 A 0.26460979,0.26460979 0 1 0 3.3558677,3.18895 L 2.7796753,3.38067 2.52181,2.86442 C 2.594808,2.81742 2.6458335,2.73947 2.6458335,2.64583 V 2.38125 h 0.3658689 l 0.191203,0.38292 A 0.2646145,0.2646145 0 1 0 3.6762614,2.52749 L 3.4116781,1.99833 A 0.26460979,0.26460979 0 0 0 3.1750001,1.85208 h -0.79375 V 1.5875 h 0.2645834 c 0.1465818,0 0.2645833,-0.118 0.2645833,-0.26458 V 0.52917003 c 0,-0.14659 -0.1180015,-0.26459 -0.2645833,-0.26459 z m 0,0.52917 H 1.8520833 V 1.32292 H 1.5875001 Z"
       id="rect849" />
  </g>
</svg>
