<?xml version="1.0" encoding="UTF-8" standalone="no"?>
<!-- Created with Inkscape (http://www.inkscape.org/) -->

<svg
   xmlns:dc="http://purl.org/dc/elements/1.1/"
   xmlns:cc="http://creativecommons.org/ns#"
   xmlns:rdf="http://www.w3.org/1999/02/22-rdf-syntax-ns#"
   xmlns:svg="http://www.w3.org/2000/svg"
   xmlns="http://www.w3.org/2000/svg"
   xmlns:sodipodi="http://sodipodi.sourceforge.net/DTD/sodipodi-0.dtd"
   xmlns:inkscape="http://www.inkscape.org/namespaces/inkscape"
   width="16"
   height="12"
   viewBox="0 0 16 12"
   id="svg2"
   version="1.1"
   inkscape:version="0.92.2 (5c3e80d, 2017-08-06)"
   inkscape:export-filename="/home/djrm/Projects/godot/tools/editor/icons/icon_add_track.png"
   inkscape:export-xdpi="45"
   inkscape:export-ydpi="45"
   sodipodi:docname="icon_bool.svg">
  <defs
     id="defs4" />
  <sodipodi:namedview
     id="base"
     pagecolor="#ffffff"
     bordercolor="#666666"
     borderopacity="1.0"
     inkscape:pageopacity="0.0"
     inkscape:pageshadow="2"
     inkscape:zoom="32.000002"
     inkscape:cx="11.337889"
     inkscape:cy="4.9667964"
     inkscape:document-units="px"
     inkscape:current-layer="layer1"
     showgrid="true"
     units="px"
     inkscape:snap-bbox="true"
     inkscape:bbox-paths="true"
     inkscape:bbox-nodes="true"
     inkscape:snap-bbox-edge-midpoints="true"
     inkscape:snap-bbox-midpoints="false"
     inkscape:snap-object-midpoints="true"
     inkscape:snap-center="true"
     inkscape:window-width="1920"
     inkscape:window-height="1016"
     inkscape:window-x="0"
     inkscape:window-y="27"
     inkscape:window-maximized="1"
     inkscape:object-nodes="true"
     inkscape:snap-smooth-nodes="true"
     inkscape:document-rotation="0">
    <inkscape:grid
       type="xygrid"
       id="grid3336" />
  </sodipodi:namedview>
  <metadata
     id="metadata7">
    <rdf:RDF>
      <cc:Work
         rdf:about="">
        <dc:format>image/svg+xml</dc:format>
        <dc:type
           rdf:resource="http://purl.org/dc/dcmitype/StillImage" />
        <dc:title />
      </cc:Work>
    </rdf:RDF>
  </metadata>
  <g
     inkscape:label="Layer 1"
     inkscape:groupmode="layer"
     id="layer1">
    <path
       style="fill:#8da6f0;fill-opacity:1;stroke:none;stroke-width:2;stroke-linecap:butt;stroke-linejoin:round;stroke-miterlimit:4;stroke-dasharray:none;stroke-opacity:1"
       d="m 0,2 v 4 4 H 2 A 3,3 0 0 0 4.5,8.6542969 3,3 0 0 0 7,10 3,3 0 0 0 9,9.2324219 3,3 0 0 0 11,10 3,3 0 0 0 13.5,8.6542969 3,3 0 0 0 16,10 V 8 A 1.0000174,1.0000174 0 0 1 15,7 V 2 H 13 V 4.7695312 A 3,3 0 0 0 11,4 3,3 0 0 0 9,4.7675781 3,3 0 0 0 7,4 3,3 0 0 0 4.5,5.3457031 3,3 0 0 0 2,4 V 2 Z M 2,6 A 1.0000174,1.0000174 0 0 1 3,7 1.0000174,1.0000174 0 0 1 2,8 Z M 7,6 A 1.0000174,1.0000174 0 0 1 8,7 1.0000174,1.0000174 0 0 1 7,8 1.0000174,1.0000174 0 0 1 6,7 1.0000174,1.0000174 0 0 1 7,6 Z m 4,0 a 1.0000174,1.0000174 0 0 1 1,1 1.0000174,1.0000174 0 0 1 -1,1 1.0000174,1.0000174 0 0 1 -1,-1 1.0000174,1.0000174 0 0 1 1,-1 z"
       id="rect4364"
       inkscape:connector-curvature="0" />
  </g>
</svg>
