<?xml version="1.0" encoding="UTF-8" standalone="no"?>
<!-- Created with Inkscape (http://www.inkscape.org/) -->

<svg
   xmlns:dc="http://purl.org/dc/elements/1.1/"
   xmlns:cc="http://creativecommons.org/ns#"
   xmlns:rdf="http://www.w3.org/1999/02/22-rdf-syntax-ns#"
   xmlns:svg="http://www.w3.org/2000/svg"
   xmlns="http://www.w3.org/2000/svg"
   xmlns:sodipodi="http://sodipodi.sourceforge.net/DTD/sodipodi-0.dtd"
   xmlns:inkscape="http://www.inkscape.org/namespaces/inkscape"
   width="64"
   height="64"
   viewBox="0 0 64 64"
   id="svg2"
   version="1.1"
   inkscape:version="0.92+devel unknown"
   inkscape:export-filename="/home/djrm/Projects/godot/tools/editor/icons/icon_new.png"
   inkscape:export-xdpi="90"
   inkscape:export-ydpi="90"
   sodipodi:docname="icon_file_big_dead.svg">
  <defs
     id="defs4" />
  <sodipodi:namedview
     id="base"
     pagecolor="#3c3c3c"
     bordercolor="#666666"
     borderopacity="1.0"
     inkscape:pageopacity="0"
     inkscape:pageshadow="2"
     inkscape:zoom="8"
     inkscape:cx="10.835852"
     inkscape:cy="34.392688"
     inkscape:document-units="px"
     inkscape:current-layer="layer1-8"
     showgrid="true"
     units="px"
     inkscape:snap-bbox="true"
     inkscape:bbox-paths="true"
     inkscape:bbox-nodes="true"
     inkscape:snap-bbox-edge-midpoints="true"
     inkscape:snap-bbox-midpoints="false"
     inkscape:snap-object-midpoints="true"
     inkscape:snap-center="true"
     inkscape:window-width="1920"
     inkscape:window-height="1016"
     inkscape:window-x="0"
     inkscape:window-y="27"
     inkscape:window-maximized="1"
     inkscape:object-paths="true"
     inkscape:snap-intersection-paths="true"
     inkscape:object-nodes="true"
     inkscape:snap-midpoints="true"
     inkscape:snap-smooth-nodes="true"
     inkscape:document-rotation="0"
     inkscape:pagecheckerboard="false">
    <inkscape:grid
       type="xygrid"
       id="grid3336" />
  </sodipodi:namedview>
  <metadata
     id="metadata7">
    <rdf:RDF>
      <cc:Work
         rdf:about="">
        <dc:format>image/svg+xml</dc:format>
        <dc:type
           rdf:resource="http://purl.org/dc/dcmitype/StillImage" />
        <dc:title></dc:title>
      </cc:Work>
    </rdf:RDF>
  </metadata>
  <g
     inkscape:label="Layer 1"
     inkscape:groupmode="layer"
     id="layer1"
     transform="translate(0,-988.3622)">
    <g
       id="layer1-8"
       inkscape:label="Layer 1"
       transform="translate(0,-1.6949463e-5)">
      <path
         style="color:#000000;font-style:normal;font-variant:normal;font-weight:normal;font-stretch:normal;font-size:medium;line-height:normal;font-family:sans-serif;font-variant-ligatures:normal;font-variant-position:normal;font-variant-caps:normal;font-variant-numeric:normal;font-variant-alternates:normal;font-feature-settings:normal;text-indent:0;text-align:start;text-decoration:none;text-decoration-line:none;text-decoration-style:solid;text-decoration-color:#000000;letter-spacing:normal;word-spacing:normal;text-transform:none;writing-mode:lr-tb;direction:ltr;text-orientation:mixed;dominant-baseline:auto;baseline-shift:baseline;text-anchor:start;white-space:normal;shape-padding:0;clip-rule:nonzero;display:inline;overflow:visible;visibility:visible;opacity:1;isolation:auto;mix-blend-mode:normal;color-interpolation:sRGB;color-interpolation-filters:linearRGB;solid-color:#000000;solid-opacity:1;vector-effect:none;fill:#ff8484;fill-opacity:1;fill-rule:nonzero;stroke:none;stroke-width:2;stroke-linecap:round;stroke-linejoin:round;stroke-miterlimit:4;stroke-dasharray:none;stroke-dashoffset:0;stroke-opacity:1;color-rendering:auto;image-rendering:auto;shape-rendering:auto;text-rendering:auto;enable-background:accumulate"
         d="m 14,993.36222 c -2.198688,0 -4,1.80131 -4,4 v 45.99998 c 0,2.1987 1.801312,4 4,4 h 36 c 2.19869,0 4,-1.8013 4,-4 v -33 h -0.0078 c 0.002,-0.2483 -0.0793,-0.501 -0.285157,-0.707 l -16,-16.00001 C 37.519164,993.46826 37.264574,993.3658 37,993.36612 v -0.004 z m 0,2 h 22 v 2 9.99998 c 0,2.1987 1.801349,4 4,4 h 10 2 v 32 c 0,1.1253 -0.87472,2 -2,2 H 14 c -1.125282,0 -2,-0.8747 -2,-2 v -45.99998 c 0,-1.12528 0.874718,-2 2,-2 z m 2.951172,22.00198 a 1,1 0 0 0 -0.609375,0.2461 1,1 0 0 0 -0.09375,1.4121 l 2.923828,3.3398 -2.923828,3.3418 a 1,1 0 0 0 0.09375,1.4121 1,1 0 0 0 1.410156,-0.094 l 2.748047,-3.1407 2.748047,3.1407 a 1,1 0 0 0 1.410156,0.094 1,1 0 0 0 0.09375,-1.4121 l -2.923828,-3.3418 2.923828,-3.3398 a 1,1 0 0 0 -0.09375,-1.4121 1,1 0 0 0 -0.638672,-0.2461 1,1 0 0 0 -0.771484,0.3398 L 20.5,1020.8446 17.751953,1017.704 a 1,1 0 0 0 -0.800781,-0.3398 z m 23,0 a 1,1 0 0 0 -0.609375,0.2461 1,1 0 0 0 -0.09375,1.4121 l 2.923828,3.3398 -2.923828,3.3418 a 1,1 0 0 0 0.09375,1.4121 1,1 0 0 0 1.410156,-0.094 l 2.748047,-3.1407 2.748047,3.1407 a 1,1 0 0 0 1.410156,0.094 1,1 0 0 0 0.09375,-1.4121 l -2.923828,-3.3418 2.923828,-3.3398 a 1,1 0 0 0 -0.09375,-1.4121 1,1 0 0 0 -0.638672,-0.2461 1,1 0 0 0 -0.771484,0.3398 L 43.5,1020.8446 40.751953,1017.704 a 1,1 0 0 0 -0.800781,-0.3398 z M 21,1031.3622 a 1,1 0 0 0 -1,1 1,1 0 0 0 1,1 h 3 v 3 c 0,2.7527 2.247297,5 5,5 2.752703,0 5,-2.2473 5,-5 v -3 h 9 a 1,1 0 0 0 1,-1 1,1 0 0 0 -1,-1 z m 5,2 h 6 v 3 c 0,1.6793 -1.320703,3 -3,3 -1.679297,0 -3,-1.3207 -3,-3 z"
         id="rect815"
         inkscape:connector-curvature="0" />
    </g>
  </g>
</svg>
