<?xml version="1.0" encoding="UTF-8" standalone="no"?>
<!-- Created with Inkscape (http://www.inkscape.org/) -->

<svg
   xmlns:dc="http://purl.org/dc/elements/1.1/"
   xmlns:cc="http://creativecommons.org/ns#"
   xmlns:rdf="http://www.w3.org/1999/02/22-rdf-syntax-ns#"
   xmlns:svg="http://www.w3.org/2000/svg"
   xmlns="http://www.w3.org/2000/svg"
   xmlns:sodipodi="http://sodipodi.sourceforge.net/DTD/sodipodi-0.dtd"
   xmlns:inkscape="http://www.inkscape.org/namespaces/inkscape"
   width="16"
   height="16"
   viewBox="0 0 16 16"
   id="svg2"
   version="1.1"
   inkscape:version="0.92.2 (5c3e80d, 2017-08-06)"
   inkscape:export-filename="/home/djrm/Projects/godot/tools/editor/icons/icon_sprite.png"
   inkscape:export-xdpi="45"
   inkscape:export-ydpi="45"
   sodipodi:docname="icon_sprite_3d.svg">
  <defs
     id="defs4" />
  <sodipodi:namedview
     id="base"
     pagecolor="#ffffff"
     bordercolor="#666666"
     borderopacity="1.0"
     inkscape:pageopacity="0.0"
     inkscape:pageshadow="2"
     inkscape:zoom="32"
     inkscape:cx="3.6496388"
     inkscape:cy="10.757003"
     inkscape:document-units="px"
     inkscape:current-layer="layer1"
     showgrid="true"
     units="px"
     inkscape:snap-bbox="true"
     inkscape:bbox-paths="true"
     inkscape:bbox-nodes="true"
     inkscape:snap-bbox-edge-midpoints="true"
     inkscape:snap-bbox-midpoints="true"
     inkscape:snap-object-midpoints="true"
     inkscape:snap-center="true"
     inkscape:window-width="1920"
     inkscape:window-height="1016"
     inkscape:window-x="0"
     inkscape:window-y="27"
     inkscape:window-maximized="1"
     inkscape:document-rotation="0">
    <inkscape:grid
       type="xygrid"
       id="grid3336" />
  </sodipodi:namedview>
  <metadata
     id="metadata7">
    <rdf:RDF>
      <cc:Work
         rdf:about="">
        <dc:format>image/svg+xml</dc:format>
        <dc:type
           rdf:resource="http://purl.org/dc/dcmitype/StillImage" />
        <dc:title />
      </cc:Work>
    </rdf:RDF>
  </metadata>
  <g
     inkscape:label="Layer 1"
     inkscape:groupmode="layer"
     id="layer1">
    <g
       id="layer1-5"
       inkscape:label="Layer 1"
       style="fill:#fc9c9c;fill-opacity:1">
      <path
         id="rect814"
         d="M 5,1 C 2.784,1 1,2.784 1,5 v 6 c 0,2.216 1.784,4 4,4 h 6 c 2.216,0 4,-1.784 4,-4 V 5 C 15,2.784 13.216,1 11,1 Z M 4,6 C 4.554,6 5,6.446 5,7 V 9 C 5,9.554 4.554,10 4,10 3.446,10 3,9.554 3,9 V 7 C 3,6.446 3.446,6 4,6 Z m 8,0 c 0.554,0 1,0.446 1,1 v 2 c 0,0.554 -0.446,1 -1,1 -0.554,0 -1,-0.446 -1,-1 V 7 c 0,-0.554 0.446,-1 1,-1 z m -1.888672,5.107422 a 1.0001,1.0001 0 0 1 0.716797,1.720703 C 10.078251,13.577999 9.0604818,14 8,14 6.9395182,14 5.9217489,13.577999 5.171875,12.828125 a 1.0001,1.0001 0 0 1 0.6972656,-1.716797 1.0001,1.0001 0 0 1 0.7167969,0.302734 C 6.9612819,11.789409 7.4691828,12 8,12 8.5308172,12 9.0387181,11.789409 9.4140625,11.414062 a 1.0001,1.0001 0 0 1 0.6972655,-0.30664 z"
         style="fill:#fc9c9c;fill-opacity:1;stroke:none;stroke-width:2;stroke-linecap:round;stroke-linejoin:round;stroke-miterlimit:4;stroke-dasharray:none;stroke-opacity:1"
         inkscape:connector-curvature="0" />
    </g>
  </g>
</svg>
