<?xml version="1.0" encoding="UTF-8" standalone="no"?>
<!-- Created with Inkscape (http://www.inkscape.org/) -->

<svg
   xmlns:dc="http://purl.org/dc/elements/1.1/"
   xmlns:cc="http://creativecommons.org/ns#"
   xmlns:rdf="http://www.w3.org/1999/02/22-rdf-syntax-ns#"
   xmlns:svg="http://www.w3.org/2000/svg"
   xmlns="http://www.w3.org/2000/svg"
   xmlns:sodipodi="http://sodipodi.sourceforge.net/DTD/sodipodi-0.dtd"
   xmlns:inkscape="http://www.inkscape.org/namespaces/inkscape"
   width="16"
   height="12"
   viewBox="0 0 16 12"
   id="svg2"
   version="1.1"
   inkscape:version="0.92+devel unknown"
   inkscape:export-filename="/home/djrm/Projects/godot/tools/editor/icons/icon_add_track.png"
   inkscape:export-xdpi="45"
   inkscape:export-ydpi="45"
   sodipodi:docname="icon_mini_aabb.svg">
  <defs
     id="defs4" />
  <sodipodi:namedview
     id="base"
     pagecolor="#ffffff"
     bordercolor="#666666"
     borderopacity="1.0"
     inkscape:pageopacity="0.0"
     inkscape:pageshadow="2"
     inkscape:zoom="32"
     inkscape:cx="9.1703376"
     inkscape:cy="6.8438057"
     inkscape:document-units="px"
     inkscape:current-layer="layer1"
     showgrid="true"
     units="px"
     inkscape:snap-bbox="true"
     inkscape:bbox-paths="true"
     inkscape:bbox-nodes="true"
     inkscape:snap-bbox-edge-midpoints="true"
     inkscape:snap-bbox-midpoints="false"
     inkscape:snap-object-midpoints="true"
     inkscape:snap-center="true"
     inkscape:window-width="1920"
     inkscape:window-height="1016"
     inkscape:window-x="0"
     inkscape:window-y="27"
     inkscape:window-maximized="1"
     inkscape:object-nodes="false"
     inkscape:snap-smooth-nodes="false"
     inkscape:document-rotation="0">
    <inkscape:grid
       type="xygrid"
       id="grid3336" />
  </sodipodi:namedview>
  <metadata
     id="metadata7">
    <rdf:RDF>
      <cc:Work
         rdf:about="">
        <dc:format>image/svg+xml</dc:format>
        <dc:type
           rdf:resource="http://purl.org/dc/dcmitype/StillImage" />
        <dc:title />
      </cc:Work>
    </rdf:RDF>
  </metadata>
  <g
     inkscape:label="Layer 1"
     inkscape:groupmode="layer"
     id="layer1"
     transform="translate(0,-1040.3622)">
    <path
       style="fill:#ee7991;fill-opacity:1;stroke:none;stroke-width:2;stroke-linecap:butt;stroke-linejoin:round;stroke-miterlimit:4;stroke-dasharray:none;stroke-opacity:1"
       d="M 5 1 A 3 3 0 0 0 2 4 A 3 3 0 0 0 2.7773438 6.0117188 A 3 3 0 0 0 0 9 A 3 3 0 0 0 3 12 L 5 12 L 5 7 L 7 7 L 7 1 L 5 1 z M 11 1 L 11 6.1738281 A 3 3 0 0 0 10 6 L 10 4 L 8 4 L 8 12 L 10 12 A 3 3 0 0 0 13 9 A 3 3 0 0 0 16 6 A 3 3 0 0 0 13 3 L 13 1 L 11 1 z M 5 3 L 5 5 A 1.0000174 1.0000174 0 0 1 4 4 A 1.0000174 1.0000174 0 0 1 5 3 z M 13 5 A 1.0000174 1.0000174 0 0 1 14 6 A 1.0000174 1.0000174 0 0 1 13 7 L 13 5 z M 3 8 L 3 10 A 1.0000174 1.0000174 0 0 1 2 9 A 1.0000174 1.0000174 0 0 1 3 8 z M 10 8 A 1.0000174 1.0000174 0 0 1 11 9 A 1.0000174 1.0000174 0 0 1 10 10 L 10 8 z "
       id="path4893"
       transform="translate(0,1040.3622)" />
    <path
       style="fill:#ffffff;fill-opacity:0.23529412;stroke:none;stroke-width:2;stroke-linecap:butt;stroke-linejoin:round;stroke-miterlimit:4;stroke-dasharray:none;stroke-opacity:1"
       d="M 8 4 L 8 12 L 10 12 A 3 3 0 0 0 13 9 A 3 3 0 0 0 10 6 L 10 4 L 8 4 z M 3 6 A 3 3 0 0 0 0 9 A 3 3 0 0 0 3 12 L 5 12 L 5 6 L 3 6 z M 3 8 L 3 10 A 1.0000174 1.0000174 0 0 1 2 9 A 1.0000174 1.0000174 0 0 1 3 8 z M 10 8 A 1.0000174 1.0000174 0 0 1 11 9 A 1.0000174 1.0000174 0 0 1 10 10 L 10 8 z "
       transform="translate(0,1040.3622)"
       id="path4234" />
  </g>
</svg>
