<?xml version="1.0" encoding="UTF-8" standalone="no"?>
<!-- Created with Inkscape (http://www.inkscape.org/) -->

<svg
   xmlns:dc="http://purl.org/dc/elements/1.1/"
   xmlns:cc="http://creativecommons.org/ns#"
   xmlns:rdf="http://www.w3.org/1999/02/22-rdf-syntax-ns#"
   xmlns:svg="http://www.w3.org/2000/svg"
   xmlns="http://www.w3.org/2000/svg"
   xmlns:sodipodi="http://sodipodi.sourceforge.net/DTD/sodipodi-0.dtd"
   xmlns:inkscape="http://www.inkscape.org/namespaces/inkscape"
   width="16"
   height="16"
   viewBox="0 0 16 16"
   id="svg2"
   version="1.1"
   inkscape:version="0.92+devel unknown"
   inkscape:export-filename="/home/djrm/Projects/godot/tools/editor/icons/icon_add_track.png"
   inkscape:export-xdpi="45"
   inkscape:export-ydpi="45"
   sodipodi:docname="icon_sprite_frames.svg">
  <defs
     id="defs4" />
  <sodipodi:namedview
     id="base"
     pagecolor="#ffffff"
     bordercolor="#666666"
     borderopacity="1.0"
     inkscape:pageopacity="0.0"
     inkscape:pageshadow="2"
     inkscape:zoom="32.000001"
     inkscape:cx="11.466894"
     inkscape:cy="7.1113051"
     inkscape:document-units="px"
     inkscape:current-layer="layer1"
     showgrid="true"
     units="px"
     inkscape:snap-bbox="true"
     inkscape:bbox-paths="true"
     inkscape:bbox-nodes="true"
     inkscape:snap-bbox-edge-midpoints="true"
     inkscape:snap-bbox-midpoints="false"
     inkscape:snap-object-midpoints="true"
     inkscape:snap-center="true"
     inkscape:window-width="1920"
     inkscape:window-height="1016"
     inkscape:window-x="0"
     inkscape:window-y="27"
     inkscape:window-maximized="1"
     inkscape:document-rotation="0">
    <inkscape:grid
       type="xygrid"
       id="grid3336" />
  </sodipodi:namedview>
  <metadata
     id="metadata7">
    <rdf:RDF>
      <cc:Work
         rdf:about="">
        <dc:format>image/svg+xml</dc:format>
        <dc:type
           rdf:resource="http://purl.org/dc/dcmitype/StillImage" />
        <dc:title />
      </cc:Work>
    </rdf:RDF>
  </metadata>
  <g
     inkscape:label="Layer 1"
     inkscape:groupmode="layer"
     id="layer1"
     transform="translate(0,-1036.3622)">
    <path
       style="opacity:1;fill:#e0e0e0;fill-opacity:1;stroke:none;stroke-width:2;stroke-linecap:round;stroke-linejoin:round;stroke-miterlimit:4;stroke-dasharray:none;stroke-opacity:1"
       d="M 6 1 A 5 5 0 0 0 1 6 A 5 5 0 0 0 6 11 A 5 5 0 0 0 11 6 A 5 5 0 0 0 6 1 z M 3 5 A 1 1 0 0 1 4 6 A 1 1 0 0 1 3 7 A 1 1 0 0 1 2 6 A 1 1 0 0 1 3 5 z M 9 5 A 1 1 0 0 1 10 6 A 1 1 0 0 1 9 7 A 1 1 0 0 1 8 6 A 1 1 0 0 1 9 5 z M 13 7 L 13 9 L 15 9 L 15 7 L 13 7 z M 7.9960938 7.4921875 A 0.50005 0.50005 0 0 1 8.3535156 8.3535156 C 7.7356645 8.9714156 6.8611111 9.25 6 9.25 C 5.1388889 9.25 4.2643355 8.9714156 3.6464844 8.3535156 A 0.50005 0.50005 0 0 1 3.9941406 7.4960938 A 0.50005 0.50005 0 0 1 4.3535156 7.6464844 C 4.7356645 8.0286844 5.3611111 8.25 6 8.25 C 6.6388889 8.25 7.2643355 8.0286844 7.6464844 7.6464844 A 0.50005 0.50005 0 0 1 7.9960938 7.4921875 z M 10 10 L 10 12 L 12 12 L 12 10 L 10 10 z M 13 10 L 13 12 L 15 12 L 15 10 L 13 10 z M 7 13 L 7 15 L 9 15 L 9 13 L 7 13 z M 10 13 L 10 15 L 12 15 L 12 13 L 10 13 z M 13 13 L 13 15 L 15 15 L 15 13 L 13 13 z "
       transform="translate(0,1036.3622)"
       id="rect4230" />
  </g>
</svg>
