<?xml version="1.0" encoding="UTF-8" standalone="no"?>
<!-- Created with Inkscape (http://www.inkscape.org/) -->

<svg
   xmlns:dc="http://purl.org/dc/elements/1.1/"
   xmlns:cc="http://creativecommons.org/ns#"
   xmlns:rdf="http://www.w3.org/1999/02/22-rdf-syntax-ns#"
   xmlns:svg="http://www.w3.org/2000/svg"
   xmlns="http://www.w3.org/2000/svg"
   xmlns:sodipodi="http://sodipodi.sourceforge.net/DTD/sodipodi-0.dtd"
   xmlns:inkscape="http://www.inkscape.org/namespaces/inkscape"
   width="16"
   height="16"
   viewBox="0 0 16 16"
   id="svg2"
   version="1.1"
   inkscape:version="0.92.2 (5c3e80d, 2017-08-06)"
   inkscape:export-filename="/home/djrm/Projects/godot/tools/editor/icons/icon_camera.png"
   inkscape:export-xdpi="90"
   inkscape:export-ydpi="90"
   sodipodi:docname="icon_a_r_v_r_origin.svg">
  <defs
     id="defs4" />
  <sodipodi:namedview
     id="base"
     pagecolor="#ffffff"
     bordercolor="#666666"
     borderopacity="1.0"
     inkscape:pageopacity="0.0"
     inkscape:pageshadow="2"
     inkscape:zoom="32"
     inkscape:cx="8.158193"
     inkscape:cy="8.1311197"
     inkscape:document-units="px"
     inkscape:current-layer="layer1"
     showgrid="true"
     units="px"
     inkscape:snap-bbox="true"
     inkscape:bbox-paths="true"
     inkscape:bbox-nodes="true"
     inkscape:snap-bbox-edge-midpoints="true"
     inkscape:snap-bbox-midpoints="true"
     inkscape:snap-object-midpoints="true"
     inkscape:snap-center="true"
     inkscape:window-width="1920"
     inkscape:window-height="1016"
     inkscape:window-x="0"
     inkscape:window-y="27"
     inkscape:window-maximized="1"
     showguides="true"
     inkscape:document-rotation="0">
    <inkscape:grid
       type="xygrid"
       id="grid3336"
       empspacing="4" />
  </sodipodi:namedview>
  <metadata
     id="metadata7">
    <rdf:RDF>
      <cc:Work
         rdf:about="">
        <dc:format>image/svg+xml</dc:format>
        <dc:type
           rdf:resource="http://purl.org/dc/dcmitype/StillImage" />
        <dc:title />
      </cc:Work>
    </rdf:RDF>
  </metadata>
  <g
     inkscape:label="Layer 1"
     inkscape:groupmode="layer"
     id="layer1">
    <path
       style="opacity:1;fill:#fc9c9c;fill-opacity:1;stroke:none;stroke-width:4;stroke-linecap:round;stroke-linejoin:round;stroke-miterlimit:4;stroke-dasharray:none;stroke-dashoffset:0;stroke-opacity:1"
       d="M 7 1 L 7 4 L 9 4 L 9 1 L 7 1 z M 3 5 L 3 7 L 6 7 L 6 5 L 3 5 z M 8 5 C 7.4477153 5 7 5.4477153 7 6 C 7 6.5522847 7.4477153 7 8 7 C 8.5522847 7 9 6.5522847 9 6 C 9 5.4477153 8.5522847 5 8 5 z M 10 5 L 10 7 L 13 7 L 13 5 L 10 5 z M 7 8 L 7 11 L 9 11 L 9 8 L 7 8 z M 4 12 L 4 13 C 4 13.552285 4.447715 14 5 14 C 4.447715 14 4 14.447715 4 15 L 4 16 L 5 16 L 5 15 L 6 15 L 6 16 L 7 16 L 7 15 C 7 14.447715 6.552285 14 6 14 C 6.552285 14 7 13.552285 7 13 L 7 12 L 6 12 L 6 13 L 5 13 L 5 12 L 4 12 z M 9 12 L 9 13 L 9 16 L 10 16 L 10 15 L 11 15 L 11 16 L 12 16 L 12 15 C 11.999166 14.824214 11.952009 14.651753 11.863281 14.5 C 11.952009 14.348247 11.999166 14.175786 12 14 L 12 13 C 12 12.447715 11.552285 12 11 12 L 10 12 L 9 12 z M 10 13 L 11 13 L 11 14 L 10 14 L 10 13 z "
       id="rect4141" />
  </g>
</svg>
