<?xml version="1.0" standalone="no"?><!-- Generator: Gravit.io --><svg xmlns="http://www.w3.org/2000/svg" xmlns:xlink="http://www.w3.org/1999/xlink" style="isolation:isolate" viewBox="0 0 16 16" width="16" height="16"><path d=" M 7.984 1.002 C 7.725 1.006 7.477 1.11 7.293 1.293 L 5.293 3.293 L 6.707 4.707 L 8 3.414 L 9.293 4.707 L 10.707 3.293 L 8.707 1.293 C 8.516 1.102 8.255 0.997 7.985 1.002 L 7.984 1.002 Z  M 3.293 5.293 L 1.293 7.293 C 0.903 7.684 0.903 8.317 1.293 8.707 L 3.293 10.707 L 4.707 9.293 L 3.414 8 L 4.707 6.707 L 3.293 5.293 L 3.293 5.293 Z  M 12.707 5.293 L 11.293 6.707 L 12.586 8 L 11.293 9.293 L 12.707 10.707 L 14.707 8.707 C 15.097 8.317 15.097 7.684 14.707 7.293 L 12.707 5.293 L 12.707 5.293 Z  M 6.707 11.293 L 5.293 12.707 L 7.293 14.707 C 7.684 15.098 8.317 15.098 8.707 14.707 L 10.707 12.707 L 9.293 11.293 L 8 12.586 L 6.707 11.293 L 6.707 11.293 Z " fill-rule="evenodd" fill="rgb(224,224,224)" fill-opacity="0.99608"/><path d="M 5.168 7.595 L 7.595 5.168 C 7.819 4.944 8.181 4.944 8.405 5.168 L 10.832 7.595 C 11.056 7.819 11.056 8.181 10.832 8.405 L 8.405 10.832 C 8.181 11.056 7.819 11.056 7.595 10.832 L 5.168 8.405 C 4.944 8.181 4.944 7.819 5.168 7.595 Z" style="stroke:none;fill:#84C2FF;stroke-miterlimit:10;"/></svg>