<?xml version="1.0" encoding="UTF-8" standalone="no"?>
<!-- Created with Inkscape (http://www.inkscape.org/) -->

<svg
   xmlns:dc="http://purl.org/dc/elements/1.1/"
   xmlns:cc="http://creativecommons.org/ns#"
   xmlns:rdf="http://www.w3.org/1999/02/22-rdf-syntax-ns#"
   xmlns:svg="http://www.w3.org/2000/svg"
   xmlns="http://www.w3.org/2000/svg"
   xmlns:sodipodi="http://sodipodi.sourceforge.net/DTD/sodipodi-0.dtd"
   xmlns:inkscape="http://www.inkscape.org/namespaces/inkscape"
   width="128"
   height="128"
   viewBox="0 0 128 128"
   id="svg2"
   version="1.1"
   inkscape:version="0.92+devel unknown"
   inkscape:export-filename="/home/djrm/Projects/godot/tools/editor/icons/icon_dependency_changed_hl.png"
   inkscape:export-xdpi="45"
   inkscape:export-ydpi="45"
   sodipodi:docname="icon_gizmo_spatial_sample_player.svg">
  <defs
     id="defs4" />
  <sodipodi:namedview
     id="base"
     pagecolor="#ffffff"
     bordercolor="#666666"
     borderopacity="1.0"
     inkscape:pageopacity="0.0"
     inkscape:pageshadow="2"
     inkscape:zoom="5.6568542"
     inkscape:cx="72.527924"
     inkscape:cy="72.219266"
     inkscape:document-units="px"
     inkscape:current-layer="layer1"
     showgrid="true"
     units="px"
     inkscape:snap-bbox="true"
     inkscape:bbox-paths="true"
     inkscape:bbox-nodes="true"
     inkscape:snap-bbox-edge-midpoints="true"
     inkscape:snap-bbox-midpoints="false"
     inkscape:snap-object-midpoints="true"
     inkscape:snap-center="true"
     inkscape:window-width="1920"
     inkscape:window-height="1016"
     inkscape:window-x="0"
     inkscape:window-y="27"
     inkscape:window-maximized="1"
     inkscape:snap-smooth-nodes="true"
     inkscape:object-nodes="true"
     inkscape:snap-intersection-paths="true"
     inkscape:document-rotation="0">
    <inkscape:grid
       type="xygrid"
       id="grid3336"
       empspacing="4" />
  </sodipodi:namedview>
  <metadata
     id="metadata7">
    <rdf:RDF>
      <cc:Work
         rdf:about="">
        <dc:format>image/svg+xml</dc:format>
        <dc:type
           rdf:resource="http://purl.org/dc/dcmitype/StillImage" />
        <dc:title />
      </cc:Work>
    </rdf:RDF>
  </metadata>
  <g
     inkscape:label="Layer 1"
     inkscape:groupmode="layer"
     id="layer1"
     transform="translate(0,-924.3622)">
    <path
       sodipodi:nodetypes="ccccccccccccccccccssssssssssssss"
       inkscape:connector-curvature="0"
       id="path4274"
       d="m 63.765625,932.36806 c -2.036936,0.0594 -3.977924,0.89602 -5.419922,2.33594 l -0.002,0.002 L 28.6875,964.36415 H 16 c -4.370524,4.4e-4 -7.9995628,3.62948 -8,8 v 32.00005 c 4.372e-4,4.3705 3.629476,7.9995 8,8 h 12.6875 l 29.65625,29.6562 v 0 c 2.399959,2.3983 5.979505,2.8662 8.716797,1.7324 2.737291,-1.1337 4.938126,-3.9958 4.939453,-7.3886 v -0 -96.002 -0.002 c -0.003,-4.45547 -3.778981,-8.12113 -8.232422,-7.99219 z M 112,936.3622 c -4.3709,0 -8,3.6291 -8,8 v 88 c 0,4.3709 3.6291,8 8,8 4.3709,0 8,-3.6291 8,-8 v -88 c 0,-4.3709 -3.6291,-8 -8,-8 z m -24,24 c -4.370899,0 -8,3.6291 -8,8 v 40 c 0,4.3709 3.629101,8 8,8 4.370899,0 8,-3.6291 8,-8 v -40 c 0,-4.3709 -3.629101,-8 -8,-8 z"
       style="color:#000000;font-style:normal;font-variant:normal;font-weight:normal;font-stretch:normal;font-size:medium;line-height:normal;font-family:sans-serif;font-variant-ligatures:normal;font-variant-position:normal;font-variant-caps:normal;font-variant-numeric:normal;font-variant-alternates:normal;font-variant-east-asian:normal;font-feature-settings:normal;text-indent:0;text-align:start;text-decoration:none;text-decoration-line:none;text-decoration-style:solid;text-decoration-color:#000000;letter-spacing:normal;word-spacing:normal;text-transform:none;writing-mode:lr-tb;direction:ltr;text-orientation:mixed;dominant-baseline:auto;baseline-shift:baseline;text-anchor:start;white-space:normal;shape-padding:0;clip-rule:nonzero;display:inline;overflow:visible;visibility:visible;isolation:auto;mix-blend-mode:normal;color-interpolation:sRGB;color-interpolation-filters:linearRGB;solid-color:#000000;solid-opacity:1;vector-effect:none;fill:#000000;fill-opacity:0.29411765;fill-rule:evenodd;stroke:none;stroke-width:8;stroke-linecap:butt;stroke-linejoin:round;stroke-miterlimit:4;stroke-dasharray:none;stroke-dashoffset:0;stroke-opacity:1;color-rendering:auto;image-rendering:auto;shape-rendering:auto;text-rendering:auto;enable-background:accumulate" />
    <path
       style="color:#000000;font-style:normal;font-variant:normal;font-weight:normal;font-stretch:normal;font-size:medium;line-height:normal;font-family:sans-serif;font-variant-ligatures:normal;font-variant-position:normal;font-variant-caps:normal;font-variant-numeric:normal;font-variant-alternates:normal;font-variant-east-asian:normal;font-feature-settings:normal;text-indent:0;text-align:start;text-decoration:none;text-decoration-line:none;text-decoration-style:solid;text-decoration-color:#000000;letter-spacing:normal;word-spacing:normal;text-transform:none;writing-mode:lr-tb;direction:ltr;text-orientation:mixed;dominant-baseline:auto;baseline-shift:baseline;text-anchor:start;white-space:normal;shape-padding:0;clip-rule:nonzero;display:inline;overflow:visible;visibility:visible;isolation:auto;mix-blend-mode:normal;color-interpolation:sRGB;color-interpolation-filters:linearRGB;solid-color:#000000;solid-opacity:1;vector-effect:none;fill:#f7f5cf;fill-opacity:1;fill-rule:evenodd;stroke:none;stroke-width:8;stroke-linecap:butt;stroke-linejoin:round;stroke-miterlimit:4;stroke-dasharray:none;stroke-dashoffset:0;stroke-opacity:1;color-rendering:auto;image-rendering:auto;shape-rendering:auto;text-rendering:auto;enable-background:accumulate"
       d="M 63.882812 12.003906 C 62.863318 12.033406 61.89359 12.451204 61.171875 13.171875 L 30.34375 44.001953 L 16 44.001953 C 13.790952 44.002174 12.000221 45.792905 12 48.001953 L 12 80.001953 C 12.000221 82.211001 13.790952 84.001732 16 84.001953 L 30.34375 84.001953 L 61.171875 114.83008 C 63.691855 117.34831 67.998607 115.5645 68 112.00195 L 68 16 C 67.9985 13.745908 66.135944 11.938099 63.882812 12.003906 z M 112 16 A 4 4 0 0 0 108 20 L 108 108 A 4 4 0 0 0 112 112 A 4 4 0 0 0 116 108 L 116 20 A 4 4 0 0 0 112 16 z M 88 40 A 4 4 0 0 0 84 44 L 84 84 A 4 4 0 0 0 88 88 A 4 4 0 0 0 92 84 L 92 44 A 4 4 0 0 0 88 40 z "
       transform="translate(0,924.3622)"
       id="path4277" />
  </g>
</svg>
