<?xml version="1.0" encoding="UTF-8" standalone="no"?>
<!-- Created with Inkscape (http://www.inkscape.org/) -->

<svg
   xmlns:dc="http://purl.org/dc/elements/1.1/"
   xmlns:cc="http://creativecommons.org/ns#"
   xmlns:rdf="http://www.w3.org/1999/02/22-rdf-syntax-ns#"
   xmlns:svg="http://www.w3.org/2000/svg"
   xmlns="http://www.w3.org/2000/svg"
   xmlns:sodipodi="http://sodipodi.sourceforge.net/DTD/sodipodi-0.dtd"
   xmlns:inkscape="http://www.inkscape.org/namespaces/inkscape"
   width="16"
   height="16"
   viewBox="0 0 16 16"
   id="svg2"
   version="1.1"
   inkscape:version="0.92+devel unknown"
   inkscape:export-filename="/home/djrm/Projects/godot/tools/editor/icons/icon_node_2d.png"
   inkscape:export-xdpi="90"
   inkscape:export-ydpi="90"
   sodipodi:docname="icon_directional_light.svg">
  <defs
     id="defs4" />
  <sodipodi:namedview
     id="base"
     pagecolor="#ffffff"
     bordercolor="#666666"
     borderopacity="1.0"
     inkscape:pageopacity="0.0"
     inkscape:pageshadow="2"
     inkscape:zoom="31.999999"
     inkscape:cx="8.4709532"
     inkscape:cy="7.6303111"
     inkscape:document-units="px"
     inkscape:current-layer="layer1"
     showgrid="true"
     units="px"
     inkscape:snap-bbox="true"
     inkscape:bbox-paths="true"
     inkscape:bbox-nodes="true"
     inkscape:snap-bbox-edge-midpoints="true"
     inkscape:snap-bbox-midpoints="true"
     inkscape:snap-object-midpoints="true"
     inkscape:snap-center="true"
     inkscape:window-width="1920"
     inkscape:window-height="1016"
     inkscape:window-x="0"
     inkscape:window-y="27"
     inkscape:window-maximized="1"
     inkscape:document-rotation="0">
    <inkscape:grid
       type="xygrid"
       id="grid3336"
       empspacing="4" />
  </sodipodi:namedview>
  <metadata
     id="metadata7">
    <rdf:RDF>
      <cc:Work
         rdf:about="">
        <dc:format>image/svg+xml</dc:format>
        <dc:type
           rdf:resource="http://purl.org/dc/dcmitype/StillImage" />
        <dc:title />
      </cc:Work>
    </rdf:RDF>
  </metadata>
  <g
     inkscape:label="Layer 1"
     inkscape:groupmode="layer"
     id="layer1"
     transform="translate(0,-1036.3622)">
    <path
       style="opacity:1;fill:#fc9c9c;fill-opacity:0.99607843;stroke:none;stroke-width:2.25;stroke-linecap:round;stroke-linejoin:round;stroke-miterlimit:4;stroke-dasharray:none;stroke-dashoffset:0;stroke-opacity:1"
       d="M 7 1 L 7 4 L 9 4 L 9 1 L 7 1 z M 4.4648438 3.0507812 L 3.0507812 4.4648438 L 4.4648438 5.8789062 L 5.8789062 4.4648438 L 4.4648438 3.0507812 z M 11.535156 3.0507812 L 10.121094 4.4648438 L 11.535156 5.8789062 L 12.949219 4.4648438 L 11.535156 3.0507812 z M 8 5 C 6.3431457 5 5 6.3432 5 8 C 5 9.6568 6.3431457 11 8 11 C 9.6568543 11 11 9.6568 11 8 C 11 6.3432 9.6568543 5 8 5 z M 1 7 L 1 9 L 4 9 L 4 7 L 1 7 z M 12 7 L 12 9 L 15 9 L 15 7 L 12 7 z M 4.4648438 10.121094 L 3.0507812 11.535156 L 4.4648438 12.949219 L 5.8789062 11.535156 L 4.4648438 10.121094 z M 11.535156 10.121094 L 10.121094 11.535156 L 11.535156 12.949219 L 12.949219 11.535156 L 11.535156 10.121094 z M 7 12 L 7 15 L 9 15 L 9 12 L 7 12 z "
       transform="translate(0,1036.3622)"
       id="path4154" />
  </g>
</svg>
