<?xml version="1.0" encoding="UTF-8" standalone="no"?>
<!-- Created with Inkscape (http://www.inkscape.org/) -->

<svg
   xmlns:dc="http://purl.org/dc/elements/1.1/"
   xmlns:cc="http://creativecommons.org/ns#"
   xmlns:rdf="http://www.w3.org/1999/02/22-rdf-syntax-ns#"
   xmlns:svg="http://www.w3.org/2000/svg"
   xmlns="http://www.w3.org/2000/svg"
   xmlns:sodipodi="http://sodipodi.sourceforge.net/DTD/sodipodi-0.dtd"
   xmlns:inkscape="http://www.inkscape.org/namespaces/inkscape"
   width="16"
   height="16"
   viewBox="0 0 16 16"
   id="svg2"
   version="1.1"
   inkscape:version="0.92+devel unknown"
   inkscape:export-filename="/home/djrm/Projects/godot/tools/editor/icons/icon_new.png"
   inkscape:export-xdpi="90"
   inkscape:export-ydpi="90"
   sodipodi:docname="icon_file_dead.svg">
  <defs
     id="defs4" />
  <sodipodi:namedview
     id="base"
     pagecolor="#ffffff"
     bordercolor="#666666"
     borderopacity="1.0"
     inkscape:pageopacity="0.0"
     inkscape:pageshadow="2"
     inkscape:zoom="64"
     inkscape:cx="11.067996"
     inkscape:cy="8.920111"
     inkscape:document-units="px"
     inkscape:current-layer="layer1-8"
     showgrid="true"
     units="px"
     inkscape:snap-bbox="true"
     inkscape:bbox-paths="true"
     inkscape:bbox-nodes="true"
     inkscape:snap-bbox-edge-midpoints="true"
     inkscape:snap-bbox-midpoints="false"
     inkscape:snap-object-midpoints="true"
     inkscape:snap-center="true"
     inkscape:window-width="1920"
     inkscape:window-height="1016"
     inkscape:window-x="0"
     inkscape:window-y="27"
     inkscape:window-maximized="1"
     inkscape:snap-smooth-nodes="true"
     inkscape:object-nodes="true"
     showguides="false"
     inkscape:document-rotation="0">
    <inkscape:grid
       type="xygrid"
       id="grid3336" />
  </sodipodi:namedview>
  <metadata
     id="metadata7">
    <rdf:RDF>
      <cc:Work
         rdf:about="">
        <dc:format>image/svg+xml</dc:format>
        <dc:type
           rdf:resource="http://purl.org/dc/dcmitype/StillImage" />
        <dc:title />
      </cc:Work>
    </rdf:RDF>
  </metadata>
  <g
     inkscape:label="Layer 1"
     inkscape:groupmode="layer"
     id="layer1"
     transform="translate(0,-1036.3622)">
    <g
       id="layer1-8"
       inkscape:label="Layer 1"
       transform="translate(0,-1.6949463e-5)">
      <path
         style="opacity:1;fill:#ff8484;fill-opacity:1;stroke:none;stroke-width:1;stroke-linecap:round;stroke-linejoin:round;stroke-miterlimit:4;stroke-dasharray:none;stroke-dashoffset:0;stroke-opacity:1"
         d="M 2,1 V 15 H 14 V 6 H 9 V 1 Z m 8,0 v 4 h 4 z M 3.9921875,7.0000169 C 4.12749,6.997939 4.2578572,7.0507906 4.3535156,7.1465013 L 5,7.7929857 5.6464844,7.1465013 c 0.09183,-0.091882 0.2158151,-0.1444185 0.3457031,-0.1464844 0.1353025,-0.00208 0.2656697,0.050774 0.3613281,0.1464844 0.1952118,0.1952535 0.1952118,0.5117778 0,0.7070312 L 5.7070312,8.5000169 6.3535156,9.1465013 c 0.195212,0.1952536 0.195212,0.5117781 0,0.7070316 -0.1952535,0.1952121 -0.5117777,0.1952121 -0.7070312,0 L 5,9.2070481 4.3535156,9.8535329 c -0.1952535,0.1952121 -0.5117777,0.1952121 -0.7070312,0 -0.195212,-0.1952535 -0.195212,-0.511778 0,-0.7070316 L 4.2929688,8.5000169 3.6464844,7.8535325 c -0.1952118,-0.1952534 -0.1952118,-0.5117777 0,-0.7070312 0.09183,-0.091882 0.2158151,-0.1444185 0.3457031,-0.1464844 z m 6,0 c 0.1353025,-0.00208 0.2656695,0.050774 0.3613285,0.1464844 L 11,7.7929857 11.646484,7.1465013 c 0.09183,-0.091883 0.215816,-0.1444188 0.345704,-0.1464844 0.135302,-0.00208 0.26567,0.050774 0.361328,0.1464844 0.195212,0.1952535 0.195212,0.5117778 0,0.7070312 l -0.646485,0.6464844 0.646485,0.6464844 c 0.195212,0.1952536 0.195212,0.5117781 0,0.7070316 -0.195254,0.1952121 -0.511778,0.1952121 -0.707032,0 L 11,9.2070481 10.353516,9.8535329 c -0.195254,0.1952121 -0.5117781,0.1952121 -0.7070316,0 -0.195212,-0.1952535 -0.195212,-0.511778 0,-0.7070316 L 10.292969,8.5000169 9.6464844,7.8535325 c -0.1952118,-0.1952534 -0.1952118,-0.5117777 0,-0.7070312 0.09183,-0.091882 0.2158151,-0.1444185 0.3457031,-0.1464844 z M 3.5,11 h 9 c 0.277,0 0.5,0.223 0.5,0.5 0,0.277 -0.223,0.5 -0.5,0.5 H 8 C 8,13.1046 7.1045695,14 6,14 4.8954305,14 4,13.1046 4,12 H 3.5 C 3.223,12 3,11.777 3,11.5 3,11.223 3.223,11 3.5,11 Z M 5,12 c -1.9e-5,0.5523 0.4477074,1 1,1 0.5522926,0 1.000019,-0.4477 1,-1 z"
         transform="translate(0,1036.3622)"
         id="rect4158"
         inkscape:connector-curvature="0"
         sodipodi:nodetypes="cccccccccccccccccccccccccccccccccccccccccccccccccsssscscssscscc" />
    </g>
  </g>
</svg>
