<?xml version="1.0" encoding="UTF-8" standalone="no"?>
<!-- Created with Inkscape (http://www.inkscape.org/) -->

<svg
   xmlns:dc="http://purl.org/dc/elements/1.1/"
   xmlns:cc="http://creativecommons.org/ns#"
   xmlns:rdf="http://www.w3.org/1999/02/22-rdf-syntax-ns#"
   xmlns:svg="http://www.w3.org/2000/svg"
   xmlns="http://www.w3.org/2000/svg"
   xmlns:sodipodi="http://sodipodi.sourceforge.net/DTD/sodipodi-0.dtd"
   xmlns:inkscape="http://www.inkscape.org/namespaces/inkscape"
   width="500"
   height="500"
   viewBox="0 0 132.29167 132.29166"
   version="1.1"
   id="svg2695"
   inkscape:version="0.92.2 (5c3e80d, 2017-08-06)"
   sodipodi:docname="godot_square_2018.svg"
   inkscape:export-filename="/home/undervoid/godot_tshirt_2018_concepts.svg.png"
   inkscape:export-xdpi="96"
   inkscape:export-ydpi="96">
  <defs
     id="defs2689" />
  <sodipodi:namedview
     id="base"
     pagecolor="#ffffff"
     bordercolor="#666666"
     borderopacity="1.0"
     inkscape:pageopacity="0.0"
     inkscape:pageshadow="2"
     inkscape:zoom="1.4142136"
     inkscape:cx="280.32427"
     inkscape:cy="235.32151"
     inkscape:document-units="mm"
     inkscape:current-layer="layer1"
     showgrid="false"
     inkscape:snap-page="true"
     inkscape:snap-object-midpoints="true"
     inkscape:snap-center="true"
     inkscape:snap-bbox="true"
     inkscape:snap-bbox-midpoints="true"
     inkscape:snap-bbox-edge-midpoints="true"
     inkscape:bbox-nodes="true"
     inkscape:bbox-paths="true"
     inkscape:window-width="1920"
     inkscape:window-height="1016"
     inkscape:window-x="0"
     inkscape:window-y="27"
     inkscape:window-maximized="1"
     inkscape:snap-nodes="false"
     units="px" />
  <metadata
     id="metadata2692">
    <rdf:RDF>
      <cc:Work
         rdf:about="">
        <dc:format>image/svg+xml</dc:format>
        <dc:type
           rdf:resource="http://purl.org/dc/dcmitype/StillImage" />
        <dc:title></dc:title>
      </cc:Work>
    </rdf:RDF>
  </metadata>
  <g
     inkscape:label="Layer 1"
     inkscape:groupmode="layer"
     id="layer1"
     transform="translate(0,-164.70835)">
    <rect
       y="164.89861"
       x="0.19027162"
       height="131.91112"
       width="131.91112"
       id="rect2231"
       style="display:inline;opacity:1;fill:#323f4f;fill-opacity:1;fill-rule:nonzero;stroke:#393f50;stroke-width:0.38054323;stroke-linecap:round;stroke-linejoin:round;stroke-miterlimit:4;stroke-dasharray:none;stroke-dashoffset:0;stroke-opacity:1"
       inkscape:export-filename="/home/undervoid/path2566.png"
       inkscape:export-xdpi="96"
       inkscape:export-ydpi="96" />
    <path
       style="display:inline;opacity:1;fill:#52ffb5;fill-opacity:1;fill-rule:nonzero;stroke:none;stroke-width:0.8178876;stroke-linecap:round;stroke-linejoin:round;stroke-miterlimit:4;stroke-dasharray:none;stroke-dashoffset:0;stroke-opacity:1"
       d="m 78.357512,232.20396 c -0.09537,0.008 -0.987285,0.0847 -1.374258,0.0968 -0.388713,0.13523 -0.704911,0.24859 -0.844845,0.30689 -0.239533,0.0998 -0.99923,0.48451 -1.786466,0.89737 -0.0019,0.0371 -0.0039,0.0721 -0.0039,0.1136 9.7e-5,0.0851 0.0029,0.16443 0.0068,0.24141 0.0068,0.049 0.01373,0.0982 0.02351,0.1475 0.171147,0.20133 0.415651,0.49085 0.351909,0.54184 -0.04691,0.0375 -0.107676,0.047 -0.122649,0.14232 0.04624,0.0968 0.09576,0.19116 0.151115,0.27867 5.8e-5,1e-4 1.36e-4,1.4e-4 2.62e-4,2.8e-4 0.146027,0.14728 0.337719,0.2727 0.587902,0.3902 0.07148,-0.007 0.134081,-0.003 0.178024,0.0329 0.03734,0.0306 0.05958,0.0553 0.07864,0.0777 0.0501,0.0199 0.100585,0.0399 0.154481,0.0598 0.30728,0.11322 0.668185,0.1669 1.014852,0.16457 0.142429,-0.0117 0.210988,-0.0496 0.291358,-0.10324 0.148978,-0.0993 0.595979,-0.29816 0.744966,-0.44713 0.148978,-0.14899 0.496515,-0.3476 0.446875,-0.54624 -0.04972,-0.19864 -0.04478,-0.26835 -0.111012,-0.28489 -0.06616,-0.0165 -0.38468,-0.35578 -0.186043,-0.32268 0.186942,-0.13081 0.628265,-0.1374 0.628265,-0.1374 0,0 -0.592245,-0.20487 -0.460852,-0.33095 0.158651,-0.15222 0.477412,-0.23184 0.477412,-0.23184 0,0 -0.248412,-0.48003 -0.248412,-0.5628 0,-0.0626 0.03173,-0.28758 0.0502,-0.41583 -0.01548,-0.0355 -0.03376,-0.0753 -0.04817,-0.10867 z"
       id="path2248"
       inkscape:connector-curvature="0" />
    <path
       style="display:inline;fill:#ffffff;fill-opacity:1;fill-rule:nonzero;stroke:none;stroke-width:0.08706476"
       d="m 76.667826,260.56691 c -0.139018,-0.14206 -0.322752,-0.21285 -0.550733,-0.21283 -0.240697,-2e-5 -0.446739,0.10385 -0.618013,0.31115 -0.170813,0.20828 -0.256007,0.47012 -0.256007,0.78424 l -5e-6,0.41306 c 0,0.31353 0.08498,0.57114 0.255351,0.77234 0.169651,0.20157 0.388916,0.30259 0.658034,0.30259 0.167023,0 0.31033,-0.0291 0.428797,-0.0859 0.118871,-0.0571 0.215835,-0.13415 0.291597,-0.22946 l -0.112975,-0.19566 c -0.07115,0.0888 -0.154912,0.15692 -0.254894,0.20494 -0.09842,0.0473 -0.216461,0.0714 -0.35255,0.0714 -0.196761,0 -0.352424,-0.0796 -0.467266,-0.24005 -0.114911,-0.16014 -0.173,-0.36082 -0.173,-0.6018 v -0.20697 l 1.424752,2.7e-4 5e-6,-0.27312 c -2e-5,-0.31322 -0.07224,-0.56311 -0.216196,-0.74893 -0.01757,-0.0237 -0.03685,-0.0449 -0.05691,-0.065 z m -0.227677,0.14487 c 0.02914,0.0251 0.05534,0.0553 0.08034,0.0884 0.09686,0.13575 0.14465,0.30683 0.14465,0.51227 l 2.65e-4,0.10642 -1.148705,2e-5 c 0.005,-0.23231 0.06296,-0.42724 0.174113,-0.58539 0.110911,-0.15755 0.253172,-0.23645 0.426779,-0.23644 0.129074,7e-5 0.236756,0.0379 0.323287,0.11405 z m -1.933424,-0.16826 c -0.115122,-0.1265 -0.270595,-0.18953 -0.465239,-0.18942 -0.147102,-2e-5 -0.275576,0.0402 -0.385386,0.11946 -0.109891,0.0788 -0.197731,0.19169 -0.263626,0.33837 l -0.02273,-0.41147 -0.246574,10e-6 2.65e-4,2.48887 h 0.276257 l 2.65e-4,-1.7766 c 0.04721,-0.15528 0.118517,-0.27831 0.213739,-0.37076 0.09516,-0.0931 0.213291,-0.13955 0.354566,-0.13948 0.158017,-1e-5 0.278064,0.0574 0.361076,0.17255 0.0826,0.11523 0.124177,0.31403 0.124177,0.59841 l 5e-6,1.51588 h 0.278071 l 2.6e-4,-1.51835 c 10e-6,-0.34791 -0.0589,-0.60445 -0.178168,-0.76939 -0.01417,-0.0212 -0.03114,-0.0393 -0.04681,-0.0582 z m -2.314977,-0.85173 0.27851,-1e-5 c 0.04291,-0.52409 -0.278805,-0.5243 -0.27851,1e-5 z m 0.278541,0.70864 -0.278526,1e-5 -2.65e-4,2.48888 0.278745,2.7e-4 z m -0.930277,-2.6e-4 -0.234654,2.6e-4 -0.02679,0.34623 c -0.06965,-0.12484 -0.156405,-0.22319 -0.261459,-0.29016 -0.104793,-0.0683 -0.227134,-0.10242 -0.366927,-0.10235 -0.251691,-2e-5 -0.449238,0.10657 -0.591239,0.31899 -0.143198,0.21349 -0.214628,0.49677 -0.214618,0.8495 l 5e-6,0.34016 c -2.6e-5,0.32506 0.07135,0.58573 0.213271,0.78111 0.141635,0.19572 0.33762,0.2938 0.58762,0.29382 0.134836,0 0.254278,-0.0301 0.356589,-0.0897 0.102751,-0.0594 0.189502,-0.14529 0.259721,-0.25772 v 0.30099 c 0,0.24592 -0.04771,0.43156 -0.142853,0.55998 -0.09483,0.12666 -0.241301,0.19034 -0.439154,0.19031 -0.0984,0 -0.193252,-0.013 -0.285033,-0.0403 -0.09261,-0.0264 -0.176131,-0.0638 -0.250825,-0.11229 l -0.07631,0.24266 c 0.08765,0.0492 0.187593,0.088 0.300568,0.11789 0.112753,0.0298 0.218238,0.0455 0.316328,0.0455 0.272863,0 0.484037,-0.0883 0.632836,-0.26253 0.148595,-0.17489 0.22274,-0.42209 0.222725,-0.74107 z m -0.490445,0.32443 c 0.08963,0.0826 0.16068,0.18958 0.212375,0.32215 l -1e-5,1.23286 c -0.05377,0.12869 -0.126411,0.2302 -0.218438,0.30304 -0.09223,0.073 -0.204827,0.10845 -0.338357,0.10845 -0.194873,0 -0.340974,-0.0746 -0.436886,-0.22543 -0.09712,-0.14949 -0.144875,-0.35035 -0.14489,-0.60292 v -0.34018 c 0,-0.27276 0.04901,-0.49487 0.147352,-0.66524 0.09771,-0.17003 0.244632,-0.2547 0.439155,-0.25465 0.13648,-7e-5 0.250109,0.0408 0.339709,0.12194 z m -1.961982,-0.18113 c -0.114971,-0.12636 -0.269734,-0.18946 -0.464347,-0.18941 -0.147814,-2e-5 -0.276268,0.0402 -0.385371,0.11945 -0.110056,0.0789 -0.198053,0.192 -0.264127,0.33836 l -0.02273,-0.41147 -0.246589,-10e-6 v 2.48912 l 0.276047,-2.7e-4 2.65e-4,-1.77662 c 0.04736,-0.15529 0.118522,-0.27851 0.213923,-0.37096 0.09573,-0.0928 0.213542,-0.13921 0.354802,-0.13926 0.157546,-2e-5 0.278531,0.0575 0.360845,0.17276 0.0828,0.11524 0.124429,0.3138 0.124404,0.5982 l 1.4e-5,1.51588 h 0.278065 l 2.65e-4,-1.51834 c 0,-0.34793 -0.05905,-0.60449 -0.178637,-0.76941 -0.01417,-0.0212 -0.03114,-0.0393 -0.04681,-0.0582 z m -2.139032,0.0234 c -0.138381,-0.1424 -0.322581,-0.2128 -0.550292,-0.21282 -0.241173,-10e-6 -0.447155,0.10386 -0.618914,0.31113 -0.170428,0.2083 -0.256011,0.47012 -0.256011,0.78426 l -2.66e-4,0.41328 c -1.5e-5,0.31353 0.08537,0.57093 0.256007,0.7721 0.170172,0.2016 0.389361,0.30285 0.657824,0.30283 0.167212,-2e-5 0.310481,-0.0294 0.429031,-0.0861 0.119057,-0.0571 0.215855,-0.13416 0.291106,-0.22947 l -0.112023,-0.19573 c -0.07116,0.089 -0.156373,0.1564 -0.255114,0.20516 -0.09847,0.0474 -0.216402,0.0714 -0.352991,0.0714 -0.196555,-10e-6 -0.352163,-0.0798 -0.4666,-0.24027 -0.115502,-0.16013 -0.17322,-0.36061 -0.17323,-0.60158 l 1.5e-5,-0.20696 1.424295,-2.7e-4 v -0.2731 c 0,-0.31325 -0.07213,-0.56271 -0.216195,-0.74847 -0.01757,-0.0237 -0.0369,-0.045 -0.05691,-0.065 z m -0.227631,0.14493 c 0.02914,0.0252 0.05527,0.0554 0.08034,0.0883 0.09712,0.1357 0.145105,0.30685 0.14509,0.51228 l -2.66e-4,0.10643 -1.148259,10e-6 c 0.0051,-0.23232 0.06261,-0.42701 0.173457,-0.58516 0.111407,-0.15754 0.253863,-0.23663 0.42744,-0.23667 0.12886,0 0.236346,0.0378 0.322846,0.11404 z m -2.842309,-0.14486 c -0.138417,-0.14245 -0.32215,-0.21281 -0.550286,-0.21285 -0.241152,0 -0.44676,0.10385 -0.617999,0.31116 -0.170827,0.2083 -0.256241,0.46989 -0.256246,0.78404 v 0.41349 c 5e-6,0.31353 0.08513,0.57092 0.255129,0.77209 0.170408,0.20163 0.390133,0.3026 0.658496,0.3026 0.167118,10e-6 0.310225,-0.0292 0.428787,-0.0859 0.118821,-0.0572 0.216431,-0.13414 0.291606,-0.22947 l -0.113314,-0.1958 c -0.07037,0.089 -0.154902,0.15693 -0.253788,0.20516 -0.09871,0.0474 -0.217107,0.0711 -0.353221,0.0711 -0.195855,10e-6 -0.352234,-0.0796 -0.467262,-0.24004 -0.11486,-0.16008 -0.172544,-0.36083 -0.172544,-0.6018 v -0.20698 l 1.424292,2.7e-4 10e-6,-0.27313 c -10e-6,-0.31325 -0.07209,-0.56311 -0.216652,-0.74894 -0.01767,-0.0236 -0.03689,-0.045 -0.05691,-0.065 z m -0.226773,0.14486 c 0.02919,0.0252 0.05541,0.0552 0.08033,0.0885 0.09647,0.13574 0.144665,0.30683 0.144655,0.51225 l -2.66e-4,0.10644 -1.148049,2.6e-4 c 0.005,-0.2323 0.06231,-0.42745 0.173921,-0.5856 0.111493,-0.15753 0.253654,-0.23643 0.426759,-0.23644 0.12886,-1e-5 0.236577,0.0378 0.323288,0.11404 z m -1.984036,-0.20854 c -0.107993,-0.0999 -0.244607,-0.14913 -0.408336,-0.14917 -0.158436,0 -0.295337,0.0474 -0.408091,0.1422 -0.112708,0.0947 -0.199614,0.22581 -0.260928,0.3915 -0.04801,-0.17941 -0.123561,-0.31314 -0.225873,-0.40135 -0.10249,-0.0882 -0.228962,-0.13227 -0.379303,-0.1323 -0.147323,0 -0.275471,0.0376 -0.384475,0.11225 -0.108589,0.0758 -0.196456,0.18216 -0.261859,0.32039 l -0.02343,-0.38651 -0.244075,2.7e-4 2.65e-4,2.48891 0.276271,-1e-5 -2.65e-4,-1.79193 c 0.03825,-0.15341 0.101255,-0.27432 0.189873,-0.36266 0.08806,-0.0879 0.205757,-0.13222 0.350968,-0.13226 0.151933,-1e-5 0.270354,0.0634 0.355453,0.19078 0.08545,0.12744 0.127105,0.34062 0.127105,0.63869 v 1.45739 l 0.276718,-2e-5 -2.64e-4,-1.49765 2.64e-4,-0.0646 c 0.02018,-0.20885 0.07558,-0.38178 0.165571,-0.52013 0.09051,-0.13834 0.216459,-0.20637 0.377748,-0.2063 0.153216,0 0.271682,0.0623 0.354332,0.18605 0.08214,0.12355 0.124183,0.33861 0.124183,0.64387 v 1.45873 h 0.278055 l 1e-5,-1.45376 c 10e-6,-0.36723 -0.06012,-0.63927 -0.180675,-0.81644 -0.02999,-0.0443 -0.06303,-0.0828 -0.09918,-0.1159 z m -3.431061,0.0605 c -0.14204,-0.13902 -0.326816,-0.20964 -0.557024,-0.20967 -0.232997,0 -0.424497,0.0729 -0.573698,0.21955 -0.149425,0.1474 -0.22075,0.31291 -0.213511,0.50057 l 0.005,0.0132 0.258249,0.002 c 5e-6,-0.13838 0.04751,-0.25434 0.143323,-0.34938 0.09586,-0.0958 0.218879,-0.14283 0.367369,-0.14285 0.159622,0 0.283025,0.0501 0.373015,0.14892 0.08845,0.0998 0.133169,0.23854 0.133179,0.41441 v 0.30596 l -0.435099,-1e-5 c -0.277579,1e-5 -0.498129,0.0687 -0.660512,0.2061 -0.162467,0.13739 -0.243726,0.32239 -0.243646,0.55321 0,0.21829 0.05634,0.39136 0.16783,0.51969 0.112127,0.12782 0.270704,0.19143 0.476711,0.19143 0.147324,10e-6 0.280904,-0.04 0.401127,-0.12078 0.120453,-0.0803 0.218128,-0.18268 0.293505,-0.3063 -5.1e-5,0.0565 0.0035,0.112 0.0099,0.16783 0.0071,0.0549 0.01772,0.1247 0.03149,0.21103 h 0.287537 c -0.02018,-0.0804 -0.03319,-0.16061 -0.04115,-0.2441 -0.0078,-0.0825 -0.01191,-0.16864 -0.01191,-0.25758 v -1.22074 c 4e-6,-0.26122 -0.07051,-0.46221 -0.21125,-0.60313 z m -0.0646,1.11787 2.5e-5,0.53815 c -0.04956,0.13638 -0.133038,0.24865 -0.252216,0.33723 -0.118966,0.0882 -0.255224,0.13133 -0.408104,0.13139 -0.127288,0 -0.226038,-0.0414 -0.296729,-0.12576 -0.07108,-0.0839 -0.105999,-0.19312 -0.105955,-0.32599 -3.5e-5,-0.15726 0.05613,-0.28967 0.16915,-0.3955 0.113195,-0.10614 0.263237,-0.15973 0.451325,-0.15974 z m -2.225206,-1.94353 c -0.172846,-0.16479 -0.418169,-0.24768 -0.734086,-0.24768 -0.323187,0 -0.582027,0.10557 -0.775243,0.31315 -0.193576,0.20929 -0.29,0.50885 -0.28999,0.89966 v 0.9962 c 0,0.39951 0.102194,0.7057 0.306626,0.91812 0.205633,0.21369 0.475716,0.31989 0.811715,0.31991 0.254645,-2e-5 0.464197,-0.0524 0.629247,-0.15771 0.16523,-0.10459 0.278164,-0.22005 0.339338,-0.34639 l 5e-6,-1.19506 -0.973898,-2.7e-4 -1e-5,0.24251 h 0.695177 l -4e-6,0.87291 c -0.04465,0.0976 -0.123434,0.17963 -0.237042,0.24711 -0.113346,0.0683 -0.264694,0.1017 -0.453099,0.1017 -0.257979,-2e-5 -0.462524,-0.0849 -0.614157,-0.25468 -0.15168,-0.17102 -0.227681,-0.41934 -0.227681,-0.74511 l 5e-6,-1.00204 c 0,-0.31413 0.07022,-0.55315 0.211019,-0.71811 0.14124,-0.1653 0.334226,-0.2479 0.577752,-0.24792 0.240657,0 0.422819,0.0617 0.545315,0.18358 0.123071,0.12307 0.188685,0.2969 0.197992,0.52241 l 0.257794,-2e-5 0.005,-0.0128 c -0.0078,-0.29425 -0.09871,-0.52458 -0.271541,-0.68956 z"
       id="path1089"
       inkscape:connector-curvature="0"
       inkscape:export-filename="/home/undervoid/path2566.png"
       inkscape:export-xdpi="96"
       inkscape:export-ydpi="96"
       sodipodi:nodetypes="cccccccccccccsccccccccccccccccccccccccccccccccccccccccccccccccccccccsccccccsccccccccccscccccccccccccccccccccccccccccccccccccccscccccccccccccccccccccccccscccccccccccccccccccccccccccccccscccccccsccccccccccccccccccccccccccccsccccccccccccccccscccccccccccccccccccccc" />
    <path
       inkscape:connector-curvature="0"
       style="fill:#ffffff;fill-opacity:1;fill-rule:nonzero;stroke:#ffffff;stroke-width:2.00255346;stroke-linejoin:round;stroke-miterlimit:4;stroke-dasharray:none;stroke-opacity:1"
       d="m 62.228475,211.54215 c -1.489442,0.33114 -2.962404,0.79205 -4.343769,1.48733 0.03158,1.21974 0.110473,2.38857 0.270352,3.57567 -0.536412,0.34376 -1.100363,0.63844 -1.601434,1.04079 -0.509099,0.39167 -1.029471,0.76641 -1.490433,1.22448 -0.920958,-0.60913 -1.895219,-1.18098 -2.89939,-1.68628 -1.082375,1.16495 -2.094864,2.42148 -2.921629,3.82842 0.621995,1.00625 1.271568,1.95001 1.972668,2.84505 h 0.01941 v 6.94901 0.88272 0.80329 h 0.0018 c -1.19e-4,2e-5 -1.32e-4,0 0,0 l -0.007,1.14223 h -0.0018 c 0.002,0.5116 0.0087,1.07202 0.0087,1.18361 0,5.02728 6.377459,7.4438 14.300824,7.4716 h 0.0096 0.0098 c 7.923368,-0.0278 14.298495,-2.44432 14.298495,-7.4716 0,-0.11364 0.007,-0.67173 0.0093,-1.18361 h -0.002 l -0.0073,-1.14248 v -0.002 0 -0.68871 0 -7.94556 h 0.01888 c 0.701219,-0.89512 1.350086,-1.83835 1.972415,-2.84454 -0.826424,-1.40684 -1.83878,-2.66389 -2.921115,-3.82869 -1.003229,0.50507 -1.977725,1.07702 -2.898087,1.68577 -0.459451,-0.45944 -0.980276,-0.83259 -1.490181,-1.22421 -0.500929,-0.40235 -1.064958,-0.69786 -1.60039,-1.04158 0.159429,-1.18714 0.238348,-2.35515 0.27009,-3.57489 -1.381488,-0.69528 -2.854886,-1.15673 -4.345066,-1.48785 -0.594949,0.99992 -1.138962,2.08268 -1.612812,3.14128 -0.561871,-0.0939 -1.126195,-0.12859 -1.691457,-0.1353 v 0 c -0.0035,0 -0.0097,0 -0.01111,0 -0.0035,0 -0.0075,-0.002 -0.01111,0 -0.566267,0.007 -1.130681,0.0417 -1.692754,0.13555 -0.473518,-1.05856 -1.017507,-2.14161 -1.613332,-3.14154 z m 16.696756,5.64302 c 0,-1.2e-4 0,0 0.0015,0 z m -24.790297,5.45366 h 23.13506 v 10.95877 h -23.13506 z"
       id="path1121"
       inkscape:export-xdpi="96"
       inkscape:export-ydpi="96" />
    <path
       inkscape:connector-curvature="0"
       style="display:inline;opacity:1;fill:#478cbf;fill-opacity:1;fill-rule:nonzero;stroke:none;stroke-width:0.81774324;stroke-linecap:round;stroke-linejoin:round;stroke-miterlimit:4;stroke-dasharray:none;stroke-dashoffset:0;stroke-opacity:1"
       d="m 66.350024,171.81977 v 2.60781 h 0.869269 v -2.60781 z m -1.738812,0.86926 c -1.111226,1.3e-4 -2.516723,0.84675 -3.022788,2.47976 -0.02489,0.0807 -0.02584,0.16673 -0.0025,0.24785 0.488714,1.71049 1.938758,2.48803 3.025373,2.48803 0.647917,0 1.422163,-0.2834 2.047706,-0.86927 h -0.308898 -0.869269 v -0.23517 c -0.264157,0.15342 -0.564059,0.23452 -0.869539,0.23517 -0.960169,-3e-5 -1.738516,-0.77839 -1.738547,-1.73855 3.1e-5,-0.96016 0.778393,-1.73853 1.738547,-1.73853 0.30548,0 0.605382,0.0817 0.869539,0.23517 v -0.9482 c -0.296849,-0.10356 -0.593096,-0.15622 -0.869274,-0.15626 z m 0,1.73855 c -0.480087,0 -0.869258,0.38918 -0.869274,0.86927 0,0.48008 0.389187,0.86927 0.869274,0.86928 0.480078,-1e-5 0.869259,-0.3892 0.869274,-0.86928 -2.5e-5,-0.48009 -0.389196,-0.86927 -0.869274,-0.86927 z m 7.425023,0.43464 c -0.226084,0 -0.408241,0.18187 -0.408241,0.40798 v 1.22448 c 0,0.22613 0.182157,0.40826 0.408241,0.40826 h 0.407995 v 0.4041 c -0.04411,0.002 -0.08772,0.01 -0.129099,0.0253 l -0.836923,0.27916 -0.279161,-0.83693 c -0.05542,-0.17491 -0.220761,-0.29133 -0.4041,-0.28458 -0.27434,0.0101 -0.460667,0.28272 -0.370477,0.54199 l 0.40799,1.22424 c 0.07115,0.21414 0.302595,0.32991 0.516638,0.25844 l 0.687137,-0.22896 v 0.24966 c 0,0.0167 0.0077,0.031 0.0096,0.0471 l -1.868671,1.2457 c -0.451402,0.30232 0,0.97988 0.453002,0.67939 l 2.063746,-1.37584 0.609783,1.2188 c 0.09077,0.18176 0.301388,0.26909 0.494145,0.2049 l 1.224481,-0.40826 c 0.536793,-0.16156 0.268097,-0.96709 -0.258194,-0.77406 l -0.888929,0.29572 -0.397897,-0.79632 c 0.112578,-0.0725 0.191444,-0.19267 0.191444,-0.3371 v -0.40826 h 0.56424 l 0.294941,0.59065 c 0.243524,0.4864 0.973877,0.12135 0.730345,-0.36505 l -0.408256,-0.81623 c -0.06914,-0.13826 -0.210468,-0.22559 -0.365034,-0.2256 h -1.224528 v -0.40799 h 0.408256 c 0.226108,0 0.40824,-0.18212 0.40824,-0.40826 v -1.22446 c 0,-0.22613 -0.182132,-0.408 -0.40824,-0.408 z m -5.686476,0.43463 v 0.86928 h 0.869274 v -0.86928 z m 5.686476,0.3816 h 0.407995 v 0.81623 h -0.407995 z m -16.608274,6.05645 c -1.045604,1e-5 -1.893245,0.84764 -1.893245,1.89325 0.002,0.6745 0.362517,1.29704 0.946615,1.63428 v 1.67879 c -5.3e-5,0.33833 0.180412,0.651 0.473454,0.82013 0.143971,0.0827 0.307162,0.12602 0.473176,0.12572 v 0.002 h 1.893258 v -0.002 c 0.166119,0 0.329389,-0.0431 0.473441,-0.12572 0.292937,-0.1692 0.473322,-0.48185 0.473189,-0.82013 v -1.67879 c 0.584125,-0.33724 0.944722,-0.95978 0.946629,-1.63428 -1.3e-5,-1.04561 -0.847642,-1.89325 -1.893259,-1.89325 z m -0.473176,1.41981 c 0.261398,7e-5 0.473242,0.21204 0.473176,0.47344 -6.7e-5,0.2613 -0.211885,0.4731 -0.473176,0.47318 -0.261411,7e-5 -0.473374,-0.21177 -0.473454,-0.47318 -2.6e-5,-0.2615 0.21195,-0.47351 0.473454,-0.47344 z m 2.839875,0 c 0.26141,7e-5 0.473255,0.21204 0.473189,0.47344 -8e-5,0.2613 -0.211883,0.4731 -0.473189,0.47318 -0.261398,7e-5 -0.473361,-0.21177 -0.473441,-0.47318 -6.6e-5,-0.2615 0.211937,-0.47351 0.473441,-0.47344 z m -1.893245,0.94662 h 0.946616 v 0.47345 h -0.946616 z m 17.913728,0.71017 -0.228176,0.2287 -1.847987,1.84747 2.076163,2.07667 2.076422,-2.07667 z m 9.890048,0 c -0.982438,0 -1.773476,0.79077 -1.773476,1.77322 v 2.66007 c 0,0.98243 0.791038,1.77347 1.773476,1.77347 h 2.660074 c 0.982428,0 1.773207,-0.79104 1.773207,-1.77347 v -2.66007 c 0,-0.98245 -0.790779,-1.77322 -1.773207,-1.77322 z m -28.750406,0.23646 h 0.473176 v 0.47345 h 0.473454 v -0.47345 h 0.473175 0.473441 v 0.47345 h 0.473188 v -0.47345 h 0.473441 v 0.41058 1.48268 h -0.473441 v -0.47318 h -0.473188 v 0.47318 H 56.37459 55.901415 v -0.47318 h -0.473454 v 0.47318 h -0.473176 v -1.4819 z m 10.414964,0.56788 -51.770092,51.76957 0.220944,0.22068 51.548377,51.54889 51.770072,-51.76984 z m 8.445394,0.10918 1.162913,1.16265 -1.162913,1.16264 -1.162647,-1.16264 z m -8.446165,0.77458 50.886322,50.88581 -50.885551,50.88555 -50.885812,-50.88582 z m 17.892772,0.52855 c 0.245609,0 0.443441,0.19756 0.443441,0.44317 v 0.88687 c 0,0.24559 -0.197832,0.44316 -0.443441,0.44316 -0.245608,0 -0.443175,-0.19757 -0.443175,-0.44316 v -0.88687 c 0,-0.24561 0.197567,-0.44317 0.443175,-0.44317 z m 3.546682,0 c 0.245609,0 0.44344,0.19756 0.44344,0.44317 v 0.88687 c 0,0.24559 -0.197831,0.44316 -0.44344,0.44316 -0.245609,0 -0.443167,-0.19757 -0.443167,-0.44316 v -0.88687 c 0,-0.24561 0.197558,-0.44317 0.443167,-0.44317 z m -39.001868,1.54555 -0.228177,0.22844 -1.847983,1.84798 2.07616,2.07617 2.076691,-2.07617 z m 38.164685,0.7187 c 0.40427,-0.01 0.60926,0.48274 0.317701,0.76293 -0.332449,0.33244 -0.78357,0.5195 -1.253724,0.5195 -0.470143,0 -0.921529,-0.18706 -1.253978,-0.5195 -0.285149,-0.27749 -0.08874,-0.76106 0.309164,-0.76112 0.119767,-3e-5 0.234454,0.0484 0.317955,0.13427 0.166398,0.16641 0.391529,0.25974 0.626859,0.25974 0.235338,0 0.460455,-0.0933 0.626853,-0.25974 0.0811,-0.0844 0.192188,-0.1333 0.30917,-0.13608 z m -38.164685,0.19481 1.163175,1.16291 -1.163175,1.1624 -1.162394,-1.1624 z m 17.563185,0.0432 -47.854478,47.85474 0.208519,0.20853 47.645959,47.64597 47.854481,-47.8545 z m 0,0.83565 47.019091,47.01909 L 65.369749,284.404 18.350646,237.38515 Z m 13.121103,0.55442 -0.22819,0.22845 -1.861176,1.86091 2.089366,2.08962 2.089353,-2.08962 z M 38.4844,191.26689 c -1.505017,-5e-5 -2.725071,1.22001 -2.725018,2.72502 v 0.77846 1.16783 c 4e-5,0.43002 0.348716,0.77856 0.778722,0.77847 h 0.778471 v -1.9463 h -0.778471 v -0.77846 c -1.06e-4,-1.07499 0.871299,-1.94651 1.946296,-1.94654 1.074984,4e-5 1.946389,0.87155 1.946284,1.94654 v 0.77846 h -0.778458 v 1.16783 0.77847 h 0.778458 c 0.429926,-5e-5 0.778417,-0.34855 0.77847,-0.77847 v -1.16783 -0.77846 c 5.3e-5,-1.5049 -1.219843,-2.72494 -2.724754,-2.72502 z m 47.640262,3.79272 -0.228179,0.22819 -3.042712,3.04271 3.270891,3.27141 3.270892,-3.27141 z m -39.708153,0.13894 -0.228441,0.22868 -1.847984,1.84773 2.076425,2.07618 2.07616,-2.07618 z m 39.708153,0.77484 2.357383,2.35712 -2.357383,2.35739 -2.357388,-2.35687 z m -39.708153,0.13866 1.162647,1.16291 -1.162647,1.1624 -1.16291,-1.1624 z m 49.931413,1.32952 c -1.063605,0 -2.047794,0.56831 -2.579606,1.48941 -0.103202,0.17814 -0.04228,0.40624 0.136074,0.50915 0.17836,0.10307 0.406522,0.0418 0.509155,-0.13687 0.399376,-0.69174 1.135634,-1.11712 1.934377,-1.11712 0.798753,0 1.535011,0.42538 1.934387,1.11712 0.102653,0.17862 0.330805,0.23994 0.509165,0.13687 0.17831,-0.10291 0.239286,-0.33101 0.136074,-0.50915 -0.531802,-0.9211 -1.516011,-1.48941 -2.579626,-1.48941 z m -56.720798,1.45681 -0.228176,0.22844 -3.830495,3.8305 4.058671,4.05868 4.058936,-4.05868 z m 56.720798,0.0326 c -0.672294,0 -1.264442,0.45452 -1.438435,1.10392 -0.05317,0.19852 0.06466,0.40255 0.263123,0.45586 0.198589,0.0533 0.402794,-0.0645 0.456095,-0.26312 0.08765,-0.3273 0.380377,-0.55208 0.719217,-0.55208 0.33885,0 0.631526,0.22478 0.719227,0.55208 0.05327,0.19861 0.257506,0.31641 0.456115,0.26312 0.198469,-0.0533 0.316213,-0.25734 0.263113,-0.45586 -0.174013,-0.6494 -0.766141,-1.10392 -1.438455,-1.10392 z m 0,1.48941 c -0.206275,0 -0.372272,0.16601 -0.372272,0.37228 v 0.37229 h -1.117124 c -1e-4,0.53225 0.283851,1.02411 0.744823,1.2902 0.460762,0.26596 1.028394,0.26596 1.489146,0 0.460992,-0.26609 0.744913,-0.75795 0.744843,-1.2902 h -1.117114 v -0.37229 c 0,-0.20627 -0.166017,-0.37228 -0.372302,-0.37228 z m -65.30305,2.46682 c -0.636844,-6e-5 -1.153123,0.51622 -1.153083,1.15308 0,0.48834 0.30821,0.92353 0.768643,1.08631 v 0.0668 h -0.768643 v 0.76865 h 0.768643 v 1.49819 c -0.713036,-0.14582 -1.28251,-0.68193 -1.471042,-1.3849 l -0.743275,0.19896 c 0.315296,1.17605 1.381166,1.99373 2.598757,1.99364 1.217591,1e-4 2.283461,-0.81758 2.598771,-1.99364 l -0.744576,-0.19972 c -0.18837,0.70267 -0.757369,1.23872 -1.470007,1.38489 v -1.49742 h 0.768894 V 205.1934 H 31.42906 v -0.0676 c 0.460248,-0.16262 0.768232,-0.59741 0.768894,-1.08555 5.3e-5,-0.63685 -0.516238,-1.15313 -1.153082,-1.15307 z m 0,0.76889 c 0.212149,8e-5 0.384108,0.17204 0.384188,0.38419 6.6e-5,0.21224 -0.171933,0.38437 -0.384188,0.38444 -0.212348,7e-5 -0.384507,-0.1721 -0.38444,-0.38444 7.9e-5,-0.21226 0.172198,-0.38426 0.38444,-0.38419 z m 62.440922,0.11486 -0.228442,0.22844 -2.346516,2.34601 2.574958,2.57522 2.574699,-2.57522 z m 0,0.91351 1.66119,1.66094 -1.66119,1.66118 -1.661449,-1.66118 z m -70.819053,4.81309 c -0.735275,0 -1.331335,0.59604 -1.331335,1.33133 0,0.52872 0.31409,1.00699 0.798646,1.21853 v 0.64548 h 1.065114 v -0.64444 c 0.485018,-0.21163 0.798645,-0.69041 0.79891,-1.21957 0,-0.73529 -0.59606,-1.33134 -1.331335,-1.33133 z m 0,0.53269 c 0.441054,8e-5 0.798566,0.35759 0.798645,0.79864 6.6e-5,0.44114 -0.357498,0.79882 -0.798645,0.79889 -0.441239,5e-5 -0.798962,-0.35766 -0.798896,-0.79889 7.9e-5,-0.44115 0.357749,-0.79871 0.798896,-0.79864 z m 78.666309,0.69309 c -0.39975,3e-5 -0.72385,0.32387 -0.72389,0.72361 v 5.79048 c 4e-5,0.39974 0.32414,0.72386 0.72389,0.72389 h 10.13323 c 0.39973,-3e-5 0.72358,-0.32415 0.72362,-0.72389 v -5.79048 c -4e-5,-0.39974 -0.32389,-0.72358 -0.72362,-0.72361 z m -39.104841,0.81881 c -1.48944,0.33114 -2.962403,0.79206 -4.343767,1.48734 0.03158,1.21974 0.110472,2.38856 0.270351,3.57566 -0.536412,0.34377 -1.100363,0.63845 -1.601434,1.0408 -0.509099,0.39166 -1.029471,0.7664 -1.490433,1.22448 -0.920959,-0.60914 -1.895219,-1.18098 -2.89939,-1.68628 -1.082375,1.16495 -2.094864,2.42148 -2.921629,3.82842 0.621995,1.00625 1.271568,1.95001 1.972669,2.84505 h 0.01941 v 6.94901 0.88272 0.80329 c 0.01497,0 0.03163,0 0.04734,0.002 l 5.293256,0.51045 c 0.277281,0.0268 0.4949,0.25001 0.515099,0.52699 l 0.163245,2.33695 4.617748,0.32986 0.31796,-2.15715 c 0.04126,-0.27962 0.280868,-0.48641 0.563739,-0.48637 h 5.585331 c 0.28267,0 0.522396,0.20704 0.563725,0.48664 l 0.318226,2.15636 4.617482,-0.32934 0.162992,-2.33695 c 0.01947,-0.27789 0.237247,-0.50062 0.515097,-0.52699 l 5.29144,-0.51019 c 0.01452,-0.002 0.03189,-0.002 0.04761,-0.002 v -0.6887 0 -7.94556 h 0.01888 c 0.70122,-0.89513 1.350091,-1.83836 1.972415,-2.84454 -0.826418,-1.40686 -1.838775,-2.6639 -2.92111,-3.82869 -1.003228,0.50507 -1.977728,1.07701 -2.898092,1.68577 -0.459452,-0.45944 -0.980269,-0.83261 -1.49018,-1.22422 -0.500923,-0.40235 -1.064959,-0.69788 -1.600386,-1.04157 0.159428,-1.18715 0.238349,-2.35516 0.270084,-3.57489 -1.381481,-0.69529 -2.85488,-1.15674 -4.345066,-1.48785 -0.594942,0.99991 -1.138961,2.08266 -1.61281,3.14127 -0.561872,-0.0939 -1.126191,-0.12859 -1.691457,-0.13531 v 0 c -0.0035,0 -0.0097,0 -0.01111,0 -0.0035,0 -0.0075,-0.002 -0.01111,0 -0.566268,0.007 -1.130683,0.0417 -1.692755,0.13556 -0.473518,-1.05857 -1.017506,-2.14161 -1.613326,-3.14154 z m 16.696757,5.64303 c 0,-1.2e-4 0,0 0.0015,0 z m -47.741421,-5.45753 -0.228189,0.22871 -2.451807,2.4518 2.679996,2.68027 2.680259,-2.68027 z m 71.597005,0.44317 h 1.44775 v 1.44776 h 1.44747 v 1.44749 h -1.44747 v 1.4475 h -1.44775 v -1.4475 h -1.4475 v -1.44749 h 1.4475 z m 7.59991,0 c 0.59972,-6e-5 1.08589,0.48611 1.08582,1.08582 -8e-5,0.5996 -0.4862,1.08562 -1.08582,1.08555 -0.5995,-8e-5 -1.08547,-0.48606 -1.08555,-1.08555 -6e-5,-0.5996 0.48594,-1.08574 1.08555,-1.08582 z m -79.196915,0.47086 1.765964,1.76648 -1.766481,1.76623 -1.766229,-1.76623 z m -8.783023,0.31745 v 0.2662 h 0.532438 v -0.2662 z m 85.808578,1.38306 c 0.5997,-6e-5 1.08587,0.48611 1.08581,1.08583 -8e-5,0.59959 -0.48621,1.08562 -1.08581,1.08555 -0.5996,5e-5 -1.08574,-0.48596 -1.08582,-1.08555 -7e-5,-0.59971 0.4861,-1.08589 1.08582,-1.08583 z m -82.520602,0.76915 c -0.674728,0.002 -1.234904,0.52135 -1.285026,1.19422 -0.23696,-0.21481 -0.545288,-0.33394 -0.865127,-0.33426 -0.712399,5e-5 -1.289888,0.57755 -1.28994,1.28995 0,0.54609 0.345112,1.03259 0.85996,1.21464 v 0.93551 c 0,0.23822 0.191749,0.42998 0.42998,0.42998 h 2.580134 c 0.238229,0 0.42998,-0.19176 0.42998,-0.42998 v -0.42998 l 1.290191,0.85996 v -2.58013 l -1.290191,0.8602 v -0.76086 c 0.273027,-0.24422 0.429357,-0.59298 0.429979,-0.95931 -6.6e-5,-0.71238 -0.577554,-1.28987 -1.28994,-1.28994 z m -7.964443,5.95375 c -0.214587,-0.002 -0.396428,0.15757 -0.423264,0.37047 l -0.249648,1.99932 -0.221726,-0.44317 c -0.07175,-0.14337 -0.218401,-0.23391 -0.378745,-0.23387 h -0.846767 c -0.572574,-0.008 -0.572574,0.85488 0,0.84677 h 0.585462 l 0.729315,1.45938 c 0.187166,0.37468 0.746587,0.27922 0.798896,-0.13632 l 0.249662,-1.9996 0.221712,0.4424 c 0.07171,0.14348 0.218349,0.23414 0.378758,0.23414 h 1.270019 c 0.572573,0.008 0.572573,-0.85488 0,-0.84677 H 18.829783 L 18.0997,221.29819 c -0.07151,-0.14209 -0.216599,-0.23213 -0.375645,-0.2331 z m 97.579435,2.22595 c -0.3379,3e-5 -0.61182,0.27396 -0.61184,0.61185 l -0.61212,1.83556 h -1.22371 v 2.44768 h 0.6429 c 0.14176,-0.69823 0.75865,-1.2237 1.49873,-1.2237 0.74005,0 1.35696,0.52547 1.4987,1.2237 h 1.28606 c 0.14176,-0.69823 0.75841,-1.2237 1.49846,-1.2237 0.74007,0 1.35697,0.52547 1.49873,1.2237 h 0.64315 v -2.44768 h -2.44767 v -2.44741 z m 0.61187,0.61185 h 2.44766 v 1.83556 h -2.44766 z m -97.353598,0.12496 v 0.4235 2.1168 0.42351 H 20.6788 c 0.233832,0 0.423251,-0.18968 0.423251,-0.42351 v -2.1168 c 0,-0.23378 -0.189419,-0.4235 -0.423251,-0.4235 v 1.69353 l -0.423516,-0.42325 -0.423252,0.42325 v -1.69353 z m 39.479195,0.14696 c 0.881022,0 1.678977,0.35642 2.256228,0.93342 v 0 c 0.577289,0.57697 0.934268,1.37435 0.934203,2.25519 0,1.76248 -1.428455,3.19047 -3.190431,3.19044 -1.761169,-10e-6 -3.189478,-1.42777 -3.189915,-3.18992 0,-1.76147 1.428335,-3.1888 3.189399,-3.18888 z m 14.703375,1.26017 c 0.585172,2e-5 1.114842,0.23688 1.497941,0.62015 v 0 c 0.383118,0.38327 0.619625,0.91237 0.619625,1.49691 -1.21e-4,1.16901 -0.947214,2.11651 -2.117566,2.11651 -1.169085,-1e-5 -2.116468,-0.94739 -2.116523,-2.11651 6.5e-5,-1.16915 0.947438,-2.1173 2.116523,-2.11731 z m 42.253118,2.1393 c -0.50697,-2e-5 -0.91795,0.41094 -0.91792,0.9179 -3e-5,0.50698 0.41095,0.91795 0.91792,0.91792 0.50694,3e-5 0.91793,-0.41094 0.91791,-0.91792 2e-5,-0.50696 -0.41097,-0.91792 -0.91791,-0.9179 z m 4.28322,0 c -0.50686,1.3e-4 -0.91767,0.41105 -0.91765,0.9179 -2e-5,0.50687 0.41079,0.91781 0.91765,0.91792 0.50696,3e-5 0.91794,-0.41094 0.91791,-0.91792 3e-5,-0.50696 -0.41095,-0.91792 -0.91791,-0.9179 z m -106.315883,2.05701 -0.228191,0.22845 -1.847983,1.84798 2.076174,2.07591 2.07616,-2.07591 z m 0,0.91403 1.16213,1.1624 -1.16213,1.16239 -1.162395,-1.16265 z m 38.261949,3.08954 c 0.002,0.51161 0.0087,1.07203 0.0087,1.18362 0,5.02728 6.377459,7.4438 14.300825,7.4716 h 0.0095 0.0098 c 7.923368,-0.0278 14.298494,-2.44432 14.298494,-7.4716 0,-0.11365 0.007,-0.67174 0.0093,-1.18362 l -4.758485,0.45897 -0.164024,2.34909 c -0.01972,0.28315 -0.244882,0.50875 -0.528029,0.52907 l -5.638634,0.4023 c -0.01377,0.002 -0.02748,0.002 -0.0411,0.002 -0.280222,0 -0.522097,-0.20576 -0.563474,-0.48714 l -0.323409,-2.1929 h -4.600938 l -0.323387,2.19285 c -0.04346,0.29513 -0.307166,0.50738 -0.60435,0.4856 l -5.63889,-0.40231 c -0.283148,-0.0204 -0.508291,-0.24565 -0.528028,-0.5288 l -0.164026,-2.34936 z m -24.950697,18.65962 -0.228189,0.22869 -2.45207,2.45182 2.680259,2.68026 2.679996,-2.68026 z m 0,0.91404 1.766481,1.76647 -1.766481,1.76623 -1.766745,-1.76623 z m 77.494581,1.59183 c -0.0204,0 -0.0407,0.0102 -0.0611,0.0306 l -0.36816,0.36814 c -0.0765,0.044 -0.14236,0.0934 -0.19766,0.14876 -0.0943,0.0943 -0.16026,0.19773 -0.19765,0.30993 -0.0374,0.11221 -0.0438,0.22273 -0.0195,0.33168 0.0244,0.1057 0.0773,0.19914 0.1586,0.28044 0.0715,0.0715 0.15193,0.12276 0.24137,0.15367 0.091,0.0293 0.18451,0.035 0.28044,0.0171 -0.0277,0.0731 -0.035,0.15051 -0.022,0.23181 0.013,0.0781 0.0448,0.14234 0.0952,0.19274 0.0439,0.0439 0.0894,0.0731 0.13659,0.0876 0.0489,0.0129 0.10238,0.0114 0.16093,-0.005 -0.0277,0.0894 -0.0317,0.17956 -0.0122,0.27062 0.0195,0.0911 0.0594,0.16673 0.11953,0.22689 0.1057,0.10569 0.24301,0.13083 0.41211,0.0756 0.17075,-0.057 0.36193,-0.19091 0.57332,-0.40229 0.19513,-0.19513 0.31134,-0.38299 0.34874,-0.56348 0.0374,-0.18051 -0.002,-0.33086 -0.11952,-0.45121 -0.1122,-0.11218 -0.25354,-0.14634 -0.42429,-0.10244 -0.17237,0.0423 -0.35855,0.16322 -0.55856,0.36324 v 0 c -0.1317,0.13171 -0.23321,0.2171 -0.30476,0.25612 -0.0716,0.0359 -0.12847,0.0325 -0.17074,-0.01 -0.0261,-0.0261 -0.0424,-0.0602 -0.0489,-0.10244 -0.007,-0.0423 -0.002,-0.0868 0.0171,-0.13402 0.0764,-0.0407 0.14544,-0.0919 0.20722,-0.15367 0.096,-0.0959 0.16188,-0.19937 0.19766,-0.30994 0.0359,-0.11383 0.0415,-0.22339 0.0171,-0.32907 -0.0244,-0.10896 -0.078,-0.20504 -0.16092,-0.28795 -0.0926,-0.0927 -0.20345,-0.14963 -0.33192,-0.17076 l 0.13195,-0.13167 c 0.0407,-0.0407 0.0407,-0.0812 0,-0.12187 l -0.0391,-0.0391 c -0.0204,-0.0204 -0.0407,-0.0306 -0.0611,-0.0306 z m -0.16583,0.60359 c 0.10083,-0.007 0.18691,0.026 0.25845,0.0975 0.0716,0.0716 0.10336,0.1586 0.0952,0.26105 -0.007,0.10081 -0.0497,0.19093 -0.12936,0.27061 -0.0798,0.0797 -0.17076,0.12353 -0.27321,0.13168 -0.10081,0.007 -0.18689,-0.026 -0.25844,-0.0976 -0.0716,-0.0716 -0.10405,-0.15764 -0.0976,-0.25846 0.005,-0.10243 0.0479,-0.19447 0.1291,-0.27578 0.0812,-0.0814 0.17334,-0.12422 0.27578,-0.12909 z m 1.38594,0.86512 c 0.0402,0.002 0.0743,0.0162 0.10192,0.0422 0.0586,0.0585 0.0683,0.14629 0.0292,0.26337 -0.0374,0.11545 -0.12514,0.24233 -0.26337,0.38056 -0.13983,0.13985 -0.26604,0.22996 -0.37825,0.27062 -0.10893,0.0407 -0.19669,0.0293 -0.26335,-0.0342 -0.0406,-0.0407 -0.0642,-0.0918 -0.0706,-0.15368 -0.007,-0.0619 0.006,-0.12747 0.0364,-0.1974 0.0798,-0.057 0.17883,-0.14466 0.29752,-0.26336 0.14311,-0.14311 0.26667,-0.23584 0.37075,-0.27813 0.0529,-0.0219 0.0994,-0.032 0.1397,-0.0301 z m -2.71623,0.19532 c -0.0701,-0.003 -0.143,0.0126 -0.21861,0.0492 -0.0992,0.0472 -0.21305,0.13516 -0.3415,0.26364 -0.14636,0.14634 -0.27491,0.29434 -0.38549,0.44395 -0.0293,0.0455 -0.0259,0.0861 0.01,0.12185 l 1.08788,1.08787 c 0.0407,0.0407 0.0812,0.0407 0.12187,0 l 0.0853,-0.0854 c 0.0407,-0.0407 0.0407,-0.0815 0,-0.12212 l -0.98776,-0.98776 c 0.091,-0.10407 0.17573,-0.19514 0.25379,-0.2732 0.1122,-0.11219 0.20801,-0.1755 0.28768,-0.19015 0.078,-0.0163 0.15539,0.0139 0.23181,0.0902 0.0407,0.0407 0.0811,0.0407 0.12187,0 l 0.0853,-0.0854 c 0.0407,-0.0407 0.0407,-0.0815 0,-0.12211 -0.0975,-0.0976 -0.19171,-0.15757 -0.28277,-0.18032 -0.0228,-0.006 -0.046,-0.009 -0.0694,-0.0103 z m -1.52797,1.48994 c -0.0309,0.002 -0.0612,0.006 -0.0907,0.0132 -0.12035,0.0261 -0.22684,0.0854 -0.31951,0.17799 -0.0927,0.0927 -0.15364,0.20085 -0.18292,0.32444 -0.0277,0.12195 -0.0163,0.25358 0.0342,0.39505 0.0504,0.14146 0.14552,0.28211 0.28536,0.42195 0.13985,0.13985 0.2805,0.23495 0.42197,0.28536 0.14148,0.0504 0.27309,0.0618 0.39504,0.0342 0.12359,-0.0293 0.23175,-0.0902 0.32443,-0.1829 0.0927,-0.0926 0.15295,-0.19821 0.18059,-0.31693 0.0261,-0.12032 0.0123,-0.2496 -0.0414,-0.3878 -0.0536,-0.13822 -0.15113,-0.27817 -0.29261,-0.41963 -0.14146,-0.14149 -0.28141,-0.23895 -0.41963,-0.29261 -0.10364,-0.0403 -0.20197,-0.0578 -0.29468,-0.0523 z m 0.002,0.28846 c 0.0301,0 0.0615,0.003 0.0944,0.0101 0.13171,0.0277 0.26831,0.11207 0.40979,0.25355 0.14149,0.14147 0.22616,0.27809 0.2538,0.40979 0.0277,0.13172 -0.002,0.24057 -0.0879,0.32676 -0.0863,0.0861 -0.196,0.11632 -0.32936,0.0902 -0.13169,-0.0277 -0.26806,-0.11207 -0.40954,-0.25354 -0.14148,-0.14148 -0.22614,-0.27811 -0.2538,-0.4098 -0.026,-0.13334 0.004,-0.24317 0.0904,-0.32935 0.0647,-0.0647 0.14206,-0.0971 0.23233,-0.0977 z m -0.73733,2.07229 c -0.02039,0 -0.04048,0.0102 -0.06087,0.0306 l -0.243973,0.24396 c -0.04068,0.0407 -0.04068,0.0812 0,0.12185 l 0.219387,0.21966 c 0.04068,0.0407 0.08145,0.0407 0.122116,0 l 0.24371,-0.24397 c 0.0407,-0.0407 0.0407,-0.0812 0,-0.12185 l -0.21939,-0.21965 c -0.0204,-0.0204 -0.0407,-0.0306 -0.0611,-0.0306 z m -69.871654,0.39582 -0.228177,0.22845 -1.847983,1.84745 2.07616,2.07669 2.076174,-2.07669 z m 67.875433,0.0544 c -0.06097,-0.002 -0.120743,0.006 -0.1793,0.022 -0.117074,0.0293 -0.218128,0.0862 -0.30268,0.17075 -0.09265,0.0926 -0.151955,0.20224 -0.178001,0.32907 -0.02768,0.12522 -0.01629,0.25877 0.03418,0.40024 0.05037,0.14147 0.141491,0.27781 0.273197,0.40954 0.216269,0.21625 0.432598,0.32038 0.648857,0.31226 0.21464,-0.01 0.407222,-0.0998 0.577966,-0.2706 0.130077,-0.13009 0.227813,-0.27644 0.292856,-0.43905 0.01629,-0.0358 0.01219,-0.0659 -0.01219,-0.0902 -0.01,-0.01 -0.02209,-0.0171 -0.03678,-0.022 l -0.08275,-0.0341 c -0.03588,-0.0163 -0.06586,-0.0122 -0.09035,0.0122 -0.01129,0.0114 -0.01869,0.0221 -0.02199,0.0319 -0.06826,0.1431 -0.144659,0.25693 -0.229222,0.3415 -0.108939,0.10892 -0.233459,0.16821 -0.373311,0.17799 -0.139851,0.007 -0.283561,-0.0595 -0.431528,-0.19765 l 0.716889,-0.71716 c 0.04068,-0.0407 0.04068,-0.0812 0,-0.12185 l -0.05587,-0.0561 c -0.113826,-0.11384 -0.235039,-0.18949 -0.363487,-0.22689 -0.06336,-0.0195 -0.125559,-0.03 -0.186535,-0.0315 z m -0.03308,0.26699 c 0.03418,-0.002 0.06906,0.003 0.104772,0.0109 0.07156,0.0163 0.138452,0.0555 0.200247,0.1172 l -0.553909,0.55365 c -0.08305,-0.0991 -0.122862,-0.20234 -0.119524,-0.30967 0.003,-0.10732 0.03908,-0.19508 0.10737,-0.26339 0.04388,-0.0439 0.09775,-0.0747 0.16116,-0.0926 0.03248,-0.01 0.06566,-0.0152 0.09984,-0.0161 z m -67.842328,0.59246 1.162144,1.16212 -1.162144,1.16267 -1.162394,-1.16267 z m 66.46429,0.49182 c -0.157732,0.005 -0.327537,0.0983 -0.509665,0.28043 -0.146358,0.14635 -0.274906,0.29436 -0.385484,0.44395 -0.02928,0.0455 -0.02589,0.0861 0.01,0.12185 l 1.087881,1.08789 c 0.04068,0.0407 0.08116,0.0407 0.121862,0 l 0.08535,-0.0854 c 0.04068,-0.0407 0.04068,-0.0811 0,-0.12185 l -0.987757,-0.98777 c 0.09105,-0.10407 0.175492,-0.19514 0.253528,-0.2732 0.112207,-0.11215 0.21467,-0.16907 0.307348,-0.17075 0.09275,-0.002 0.19611,0.0543 0.309957,0.16817 l 0.690223,0.69024 c 0.04068,0.0407 0.08116,0.0407 0.121872,0 l 0.08535,-0.0854 c 0.04068,-0.0407 0.04068,-0.0811 0,-0.12185 l -0.690243,-0.69024 c -0.177251,-0.17727 -0.343988,-0.26265 -0.50009,-0.25612 z m -2.397748,0.97921 c -0.02039,0 -0.04048,0.0102 -0.06087,0.0306 l -0.158601,0.15859 c -0.04068,0.0407 -0.04068,0.0812 0,0.12186 l 0.16092,0.16117 c 0.04068,0.0407 0.08145,0.0407 0.122121,0 l 0.158322,-0.1586 c 0.04068,-0.0407 0.04068,-0.0815 0,-0.1221 l -0.16092,-0.16092 c -0.02039,-0.0204 -0.04068,-0.0306 -0.06107,-0.0306 z m 0.634375,0.63409 c -0.02039,2e-5 -0.04068,0.0102 -0.06107,0.0306 l -0.395049,0.39531 c -0.04068,0.0407 -0.04068,0.0811 0,0.12185 l 0.06337,0.0634 c 0.04068,0.0407 0.08115,0.0407 0.121852,0 l 0.24888,-0.24861 0.846246,0.84624 -0.329085,0.32934 c -0.04068,0.0407 -0.04068,0.0812 0,0.12186 l 0.06566,0.066 c 0.04068,0.0407 0.08145,0.0407 0.122122,0 l 0.865905,-0.86591 c 0.04068,-0.0407 0.04038,-0.0814 0,-0.12209 l -0.06566,-0.0658 c -0.04058,-0.0407 -0.08115,-0.0407 -0.121862,0 l -0.329326,0.32932 -0.970956,-0.97094 c -0.02039,-0.0204 -0.04048,-0.0306 -0.06077,-0.0306 z m -0.904993,0.90525 c -0.02039,0 -0.04068,0.0102 -0.06107,0.0306 l -0.368144,0.36815 c -0.07646,0.0439 -0.14237,0.0934 -0.197659,0.14875 -0.09435,0.0943 -0.160261,0.19774 -0.19766,0.30995 -0.03738,0.11221 -0.04377,0.22271 -0.01949,0.33166 0.02439,0.10571 0.07726,0.19915 0.158591,0.28046 0.07156,0.0715 0.151935,0.12276 0.241385,0.15366 0.09105,0.0293 0.184507,0.035 0.280433,0.017 -0.02768,0.0732 -0.03498,0.15053 -0.02199,0.23181 0.01299,0.0781 0.04477,0.14233 0.09525,0.19274 0.04388,0.044 0.08945,0.0731 0.136604,0.0876 0.04877,0.013 0.102372,0.0114 0.16092,-0.005 -0.02769,0.0894 -0.03168,0.17955 -0.01219,0.27061 0.01959,0.091 0.05937,0.16673 0.119524,0.2269 0.10571,0.10569 0.243013,0.13083 0.412149,0.0756 0.170724,-0.057 0.361897,-0.19089 0.573299,-0.40229 0.195121,-0.19512 0.311336,-0.38298 0.348735,-0.56347 0.03738,-0.1805 -0.002,-0.33086 -0.119533,-0.4512 -0.112188,-0.1122 -0.253549,-0.14636 -0.424283,-0.10244 -0.172353,0.0423 -0.358539,0.16321 -0.558557,0.36323 v 0 c -0.131707,0.13171 -0.23348,0.2171 -0.305019,0.25613 -0.07146,0.0358 -0.128209,0.0325 -0.170495,-0.01 -0.02598,-0.0261 -0.04238,-0.0602 -0.04887,-0.10244 -0.007,-0.0423 -0.002,-0.0869 0.01709,-0.13402 0.07646,-0.0407 0.145438,-0.0919 0.207234,-0.15367 0.09595,-0.0959 0.161899,-0.19937 0.197659,-0.30994 0.03578,-0.11383 0.04148,-0.22338 0.01709,-0.32908 -0.02439,-0.10896 -0.07796,-0.20501 -0.16093,-0.28796 -0.09265,-0.0926 -0.203456,-0.1496 -0.331925,-0.17073 l 0.131947,-0.1317 c 0.04068,-0.0407 0.04068,-0.0811 0,-0.12184 l -0.03878,-0.0388 c -0.02039,-0.0204 -0.04078,-0.0306 -0.06107,-0.0306 z m -0.165828,0.60358 c 0.100814,-0.007 0.186896,0.026 0.258446,0.0976 0.07156,0.0716 0.103362,0.1586 0.09525,0.26104 -0.007,0.10081 -0.04967,0.19093 -0.129367,0.27062 -0.07966,0.0797 -0.170755,0.12353 -0.273197,0.13167 -0.100814,0.007 -0.186896,-0.026 -0.258446,-0.0975 -0.07156,-0.0716 -0.104051,-0.15763 -0.09754,-0.25845 0.005,-0.10244 0.04787,-0.19448 0.129098,-0.27578 0.08135,-0.0814 0.173353,-0.12423 0.275795,-0.1291 z m 1.385925,0.86513 c 0.04028,0.002 0.07426,0.0161 0.101922,0.0421 0.05857,0.0586 0.06826,0.1463 0.02918,0.26338 -0.03738,0.11544 -0.12515,0.24233 -0.263372,0.38056 -0.139842,0.13985 -0.266031,0.23022 -0.378239,0.27086 -0.108949,0.0407 -0.19671,0.0293 -0.263362,-0.0341 -0.04068,-0.0407 -0.06416,-0.0919 -0.07056,-0.15366 -0.007,-0.0619 0.006,-0.12775 0.03648,-0.19766 0.07965,-0.057 0.17881,-0.14468 0.297503,-0.26338 0.14311,-0.1431 0.266671,-0.23583 0.370743,-0.27811 0.05287,-0.022 0.09944,-0.0321 0.139712,-0.03 z m -2.766682,0.22767 c -0.157721,0.005 -0.327516,0.0983 -0.509644,0.28044 -0.146368,0.14634 -0.274916,0.29435 -0.385494,0.44394 -0.02918,0.0455 -0.02589,0.0861 0.01,0.12186 l 1.087891,1.08789 c 0.04068,0.0407 0.08115,0.0407 0.121872,0 l 0.08535,-0.0854 c 0.04068,-0.0407 0.04068,-0.0811 0,-0.12184 l -0.987757,-0.98803 c 0.09105,-0.10407 0.175732,-0.19514 0.253798,-0.2732 0.112187,-0.11215 0.2144,-0.16908 0.307078,-0.17075 0.09265,-0.002 0.1961,0.0546 0.309946,0.16843 l 0.690234,0.69024 c 0.04068,0.0407 0.08115,0.0407 0.121852,0 l 0.08535,-0.0854 c 0.04068,-0.0407 0.04068,-0.0811 0,-0.12184 l -0.690254,-0.69025 c -0.17725,-0.17726 -0.343977,-0.26264 -0.50009,-0.25612 z m -1.398587,1.45861 c -0.06096,-0.002 -0.120742,0.006 -0.179299,0.022 -0.117075,0.0293 -0.217878,0.086 -0.302431,0.17048 -0.09265,0.0927 -0.152215,0.20251 -0.17825,0.32933 -0.02769,0.12522 -0.01629,0.25851 0.03418,0.39999 0.05037,0.14146 0.141481,0.27807 0.273197,0.40979 0.216269,0.21626 0.432588,0.32038 0.648857,0.31226 0.214639,-0.01 0.407471,-0.0998 0.578216,-0.27061 0.130097,-0.13007 0.227552,-0.27642 0.292606,-0.43903 0.01629,-0.0358 0.01219,-0.0659 -0.01219,-0.0902 -0.01,-0.01 -0.02209,-0.0171 -0.03678,-0.022 l -0.08275,-0.0342 c -0.03578,-0.0163 -0.06586,-0.0122 -0.09035,0.0122 -0.01129,0.0114 -0.01869,0.0221 -0.02199,0.0319 -0.06826,0.14308 -0.144669,0.25693 -0.229222,0.34148 -0.108939,0.10892 -0.233469,0.16821 -0.373321,0.17801 -0.139862,0.007 -0.283571,-0.0595 -0.431528,-0.19766 l 0.716888,-0.71716 c 0.04068,-0.0407 0.04068,-0.0812 0,-0.12185 l -0.05587,-0.0561 c -0.113827,-0.11384 -0.235039,-0.1895 -0.363477,-0.22689 -0.06346,-0.0196 -0.12557,-0.03 -0.186556,-0.0316 z m -0.03308,0.26699 c 0.03418,-0.002 0.06926,0.003 0.105041,0.0109 0.07156,0.0163 0.138203,0.0555 0.199998,0.1172 l -0.55391,0.55365 c -0.08305,-0.0991 -0.122601,-0.20235 -0.119263,-0.30968 0.003,-0.10724 0.03888,-0.19509 0.1071,-0.26338 0.04388,-0.0439 0.09775,-0.0748 0.16118,-0.0926 0.03248,-0.01 0.06576,-0.0152 0.09984,-0.0161 z m -1.419535,0.97562 c -0.02039,0 -0.04068,0.0102 -0.06107,0.0305 l -0.399957,0.39998 -0.329339,-0.32908 c -0.04064,-0.0407 -0.08118,-0.0407 -0.121865,0 l -0.08537,0.0854 c -0.04064,0.0407 -0.04064,0.0812 0,0.12185 l 0.329338,0.32936 -0.185491,0.18524 c -0.04064,0.0407 -0.04064,0.0814 0,0.12211 l 0.06339,0.0634 c 0.04064,0.0407 0.08143,0.0407 0.122097,0 l 0.185252,-0.18549 0.536569,0.53656 c 0.182118,0.18213 0.35621,0.2732 0.522077,0.2732 0.165858,0 0.313845,-0.065 0.443942,-0.19507 0.08125,-0.0813 0.150316,-0.18281 0.207224,-0.30476 0.01789,-0.0374 0.01559,-0.0676 -0.007,-0.0903 -0.01,-0.01 -0.02189,-0.0171 -0.03648,-0.022 l -0.09025,-0.0365 c -0.03738,-0.0147 -0.06756,-0.0106 -0.09025,0.0122 -0.01299,0.013 -0.02089,0.0244 -0.02429,0.0342 -0.03898,0.0846 -0.08855,0.15689 -0.148757,0.21707 -0.07646,0.0764 -0.159441,0.11059 -0.248871,0.10244 -0.08945,-0.008 -0.19593,-0.0741 -0.319511,-0.19766 l -0.536579,-0.53657 0.399966,-0.39996 c 0.04068,-0.0407 0.04068,-0.0815 0,-0.12213 l -0.06337,-0.0634 c -0.02039,-0.0204 -0.04068,-0.0305 -0.06107,-0.0305 z m -1.436112,1.56623 c -0.03087,0.002 -0.06116,0.006 -0.09081,0.0133 -0.120327,0.0261 -0.226816,0.0854 -0.319508,0.17799 -0.09269,0.0926 -0.153645,0.20084 -0.182917,0.32442 -0.02764,0.12196 -0.0163,0.25359 0.03418,0.39507 0.0504,0.14146 0.145509,0.28236 0.285342,0.42222 0.139858,0.13984 0.280501,0.23494 0.421972,0.28536 0.141463,0.0504 0.273094,0.0618 0.39505,0.0341 0.123587,-0.0293 0.231739,-0.0902 0.324423,-0.18291 0.09271,-0.0926 0.152949,-0.19846 0.180575,-0.31718 0.02599,-0.12033 0.01229,-0.24959 -0.04138,-0.3878 -0.05363,-0.13822 -0.151386,-0.27817 -0.292857,-0.41963 -0.14148,-0.14148 -0.281164,-0.23895 -0.419373,-0.29261 -0.103658,-0.0403 -0.201986,-0.0578 -0.29467,-0.0523 z m 0.0025,0.28846 c 0.03012,0 0.0615,0.003 0.09444,0.0101 0.131706,0.0277 0.268327,0.11207 0.40979,0.25353 0.14148,0.14149 0.225913,0.27809 0.253546,0.40981 0.02765,0.13173 -0.0017,0.24084 -0.0877,0.32702 -0.08619,0.0863 -0.196002,0.11632 -0.329338,0.0904 -0.131723,-0.0277 -0.268344,-0.11234 -0.409807,-0.25381 -0.14148,-0.14148 -0.225904,-0.27811 -0.253546,-0.4098 -0.02599,-0.13334 0.0041,-0.24316 0.0903,-0.32935 0.06463,-0.0647 0.14206,-0.0971 0.232318,-0.0977 z m -1.912916,0.27217 c -0.02036,0 -0.04072,0.0102 -0.06108,0.0306 l -0.08537,0.0854 c -0.04064,0.0407 -0.04064,0.0815 0,0.12211 l 0.543813,0.54381 c -0.07805,0.0521 -0.147066,0.10826 -0.207232,0.16842 -0.170728,0.17074 -0.260143,0.36428 -0.268286,0.58056 -0.0099,0.21463 0.09341,0.42999 0.309683,0.64625 0.216277,0.21626 0.432581,0.32038 0.648851,0.31228 0.214641,-0.01 0.407481,-0.10013 0.578217,-0.27089 0.125218,-0.1252 0.222684,-0.26987 0.292609,-0.43411 0.0098,-0.0325 0.0033,-0.06 -0.01945,-0.0828 l -1.671023,-1.67101 c -0.02036,-0.0204 -0.04047,-0.0306 -0.06083,-0.0306 z m 0.575635,0.95982 0.858411,0.85867 c -0.04883,0.0781 -0.104046,0.14802 -0.165836,0.20981 -0.11709,0.11708 -0.245385,0.17567 -0.385226,0.17567 -0.13822,-0.002 -0.285517,-0.0807 -0.44162,-0.23672 -0.164239,-0.16423 -0.242978,-0.31793 -0.236456,-0.46103 0.005,-0.14473 0.06819,-0.278 0.190143,-0.39996 0.04552,-0.0455 0.105785,-0.0944 0.180584,-0.14644 z m -41.010514,1.02682 -0.228177,0.22872 -2.451817,2.45154 2.679994,2.68 2.68026,-2.68 z m 39.535345,0.26261 c -0.03087,0.002 -0.06116,0.006 -0.09081,0.0132 -0.120333,0.0261 -0.226818,0.0853 -0.319511,0.17799 -0.09269,0.0926 -0.153641,0.20084 -0.182914,0.32442 -0.02764,0.12196 -0.01627,0.25385 0.03415,0.39532 0.05042,0.14146 0.14551,0.28211 0.285359,0.42196 0.139838,0.13984 0.280485,0.23495 0.421948,0.28536 0.141488,0.0504 0.273102,0.0618 0.395059,0.0342 0.123577,-0.0293 0.231738,-0.0903 0.324422,-0.18292 0.09271,-0.0927 0.152949,-0.19847 0.180575,-0.31717 0.02607,-0.12034 0.01208,-0.24962 -0.04163,-0.38783 -0.05363,-0.13821 -0.151137,-0.27815 -0.292608,-0.41961 -0.14148,-0.14149 -0.281411,-0.23895 -0.41963,-0.29261 -0.103667,-0.0402 -0.201721,-0.0578 -0.294405,-0.0522 z m 0.0025,0.28845 c 0.03012,0 0.0615,0.003 0.09443,0.0101 0.131705,0.0277 0.268326,0.11232 0.409798,0.2538 0.141479,0.14147 0.225912,0.27781 0.253537,0.40954 0.02765,0.13171 -0.0017,0.24082 -0.0877,0.327 -0.08618,0.0863 -0.195985,0.11633 -0.329337,0.0904 -0.131715,-0.0277 -0.268335,-0.11232 -0.409799,-0.25379 -0.141489,-0.14148 -0.2259,-0.27811 -0.253536,-0.4098 -0.02604,-0.13335 0.004,-0.24317 0.09029,-0.32935 0.06464,-0.0647 0.142081,-0.0971 0.232323,-0.0978 z m -1.193443,0.77252 c -0.02033,0 -0.04075,0.0102 -0.06105,0.0306 l -0.368149,0.36815 c -0.07645,0.0439 -0.142367,0.0934 -0.197659,0.14876 -0.09431,0.0943 -0.160264,0.19772 -0.197656,0.30993 -0.0374,0.1122 -0.0438,0.22273 -0.01943,0.33168 0.02438,0.10568 0.07703,0.19913 0.158342,0.28044 0.07154,0.0716 0.152184,0.12277 0.241633,0.15367 0.09106,0.0293 0.184506,0.035 0.280448,0.017 -0.02763,0.0732 -0.03499,0.15052 -0.02198,0.23181 0.01297,0.0781 0.0448,0.14232 0.09521,0.19275 0.04391,0.0439 0.08944,0.0731 0.136594,0.0876 0.04876,0.0128 0.102381,0.0114 0.160925,-0.005 -0.02769,0.0894 -0.03169,0.17955 -0.01216,0.27062 0.01952,0.091 0.05936,0.16673 0.119522,0.22689 0.1057,0.10568 0.24301,0.13083 0.412136,0.0756 0.170728,-0.057 0.361911,-0.1909 0.573299,-0.40231 0.195133,-0.19514 0.311337,-0.38296 0.348745,-0.56346 0.03741,-0.18051 -0.0025,-0.33087 -0.119514,-0.4512 -0.112207,-0.1122 -0.253563,-0.14636 -0.424306,-0.10244 -0.172352,0.0422 -0.358529,0.16321 -0.558554,0.36323 v 0 c -0.131709,0.13171 -0.233479,0.2171 -0.30502,0.25612 -0.07154,0.0359 -0.128473,0.0325 -0.170752,-0.01 -0.02603,-0.0261 -0.0421,-0.0602 -0.04866,-0.10244 -0.0065,-0.0423 -0.0015,-0.0869 0.01707,-0.13403 0.07643,-0.0407 0.14543,-0.0919 0.207224,-0.15367 0.09594,-0.0959 0.161892,-0.19936 0.197657,-0.30995 0.03579,-0.11382 0.04146,-0.22364 0.01707,-0.32933 -0.02438,-0.10895 -0.07799,-0.20476 -0.160909,-0.28769 -0.0927,-0.0927 -0.203476,-0.14961 -0.331935,-0.17075 l 0.131679,-0.13169 c 0.04066,-0.0406 0.04066,-0.0815 0,-0.1221 l -0.0388,-0.0388 c -0.02033,-0.0204 -0.04075,-0.0306 -0.06105,-0.0306 z m -0.165828,0.60358 c 0.100819,-0.007 0.186905,0.026 0.25846,0.0976 0.07156,0.0716 0.103342,0.1586 0.0952,0.26104 -0.0065,0.10081 -0.04966,0.19093 -0.129359,0.27062 -0.07968,0.0797 -0.170753,0.12352 -0.273199,0.13167 -0.100818,0.007 -0.186903,-0.026 -0.258445,-0.0976 -0.07156,-0.0716 -0.104047,-0.15764 -0.09754,-0.25844 0.005,-0.10246 0.04781,-0.19423 0.129095,-0.27554 0.08132,-0.0813 0.173352,-0.12448 0.275797,-0.12935 z m 1.38592,0.86512 c 0.04022,0.002 0.07432,0.0161 0.101937,0.0421 0.05851,0.0585 0.06827,0.14628 0.02921,0.26337 -0.03741,0.11544 -0.12515,0.24234 -0.263368,0.38056 -0.139838,0.13986 -0.266035,0.23023 -0.378228,0.27087 -0.108964,0.0407 -0.196716,0.0293 -0.26337,-0.0342 -0.04066,-0.0407 -0.06412,-0.0918 -0.07063,-0.15367 -0.0065,-0.0618 0.0055,-0.12774 0.0365,-0.19765 0.07967,-0.057 0.178808,-0.14468 0.297518,-0.26337 0.143098,-0.1431 0.266656,-0.23584 0.370729,-0.27813 0.05284,-0.0219 0.09945,-0.032 0.139706,-0.0301 z m -38.17632,5.21822 -0.22819,0.22871 -1.959476,1.95949 2.187666,2.18767 2.187666,-2.18767 z m 0,0.91404 1.274151,1.27416 -1.274151,1.27415 -1.274164,-1.27415 z m 8.790771,1.66972 -0.228693,0.22871 -2.845584,2.84557 3.074277,3.07376 3.074278,-3.07376 z m 0,0.91377 2.160246,2.16051 -2.160246,2.16025 -2.160246,-2.16025 z"
       id="path1085"
       inkscape:export-xdpi="96"
       inkscape:export-ydpi="96" />
    <path
       inkscape:connector-curvature="0"
       style="display:inline;fill:#ffffff;fill-opacity:1;fill-rule:nonzero;stroke:none;stroke-width:0.1293063"
       d="m 75.306219,225.10828 c -0.577261,-0.57698 -1.374878,-0.93345 -2.255385,-0.93346 -1.762343,10e-6 -3.190779,1.42696 -3.190354,3.18886 1.31e-4,1.76247 1.428161,3.19039 3.190379,3.19039 1.761015,-3e-5 3.189486,-1.42864 3.189631,-3.19114 0,-0.88073 -0.35701,-1.67766 -0.934226,-2.2546 z m -1.063696,0.94701 c 0.383104,0.38327 0.619605,0.91247 0.619605,1.49702 -1.1e-4,1.16901 -0.947058,2.11659 -2.1174,2.1166 -1.16912,-1e-5 -2.116569,-0.94749 -2.116614,-2.1166 6.1e-5,-1.16915 0.947499,-2.11739 2.116609,-2.11741 0.585167,2e-5 1.114676,0.23711 1.497786,0.62038 z m -13.944642,-0.94736 c -0.57726,-0.57703 -1.374738,-0.93306 -2.255766,-0.93307 -1.76118,1e-5 -3.190072,1.42686 -3.189953,3.18845 -2e-5,1.7626 1.428748,3.19081 3.190374,3.19038 1.761942,-10e-6 3.189753,-1.42835 3.189973,-3.19078 6e-5,-0.88083 -0.356535,-1.678 -0.933832,-2.25498 z m -0.453007,0.94698 c 0.383144,0.38325 0.61998,0.91285 0.619985,1.4974 1.5e-5,1.16912 -0.948143,2.11662 -2.118124,2.11662 -1.169428,1e-5 -2.117376,-0.94747 -2.116996,-2.11699 6e-6,-1.16915 0.948334,-2.11777 2.117775,-2.11777 0.585002,1e-5 1.114646,0.23712 1.497785,0.62038 z"
       id="path1101"
       inkscape:export-xdpi="96"
       inkscape:export-ydpi="96" />
    <g
       id="g1105"
       transform="matrix(0.14625237,0,0,-0.14625237,65.546014,230.8437)"
       style="display:inline;stroke-width:0.88413143"
       inkscape:export-filename="/home/undervoid/path2566.png"
       inkscape:export-xdpi="96"
       inkscape:export-ydpi="96">
      <path
         d="m 0,0 c -3.878,0 -7.021,2.858 -7.021,6.381 v 20.081 c 0,3.52 3.143,6.381 7.021,6.381 3.878,0 7.028,-2.861 7.028,-6.381 V 6.381 C 7.028,2.858 3.878,0 0,0"
         style="fill:#ffffff;fill-opacity:1;fill-rule:nonzero;stroke:none;stroke-width:0.88413143"
         id="path1103"
         inkscape:connector-curvature="0" />
    </g>
    <path
       style="display:inline;fill:#ffffff;fill-opacity:1;fill-rule:nonzero;stroke:none;stroke-width:0.08706476"
       d="m 51.958253,248.72223 c -1.141717,2e-5 -2.034525,0.35945 -2.679226,1.0783 -0.645229,0.71918 -0.967318,1.65301 -0.967318,2.80211 1.5e-5,1.34921 0.3296,2.37163 0.98879,3.06834 0.660407,0.69657 1.527243,1.04466 2.602123,1.04468 0.578033,2e-5 1.091077,-0.0499 1.539338,-0.15005 0.448746,-0.0997 0.747023,-0.20196 0.895406,-0.30554 l 0.04451,-3.47943 c 0,-0.20218 -0.533341,-0.29372 -1.131864,-0.30398 -0.598523,-0.009 -1.283725,0.11564 -1.283725,0.11564 l 2.65e-4,1.16809 h 0.688686 l -0.0075,0.52078 c 0,0.19292 -0.191394,0.28979 -0.572786,0.28977 -0.381887,0 -0.719246,-0.16157 -1.011826,-0.48407 -0.293268,-0.32288 -0.439044,-0.79497 -0.439029,-1.41694 0,-0.62324 0.142501,-1.08295 0.427917,-1.37946 0.284802,-0.2962 0.657917,-0.44448 1.117119,-0.44448 0.192915,0 0.39252,0.031 0.600205,0.0944 0.20779,0.063 0.346742,0.12201 0.417552,0.17723 0.06994,0.0571 0.137086,0.0837 0.200256,0.0836 0.06295,0 0.164383,-0.0736 0.305019,-0.22225 0.141029,-0.14807 0.26742,-0.37237 0.378757,-0.67187 0.110881,-0.30104 0.166368,-0.532 0.166342,-0.69567 2.6e-5,-0.16222 -0.0035,-0.27409 -0.01061,-0.33322 -0.155628,-0.17043 -0.44316,-0.3055 -0.862289,-0.40593 -0.418323,-0.10016 -0.887236,-0.15005 -1.406098,-0.15005 z m 21.56624,0 c -1.049264,-1e-5 -1.90522,0.33732 -2.569021,1.01131 -0.663256,0.67464 -0.994473,1.66575 -0.994488,2.97466 0,1.30813 0.327747,2.30361 0.983879,2.98554 0.655666,0.68135 1.504419,1.02164 2.545981,1.02166 1.041182,0 1.892018,-0.32736 2.551684,-0.98259 0.660277,-0.65625 0.989556,-1.65734 0.989572,-3.00262 0,-1.34427 -0.322301,-2.3494 -0.967319,-3.01244 -0.645136,-0.66427 -1.491467,-0.99553 -2.540288,-0.99552 z m -14.745303,2.6e-4 c -1.048848,0 -1.905139,0.33712 -2.568489,1.01105 -0.663296,0.67467 -0.994749,1.66602 -0.994749,2.97493 -3.9e-5,1.30812 0.327772,2.30306 0.983108,2.98501 0.656247,0.68133 1.50532,1.02192 2.546502,1.02192 1.041669,-2e-5 1.891707,-0.32734 2.55168,-0.98259 0.660317,-0.65629 0.989571,-1.65734 0.989571,-3.00262 -1e-5,-1.34428 -0.322341,-2.3494 -0.967848,-3.01244 -0.644303,-0.66434 -1.491097,-0.99526 -2.539775,-0.99526 z m 4.990044,0.099 c -0.148715,0 -0.268963,0.0546 -0.361417,0.16145 -0.09314,0.10844 -0.139433,0.25492 -0.139457,0.44032 v 6.66986 c 1.5e-5,0.34123 0.189591,0.51145 0.567359,0.51146 l 1.900753,2.7e-4 c 2.327453,0 3.491592,-1.36377 3.491582,-4.09154 1e-5,-1.27504 -0.306131,-2.20876 -0.918165,-2.80159 -0.610934,-0.59302 -1.505875,-0.89023 -2.684142,-0.89023 z m 13.871096,0 c -0.126286,0 -0.215324,0.17158 -0.266985,0.51252 -0.02228,0.16295 -0.03284,0.33007 -0.03284,0.49982 -1.5e-5,0.17076 0.01061,0.33715 0.03284,0.49983 0.05171,0.3418 0.140819,0.51227 0.266985,0.51225 l 1.333664,-2.6e-4 2.65e-4,5.5817 c 0,0.14733 0.367379,0.222 1.100823,0.22198 0.734136,2e-5 1.100563,-0.0749 1.100563,-0.22223 v -5.58145 l 1.301055,2.6e-4 c 0.12601,0 0.214212,-0.17045 0.266734,-0.51225 0.02173,-0.16268 0.03349,-0.32905 0.03339,-0.49983 0,-0.16978 -0.01141,-0.33711 -0.03309,-0.50009 -0.0394,-0.25568 -0.09904,-0.41599 -0.179549,-0.48017 v 2.6e-4 c -0.02713,-0.0211 -0.05596,-0.0323 -0.08745,-0.0324 z m -4.143789,2.03529 c 0.272564,0 0.511167,0.0935 0.716123,0.27992 h 2.66e-4 c 0.02943,0.0264 0.05801,0.0552 0.08563,0.086 0.03189,0.0349 0.06352,0.0715 0.09314,0.11175 0.240947,0.31861 0.361181,0.77502 0.361166,1.36782 1.5e-5,0.59333 -0.11671,1.0492 -0.350292,1.36755 -0.233222,0.31953 -0.53739,0.47861 -0.911713,0.47861 -0.374412,-1e-5 -0.676567,-0.15736 -0.906,-0.47319 -0.229438,-0.31482 -0.344609,-0.76625 -0.344609,-1.35641 1e-5,-0.58889 0.120379,-1.04666 0.36065,-1.37273 0.241302,-0.3257 0.539948,-0.48925 0.895656,-0.48923 z m -14.745552,2.7e-4 c 0.272633,2e-5 0.511674,0.0932 0.716639,0.27966 0.02948,0.0265 0.05804,0.0553 0.08562,0.0859 0.03189,0.0349 0.06332,0.0715 0.09263,0.11201 0.240924,0.31861 0.361938,0.775 0.361938,1.36781 -1.5e-5,0.59332 -0.11708,1.04891 -0.350558,1.3673 -0.233447,0.31957 -0.537524,0.47883 -0.911697,0.47887 -0.374403,0 -0.676267,-0.15737 -0.90602,-0.47317 -0.230108,-0.31482 -0.34486,-0.76678 -0.34486,-1.35696 0,-0.58887 0.12078,-1.0464 0.361166,-1.37246 0.241648,-0.32576 0.539577,-0.48893 0.895141,-0.48897 z m 6.652012,0.0772 h 0.111243 c 0.474339,-1e-5 0.821122,0.10816 1.040026,0.32314 0.218124,0.21409 0.327273,0.67615 0.327273,1.38436 -1.5e-5,0.70795 -0.104845,1.21328 -0.316675,1.51683 -0.21133,0.30389 -0.520453,0.45636 -0.928508,0.45636 -0.110922,0 -0.177432,-0.0204 -0.199475,-0.0614 -0.02228,-0.0411 -0.03384,-0.1392 -0.03389,-0.29442 z"
       id="path1223"
       inkscape:connector-curvature="0"
       inkscape:export-xdpi="96"
       inkscape:export-ydpi="96" />
  </g>
</svg>
