<svg xmlns="http://www.w3.org/2000/svg" xmlns:xlink="http://www.w3.org/1999/xlink" xml:space="preserve" width="2000" height="250" viewBox="0 0 529.167 66.146"><defs><linearGradient id="a"><stop offset="0" style="stop-color:#ffb29f;stop-opacity:1"/><stop offset="1" style="stop-color:#4c8dff;stop-opacity:.9254902"/></linearGradient><linearGradient xlink:href="#a" id="h" x1="96.705" x2="66.675" y1="307.186" y2="281.654" gradientTransform="translate(463.932 -240.99)scale(1.80406)" gradientUnits="userSpaceOnUse"/><linearGradient xlink:href="#a" id="k" x1="96.705" x2="66.675" y1="307.186" y2="281.654" gradientTransform="translate(410.835 -267.708)scale(1.80406)" gradientUnits="userSpaceOnUse"/><linearGradient xlink:href="#a" id="m" x1="96.705" x2="66.675" y1="307.186" y2="281.654" gradientTransform="translate(396.882 -329.908)scale(1.80406)" gradientUnits="userSpaceOnUse"/><linearGradient xlink:href="#a" id="n" x1="96.705" x2="66.675" y1="307.186" y2="281.654" gradientTransform="translate(313.385 -359.753)scale(1.80406)" gradientUnits="userSpaceOnUse"/><linearGradient xlink:href="#a" id="o" x1="96.705" x2="66.675" y1="307.186" y2="281.654" gradientTransform="translate(292.553 -416.945)scale(1.80406)" gradientUnits="userSpaceOnUse"/><linearGradient xlink:href="#a" id="q" x1="96.705" x2="66.675" y1="307.186" y2="281.654" gradientTransform="translate(476.02 -197.198)scale(1.80406)" gradientUnits="userSpaceOnUse"/><linearGradient xlink:href="#a" id="r" x1="96.705" x2="66.675" y1="307.186" y2="281.654" gradientTransform="translate(469.352 -242.304)scale(1.80406)" gradientUnits="userSpaceOnUse"/><linearGradient xlink:href="#a" id="s" x1="96.705" x2="66.675" y1="307.186" y2="281.654" gradientTransform="translate(573.192 -151.36)scale(1.80406)" gradientUnits="userSpaceOnUse"/><linearGradient xlink:href="#a" id="t" x1="96.705" x2="66.675" y1="307.186" y2="281.654" gradientTransform="translate(564.741 -122.276)scale(1.80406)" gradientUnits="userSpaceOnUse"/><linearGradient xlink:href="#a" id="u" x1="96.705" x2="66.675" y1="307.186" y2="281.654" gradientTransform="translate(636.62 -99.823)scale(1.80406)" gradientUnits="userSpaceOnUse"/><linearGradient xlink:href="#a" id="v" x1="96.705" x2="66.675" y1="307.186" y2="281.654" gradientTransform="translate(598.845 -102.07)scale(1.80406)" gradientUnits="userSpaceOnUse"/><linearGradient xlink:href="#a" id="w" x1="96.705" x2="66.675" y1="307.186" y2="281.654" gradientTransform="translate(609.117 -67.922)scale(1.80406)" gradientUnits="userSpaceOnUse"/><linearGradient xlink:href="#a" id="b" x1="96.705" x2="66.675" y1="307.186" y2="281.654" gradientTransform="translate(387.827 -374.768)scale(1.38377)" gradientUnits="userSpaceOnUse"/><linearGradient xlink:href="#a" id="g" x1="96.705" x2="66.675" y1="307.186" y2="281.654" gradientTransform="translate(256.42 -332.963)scale(1.38377)" gradientUnits="userSpaceOnUse"/><linearGradient xlink:href="#a" id="f" x1="96.705" x2="66.675" y1="307.186" y2="281.654" gradientTransform="translate(162.067 -363.967)scale(1.38377)" gradientUnits="userSpaceOnUse"/><linearGradient xlink:href="#a" id="c" x1="96.705" x2="66.675" y1="307.186" y2="281.654" gradientTransform="translate(100.605 -370.362)scale(1.38377)" gradientUnits="userSpaceOnUse"/><linearGradient xlink:href="#a" id="d" x1="96.705" x2="66.675" y1="307.186" y2="281.654" gradientTransform="translate(9.457 -334.55)scale(1.38377)" gradientUnits="userSpaceOnUse"/><linearGradient xlink:href="#a" id="e" x1="96.705" x2="66.675" y1="307.186" y2="281.654" gradientTransform="translate(-82.234 -365.408)scale(1.38377)" gradientUnits="userSpaceOnUse"/></defs><g style="display:inline"><path d="M0 0h529.167v66.146H0z" style="opacity:1;fill:#416d8d;fill-opacity:1;fill-rule:nonzero;stroke:none;stroke-width:2.12308;stroke-linecap:butt;stroke-linejoin:miter;stroke-miterlimit:3.8;stroke-dasharray:.212308,.212308;stroke-dashoffset:0;stroke-opacity:1"/></g><path d="M201.526 31.17a3.683 3.683 0 0 0-3.676 3.673 3.683 3.683 0 0 0 3.676 3.673 3.68 3.68 0 0 0 3.673-3.673 3.68 3.68 0 0 0-3.673-3.674zm-.002 1.22c.532.836.79 1.648.79 2.453 0 .028-.004.056-.004.084a8.61 8.61 0 0 1-1.569.016c0-.033-.006-.067-.006-.1 0-.805.257-1.618.788-2.454zm.915 0a2.605 2.605 0 0 1 1.697 2.19 12.56 12.56 0 0 1-1.037.238c-.004-.818-.231-1.63-.66-2.427m-1.828.001c-.433.805-.661 1.625-.662 2.45a9.242 9.242 0 0 1-1.037-.25 2.608 2.608 0 0 1 1.699-2.2m3.474 3.018a2.603 2.603 0 0 1-1.647 1.887 5.466 5.466 0 0 0 .592-1.676c.358-.057.71-.126 1.055-.211zm-5.116.017c.359.096.711.174 1.054.226.098.552.296 1.1.588 1.642a2.606 2.606 0 0 1-1.642-1.868m3.24.292a5.05 5.05 0 0 1-.685 1.578 5.065 5.065 0 0 1-.679-1.558c.469.029.921.016 1.364-.02" style="color:#000;font-style:normal;font-variant:normal;font-weight:400;font-stretch:normal;font-size:medium;line-height:normal;font-family:sans-serif;font-variant-ligatures:normal;font-variant-position:normal;font-variant-caps:normal;font-variant-numeric:normal;font-variant-alternates:normal;font-feature-settings:normal;text-indent:0;text-align:start;text-decoration:none;text-decoration-line:none;text-decoration-style:solid;text-decoration-color:#000;letter-spacing:normal;word-spacing:normal;text-transform:none;writing-mode:lr-tb;direction:ltr;text-orientation:mixed;dominant-baseline:auto;baseline-shift:baseline;text-anchor:start;white-space:normal;shape-padding:0;clip-rule:nonzero;display:inline;overflow:visible;visibility:visible;opacity:1;isolation:auto;mix-blend-mode:normal;color-interpolation:sRGB;color-interpolation-filters:linearRGB;solid-color:#000;solid-opacity:1;vector-effect:none;fill:#708ee1;fill-opacity:1;fill-rule:nonzero;stroke:none;stroke-width:1.04981;stroke-linecap:round;stroke-linejoin:round;stroke-miterlimit:4;stroke-dasharray:none;stroke-dashoffset:0;stroke-opacity:1;color-rendering:auto;image-rendering:auto;shape-rendering:auto;text-rendering:auto;enable-background:accumulate"/><path d="m77.233 3.166-1.247 2.15-2.428.577 1.699 1.788-.188 2.454 2.172-1.038 2.182 1.02-.207-2.443 1.69-1.781-2.427-.576z" style="opacity:1;fill:#aa96bd;fill-opacity:1;stroke:none;stroke-width:1.04981;stroke-linecap:round;stroke-linejoin:round;stroke-miterlimit:4;stroke-dasharray:none;stroke-dashoffset:0;stroke-opacity:1"/><path d="M248.59 17.873a3.674 3.674 0 0 0-3.675 3.675v2.624a1.05 1.05 0 0 0 1.05 1.05h1.05v-2.625h-1.05v-1.05a2.625 2.625 0 0 1 2.624-2.624 2.625 2.625 0 0 1 2.625 2.625v1.05h-1.05v2.624h1.05a1.05 1.05 0 0 0 1.05-1.05v-2.625a3.674 3.674 0 0 0-3.675-3.674" style="opacity:1;fill:#708ee1;fill-opacity:1;stroke:none;stroke-width:1.04981;stroke-linecap:butt;stroke-linejoin:round;stroke-miterlimit:4;stroke-dasharray:none;stroke-dashoffset:0;stroke-opacity:1"/><path d="M236.082 39.813a2.625 2.625 0 0 0-2.273 1.312 2.625 2.625 0 0 0 0 2.625 2.625 2.625 0 0 0 2.273 1.312h.525v-1.05h-.525a1.575 1.575 0 0 1-1.575-1.575 1.575 1.575 0 0 1 1.575-1.574h.525v-1.05zm1.575 0v1.05h.525a1.575 1.575 0 0 1 1.574 1.574 1.575 1.575 0 0 1-1.574 1.575h-.525v1.05h.525a2.625 2.625 0 0 0 2.272-1.312 2.625 2.625 0 0 0 0-2.625 2.625 2.625 0 0 0-2.272-1.312zm-1.575 2.1a.525.525 0 0 0-.525.524.525.525 0 0 0 .525.525h2.1a.525.525 0 0 0 .524-.525.525.525 0 0 0-.524-.525z" style="opacity:1;fill:#708ee1;fill-opacity:1;stroke:none;stroke-width:1.04981;stroke-linecap:round;stroke-linejoin:round;stroke-miterlimit:4;stroke-dasharray:none;stroke-dashoffset:0;stroke-opacity:1"/><path d="M7.705 50.96a1.05 1.05 0 0 0-1.05 1.05 1.05 1.05 0 0 0 .525.909v3.433a1.05 1.05 0 0 0-.525.908 1.05 1.05 0 0 0 1.05 1.05 1.05 1.05 0 0 0 .908-.526h3.434a1.05 1.05 0 0 0 .907.525 1.05 1.05 0 0 0 1.05-1.05 1.05 1.05 0 0 0-.541-.918h.016v-3.423a1.05 1.05 0 0 0 .524-.907 1.05 1.05 0 0 0-1.05-1.05 1.05 1.05 0 0 0-.908.525H8.612a1.05 1.05 0 0 0-.907-.525zm1.267 1.575h3.075a1.05 1.05 0 0 0 .382.384v3.073zm-.742.743 3.457 3.457H8.612a1.05 1.05 0 0 0-.382-.384z" style="opacity:1;fill:#607ac2;fill-opacity:1;stroke:none;stroke-width:1.04981;stroke-linecap:round;stroke-linejoin:round;stroke-miterlimit:4;stroke-dasharray:none;stroke-dashoffset:0;stroke-opacity:1"/><path d="M90.292 12.827a2.362 2.625 0 0 0-2.317 2.116 1.575 1.575 0 0 0-1.357 1.558 1.575 1.575 0 0 0 1.575 1.575h4.199a1.575 1.575 0 0 0 1.574-1.575 1.575 1.575 0 0 0-1.359-1.557 2.362 2.625 0 0 0-2.315-2.117zm-2.1 5.773a.525.525 0 0 0-.524.525.525.525 0 0 0 .525.525.525.525 0 0 0 .524-.525.525.525 0 0 0-.524-.525m4.2 0a.525.525 0 0 0-.525.525.525.525 0 0 0 .525.525.525.525 0 0 0 .525-.525.525.525 0 0 0-.525-.525m-2.1.525a.525.525 0 0 0-.525.525.525.525 0 0 0 .525.525.525.525 0 0 0 .525-.525.525.525 0 0 0-.525-.525" style="opacity:1;fill:#708ee1;fill-opacity:1;stroke:none;stroke-width:1.04981;stroke-linecap:round;stroke-linejoin:round;stroke-miterlimit:4;stroke-dasharray:none;stroke-dashoffset:0;stroke-opacity:.996078"/><path d="M261.959 46.22c-.58 0-1.05.47-1.05 1.05v5.249c0 .58.47 1.05 1.05 1.05h5.249c.58 0 1.05-.47 1.05-1.05v-4.724l-1.575-1.575h-.525v3.149h-4.2zm.525 0v2.624h1.574V46.22zm2.1 4.199a1.05 1.05 0 1 1 0 2.1 1.05 1.05 0 0 1 0-2.1" style="opacity:1;fill:#9a97cd;fill-opacity:1;stroke:none;stroke-width:1.57472;stroke-linecap:round;stroke-linejoin:round;stroke-miterlimit:4;stroke-dasharray:none;stroke-dashoffset:0;stroke-opacity:1"/><path d="M36.833 25.323a.525.525 0 0 0-.525.525v1.938c-.938.455-1.575 1.292-1.575 2.26h2.1a1.05 1.05 0 0 0 1.05 1.05 1.05 1.05 0 0 0 1.05-1.05h2.099c0-.968-.637-1.805-1.575-2.26v-1.938a.525.525 0 0 0-.525-.525zm-.576 5.057-.91.525.525.908.91-.525zm3.252 0-.525.908.909.525.525-.908zm-2.151 1.242v1.05h1.05v-1.05z" style="opacity:1;fill:#aa96bd;fill-opacity:1;stroke:none;stroke-width:1.04981;stroke-linecap:butt;stroke-linejoin:bevel;stroke-miterlimit:4;stroke-dasharray:none;stroke-dashoffset:0;stroke-opacity:.996078"/><path d="M30.502 13.118c-1.05 1.05-3.674 2.1-3.674 4.2 0 2.099 1.575 3.149 3.674 3.149-3.674-1.575-3.464-4.044 0-6.824-1.206 2.074-2.884 4.682 0 6.824 2.556-2.226 1.456-4.295.525-6.3 2.932 2.47 2.834 4.54-.525 6.3 2.1 0 3.675-1.05 3.675-3.15 0-2.1-2.625-3.15-3.675-4.2z" style="opacity:1;fill:#708ee1;fill-opacity:1;stroke:none;stroke-width:1.04981;stroke-linecap:round;stroke-linejoin:miter;stroke-miterlimit:4;stroke-dasharray:none;stroke-dashoffset:0;stroke-opacity:1"/><path d="M50.954 6.57a.525.525 0 1 0 0 1.05h.832l-2.372 2.373-2.256-2.708-.806.672 2.624 3.149a.525.525 0 0 0 .774.034l2.78-2.78v.834a.525.525 0 1 0 1.05 0v-2.1a.525.525 0 0 0-.526-.525zm-4.724 3.675v2.624a.525.525 0 0 0 .525.525h6.298a.525.525 0 0 0 .525-.525v-2.1h-1.05v1.575H47.28v-2.1z" style="color:#000;font-style:normal;font-variant:normal;font-weight:400;font-stretch:normal;font-size:medium;line-height:normal;font-family:sans-serif;font-variant-ligatures:normal;font-variant-position:normal;font-variant-caps:normal;font-variant-numeric:normal;font-variant-alternates:normal;font-feature-settings:normal;text-indent:0;text-align:start;text-decoration:none;text-decoration-line:none;text-decoration-style:solid;text-decoration-color:#000;letter-spacing:normal;word-spacing:normal;text-transform:none;writing-mode:lr-tb;direction:ltr;text-orientation:mixed;dominant-baseline:auto;baseline-shift:baseline;text-anchor:start;white-space:normal;shape-padding:0;clip-rule:nonzero;display:inline;overflow:visible;visibility:visible;opacity:1;isolation:auto;mix-blend-mode:normal;color-interpolation:sRGB;color-interpolation-filters:linearRGB;solid-color:#000;solid-opacity:1;vector-effect:none;fill:#708ee1;fill-opacity:1;fill-rule:nonzero;stroke:none;stroke-width:1.04981;stroke-linecap:butt;stroke-linejoin:round;stroke-miterlimit:4;stroke-dasharray:none;stroke-dashoffset:0;stroke-opacity:1;color-rendering:auto;image-rendering:auto;shape-rendering:auto;text-rendering:auto;enable-background:accumulate"/><path d="M27.353 42.679a2.1 2.1 0 0 0-2.1 2.1 2.1 2.1 0 0 0 .293 1.064l-1.189 1.19.742.741 1.19-1.189a2.1 2.1 0 0 0 1.064.293 2.1 2.1 0 0 0 2.1-2.1 2.1 2.1 0 0 0-2.1-2.099m0 1.05a1.05 1.05 0 0 1 1.05 1.05 1.05 1.05 0 0 1-1.05 1.05 1.05 1.05 0 0 1-1.05-1.05 1.05 1.05 0 0 1 1.05-1.05m-4.724 4.2v3.149h1.05a1.575 1.575 0 1 0 0-3.15zm2.624 1.574a1.575 1.575 0 1 0 3.15 0 1.575 1.575 0 0 0-3.15 0m3.15 0c0 .87.705 1.575 1.574 1.575h.525v-1.05h-.525a.525.525 0 0 1 0-1.05h.525v-1.05h-.525c-.87 0-1.574.705-1.574 1.575zm-4.725-.525a.525.525 0 0 1 0 1.05zm3.15 0a.525.525 0 1 1 0 1.05.525.525 0 0 1 0-1.05" style="fill:#708ee1;fill-opacity:1;stroke-width:1.04981;stroke-linecap:round;stroke-linejoin:round;stroke-opacity:.32549"/><g style="fill:#708ee1;fill-opacity:1"><path d="M8 1c-1.108 0-2 .892-2 2v2H5v2h1v5a2 2 0 0 0 1 1.729V15h2v-1.27A2 2 0 0 0 10 12V7h1V5h-1V3c0-1.108-.892-2-2-2M7 7h2v5a1 1 0 0 1-1 1 1 1 0 0 1-1-1Z" style="fill:#708ee1;fill-opacity:1;stroke:none;stroke-width:2;stroke-linecap:round;stroke-linejoin:round;stroke-miterlimit:4;stroke-dasharray:none;stroke-opacity:1" transform="translate(7.416 8.919)scale(.5249)"/></g><g style="fill:#aa96bd;fill-opacity:1"><path d="M8 1037.362c-2.753 0-5 2.242-5 4.99v4.018c0 2.748 2.247 4.992 5 4.992s5-2.244 5-4.992v-4.017c0-2.749-2.247-4.99-5-4.99zm-1.006 2.127v4.857c-.665-.104-1.297-.372-1.994-.662v-1.322c0-1.347.798-2.465 1.994-2.873m2.012 0c1.196.408 1.994 1.526 1.994 2.873v1.345c-.684.306-1.314.573-1.994.667zM5 1045.823c.678.223 1.313.447 1.994.526v2.885c-1.196-.41-1.994-1.524-1.994-2.872Zm6 .03v.509c0 1.347-.798 2.462-1.994 2.871v-2.871c.686-.068 1.32-.283 1.994-.51" style="color:#000;font-style:normal;font-variant:normal;font-weight:400;font-stretch:normal;font-size:medium;line-height:normal;font-family:sans-serif;font-variant-ligatures:normal;font-variant-position:normal;font-variant-caps:normal;font-variant-numeric:normal;font-variant-alternates:normal;font-feature-settings:normal;text-indent:0;text-align:start;text-decoration:none;text-decoration-line:none;text-decoration-style:solid;text-decoration-color:#000;letter-spacing:normal;word-spacing:normal;text-transform:none;writing-mode:lr-tb;direction:ltr;text-orientation:mixed;dominant-baseline:auto;baseline-shift:baseline;text-anchor:start;white-space:normal;shape-padding:0;clip-rule:nonzero;display:inline;overflow:visible;visibility:visible;opacity:1;isolation:auto;mix-blend-mode:normal;color-interpolation:sRGB;color-interpolation-filters:linearRGB;solid-color:#000;solid-opacity:1;vector-effect:none;fill:#aa96bd;fill-opacity:1;fill-rule:nonzero;stroke:none;stroke-width:1.94989;stroke-linecap:butt;stroke-linejoin:miter;stroke-miterlimit:4;stroke-dasharray:none;stroke-dashoffset:0;stroke-opacity:1;color-rendering:auto;image-rendering:auto;shape-rendering:auto;text-rendering:auto;enable-background:accumulate" transform="translate(.67 -514.68)scale(.5249)"/></g><path d="M136.305 26.925a.525.525 0 0 0-.215.055l-3.15 1.575a.525.525 0 0 0-.29.47v3.148a.525.525 0 0 0 .29.47l3.15 1.575a.525.525 0 0 0 .47 0l3.149-1.575a.525.525 0 0 0 .29-.47v-3.149a.525.525 0 0 0-.29-.47l-3.15-1.574a.525.525 0 0 0-.254-.055m.02 1.112 1.975.987-.725.363-1.975-.988zm-2.625 1.837 2.1 1.05v1.975l-2.1-1.05zm5.249 0v1.976l-2.1 1.05v-1.976Z" style="color:#000;font-style:normal;font-variant:normal;font-weight:400;font-stretch:normal;font-size:medium;line-height:normal;font-family:sans-serif;text-indent:0;text-align:start;text-decoration:none;text-decoration-line:none;text-decoration-style:solid;text-decoration-color:#000;letter-spacing:normal;word-spacing:normal;text-transform:none;writing-mode:lr-tb;direction:ltr;baseline-shift:baseline;text-anchor:start;white-space:normal;clip-rule:nonzero;display:inline;overflow:visible;visibility:visible;opacity:1;isolation:auto;mix-blend-mode:normal;color-interpolation:sRGB;color-interpolation-filters:linearRGB;solid-color:#000;solid-opacity:1;fill:#708ee1;fill-opacity:1;fill-rule:evenodd;stroke:none;stroke-width:1.04981;stroke-linecap:butt;stroke-linejoin:round;stroke-miterlimit:4;stroke-dasharray:none;stroke-dashoffset:0;stroke-opacity:1;color-rendering:auto;image-rendering:auto;shape-rendering:auto;text-rendering:auto;enable-background:accumulate"/><path d="M110.592 24.465a.525.525 0 0 0-.525.525v6.299a.525.525 0 0 0 .525.525h6.3a.525.525 0 0 0 .524-.525V24.99a.525.525 0 0 0-.525-.525zm.525 1.05h5.25v5.249h-5.25zm2.625 1.05a1.575 1.575 0 0 0-1.575 1.574 1.575 1.575 0 0 0 1.575 1.575 1.575 1.575 0 0 0 1.574-1.575 1.575 1.575 0 0 0-1.574-1.574" style="color:#000;font-style:normal;font-variant:normal;font-weight:400;font-stretch:normal;font-size:medium;line-height:normal;font-family:sans-serif;font-variant-ligatures:normal;font-variant-position:normal;font-variant-caps:normal;font-variant-numeric:normal;font-variant-alternates:normal;font-feature-settings:normal;text-indent:0;text-align:start;text-decoration:none;text-decoration-line:none;text-decoration-style:solid;text-decoration-color:#000;letter-spacing:normal;word-spacing:normal;text-transform:none;writing-mode:lr-tb;direction:ltr;text-orientation:mixed;dominant-baseline:auto;baseline-shift:baseline;text-anchor:start;white-space:normal;shape-padding:0;clip-rule:nonzero;display:inline;overflow:visible;visibility:visible;isolation:auto;mix-blend-mode:normal;color-interpolation:sRGB;color-interpolation-filters:linearRGB;solid-color:#000;solid-opacity:1;vector-effect:none;fill:#aa96bd;fill-opacity:1;fill-rule:nonzero;stroke:none;stroke-width:1.04981;stroke-linecap:butt;stroke-linejoin:round;stroke-miterlimit:4;stroke-dasharray:none;stroke-dashoffset:0;stroke-opacity:1;color-rendering:auto;image-rendering:auto;shape-rendering:auto;text-rendering:auto;enable-background:accumulate"/><path d="M94.381 55.784a.525.525 0 0 0-.525.525v4.199c0 .29.235.525.525.525h7.349c.29 0 .525-.235.525-.525v-4.2a.525.525 0 0 0-.525-.524zm1.05 1.05h1.05v1.05h1.05v1.05h-1.05v1.05h-1.05v-1.05h-1.05v-1.05h1.05zm5.512 0a.787.787 0 0 1 .787.787.787.787 0 0 1-.787.787.787.787 0 0 1-.788-.787.787.787 0 0 1 .788-.787m-1.575 1.574a.787.787 0 0 1 .787.788.787.787 0 0 1-.787.787.787.787 0 0 1-.787-.787.787.787 0 0 1 .787-.788" style="color:#000;font-style:normal;font-variant:normal;font-weight:400;font-stretch:normal;font-size:medium;line-height:normal;font-family:sans-serif;text-indent:0;text-align:start;text-decoration:none;text-decoration-line:none;text-decoration-style:solid;text-decoration-color:#000;letter-spacing:normal;word-spacing:normal;text-transform:none;writing-mode:lr-tb;direction:ltr;baseline-shift:baseline;text-anchor:start;white-space:normal;clip-rule:nonzero;display:inline;overflow:visible;visibility:visible;isolation:auto;mix-blend-mode:normal;color-interpolation:sRGB;color-interpolation-filters:linearRGB;solid-color:#000;solid-opacity:1;fill:#708ee1;fill-opacity:1;fill-rule:evenodd;stroke:none;stroke-width:1.04981;stroke-linecap:butt;stroke-linejoin:round;stroke-miterlimit:4;stroke-dasharray:none;stroke-dashoffset:0;stroke-opacity:1;color-rendering:auto;image-rendering:auto;shape-rendering:auto;text-rendering:auto;enable-background:accumulate"/><path d="M45.18 40.055a.525.525 0 0 0-.371.153l-2.1 2.1a.525.525 0 0 0 0 .742l2.1 2.1a.525.525 0 0 0 .37.154h4.2a.525.525 0 0 0 .525-.525v-4.2a.525.525 0 0 0-.525-.525zm-.525 2.1a.525.525 0 0 1 .525.524.525.525 0 0 1-.525.525.525.525 0 0 1-.525-.525.525.525 0 0 1 .525-.525" style="color:#000;font-style:normal;font-variant:normal;font-weight:400;font-stretch:normal;font-size:medium;line-height:normal;font-family:sans-serif;text-indent:0;text-align:start;text-decoration:none;text-decoration-line:none;text-decoration-style:solid;text-decoration-color:#000;letter-spacing:normal;word-spacing:normal;text-transform:none;writing-mode:lr-tb;direction:ltr;baseline-shift:baseline;text-anchor:start;white-space:normal;clip-rule:nonzero;display:inline;overflow:visible;visibility:visible;isolation:auto;mix-blend-mode:normal;color-interpolation:sRGB;color-interpolation-filters:linearRGB;solid-color:#000;solid-opacity:1;fill:#aa96bd;fill-opacity:1;fill-rule:evenodd;stroke:none;stroke-width:1.04981;stroke-linecap:butt;stroke-linejoin:round;stroke-miterlimit:4;stroke-dasharray:none;stroke-dashoffset:0;stroke-opacity:1;color-rendering:auto;image-rendering:auto;shape-rendering:auto;text-rendering:auto;enable-background:accumulate"/><path d="M174.235 23.776a2.625 2.625 0 0 0-2.624 2.624v1.05h-.525v3.674h6.299V27.45h-.525V26.4a2.625 2.625 0 0 0-2.625-2.624m0 1.05a1.575 1.575 0 0 1 1.575 1.574v1.05h-3.15V26.4a1.575 1.575 0 0 1 1.575-1.575zm-.525 3.674h1.05v1.575h-1.05z" style="fill:#9a97cd;fill-opacity:1;stroke:none;stroke-width:1.57472;stroke-linecap:round;stroke-linejoin:round;stroke-miterlimit:4;stroke-dasharray:none;stroke-dashoffset:0;stroke-opacity:1"/><path d="M143.304 6.588a1.05 1.05 0 0 0-1.05 1.05 1.05 1.05 0 0 0 .525.908v3.434a1.05 1.05 0 0 0-.525.907 1.05 1.05 0 0 0 1.05 1.05 1.05 1.05 0 0 0 .909-.525h1.316l.394-1.05h-1.711a1.05 1.05 0 0 0-.383-.383V8.905l2.466 2.466.405-1.08-2.129-2.128h3.075a1.05 1.05 0 0 0 .382.383v.143a1.05 1.05 0 0 1 .013 0 1.05 1.05 0 0 1 .97.68l.067.178V8.545a1.05 1.05 0 0 0 .525-.907 1.05 1.05 0 0 0-1.05-1.05 1.05 1.05 0 0 0-.908.525h-3.433a1.05 1.05 0 0 0-.908-.525zm4.724 3.15-1.574 4.199 1.574-1.05 1.575 1.05z" style="fill:#9a97cd;fill-opacity:1;stroke:none;stroke-width:1.04981;stroke-linecap:round;stroke-linejoin:round;stroke-miterlimit:4;stroke-dasharray:none;stroke-dashoffset:0;stroke-opacity:1"/><path d="M116.504 3.519a1.575 3.674 0 0 0-1.091 1.032 3.674 1.575 45 0 0-1.506.044 3.674 1.575 45 0 0-.042 1.503 3.674 1.575 0 0 0-1.035 1.095 3.674 1.575 0 0 0 1.032 1.092 1.575 3.674 45 0 0 .044 1.506 1.575 3.674 45 0 0 1.503.042 1.575 3.674 0 0 0 1.095 1.034 1.575 3.674 0 0 0 1.092-1.032 3.674 1.575 45 0 0 1.506-.044 3.674 1.575 45 0 0 .042-1.503 3.674 1.575 0 0 0 1.035-1.095 3.674 1.575 0 0 0-1.033-1.092 1.575 3.674 45 0 0-.044-1.506 1.575 3.674 45 0 0-1.503-.042 1.575 3.674 0 0 0-1.094-1.034zm0 .525a1.05 3.15 0 0 1 .662.705 1.575 3.674 45 0 0-.66.399 3.674 1.575 45 0 0-.664-.398 1.05 3.15 0 0 1 .662-.706zm-1.907.802a3.15 1.05 45 0 1 .647.152 1.575 3.674 0 0 0-.185.748 3.674 1.575 0 0 0-.75.187 3.15 1.05 45 0 1-.031-.967 3.15 1.05 45 0 1 .319-.12zm3.714.002a1.05 3.15 45 0 1 .42.118 1.05 3.15 45 0 1-.032.967 3.674 1.575 0 0 0-.747-.186 1.575 3.674 0 0 0-.188-.75 1.05 3.15 45 0 1 .547-.149m-2.624.371a3.15 1.05 45 0 1 .389.248 1.575 3.674 45 0 0-.216.178 3.674 1.575 0 0 0-.275.025 1.05 3.15 0 0 1 .102-.45zm1.636.001a1.05 3.15 0 0 1 .099.45 3.674 1.575 0 0 0-.278-.027 3.674 1.575 45 0 0-.212-.177 1.05 3.15 45 0 1 .39-.246zm-.818.923a3.15 1.05 0 0 1 .43.013 3.15 1.05 45 0 1 .312.296 3.15 1.05 45 0 1 .296.312 1.05 3.15 0 0 1 .012.43 1.05 3.15 0 0 1-.012.43 1.05 3.15 45 0 1-.296.312 1.05 3.15 45 0 1-.312.297 3.15 1.05 0 0 1-.43.012 3.15 1.05 0 0 1-.431-.012 3.15 1.05 45 0 1-.312-.297 3.15 1.05 45 0 1-.296-.311 1.05 3.15 0 0 1-.012-.43 1.05 3.15 0 0 1 .012-.431 1.05 3.15 45 0 1 .296-.312 1.05 3.15 45 0 1 .312-.296 3.15 1.05 0 0 1 .43-.013m1.522.13a3.15 1.05 0 0 1 .451.103 1.05 3.15 45 0 1-.247.388 3.674 1.575 45 0 0-.178-.216 1.575 3.674 0 0 0-.026-.275zm-3.046.002a1.575 3.674 0 0 0-.027.278 1.575 3.674 45 0 0-.176.212 3.15 1.05 45 0 1-.246-.39 3.15 1.05 0 0 1 .449-.1zm3.967.256a3.15 1.05 0 0 1 .706.662 3.15 1.05 0 0 1-.705.661 3.674 1.575 45 0 0-.4-.66 1.575 3.674 45 0 0 .399-.663m-4.888 0a3.674 1.575 45 0 0 .4.66 1.575 3.674 45 0 0-.399.664 3.15 1.05 0 0 1-.706-.661 3.15 1.05 0 0 1 .705-.662zm2.445.137a.525.525 0 0 0-.525.525.525.525 0 0 0 .525.525.525.525 0 0 0 .524-.525.525.525 0 0 0-.524-.525m1.726.952a3.15 1.05 45 0 1 .246.39 3.15 1.05 0 0 1-.449.1 1.575 3.674 0 0 0 .027-.278 1.575 3.674 45 0 0 .176-.212m-3.453.001a3.674 1.575 45 0 0 .178.217 1.575 3.674 0 0 0 .026.274 3.15 1.05 0 0 1-.451-.102 1.05 3.15 45 0 1 .247-.389m-.468.832a3.674 1.575 0 0 0 .747.185 1.575 3.674 0 0 0 .188.75 1.05 3.15 45 0 1-.967.031 1.05 3.15 45 0 1 .032-.966zm4.39 0a3.15 1.05 45 0 1 .031.967 3.15 1.05 45 0 1-.966-.032 1.575 3.674 0 0 0 .185-.748 3.674 1.575 0 0 0 .75-.187zm-1.276.262a1.05 3.15 0 0 1-.102.451 3.15 1.05 45 0 1-.389-.247 1.575 3.674 45 0 0 .216-.178 3.674 1.575 0 0 0 .275-.026m-1.837.001a3.674 1.575 0 0 0 .278.027 3.674 1.575 45 0 0 .212.176 1.05 3.15 45 0 1-.39.246 1.05 3.15 0 0 1-.1-.449zm.916.522a3.674 1.575 45 0 0 .664.398 1.05 3.15 0 0 1-.662.706 1.05 3.15 0 0 1-.662-.705 1.575 3.674 45 0 0 .66-.399" style="fill:#708ee1;fill-opacity:1;stroke:none;stroke-width:1.04981;stroke-linecap:round;stroke-linejoin:round;stroke-miterlimit:4;stroke-dasharray:none;stroke-dashoffset:0;stroke-opacity:.996078"/><path d="M118.599 42.318a3.674 3.674 0 0 0-3.674 3.674 3.674 3.674 0 0 0 .641 2.075 3.674 3.674 0 0 0 .16.215v-.004a3.674 3.674 0 0 0 2.873 1.389 3.674 3.674 0 0 0 1.702-.422l.002.001a3.674 3.674 0 0 0 .018-.012 3.674 3.674 0 0 0 .223-.131 3.674 3.674 0 0 0 .09-.055 3.674 3.674 0 0 0 .193-.141 3.674 3.674 0 0 0 .108-.082 3.674 3.674 0 0 0 .18-.162 3.674 3.674 0 0 0 .085-.08 3.674 3.674 0 0 0 .174-.19 3.674 3.674 0 0 0 .073-.085 3.674 3.674 0 0 0 .146-.195 3.674 3.674 0 0 0 .073-.103 3.674 3.674 0 0 0 .115-.19 3.674 3.674 0 0 0 .075-.13 3.674 3.674 0 0 0 .081-.176 3.674 3.674 0 0 0 .073-.163 3.674 3.674 0 0 0 .057-.162 3.674 3.674 0 0 0 .062-.186 3.674 3.674 0 0 0 .046-.193 3.674 3.674 0 0 0 .035-.154 3.674 3.674 0 0 0 .03-.21 3.674 3.674 0 0 0 .02-.164 3.674 3.674 0 0 0 .014-.29 3.674 3.674 0 0 0-2.306-3.408 3.674 3.674 0 0 0-.001 0 3.674 3.674 0 0 0-.347-.12 3.674 3.674 0 0 0-.004-.001 3.674 3.674 0 0 0-.289-.07 3.674 3.674 0 0 0-.073-.015 3.674 3.674 0 0 0-.29-.038 3.674 3.674 0 0 0-.074-.01 3.674 3.674 0 0 0-.292-.014zm1.024.7a3.15 3.15 0 0 1 2.125 2.974h-3.674a1.05 1.05 0 0 0-.498-.892c.707-1.065 1.367-1.713 2.047-2.082zm-3.584 1.144c.077.342.188.674.359.99a1.05 1.05 0 0 0-.424.84h-.524a3.15 3.15 0 0 1 .589-1.83zm.985.78a1.05 1.05 0 0 0-.057.002 1.05 1.05 0 0 1 .057-.002m-.1.006a1.05 1.05 0 0 0-.063.007 1.05 1.05 0 0 1 .064-.007m-.23.05a1.05 1.05 0 0 0-.03.01 1.05 1.05 0 0 1 .03-.01m-.714 1.081a1.05 1.05 0 0 0 .008.063 1.05 1.05 0 0 1-.008-.063m.013.11a1.05 1.05 0 0 0 .01.042 1.05 1.05 0 0 1-.01-.042m.386.63a1.05 1.05 0 0 0 .645.223 1.05 1.05 0 0 0 .551-.158c.706 1.064 1.366 1.714 2.046 2.083a3.15 3.15 0 0 1-1.022.175 3.15 3.15 0 0 1-2.654-1.454 5.77 5.77 0 0 1 .434-.87z" style="fill:#708ee1;fill-opacity:1;stroke:none;stroke-width:1.04981;stroke-linecap:butt;stroke-linejoin:bevel;stroke-miterlimit:4;stroke-dasharray:none;stroke-dashoffset:0;stroke-opacity:1"/><path d="M51.825 55.021c-.58 0-1.05.47-1.05 1.05v5.25c0 .579.47 1.049 1.05 1.049h5.249c.58 0 1.05-.47 1.05-1.05v-4.724l-1.575-1.575h-.525v3.15h-4.2zm.525 0v2.625h1.574V55.02zm2.1 4.2a1.05 1.05 0 1 1 0 2.1 1.05 1.05 0 0 1 0-2.1" style="fill:#9a97cd;fill-opacity:1;stroke:none;stroke-width:1.57472;stroke-linecap:round;stroke-linejoin:round;stroke-miterlimit:4;stroke-dasharray:none;stroke-dashoffset:0;stroke-opacity:1"/><path d="M59.698 23.416a.525.525 0 0 0-.524.525v4.768c0 .266.235.48.524.48h4.2c.29 0 .524-.214.525-.48v-4.768a.525.525 0 0 0-.525-.525zm-1.574 1.05v4.724a1.05 1.05 0 0 0 1.05 1.05h5.249a1.05 1.05 0 0 0 1.05-1.05v-4.724h-.526v4.724a.525.525 0 0 1-.524.525h-5.25a.525.525 0 0 1-.524-.525v-4.724zm3.15 0h1.574l-.525 1.574h1.05l-2.1 2.1.525-1.575h-1.05z" style="fill:#708ee1;fill-opacity:1;stroke:none;stroke-width:1.04981;stroke-linecap:round;stroke-linejoin:round;stroke-miterlimit:4;stroke-dasharray:none;stroke-dashoffset:0;stroke-opacity:1"/><path d="M178.499 51.725a.525.525 0 0 0-.525.525v1.939c-.938.454-1.575 1.291-1.575 2.26h2.1a1.05 1.05 0 0 0 1.05 1.05 1.05 1.05 0 0 0 1.05-1.05h2.099c0-.969-.637-1.806-1.575-2.26V52.25a.525.525 0 0 0-.525-.525zm-.576 5.058-.91.525.525.908.91-.525zm3.251 0-.524.908.909.525.525-.908zm-2.15 1.241v1.05h1.05v-1.05z" style="fill:#aa96bd;fill-opacity:1;stroke:none;stroke-width:1.04981;stroke-linecap:butt;stroke-linejoin:bevel;stroke-miterlimit:4;stroke-dasharray:none;stroke-dashoffset:0;stroke-opacity:.996078"/><path d="M79.186 40.73a.525.525 0 0 0-.203.04.525.525 0 0 0-.001 0l-.004.002a.525.525 0 0 0-.163.11s-.002 0-.002.002a.525.525 0 0 0-.108.16l-.006.01a.525.525 0 0 0-.04.2c0 .787.507 1.377.983 1.92.4.457.743.863.984 1.23-.24.365-.585.772-.984 1.228-.476.544-.983 1.133-.983 1.92a.525.525 0 0 0 .041.205l.002.005a.525.525 0 0 0 .11.16l.002.004a.525.525 0 0 0 .158.107l.014.006a.525.525 0 0 0 .197.04h5.25a.525.525 0 0 0 .196-.039.105.105 0 0 0 .016-.007.525.525 0 0 0 .154-.105l.008-.007a.525.525 0 0 0 .105-.154l.006-.014a.525.525 0 0 0 .04-.198c0-.787-.507-1.377-.983-1.92-.4-.457-.743-.863-.984-1.23.241-.365.585-.771.984-1.228.476-.543.983-1.133.983-1.92a.525.525 0 0 0-.04-.206.525.525 0 0 0-.113-.166.525.525 0 0 0-.163-.11.525.525 0 0 0-.006-.005.525.525 0 0 0-.202-.04zm.833 1.049h3.582c-.124.231-.16.414-.414.704-.443.506-.996 1.035-1.321 1.686a.525.525 0 0 0-.056.234.525.525 0 0 0-.055-.234c-.325-.65-.879-1.18-1.322-1.686-.253-.29-.289-.473-.414-.704z" style="fill:#aa96bd;fill-opacity:1;stroke:none;stroke-width:.971936;stroke-linecap:round;stroke-linejoin:round;stroke-miterlimit:4;stroke-dasharray:none;stroke-opacity:1"/><path d="M183.216 6.046c-1.05 1.05-3.674 2.1-3.674 4.199 0 2.1 1.574 3.15 3.674 3.15-3.674-1.575-3.464-4.044 0-6.824-1.206 2.074-2.884 4.682 0 6.823 2.556-2.225 1.456-4.294.525-6.299 2.932 2.47 2.834 4.54-.525 6.3 2.1 0 3.674-1.05 3.674-3.15 0-2.1-2.624-3.15-3.674-4.2z" style="fill:#708ee1;fill-opacity:1;stroke:none;stroke-width:1.04981;stroke-linecap:round;stroke-linejoin:miter;stroke-miterlimit:4;stroke-dasharray:none;stroke-dashoffset:0;stroke-opacity:1"/><path d="M218.658 54.106v1.05h6.299v-1.05zm-.525 1.575v4.724a1.05 1.05 0 0 0 1.05 1.05h5.249a1.05 1.05 0 0 0 1.05-1.05V55.68zm1.05.525h.525v.524h-.525zm1.574 0h.525v.524h-.525zm1.575 0h.525v.524h-.525zm1.575 0h.525v.524h-.525zm-4.724 1.05h5.249v3.149h-5.25zm1.574.524v.525h2.1v-.525z" style="fill:#708ee1;fill-opacity:1;stroke:none;stroke-width:1.57472;stroke-linecap:round;stroke-linejoin:round;stroke-miterlimit:4;stroke-dasharray:none;stroke-dashoffset:0;stroke-opacity:1"/><path d="M222.22 11.307c-.917 0-1.747.118-2.393.334-.323.107-.602.237-.835.42-.232.183-.447.462-.447.82v4.2c0 .357.215.637.447.82.233.184.512.313.835.421.646.215 1.476.333 2.392.333.917 0 1.747-.118 2.393-.333.323-.108.602-.237.835-.42.232-.183.447-.464.447-.822v-4.199c0-.358-.215-.637-.447-.82-.233-.183-.512-.313-.835-.42-.646-.216-1.476-.335-2.393-.335m0 1.05c.822 0 1.567.116 2.061.28.244.081.42.177.509.245a1.858 1.858 0 0 1-.509.244c-.494.165-1.24.28-2.062.28-.822 0-1.567-.115-2.061-.28a1.854 1.854 0 0 1-.509-.244c.088-.068.265-.164.509-.245.494-.164 1.24-.28 2.061-.28m-2.625 1.672c.077.031.149.066.232.094.646.215 1.476.333 2.392.333.917 0 1.747-.118 2.393-.333.083-.028.155-.063.232-.094v3.051c-.088.068-.32.165-.563.245-.494.165-1.24.28-2.062.28-.822 0-1.567-.115-2.061-.28-.243-.08-.475-.177-.563-.245z" style="color:#000;font-style:normal;font-variant:normal;font-weight:400;font-stretch:normal;font-size:medium;line-height:normal;font-family:sans-serif;font-variant-ligatures:normal;font-variant-position:normal;font-variant-caps:normal;font-variant-numeric:normal;font-variant-alternates:normal;font-feature-settings:normal;text-indent:0;text-align:start;text-decoration:none;text-decoration-line:none;text-decoration-style:solid;text-decoration-color:#000;letter-spacing:normal;word-spacing:normal;text-transform:none;writing-mode:lr-tb;direction:ltr;text-orientation:mixed;dominant-baseline:auto;baseline-shift:baseline;text-anchor:start;white-space:normal;shape-padding:0;clip-rule:nonzero;display:inline;overflow:visible;visibility:visible;isolation:auto;mix-blend-mode:normal;color-interpolation:sRGB;color-interpolation-filters:linearRGB;solid-color:#000;solid-opacity:1;vector-effect:none;fill:#9a97cd;fill-opacity:1;fill-rule:nonzero;stroke:none;stroke-width:1.04981;stroke-linecap:butt;stroke-linejoin:miter;stroke-miterlimit:4;stroke-dasharray:none;stroke-dashoffset:0;stroke-opacity:1;color-rendering:auto;image-rendering:auto;shape-rendering:auto;text-rendering:auto;enable-background:accumulate"/><g style="fill:#708ee1;fill-opacity:1"><path d="M7.982 1a1 1 0 0 0-.814.445L2.467 8.498c-.801.582-1.38 1.356-1.45 2.315A1 1 0 0 0 1 11c0 .214.034.416.082.613l.023.084c.054.192.128.375.221.55.197.367.471.696.803.985.008.007.013.017.021.024.017.015.038.026.055.04.103.087.213.166.324.245.24.17.491.33.77.47l.008.005.004.002.027.011c.265.131.552.246.85.352.104.038.212.071.32.105.073.023.14.051.215.073.167.048.341.086.513.127.094.022.182.048.278.068l.033.006a11.802 11.802 0 0 0 1.23.18 12.566 12.566 0 0 0 2.62-.018c.356-.04.71-.091 1.056-.162l.033-.006c.096-.02.184-.046.278-.068.172-.041.346-.079.513-.127.075-.022.142-.05.215-.073.108-.034.216-.067.32-.105.298-.106.585-.22.85-.352l.031-.013.008-.004c.279-.14.53-.301.77-.47.111-.08.22-.159.324-.245.017-.015.038-.026.055-.041.008-.007.013-.016.021-.024a3.53 3.53 0 0 0 .803-.986c.093-.174.167-.357.22-.549A2.564 2.564 0 0 0 15 11a1 1 0 0 0-.017-.182 1 1 0 0 0-.002-.017c-.073-.953-.649-1.723-1.447-2.303L8.832 1.445A1 1 0 0 0 7.982 1M7 5.303v1.746c-.44.033-.864.088-1.273.164Zm2 0 1.273 1.91A11.91 11.91 0 0 0 9 7.049ZM7 9.05V11a1 1 0 1 0 2 0V9.05c1.113.106 2.095.374 2.795.723.121.061.206.123.307.184l.8 1.201c-.033.147-.09.307-.304.518-.052.049-.1.098-.164.148-.046.036-.092.07-.143.106a3.99 3.99 0 0 1-.629.353 5.879 5.879 0 0 1-.521.213 8.179 8.179 0 0 1-.963.273c-.022.005-.041.012-.063.016a11.166 11.166 0 0 1-4.23 0c-.022-.004-.041-.01-.063-.015a8.176 8.176 0 0 1-.744-.202 5.878 5.878 0 0 1-.979-.402 3.99 3.99 0 0 1-.533-.342c-.063-.05-.112-.1-.164-.148-.215-.211-.271-.371-.304-.518l.8-1.201c.1-.061.186-.123.307-.184.7-.35 1.682-.617 2.795-.722" style="color:#000;font-style:normal;font-variant:normal;font-weight:400;font-stretch:normal;font-size:medium;line-height:normal;font-family:sans-serif;font-variant-ligatures:normal;font-variant-position:normal;font-variant-caps:normal;font-variant-numeric:normal;font-variant-alternates:normal;font-feature-settings:normal;text-indent:0;text-align:start;text-decoration:none;text-decoration-line:none;text-decoration-style:solid;text-decoration-color:#000;letter-spacing:normal;word-spacing:normal;text-transform:none;writing-mode:lr-tb;direction:ltr;text-orientation:mixed;dominant-baseline:auto;baseline-shift:baseline;text-anchor:start;white-space:normal;shape-padding:0;clip-rule:nonzero;display:inline;overflow:visible;visibility:visible;opacity:1;isolation:auto;mix-blend-mode:normal;color-interpolation:sRGB;color-interpolation-filters:linearRGB;solid-color:#000;solid-opacity:1;vector-effect:none;fill:#708ee1;fill-opacity:1;fill-rule:nonzero;stroke:none;stroke-width:2;stroke-linecap:round;stroke-linejoin:round;stroke-miterlimit:4;stroke-dasharray:none;stroke-dashoffset:0;stroke-opacity:1;color-rendering:auto;image-rendering:auto;shape-rendering:auto;text-rendering:auto;enable-background:accumulate" transform="translate(149.298 44.163)scale(.5249)"/></g><circle cx="198.003" cy="18.655" r="1.521" style="fill:#708ee1;fill-opacity:1;fill-rule:nonzero;stroke:none;stroke-width:1.21053;stroke-linecap:butt;stroke-linejoin:miter;stroke-miterlimit:4;stroke-dasharray:none;stroke-dashoffset:0;stroke-opacity:1"/><circle cx="160.864" cy="39.208" r="1.521" style="fill:#708ee1;fill-opacity:1;fill-rule:nonzero;stroke:none;stroke-width:1.21053;stroke-linecap:butt;stroke-linejoin:miter;stroke-miterlimit:4;stroke-dasharray:none;stroke-dashoffset:0;stroke-opacity:1"/><circle cx="124.892" cy="15.612" r="1.521" style="fill:#708ee1;fill-opacity:1;fill-rule:nonzero;stroke:none;stroke-width:1.21053;stroke-linecap:butt;stroke-linejoin:miter;stroke-miterlimit:4;stroke-dasharray:none;stroke-dashoffset:0;stroke-opacity:1"/><circle cx="113.742" cy="61.691" r="1.521" style="fill:#708ee1;fill-opacity:1;fill-rule:nonzero;stroke:none;stroke-width:1.21053;stroke-linecap:butt;stroke-linejoin:miter;stroke-miterlimit:4;stroke-dasharray:none;stroke-dashoffset:0;stroke-opacity:1"/><circle cx="73.156" cy="35.664" r="1.521" style="fill:#708ee1;fill-opacity:1;fill-rule:nonzero;stroke:none;stroke-width:1.21053;stroke-linecap:butt;stroke-linejoin:miter;stroke-miterlimit:4;stroke-dasharray:none;stroke-dashoffset:0;stroke-opacity:1"/><circle cx="28.998" cy="6.57" r="1.521" style="fill:#708ee1;fill-opacity:1;fill-rule:nonzero;stroke:none;stroke-width:1.21053;stroke-linecap:butt;stroke-linejoin:miter;stroke-miterlimit:4;stroke-dasharray:none;stroke-dashoffset:0;stroke-opacity:1"/><circle cx="34.733" cy="58.696" r="1.521" style="fill:#708ee1;fill-opacity:1;fill-rule:nonzero;stroke:none;stroke-width:1.21053;stroke-linecap:butt;stroke-linejoin:miter;stroke-miterlimit:4;stroke-dasharray:none;stroke-dashoffset:0;stroke-opacity:1"/><circle cx="245.292" cy="8.199" r="1.521" style="fill:#708ee1;fill-opacity:1;fill-rule:nonzero;stroke:none;stroke-width:1.21053;stroke-linecap:butt;stroke-linejoin:miter;stroke-miterlimit:4;stroke-dasharray:none;stroke-dashoffset:0;stroke-opacity:1"/><circle cx="278.867" cy="61.386" r="1.521" style="fill:#708ee1;fill-opacity:1;fill-rule:nonzero;stroke:none;stroke-width:1.21053;stroke-linecap:butt;stroke-linejoin:miter;stroke-miterlimit:4;stroke-dasharray:none;stroke-dashoffset:0;stroke-opacity:1"/><circle cx="314.084" cy="34.73" r="1.521" style="fill:#708ee1;fill-opacity:1;fill-rule:nonzero;stroke:none;stroke-width:1.21053;stroke-linecap:butt;stroke-linejoin:miter;stroke-miterlimit:4;stroke-dasharray:none;stroke-dashoffset:0;stroke-opacity:1"/><circle cx="362.928" cy="23.086" r="1.521" style="fill:#708ee1;fill-opacity:1;fill-rule:nonzero;stroke:none;stroke-width:1.21053;stroke-linecap:butt;stroke-linejoin:miter;stroke-miterlimit:4;stroke-dasharray:none;stroke-dashoffset:0;stroke-opacity:1"/><circle cx="387.354" cy="46.524" r="1.521" style="fill:#708ee1;fill-opacity:1;fill-rule:nonzero;stroke:none;stroke-width:1.21053;stroke-linecap:butt;stroke-linejoin:miter;stroke-miterlimit:4;stroke-dasharray:none;stroke-dashoffset:0;stroke-opacity:1"/><circle cx="418.953" cy="15.996" r="1.521" style="fill:#708ee1;fill-opacity:1;fill-rule:nonzero;stroke:none;stroke-width:1.21053;stroke-linecap:butt;stroke-linejoin:miter;stroke-miterlimit:4;stroke-dasharray:none;stroke-dashoffset:0;stroke-opacity:1"/><circle cx="432.403" cy="58.09" r="1.521" style="fill:#708ee1;fill-opacity:1;fill-rule:nonzero;stroke:none;stroke-width:1.21053;stroke-linecap:butt;stroke-linejoin:miter;stroke-miterlimit:4;stroke-dasharray:none;stroke-dashoffset:0;stroke-opacity:1"/><circle cx="450.729" cy="33.183" r="1.521" style="fill:#708ee1;fill-opacity:1;fill-rule:nonzero;stroke:none;stroke-width:1.21053;stroke-linecap:butt;stroke-linejoin:miter;stroke-miterlimit:4;stroke-dasharray:none;stroke-dashoffset:0;stroke-opacity:1"/><circle cx="484.398" cy="19.191" r="1.521" style="fill:#708ee1;fill-opacity:1;fill-rule:nonzero;stroke:none;stroke-width:1.21053;stroke-linecap:butt;stroke-linejoin:miter;stroke-miterlimit:4;stroke-dasharray:none;stroke-dashoffset:0;stroke-opacity:1"/><circle cx="506.906" cy="43.957" r="1.521" style="fill:#708ee1;fill-opacity:1;fill-rule:nonzero;stroke:none;stroke-width:1.21053;stroke-linecap:butt;stroke-linejoin:miter;stroke-miterlimit:4;stroke-dasharray:none;stroke-dashoffset:0;stroke-opacity:1"/><path d="M487.113 17.403a.366.366 0 0 0 0 .516l2.215 2.215a.366.366 0 0 0 .518 0l2.215-2.214a.366.366 0 0 0-.002-.518l-2.215-2.215a.366.366 0 0 0-.516 0zm.778.258 1.695-1.695 1.697 1.697-1.695 1.695z" style="color:#000;font-style:normal;font-variant:normal;font-weight:400;font-stretch:normal;font-size:medium;line-height:normal;font-family:sans-serif;font-variant-ligatures:normal;font-variant-position:normal;font-variant-caps:normal;font-variant-numeric:normal;font-variant-alternates:normal;font-feature-settings:normal;text-indent:0;text-align:start;text-decoration:none;text-decoration-line:none;text-decoration-style:solid;text-decoration-color:#000;letter-spacing:normal;word-spacing:normal;text-transform:none;writing-mode:lr-tb;direction:ltr;text-orientation:mixed;dominant-baseline:auto;baseline-shift:baseline;text-anchor:start;white-space:normal;shape-padding:0;clip-rule:nonzero;display:inline;overflow:visible;visibility:visible;opacity:.783;isolation:auto;mix-blend-mode:normal;color-interpolation:sRGB;color-interpolation-filters:linearRGB;solid-color:#000;solid-opacity:1;vector-effect:none;fill:url(#b);fill-opacity:1;fill-rule:nonzero;stroke:none;stroke-width:.732244;stroke-linecap:round;stroke-linejoin:round;stroke-miterlimit:4;stroke-dasharray:none;stroke-dashoffset:0;stroke-opacity:1;color-rendering:auto;image-rendering:auto;shape-rendering:auto;text-rendering:auto;enable-background:accumulate"/><path d="M199.892 21.809a.366.366 0 0 0 0 .516l2.215 2.215a.366.366 0 0 0 .518 0l2.214-2.214a.366.366 0 0 0-.002-.518l-2.214-2.215a.366.366 0 0 0-.516 0zm.778.258 1.695-1.695 1.697 1.697-1.695 1.695z" style="color:#000;font-style:normal;font-variant:normal;font-weight:400;font-stretch:normal;font-size:medium;line-height:normal;font-family:sans-serif;font-variant-ligatures:normal;font-variant-position:normal;font-variant-caps:normal;font-variant-numeric:normal;font-variant-alternates:normal;font-feature-settings:normal;text-indent:0;text-align:start;text-decoration:none;text-decoration-line:none;text-decoration-style:solid;text-decoration-color:#000;letter-spacing:normal;word-spacing:normal;text-transform:none;writing-mode:lr-tb;direction:ltr;text-orientation:mixed;dominant-baseline:auto;baseline-shift:baseline;text-anchor:start;white-space:normal;shape-padding:0;clip-rule:nonzero;display:inline;overflow:visible;visibility:visible;opacity:.783;isolation:auto;mix-blend-mode:normal;color-interpolation:sRGB;color-interpolation-filters:linearRGB;solid-color:#000;solid-opacity:1;vector-effect:none;fill:url(#c);fill-opacity:1;fill-rule:nonzero;stroke:none;stroke-width:.732244;stroke-linecap:round;stroke-linejoin:round;stroke-miterlimit:4;stroke-dasharray:none;stroke-dashoffset:0;stroke-opacity:1;color-rendering:auto;image-rendering:auto;shape-rendering:auto;text-rendering:auto;enable-background:accumulate"/><path d="M108.744 57.62a.366.366 0 0 0 0 .517l2.215 2.215a.366.366 0 0 0 .517 0l2.215-2.214a.366.366 0 0 0-.002-.518l-2.215-2.215a.366.366 0 0 0-.516 0zm.777.259 1.696-1.696 1.697 1.698-1.696 1.695z" style="color:#000;font-style:normal;font-variant:normal;font-weight:400;font-stretch:normal;font-size:medium;line-height:normal;font-family:sans-serif;font-variant-ligatures:normal;font-variant-position:normal;font-variant-caps:normal;font-variant-numeric:normal;font-variant-alternates:normal;font-feature-settings:normal;text-indent:0;text-align:start;text-decoration:none;text-decoration-line:none;text-decoration-style:solid;text-decoration-color:#000;letter-spacing:normal;word-spacing:normal;text-transform:none;writing-mode:lr-tb;direction:ltr;text-orientation:mixed;dominant-baseline:auto;baseline-shift:baseline;text-anchor:start;white-space:normal;shape-padding:0;clip-rule:nonzero;display:inline;overflow:visible;visibility:visible;opacity:.783;isolation:auto;mix-blend-mode:normal;color-interpolation:sRGB;color-interpolation-filters:linearRGB;solid-color:#000;solid-opacity:1;vector-effect:none;fill:url(#d);fill-opacity:1;fill-rule:nonzero;stroke:none;stroke-width:.732244;stroke-linecap:round;stroke-linejoin:round;stroke-miterlimit:4;stroke-dasharray:none;stroke-dashoffset:0;stroke-opacity:1;color-rendering:auto;image-rendering:auto;shape-rendering:auto;text-rendering:auto;enable-background:accumulate"/><path d="M17.052 26.763a.366.366 0 0 0 0 .516l2.215 2.215a.366.366 0 0 0 .518 0L22 27.28a.366.366 0 0 0-.002-.518l-2.215-2.215a.366.366 0 0 0-.516 0zm.778.258 1.695-1.695 1.697 1.697-1.695 1.695z" style="color:#000;font-style:normal;font-variant:normal;font-weight:400;font-stretch:normal;font-size:medium;line-height:normal;font-family:sans-serif;font-variant-ligatures:normal;font-variant-position:normal;font-variant-caps:normal;font-variant-numeric:normal;font-variant-alternates:normal;font-feature-settings:normal;text-indent:0;text-align:start;text-decoration:none;text-decoration-line:none;text-decoration-style:solid;text-decoration-color:#000;letter-spacing:normal;word-spacing:normal;text-transform:none;writing-mode:lr-tb;direction:ltr;text-orientation:mixed;dominant-baseline:auto;baseline-shift:baseline;text-anchor:start;white-space:normal;shape-padding:0;clip-rule:nonzero;display:inline;overflow:visible;visibility:visible;opacity:.783;isolation:auto;mix-blend-mode:normal;color-interpolation:sRGB;color-interpolation-filters:linearRGB;solid-color:#000;solid-opacity:1;vector-effect:none;fill:url(#e);fill-opacity:1;fill-rule:nonzero;stroke:none;stroke-width:.732244;stroke-linecap:round;stroke-linejoin:round;stroke-miterlimit:4;stroke-dasharray:none;stroke-dashoffset:0;stroke-opacity:1;color-rendering:auto;image-rendering:auto;shape-rendering:auto;text-rendering:auto;enable-background:accumulate"/><path d="M261.353 28.204a.366.366 0 0 0 0 .516l2.215 2.215a.366.366 0 0 0 .518 0l2.215-2.214a.366.366 0 0 0-.002-.518l-2.215-2.215a.366.366 0 0 0-.516 0zm.778.258 1.695-1.695 1.697 1.697-1.695 1.695z" style="color:#000;font-style:normal;font-variant:normal;font-weight:400;font-stretch:normal;font-size:medium;line-height:normal;font-family:sans-serif;font-variant-ligatures:normal;font-variant-position:normal;font-variant-caps:normal;font-variant-numeric:normal;font-variant-alternates:normal;font-feature-settings:normal;text-indent:0;text-align:start;text-decoration:none;text-decoration-line:none;text-decoration-style:solid;text-decoration-color:#000;letter-spacing:normal;word-spacing:normal;text-transform:none;writing-mode:lr-tb;direction:ltr;text-orientation:mixed;dominant-baseline:auto;baseline-shift:baseline;text-anchor:start;white-space:normal;shape-padding:0;clip-rule:nonzero;display:inline;overflow:visible;visibility:visible;opacity:.783;isolation:auto;mix-blend-mode:normal;color-interpolation:sRGB;color-interpolation-filters:linearRGB;solid-color:#000;solid-opacity:1;vector-effect:none;fill:url(#f);fill-opacity:1;fill-rule:nonzero;stroke:none;stroke-width:.732244;stroke-linecap:round;stroke-linejoin:round;stroke-miterlimit:4;stroke-dasharray:none;stroke-dashoffset:0;stroke-opacity:1;color-rendering:auto;image-rendering:auto;shape-rendering:auto;text-rendering:auto;enable-background:accumulate"/><path d="M355.706 59.208a.366.366 0 0 0 0 .516l2.215 2.215a.366.366 0 0 0 .518 0l2.215-2.214a.366.366 0 0 0-.002-.518l-2.215-2.215a.366.366 0 0 0-.516 0zm.778.258 1.695-1.696 1.697 1.698-1.695 1.695z" style="color:#000;font-style:normal;font-variant:normal;font-weight:400;font-stretch:normal;font-size:medium;line-height:normal;font-family:sans-serif;font-variant-ligatures:normal;font-variant-position:normal;font-variant-caps:normal;font-variant-numeric:normal;font-variant-alternates:normal;font-feature-settings:normal;text-indent:0;text-align:start;text-decoration:none;text-decoration-line:none;text-decoration-style:solid;text-decoration-color:#000;letter-spacing:normal;word-spacing:normal;text-transform:none;writing-mode:lr-tb;direction:ltr;text-orientation:mixed;dominant-baseline:auto;baseline-shift:baseline;text-anchor:start;white-space:normal;shape-padding:0;clip-rule:nonzero;display:inline;overflow:visible;visibility:visible;opacity:.783;isolation:auto;mix-blend-mode:normal;color-interpolation:sRGB;color-interpolation-filters:linearRGB;solid-color:#000;solid-opacity:1;vector-effect:none;fill:url(#g);fill-opacity:1;fill-rule:nonzero;stroke:none;stroke-width:.732244;stroke-linecap:round;stroke-linejoin:round;stroke-miterlimit:4;stroke-dasharray:none;stroke-dashoffset:0;stroke-opacity:1;color-rendering:auto;image-rendering:auto;shape-rendering:auto;text-rendering:auto;enable-background:accumulate"/><rect width="2.226" height="2.226" x="162.961" y="211.96" ry="0" style="opacity:.528;fill:url(#h);fill-opacity:1;fill-rule:nonzero;stroke:#005ed9;stroke-width:0;stroke-linecap:round;stroke-linejoin:round;stroke-miterlimit:4;stroke-dasharray:none;stroke-dashoffset:0;stroke-opacity:1" transform="rotate(-45)"/><path d="M269.534 9.72v.525h-2.1v1.05h7.349v-1.05h-2.1V9.72Zm-1.575 2.1v4.199a1.05 1.05 0 0 0 1.05 1.05h4.199a1.05 1.05 0 0 0 1.05-1.05v-4.2zm.525 1.05h1.05v3.149h-1.05zm2.1 0h1.05v3.149h-1.05zm2.099 0h1.05v3.149h-1.05z" style="fill:#607ac2;fill-opacity:1;stroke:none;stroke-width:1.57472;stroke-linecap:round;stroke-linejoin:round;stroke-miterlimit:4;stroke-dasharray:none;stroke-dashoffset:0;stroke-opacity:1"/><path d="M488.147 31.707a3.683 3.683 0 0 0-3.677 3.673 3.683 3.683 0 0 0 3.677 3.674 3.68 3.68 0 0 0 3.673-3.674 3.68 3.68 0 0 0-3.673-3.673m-.002 1.22c.531.836.79 1.649.79 2.453 0 .028-.005.056-.005.084a8.61 8.61 0 0 1-1.568.016c-.001-.033-.006-.067-.006-.1 0-.804.257-1.617.788-2.453zm.914.001a2.605 2.605 0 0 1 1.698 2.19c-.343.092-.688.174-1.037.238-.004-.818-.232-1.63-.66-2.428zm-1.828.001c-.432.804-.66 1.624-.66 2.45a9.242 9.242 0 0 1-1.038-.25 2.608 2.608 0 0 1 1.698-2.2m3.475 3.017a2.603 2.603 0 0 1-1.648 1.888 5.466 5.466 0 0 0 .593-1.677c.358-.057.71-.125 1.055-.21m-5.116.018c.358.095.711.174 1.054.225.098.553.296 1.101.587 1.643a2.606 2.606 0 0 1-1.641-1.868zm3.24.291a5.05 5.05 0 0 1-.685 1.579 5.065 5.065 0 0 1-.679-1.558 9.8 9.8 0 0 0 1.364-.02z" style="color:#000;font-style:normal;font-variant:normal;font-weight:400;font-stretch:normal;font-size:medium;line-height:normal;font-family:sans-serif;font-variant-ligatures:normal;font-variant-position:normal;font-variant-caps:normal;font-variant-numeric:normal;font-variant-alternates:normal;font-feature-settings:normal;text-indent:0;text-align:start;text-decoration:none;text-decoration-line:none;text-decoration-style:solid;text-decoration-color:#000;letter-spacing:normal;word-spacing:normal;text-transform:none;writing-mode:lr-tb;direction:ltr;text-orientation:mixed;dominant-baseline:auto;baseline-shift:baseline;text-anchor:start;white-space:normal;shape-padding:0;clip-rule:nonzero;display:inline;overflow:visible;visibility:visible;isolation:auto;mix-blend-mode:normal;color-interpolation:sRGB;color-interpolation-filters:linearRGB;solid-color:#000;solid-opacity:1;vector-effect:none;fill:#708ee1;fill-opacity:1;fill-rule:nonzero;stroke:none;stroke-width:1.04981;stroke-linecap:round;stroke-linejoin:round;stroke-miterlimit:4;stroke-dasharray:none;stroke-dashoffset:0;stroke-opacity:1;color-rendering:auto;image-rendering:auto;shape-rendering:auto;text-rendering:auto;enable-background:accumulate"/><path d="m363.853 3.703-1.246 2.151-2.428.576 1.698 1.789-.188 2.453 2.173-1.038 2.182 1.02-.208-2.443 1.691-1.78-2.428-.577z" style="fill:#aa96bd;fill-opacity:1;stroke:none;stroke-width:1.04981;stroke-linecap:round;stroke-linejoin:round;stroke-miterlimit:4;stroke-dasharray:none;stroke-dashoffset:0;stroke-opacity:1"/><path d="M520.413 40.23a2.625 2.625 0 0 0-2.273 1.311 2.625 2.625 0 0 0 0 2.625 2.625 2.625 0 0 0 2.273 1.312h.525v-1.05h-.525a1.575 1.575 0 0 1-1.575-1.574 1.575 1.575 0 0 1 1.575-1.575h.525v-1.05zm1.575 0v1.049h.525a1.575 1.575 0 0 1 1.574 1.575 1.575 1.575 0 0 1-1.574 1.574h-.525v1.05h.525a2.625 2.625 0 0 0 2.273-1.312 2.625 2.625 0 0 0 0-2.625 2.625 2.625 0 0 0-2.273-1.312zm-1.575 2.099a.525.525 0 0 0-.525.525.525.525 0 0 0 .525.525h2.1a.525.525 0 0 0 .525-.525.525.525 0 0 0-.525-.525z" style="fill:#708ee1;fill-opacity:1;stroke:none;stroke-width:1.04981;stroke-linecap:round;stroke-linejoin:round;stroke-miterlimit:4;stroke-dasharray:none;stroke-dashoffset:0;stroke-opacity:1"/><path d="M286.352 44.562a1.05 1.05 0 0 0-1.05 1.05 1.05 1.05 0 0 0 .525.908v3.434a1.05 1.05 0 0 0-.525.907 1.05 1.05 0 0 0 1.05 1.05 1.05 1.05 0 0 0 .908-.525h3.434a1.05 1.05 0 0 0 .907.525 1.05 1.05 0 0 0 1.05-1.05 1.05 1.05 0 0 0-.541-.919h.015V46.52a1.05 1.05 0 0 0 .525-.907 1.05 1.05 0 0 0-1.05-1.05 1.05 1.05 0 0 0-.908.525h-3.433a1.05 1.05 0 0 0-.908-.525zm1.267 1.575h3.075a1.05 1.05 0 0 0 .382.383v3.074zm-.742.742 3.457 3.457h-3.075a1.05 1.05 0 0 0-.382-.383z" style="fill:#607ac2;fill-opacity:1;stroke:none;stroke-width:1.04981;stroke-linecap:round;stroke-linejoin:round;stroke-miterlimit:4;stroke-dasharray:none;stroke-dashoffset:0;stroke-opacity:1"/><path d="M376.913 13.364a2.362 2.625 0 0 0-2.317 2.116 1.575 1.575 0 0 0-1.358 1.558 1.575 1.575 0 0 0 1.575 1.575h4.2a1.575 1.575 0 0 0 1.574-1.575 1.575 1.575 0 0 0-1.36-1.557 2.362 2.625 0 0 0-2.314-2.117zm-2.1 5.774a.525.525 0 0 0-.525.525.525.525 0 0 0 .525.525.525.525 0 0 0 .525-.525.525.525 0 0 0-.525-.525m4.2 0a.525.525 0 0 0-.525.525.525.525 0 0 0 .524.525.525.525 0 0 0 .525-.525.525.525 0 0 0-.525-.525m-2.1.525a.525.525 0 0 0-.525.525.525.525 0 0 0 .525.525.525.525 0 0 0 .525-.525.525.525 0 0 0-.525-.525" style="fill:#708ee1;fill-opacity:1;stroke:none;stroke-width:1.04981;stroke-linecap:round;stroke-linejoin:round;stroke-miterlimit:4;stroke-dasharray:none;stroke-dashoffset:0;stroke-opacity:.996078"/><path d="M323.453 25.86a.525.525 0 0 0-.524.525v1.939c-.938.454-1.575 1.291-1.575 2.26h2.1a1.05 1.05 0 0 0 1.05 1.05 1.05 1.05 0 0 0 1.05-1.05h2.099c0-.969-.637-1.806-1.575-2.26v-1.939a.525.525 0 0 0-.525-.525zm-.576 5.058-.91.524.526.909.91-.525zm3.252 0-.525.908.91.525.525-.909zm-2.15 1.241v1.05h1.05v-1.05z" style="fill:#aa96bd;fill-opacity:1;stroke:none;stroke-width:1.04981;stroke-linecap:butt;stroke-linejoin:bevel;stroke-miterlimit:4;stroke-dasharray:none;stroke-dashoffset:0;stroke-opacity:.996078"/><path d="M317.123 13.655c-1.05 1.05-3.674 2.1-3.674 4.2s1.574 3.149 3.674 3.149c-3.674-1.575-3.464-4.043 0-6.824-1.206 2.074-2.885 4.682 0 6.824 2.556-2.225 1.456-4.294.525-6.299 2.932 2.47 2.834 4.54-.525 6.299 2.1 0 3.674-1.05 3.674-3.15 0-2.099-2.624-3.149-3.674-4.199z" style="fill:#708ee1;fill-opacity:1;stroke:none;stroke-width:1.04981;stroke-linecap:round;stroke-linejoin:miter;stroke-miterlimit:4;stroke-dasharray:none;stroke-dashoffset:0;stroke-opacity:1"/><path d="M337.574 7.108a.525.525 0 1 0 0 1.05h.833l-2.372 2.372-2.257-2.707-.806.671 2.625 3.15a.525.525 0 0 0 .774.033l2.778-2.778v.833a.525.525 0 1 0 1.05 0v-2.1a.525.525 0 0 0-.525-.524zm-4.724 3.674v2.625a.525.525 0 0 0 .525.525h6.3a.525.525 0 0 0 .524-.525v-2.1h-1.05v1.575H333.9v-2.1z" style="color:#000;font-style:normal;font-variant:normal;font-weight:400;font-stretch:normal;font-size:medium;line-height:normal;font-family:sans-serif;font-variant-ligatures:normal;font-variant-position:normal;font-variant-caps:normal;font-variant-numeric:normal;font-variant-alternates:normal;font-feature-settings:normal;text-indent:0;text-align:start;text-decoration:none;text-decoration-line:none;text-decoration-style:solid;text-decoration-color:#000;letter-spacing:normal;word-spacing:normal;text-transform:none;writing-mode:lr-tb;direction:ltr;text-orientation:mixed;dominant-baseline:auto;baseline-shift:baseline;text-anchor:start;white-space:normal;shape-padding:0;clip-rule:nonzero;display:inline;overflow:visible;visibility:visible;isolation:auto;mix-blend-mode:normal;color-interpolation:sRGB;color-interpolation-filters:linearRGB;solid-color:#000;solid-opacity:1;vector-effect:none;fill:#708ee1;fill-opacity:1;fill-rule:nonzero;stroke:none;stroke-width:1.04981;stroke-linecap:butt;stroke-linejoin:round;stroke-miterlimit:4;stroke-dasharray:none;stroke-dashoffset:0;stroke-opacity:1;color-rendering:auto;image-rendering:auto;shape-rendering:auto;text-rendering:auto;enable-background:accumulate"/><path d="M313.973 43.216a2.1 2.1 0 0 0-2.1 2.1 2.1 2.1 0 0 0 .294 1.064l-1.19 1.19.743.742 1.19-1.19a2.1 2.1 0 0 0 1.063.294 2.1 2.1 0 0 0 2.1-2.1 2.1 2.1 0 0 0-2.1-2.1zm0 1.05a1.05 1.05 0 0 1 1.05 1.05 1.05 1.05 0 0 1-1.05 1.05 1.05 1.05 0 0 1-1.05-1.05 1.05 1.05 0 0 1 1.05-1.05m-4.724 4.2v3.149h1.05a1.575 1.575 0 1 0 0-3.15zm2.625 1.574a1.575 1.575 0 1 0 3.15 0 1.575 1.575 0 0 0-3.15 0m3.15 0c0 .87.704 1.575 1.574 1.575h.525v-1.05h-.525a.525.525 0 0 1 0-1.05h.525v-1.05h-.525c-.87 0-1.575.706-1.575 1.575zm-4.725-.525a.525.525 0 0 1 0 1.05zm3.15 0a.525.525 0 1 1 0 1.05.525.525 0 0 1 0-1.05" style="fill:#708ee1;fill-opacity:1;stroke-width:1.04981;stroke-linecap:round;stroke-linejoin:round;stroke-opacity:.32549"/><g style="fill:#708ee1;fill-opacity:1"><path d="M8 1c-1.108 0-2 .892-2 2v2H5v2h1v5a2 2 0 0 0 1 1.729V15h2v-1.27A2 2 0 0 0 10 12V7h1V5h-1V3c0-1.108-.892-2-2-2M7 7h2v5a1 1 0 0 1-1 1 1 1 0 0 1-1-1Z" style="fill:#708ee1;fill-opacity:1;stroke:none;stroke-width:2;stroke-linecap:round;stroke-linejoin:round;stroke-miterlimit:4;stroke-dasharray:none;stroke-opacity:1" transform="translate(286.877 11.702)scale(.5249)"/></g><g style="fill:#aa96bd;fill-opacity:1"><path d="M8 1037.362c-2.753 0-5 2.242-5 4.99v4.018c0 2.748 2.247 4.992 5 4.992s5-2.244 5-4.992v-4.017c0-2.749-2.247-4.99-5-4.99zm-1.006 2.127v4.857c-.665-.104-1.297-.372-1.994-.662v-1.322c0-1.347.798-2.465 1.994-2.873m2.012 0c1.196.408 1.994 1.526 1.994 2.873v1.345c-.684.306-1.314.573-1.994.667zM5 1045.823c.678.223 1.313.447 1.994.526v2.885c-1.196-.41-1.994-1.524-1.994-2.872Zm6 .03v.509c0 1.347-.798 2.462-1.994 2.871v-2.871c.686-.068 1.32-.283 1.994-.51" style="color:#000;font-style:normal;font-variant:normal;font-weight:400;font-stretch:normal;font-size:medium;line-height:normal;font-family:sans-serif;font-variant-ligatures:normal;font-variant-position:normal;font-variant-caps:normal;font-variant-numeric:normal;font-variant-alternates:normal;font-feature-settings:normal;text-indent:0;text-align:start;text-decoration:none;text-decoration-line:none;text-decoration-style:solid;text-decoration-color:#000;letter-spacing:normal;word-spacing:normal;text-transform:none;writing-mode:lr-tb;direction:ltr;text-orientation:mixed;dominant-baseline:auto;baseline-shift:baseline;text-anchor:start;white-space:normal;shape-padding:0;clip-rule:nonzero;display:inline;overflow:visible;visibility:visible;opacity:1;isolation:auto;mix-blend-mode:normal;color-interpolation:sRGB;color-interpolation-filters:linearRGB;solid-color:#000;solid-opacity:1;vector-effect:none;fill:#aa96bd;fill-opacity:1;fill-rule:nonzero;stroke:none;stroke-width:1.94989;stroke-linecap:butt;stroke-linejoin:miter;stroke-miterlimit:4;stroke-dasharray:none;stroke-dashoffset:0;stroke-opacity:1;color-rendering:auto;image-rendering:auto;shape-rendering:auto;text-rendering:auto;enable-background:accumulate" transform="translate(292.945 -514.983)scale(.5249)"/></g><path d="M422.926 27.463a.525.525 0 0 0-.216.054l-3.15 1.575a.525.525 0 0 0-.29.47v3.149a.525.525 0 0 0 .29.47l3.15 1.574a.525.525 0 0 0 .47 0l3.15-1.575a.525.525 0 0 0 .29-.47v-3.148a.525.525 0 0 0-.29-.47l-3.15-1.575a.525.525 0 0 0-.254-.054zm.02 1.111 1.975.988-.725.362-1.976-.988zm-2.625 1.837 2.1 1.05v1.976l-2.1-1.05zm5.249 0v1.976l-2.1 1.05V31.46z" style="color:#000;font-style:normal;font-variant:normal;font-weight:400;font-stretch:normal;font-size:medium;line-height:normal;font-family:sans-serif;text-indent:0;text-align:start;text-decoration:none;text-decoration-line:none;text-decoration-style:solid;text-decoration-color:#000;letter-spacing:normal;word-spacing:normal;text-transform:none;writing-mode:lr-tb;direction:ltr;baseline-shift:baseline;text-anchor:start;white-space:normal;clip-rule:nonzero;display:inline;overflow:visible;visibility:visible;isolation:auto;mix-blend-mode:normal;color-interpolation:sRGB;color-interpolation-filters:linearRGB;solid-color:#000;solid-opacity:1;fill:#708ee1;fill-opacity:1;fill-rule:evenodd;stroke:none;stroke-width:1.04981;stroke-linecap:butt;stroke-linejoin:round;stroke-miterlimit:4;stroke-dasharray:none;stroke-dashoffset:0;stroke-opacity:1;color-rendering:auto;image-rendering:auto;shape-rendering:auto;text-rendering:auto;enable-background:accumulate"/><path d="M397.213 25.003a.525.525 0 0 0-.525.524v6.3a.525.525 0 0 0 .525.524h6.299a.525.525 0 0 0 .525-.525v-6.299a.525.525 0 0 0-.525-.524zm.525 1.05h5.249V31.3h-5.25zm2.624 1.05a1.575 1.575 0 0 0-1.574 1.574 1.575 1.575 0 0 0 1.574 1.575 1.575 1.575 0 0 0 1.575-1.575 1.575 1.575 0 0 0-1.575-1.575" style="color:#000;font-style:normal;font-variant:normal;font-weight:400;font-stretch:normal;font-size:medium;line-height:normal;font-family:sans-serif;font-variant-ligatures:normal;font-variant-position:normal;font-variant-caps:normal;font-variant-numeric:normal;font-variant-alternates:normal;font-feature-settings:normal;text-indent:0;text-align:start;text-decoration:none;text-decoration-line:none;text-decoration-style:solid;text-decoration-color:#000;letter-spacing:normal;word-spacing:normal;text-transform:none;writing-mode:lr-tb;direction:ltr;text-orientation:mixed;dominant-baseline:auto;baseline-shift:baseline;text-anchor:start;white-space:normal;shape-padding:0;clip-rule:nonzero;display:inline;overflow:visible;visibility:visible;isolation:auto;mix-blend-mode:normal;color-interpolation:sRGB;color-interpolation-filters:linearRGB;solid-color:#000;solid-opacity:1;vector-effect:none;fill:#aa96bd;fill-opacity:1;fill-rule:nonzero;stroke:none;stroke-width:1.04981;stroke-linecap:butt;stroke-linejoin:round;stroke-miterlimit:4;stroke-dasharray:none;stroke-dashoffset:0;stroke-opacity:1;color-rendering:auto;image-rendering:auto;shape-rendering:auto;text-rendering:auto;enable-background:accumulate"/><path d="M381.002 56.321a.525.525 0 0 0-.525.525v4.2c0 .29.235.524.525.524h7.349c.29 0 .525-.235.525-.525v-4.199a.525.525 0 0 0-.525-.525zm1.05 1.05h1.05v1.05h1.05v1.05h-1.05v1.05h-1.05v-1.05h-1.05v-1.05h1.05zm5.511 0a.787.787 0 0 1 .788.787.787.787 0 0 1-.788.788.787.787 0 0 1-.787-.788.787.787 0 0 1 .787-.787m-1.574 1.575a.787.787 0 0 1 .787.787.787.787 0 0 1-.787.788.787.787 0 0 1-.788-.788.787.787 0 0 1 .788-.787" style="color:#000;font-style:normal;font-variant:normal;font-weight:400;font-stretch:normal;font-size:medium;line-height:normal;font-family:sans-serif;text-indent:0;text-align:start;text-decoration:none;text-decoration-line:none;text-decoration-style:solid;text-decoration-color:#000;letter-spacing:normal;word-spacing:normal;text-transform:none;writing-mode:lr-tb;direction:ltr;baseline-shift:baseline;text-anchor:start;white-space:normal;clip-rule:nonzero;display:inline;overflow:visible;visibility:visible;isolation:auto;mix-blend-mode:normal;color-interpolation:sRGB;color-interpolation-filters:linearRGB;solid-color:#000;solid-opacity:1;fill:#708ee1;fill-opacity:1;fill-rule:evenodd;stroke:none;stroke-width:1.04981;stroke-linecap:butt;stroke-linejoin:round;stroke-miterlimit:4;stroke-dasharray:none;stroke-dashoffset:0;stroke-opacity:1;color-rendering:auto;image-rendering:auto;shape-rendering:auto;text-rendering:auto;enable-background:accumulate"/><path d="M336.53 42.796a.525.525 0 0 0-.372.154l-2.1 2.1a.525.525 0 0 0 0 .742l2.1 2.1a.525.525 0 0 0 .371.153h4.2a.525.525 0 0 0 .524-.524v-4.2a.525.525 0 0 0-.524-.525zm-.526 2.1a.525.525 0 0 1 .525.525.525.525 0 0 1-.525.525.525.525 0 0 1-.525-.525.525.525 0 0 1 .525-.525" style="color:#000;font-style:normal;font-variant:normal;font-weight:400;font-stretch:normal;font-size:medium;line-height:normal;font-family:sans-serif;text-indent:0;text-align:start;text-decoration:none;text-decoration-line:none;text-decoration-style:solid;text-decoration-color:#000;letter-spacing:normal;word-spacing:normal;text-transform:none;writing-mode:lr-tb;direction:ltr;baseline-shift:baseline;text-anchor:start;white-space:normal;clip-rule:nonzero;display:inline;overflow:visible;visibility:visible;isolation:auto;mix-blend-mode:normal;color-interpolation:sRGB;color-interpolation-filters:linearRGB;solid-color:#000;solid-opacity:1;fill:#aa96bd;fill-opacity:1;fill-rule:evenodd;stroke:none;stroke-width:1.04981;stroke-linecap:butt;stroke-linejoin:round;stroke-miterlimit:4;stroke-dasharray:none;stroke-dashoffset:0;stroke-opacity:1;color-rendering:auto;image-rendering:auto;shape-rendering:auto;text-rendering:auto;enable-background:accumulate"/><path d="M460.856 24.313a2.625 2.625 0 0 0-2.625 2.625v1.05h-.525v3.674h6.3v-3.675h-.526v-1.05a2.625 2.625 0 0 0-2.624-2.624m0 1.05a1.575 1.575 0 0 1 1.574 1.575v1.05h-3.149v-1.05a1.575 1.575 0 0 1 1.575-1.575m-.525 3.674h1.05v1.575h-1.05z" style="fill:#9a97cd;fill-opacity:1;stroke:none;stroke-width:1.57472;stroke-linecap:round;stroke-linejoin:round;stroke-miterlimit:4;stroke-dasharray:none;stroke-dashoffset:0;stroke-opacity:1"/><path d="M429.925 7.126a1.05 1.05 0 0 0-1.05 1.05 1.05 1.05 0 0 0 .525.908v3.433a1.05 1.05 0 0 0-.525.907 1.05 1.05 0 0 0 1.05 1.05 1.05 1.05 0 0 0 .908-.525h1.317l.393-1.05h-1.71a1.05 1.05 0 0 0-.383-.383V9.443l2.465 2.465.405-1.08-2.128-2.128h3.075a1.05 1.05 0 0 0 .382.384v.142a1.05 1.05 0 0 1 .013 0 1.05 1.05 0 0 1 .97.68l.067.178V9.083a1.05 1.05 0 0 0 .525-.908 1.05 1.05 0 0 0-1.05-1.05 1.05 1.05 0 0 0-.908.525h-3.434a1.05 1.05 0 0 0-.907-.525zm4.724 3.149-1.575 4.2 1.575-1.05 1.575 1.05z" style="fill:#9a97cd;fill-opacity:1;stroke:none;stroke-width:1.04981;stroke-linecap:round;stroke-linejoin:round;stroke-miterlimit:4;stroke-dasharray:none;stroke-dashoffset:0;stroke-opacity:1"/><path d="M403.125 4.056a1.575 3.674 0 0 0-1.092 1.033 3.674 1.575 45 0 0-1.506.044 3.674 1.575 45 0 0-.042 1.503 3.674 1.575 0 0 0-1.034 1.095 3.674 1.575 0 0 0 1.032 1.091 1.575 3.674 45 0 0 .044 1.506 1.575 3.674 45 0 0 1.503.042 1.575 3.674 0 0 0 1.095 1.035 1.575 3.674 0 0 0 1.092-1.033 3.674 1.575 45 0 0 1.506-.044 3.674 1.575 45 0 0 .042-1.503 3.674 1.575 0 0 0 1.034-1.095 3.674 1.575 0 0 0-1.032-1.091 1.575 3.674 45 0 0-.044-1.506 1.575 3.674 45 0 0-1.503-.042 1.575 3.674 0 0 0-1.095-1.035zm0 .525a1.05 3.15 0 0 1 .661.705 1.575 3.674 45 0 0-.66.4 3.674 1.575 45 0 0-.663-.399 1.05 3.15 0 0 1 .662-.706m-1.908.803a3.15 1.05 45 0 1 .648.152 1.575 3.674 0 0 0-.185.747 3.674 1.575 0 0 0-.75.188 3.15 1.05 45 0 1-.032-.967 3.15 1.05 45 0 1 .32-.12zm3.715.002a1.05 3.15 45 0 1 .42.118 1.05 3.15 45 0 1-.032.966 3.674 1.575 0 0 0-.747-.185 1.575 3.674 0 0 0-.188-.75 1.05 3.15 45 0 1 .546-.15zm-2.624.37a3.15 1.05 45 0 1 .389.248 1.575 3.674 45 0 0-.217.178 3.674 1.575 0 0 0-.274.026 1.05 3.15 0 0 1 .102-.451zm1.635.002a1.05 3.15 0 0 1 .1.449 3.674 1.575 0 0 0-.278-.027 3.674 1.575 45 0 0-.212-.176 1.05 3.15 45 0 1 .39-.246m-.818.923a3.15 1.05 0 0 1 .43.012 3.15 1.05 45 0 1 .312.296 3.15 1.05 45 0 1 .297.312 1.05 3.15 0 0 1 .012.43 1.05 3.15 0 0 1-.012.431 1.05 3.15 45 0 1-.297.312 1.05 3.15 45 0 1-.311.296 3.15 1.05 0 0 1-.43.013 3.15 1.05 0 0 1-.431-.013 3.15 1.05 45 0 1-.312-.296 3.15 1.05 45 0 1-.296-.312 1.05 3.15 0 0 1-.012-.43 1.05 3.15 0 0 1 .012-.43 1.05 3.15 45 0 1 .296-.313 1.05 3.15 45 0 1 .312-.296 3.15 1.05 0 0 1 .43-.012m1.523.13a3.15 1.05 0 0 1 .45.102 1.05 3.15 45 0 1-.246.389 3.674 1.575 45 0 0-.179-.216 1.575 3.674 0 0 0-.025-.275zm-3.046.002a1.575 3.674 0 0 0-.027.278 1.575 3.674 45 0 0-.176.212 3.15 1.05 45 0 1-.246-.39 3.15 1.05 0 0 1 .449-.1zm3.966.255a3.15 1.05 0 0 1 .707.662 3.15 1.05 0 0 1-.706.662 3.674 1.575 45 0 0-.399-.66 1.575 3.674 45 0 0 .398-.664m-4.887.001a3.674 1.575 45 0 0 .399.66 1.575 3.674 45 0 0-.398.664 3.15 1.05 0 0 1-.706-.662 3.15 1.05 0 0 1 .705-.661zm2.444.136a.525.525 0 0 0-.525.525.525.525 0 0 0 .525.525.525.525 0 0 0 .525-.525.525.525 0 0 0-.525-.525m1.727.953a3.15 1.05 45 0 1 .246.39 3.15 1.05 0 0 1-.45.1 1.575 3.674 0 0 0 .027-.278 1.575 3.674 45 0 0 .177-.212m-3.453 0a3.674 1.575 45 0 0 .178.217 1.575 3.674 0 0 0 .026.275 3.15 1.05 0 0 1-.451-.103 1.05 3.15 45 0 1 .247-.388zm-.469.832a3.674 1.575 0 0 0 .748.186 1.575 3.674 0 0 0 .187.75 1.05 3.15 45 0 1-.967.03 1.05 3.15 45 0 1 .032-.966m4.391 0a3.15 1.05 45 0 1 .03.967 3.15 1.05 45 0 1-.966-.032 1.575 3.674 0 0 0 .186-.747 3.674 1.575 0 0 0 .75-.188zm-1.276.263a1.05 3.15 0 0 1-.103.45 3.15 1.05 45 0 1-.388-.246 1.575 3.674 45 0 0 .216-.179 3.674 1.575 0 0 0 .275-.025zm-1.837 0a3.674 1.575 0 0 0 .277.027 3.674 1.575 45 0 0 .213.177 1.05 3.15 45 0 1-.391.246 1.05 3.15 0 0 1-.1-.45zm.916.522a3.674 1.575 45 0 0 .663.398 1.05 3.15 0 0 1-.662.707 1.05 3.15 0 0 1-.661-.706 1.575 3.674 45 0 0 .66-.399" style="fill:#708ee1;fill-opacity:1;stroke:none;stroke-width:1.04981;stroke-linecap:round;stroke-linejoin:round;stroke-miterlimit:4;stroke-dasharray:none;stroke-dashoffset:0;stroke-opacity:.996078"/><path d="M405.22 42.855a3.674 3.674 0 0 0-3.675 3.675 3.674 3.674 0 0 0 .642 2.075 3.674 3.674 0 0 0 .159.214v-.004a3.674 3.674 0 0 0 2.874 1.39 3.674 3.674 0 0 0 1.701-.422h.002a3.674 3.674 0 0 0 .018-.012 3.674 3.674 0 0 0 .224-.13 3.674 3.674 0 0 0 .09-.055 3.674 3.674 0 0 0 .193-.142 3.674 3.674 0 0 0 .108-.082 3.674 3.674 0 0 0 .179-.162 3.674 3.674 0 0 0 .086-.08 3.674 3.674 0 0 0 .173-.19 3.674 3.674 0 0 0 .074-.084 3.674 3.674 0 0 0 .146-.196 3.674 3.674 0 0 0 .073-.103 3.674 3.674 0 0 0 .114-.19 3.674 3.674 0 0 0 .075-.13 3.674 3.674 0 0 0 .082-.176 3.674 3.674 0 0 0 .073-.163 3.674 3.674 0 0 0 .056-.162 3.674 3.674 0 0 0 .063-.185 3.674 3.674 0 0 0 .046-.194 3.674 3.674 0 0 0 .035-.154 3.674 3.674 0 0 0 .03-.21 3.674 3.674 0 0 0 .02-.164 3.674 3.674 0 0 0 .013-.29 3.674 3.674 0 0 0-2.305-3.408 3.674 3.674 0 0 0-.001 0 3.674 3.674 0 0 0-.347-.12 3.674 3.674 0 0 0-.004-.001 3.674 3.674 0 0 0-.289-.069 3.674 3.674 0 0 0-.074-.016 3.674 3.674 0 0 0-.289-.037 3.674 3.674 0 0 0-.075-.01 3.674 3.674 0 0 0-.29-.014zm1.024.7a3.15 3.15 0 0 1 2.125 2.975h-3.674a1.05 1.05 0 0 0-.499-.892c.707-1.065 1.367-1.713 2.048-2.082zM402.66 44.7c.076.341.188.673.358.989a1.05 1.05 0 0 0-.423.84h-.525a3.15 3.15 0 0 1 .59-1.83zm.985.78a1.05 1.05 0 0 0-.057.002 1.05 1.05 0 0 1 .057-.002m-.1.006a1.05 1.05 0 0 0-.063.007 1.05 1.05 0 0 1 .063-.007m-.231.05a1.05 1.05 0 0 0-.03.01 1.05 1.05 0 0 1 .03-.01m-.714 1.08a1.05 1.05 0 0 0 .008.063 1.05 1.05 0 0 1-.008-.062m.014.11a1.05 1.05 0 0 0 .01.042 1.05 1.05 0 0 1-.01-.042m.386.63a1.05 1.05 0 0 0 .644.223 1.05 1.05 0 0 0 .552-.158c.706 1.064 1.365 1.714 2.045 2.084a3.15 3.15 0 0 1-1.022.174 3.15 3.15 0 0 1-2.653-1.454 5.77 5.77 0 0 1 .434-.87z" style="fill:#708ee1;fill-opacity:1;stroke:none;stroke-width:1.04981;stroke-linecap:butt;stroke-linejoin:bevel;stroke-miterlimit:4;stroke-dasharray:none;stroke-dashoffset:0;stroke-opacity:1"/><path d="M338.445 55.559c-.58 0-1.05.47-1.05 1.05v5.249c0 .58.47 1.05 1.05 1.05h5.25c.58 0 1.05-.47 1.05-1.05v-4.725l-1.575-1.574h-.525v3.149h-4.2zm.525 0v2.624h1.575V55.56zm2.1 4.199a1.05 1.05 0 1 1 0 2.1 1.05 1.05 0 0 1 0-2.1" style="fill:#9a97cd;fill-opacity:1;stroke:none;stroke-width:1.57472;stroke-linecap:round;stroke-linejoin:round;stroke-miterlimit:4;stroke-dasharray:none;stroke-dashoffset:0;stroke-opacity:1"/><path d="M346.319 23.953a.525.525 0 0 0-.525.525v4.769c0 .265.235.48.525.48h4.2c.289 0 .524-.215.524-.48v-4.769a.525.525 0 0 0-.525-.525zm-1.575 1.05v4.724a1.05 1.05 0 0 0 1.05 1.05h5.25a1.05 1.05 0 0 0 1.049-1.05v-4.724h-.525v4.724a.525.525 0 0 1-.525.525h-5.249a.525.525 0 0 1-.525-.525v-4.724zm3.15 0h1.574l-.524 1.575h1.05l-2.1 2.1.525-1.575h-1.05z" style="fill:#708ee1;fill-opacity:1;stroke:none;stroke-width:1.04981;stroke-linecap:round;stroke-linejoin:round;stroke-miterlimit:4;stroke-dasharray:none;stroke-dashoffset:0;stroke-opacity:1"/><path d="M465.12 52.263a.525.525 0 0 0-.526.525v1.938c-.937.455-1.574 1.292-1.574 2.26h2.1a1.05 1.05 0 0 0 1.05 1.05 1.05 1.05 0 0 0 1.049-1.05h2.1c0-.968-.638-1.805-1.575-2.26v-1.938a.525.525 0 0 0-.525-.525zm-.577 5.057-.91.525.526.908.91-.525zm3.252 0-.525.908.91.525.524-.908zm-2.15 1.242v1.05h1.049v-1.05z" style="fill:#aa96bd;fill-opacity:1;stroke:none;stroke-width:1.04981;stroke-linecap:butt;stroke-linejoin:bevel;stroke-miterlimit:4;stroke-dasharray:none;stroke-dashoffset:0;stroke-opacity:.996078"/><path d="M365.806 41.267a.525.525 0 0 0-.203.04l-.005.003a.525.525 0 0 0-.163.11l-.002.001a.525.525 0 0 0-.107.16l-.006.01a.525.525 0 0 0-.04.2c0 .787.507 1.378.983 1.921.4.457.743.863.984 1.229-.241.366-.585.772-.984 1.229-.476.543-.983 1.133-.983 1.92a.525.525 0 0 0 .04.204v.001c.001.001.003.002.003.004a.525.525 0 0 0 .11.16l.001.005a.525.525 0 0 0 .158.106l.014.006a.525.525 0 0 0 .198.04h5.249a.525.525 0 0 0 .197-.038.105.105 0 0 0 .016-.007.525.525 0 0 0 .153-.105l.008-.007a.525.525 0 0 0 .106-.155l.006-.014a.525.525 0 0 0 .04-.198c0-.787-.507-1.376-.983-1.92-.4-.456-.743-.863-.984-1.229.24-.366.585-.772.984-1.228.476-.544.983-1.134.983-1.921a.525.525 0 0 0-.041-.205.525.525 0 0 0-.113-.166.525.525 0 0 0-.163-.111.525.525 0 0 0-.006-.004.525.525 0 0 0-.202-.04zm.834 1.05h3.582c-.125.23-.16.414-.414.704-.443.506-.997 1.035-1.322 1.685a.525.525 0 0 0-.055.235.525.525 0 0 0-.055-.235c-.326-.65-.879-1.18-1.322-1.685-.254-.29-.29-.473-.414-.705z" style="fill:#aa96bd;fill-opacity:1;stroke:none;stroke-width:.971936;stroke-linecap:round;stroke-linejoin:round;stroke-miterlimit:4;stroke-dasharray:none;stroke-opacity:1"/><path d="M469.837 6.583c-1.05 1.05-3.675 2.1-3.675 4.2 0 2.099 1.575 3.149 3.675 3.149-3.675-1.575-3.464-4.044 0-6.824-1.207 2.074-2.885 4.682 0 6.824 2.556-2.225 1.455-4.295.525-6.3 2.932 2.47 2.834 4.54-.525 6.3 2.1 0 3.674-1.05 3.674-3.15 0-2.1-2.624-3.15-3.674-4.199" style="fill:#708ee1;fill-opacity:1;stroke:none;stroke-width:1.04981;stroke-linecap:round;stroke-linejoin:miter;stroke-miterlimit:4;stroke-dasharray:none;stroke-dashoffset:0;stroke-opacity:1"/><path d="M505.278 54.643v1.05h6.3v-1.05zm-.525 1.575v4.724a1.05 1.05 0 0 0 1.05 1.05h5.25a1.05 1.05 0 0 0 1.05-1.05v-4.724zm1.05.525h.525v.525h-.525zm1.575 0h.525v.525h-.525zm1.575 0h.525v.525h-.525zm1.574 0h.525v.525h-.525zm-4.724 1.05h5.25v3.15h-5.25zm1.575.525v.525h2.1v-.525z" style="fill:#708ee1;fill-opacity:1;stroke:none;stroke-width:1.57472;stroke-linecap:round;stroke-linejoin:round;stroke-miterlimit:4;stroke-dasharray:none;stroke-dashoffset:0;stroke-opacity:1"/><path d="M508.84 11.844c-.917 0-1.747.119-2.393.334-.323.108-.602.237-.834.42-.233.184-.447.463-.447.82v4.2c0 .358.214.638.447.821.232.183.511.313.834.42.646.216 1.476.334 2.393.334.917 0 1.747-.118 2.393-.334.323-.107.602-.237.834-.42.233-.183.447-.463.447-.821v-4.2c0-.357-.214-.636-.447-.82-.232-.183-.511-.312-.834-.42-.646-.215-1.476-.334-2.393-.334zm0 1.05c.823 0 1.568.116 2.062.28.243.082.42.178.508.246a1.858 1.858 0 0 1-.508.244c-.494.164-1.24.28-2.062.28-.822 0-1.568-.116-2.062-.28a1.854 1.854 0 0 1-.508-.244c.088-.068.265-.164.508-.245.494-.165 1.24-.281 2.062-.281m-2.624 1.673c.077.03.148.066.231.093.646.216 1.476.333 2.393.333.917 0 1.747-.117 2.393-.333.083-.027.154-.062.232-.093v3.05c-.088.069-.32.165-.563.246-.494.165-1.24.28-2.062.28-.822 0-1.568-.116-2.062-.28-.243-.081-.474-.177-.562-.245z" style="color:#000;font-style:normal;font-variant:normal;font-weight:400;font-stretch:normal;font-size:medium;line-height:normal;font-family:sans-serif;font-variant-ligatures:normal;font-variant-position:normal;font-variant-caps:normal;font-variant-numeric:normal;font-variant-alternates:normal;font-feature-settings:normal;text-indent:0;text-align:start;text-decoration:none;text-decoration-line:none;text-decoration-style:solid;text-decoration-color:#000;letter-spacing:normal;word-spacing:normal;text-transform:none;writing-mode:lr-tb;direction:ltr;text-orientation:mixed;dominant-baseline:auto;baseline-shift:baseline;text-anchor:start;white-space:normal;shape-padding:0;clip-rule:nonzero;display:inline;overflow:visible;visibility:visible;isolation:auto;mix-blend-mode:normal;color-interpolation:sRGB;color-interpolation-filters:linearRGB;solid-color:#000;solid-opacity:1;vector-effect:none;fill:#9a97cd;fill-opacity:1;fill-rule:nonzero;stroke:none;stroke-width:1.04981;stroke-linecap:butt;stroke-linejoin:miter;stroke-miterlimit:4;stroke-dasharray:none;stroke-dashoffset:0;stroke-opacity:1;color-rendering:auto;image-rendering:auto;shape-rendering:auto;text-rendering:auto;enable-background:accumulate"/><g style="fill:#708ee1;fill-opacity:1"><path d="M7.982 1a1 1 0 0 0-.814.445L2.467 8.498c-.801.582-1.38 1.356-1.45 2.315A1 1 0 0 0 1 11c0 .214.034.416.082.613l.023.084c.054.192.128.375.221.55.197.367.471.696.803.985.008.007.013.017.021.024.017.015.038.026.055.04.103.087.213.166.324.245.24.17.491.33.77.47l.008.005.004.002.027.011c.265.131.552.246.85.352.104.038.212.071.32.105.073.023.14.051.215.073.167.048.341.086.513.127.094.022.182.048.278.068l.033.006a11.802 11.802 0 0 0 1.23.18 12.566 12.566 0 0 0 2.62-.018c.356-.04.71-.091 1.056-.162l.033-.006c.096-.02.184-.046.278-.068.172-.041.346-.079.513-.127.075-.022.142-.05.215-.073.108-.034.216-.067.32-.105.298-.106.585-.22.85-.352l.031-.013.008-.004c.279-.14.53-.301.77-.47.111-.08.22-.159.324-.245.017-.015.038-.026.055-.041.008-.007.013-.016.021-.024a3.53 3.53 0 0 0 .803-.986c.093-.174.167-.357.22-.549A2.564 2.564 0 0 0 15 11a1 1 0 0 0-.017-.182 1 1 0 0 0-.002-.017c-.073-.953-.649-1.723-1.447-2.303L8.832 1.445A1 1 0 0 0 7.982 1M7 5.303v1.746c-.44.033-.864.088-1.273.164Zm2 0 1.273 1.91A11.91 11.91 0 0 0 9 7.049ZM7 9.05V11a1 1 0 1 0 2 0V9.05c1.113.106 2.095.374 2.795.723.121.061.206.123.307.184l.8 1.201c-.033.147-.09.307-.304.518-.052.049-.1.098-.164.148-.046.036-.092.07-.143.106a3.99 3.99 0 0 1-.629.353 5.879 5.879 0 0 1-.521.213 8.179 8.179 0 0 1-.963.273c-.022.005-.041.012-.063.016a11.166 11.166 0 0 1-4.23 0c-.022-.004-.041-.01-.063-.015a8.176 8.176 0 0 1-.744-.202 5.878 5.878 0 0 1-.979-.402 3.99 3.99 0 0 1-.533-.342c-.063-.05-.112-.1-.164-.148-.215-.211-.271-.371-.304-.518l.8-1.201c.1-.061.186-.123.307-.184.7-.35 1.682-.617 2.795-.722" style="color:#000;font-style:normal;font-variant:normal;font-weight:400;font-stretch:normal;font-size:medium;line-height:normal;font-family:sans-serif;font-variant-ligatures:normal;font-variant-position:normal;font-variant-caps:normal;font-variant-numeric:normal;font-variant-alternates:normal;font-feature-settings:normal;text-indent:0;text-align:start;text-decoration:none;text-decoration-line:none;text-decoration-style:solid;text-decoration-color:#000;letter-spacing:normal;word-spacing:normal;text-transform:none;writing-mode:lr-tb;direction:ltr;text-orientation:mixed;dominant-baseline:auto;baseline-shift:baseline;text-anchor:start;white-space:normal;shape-padding:0;clip-rule:nonzero;display:inline;overflow:visible;visibility:visible;opacity:1;isolation:auto;mix-blend-mode:normal;color-interpolation:sRGB;color-interpolation-filters:linearRGB;solid-color:#000;solid-opacity:1;vector-effect:none;fill:#708ee1;fill-opacity:1;fill-rule:nonzero;stroke:none;stroke-width:2;stroke-linecap:round;stroke-linejoin:round;stroke-miterlimit:4;stroke-dasharray:none;stroke-dashoffset:0;stroke-opacity:1;color-rendering:auto;image-rendering:auto;shape-rendering:auto;text-rendering:auto;enable-background:accumulate" transform="translate(435.919 44.7)scale(.5249)"/></g><rect width="2.226" height="2.226" x="109.864" y="185.241" ry="0" style="opacity:.528;fill:url(#k);fill-opacity:1;fill-rule:nonzero;stroke:#005ed9;stroke-width:0;stroke-linecap:round;stroke-linejoin:round;stroke-miterlimit:4;stroke-dasharray:none;stroke-dashoffset:0;stroke-opacity:1" transform="rotate(-45)"/><rect width="2.226" height="2.226" x="95.911" y="123.041" ry="0" style="opacity:.528;fill:url(#m);fill-opacity:1;fill-rule:nonzero;stroke:#005ed9;stroke-width:0;stroke-linecap:round;stroke-linejoin:round;stroke-miterlimit:4;stroke-dasharray:none;stroke-dashoffset:0;stroke-opacity:1" transform="rotate(-45)"/><rect width="2.226" height="2.226" x="12.414" y="93.196" ry="0" style="opacity:.528;fill:url(#n);fill-opacity:1;fill-rule:nonzero;stroke:#005ed9;stroke-width:0;stroke-linecap:round;stroke-linejoin:round;stroke-miterlimit:4;stroke-dasharray:none;stroke-dashoffset:0;stroke-opacity:1" transform="rotate(-45)"/><rect width="2.226" height="2.226" x="-8.417" y="36.004" ry="0" style="opacity:.528;fill:url(#o);fill-opacity:1;fill-rule:nonzero;stroke:#005ed9;stroke-width:0;stroke-linecap:round;stroke-linejoin:round;stroke-miterlimit:4;stroke-dasharray:none;stroke-dashoffset:0;stroke-opacity:1" transform="rotate(-45)"/><rect width="2.226" height="2.226" x="175.049" y="255.751" ry="0" style="opacity:.528;fill:url(#q);fill-opacity:1;fill-rule:nonzero;stroke:#005ed9;stroke-width:0;stroke-linecap:round;stroke-linejoin:round;stroke-miterlimit:4;stroke-dasharray:none;stroke-dashoffset:0;stroke-opacity:1" transform="rotate(-45)"/><rect width="2.226" height="2.226" x="168.381" y="210.645" ry="0" style="opacity:.528;fill:url(#r);fill-opacity:1;fill-rule:nonzero;stroke:#005ed9;stroke-width:0;stroke-linecap:round;stroke-linejoin:round;stroke-miterlimit:4;stroke-dasharray:none;stroke-dashoffset:0;stroke-opacity:1" transform="rotate(-45)"/><rect width="2.226" height="2.226" x="272.222" y="301.589" ry="0" style="opacity:.528;fill:url(#s);fill-opacity:1;fill-rule:nonzero;stroke:#005ed9;stroke-width:0;stroke-linecap:round;stroke-linejoin:round;stroke-miterlimit:4;stroke-dasharray:none;stroke-dashoffset:0;stroke-opacity:1" transform="rotate(-45)"/><rect width="2.226" height="2.226" x="263.771" y="330.674" ry="0" style="opacity:.528;fill:url(#t);fill-opacity:1;fill-rule:nonzero;stroke:#005ed9;stroke-width:0;stroke-linecap:round;stroke-linejoin:round;stroke-miterlimit:4;stroke-dasharray:none;stroke-dashoffset:0;stroke-opacity:1" transform="rotate(-45)"/><rect width="2.226" height="2.226" x="335.65" y="353.126" ry="0" style="opacity:.528;fill:url(#u);fill-opacity:1;fill-rule:nonzero;stroke:#005ed9;stroke-width:0;stroke-linecap:round;stroke-linejoin:round;stroke-miterlimit:4;stroke-dasharray:none;stroke-dashoffset:0;stroke-opacity:1" transform="rotate(-45)"/><rect width="2.226" height="2.226" x="297.875" y="350.878" ry="0" style="opacity:.528;fill:url(#v);fill-opacity:1;fill-rule:nonzero;stroke:#005ed9;stroke-width:0;stroke-linecap:round;stroke-linejoin:round;stroke-miterlimit:4;stroke-dasharray:none;stroke-dashoffset:0;stroke-opacity:1" transform="rotate(-45)"/><rect width="2.226" height="2.226" x="308.146" y="385.027" ry="0" style="opacity:.528;fill:url(#w);fill-opacity:1;fill-rule:nonzero;stroke:#005ed9;stroke-width:0;stroke-linecap:round;stroke-linejoin:round;stroke-miterlimit:4;stroke-dasharray:none;stroke-dashoffset:0;stroke-opacity:1" transform="rotate(-45)"/><path d="M0 0h529.167v66.146H0z" style="display:inline;fill:#9ac3dd;fill-opacity:.74000001;fill-rule:nonzero;stroke:none;stroke-width:2.12308;stroke-linecap:butt;stroke-linejoin:miter;stroke-miterlimit:3.8;stroke-dasharray:.212308,.212308;stroke-dashoffset:0;stroke-opacity:1"/></svg>